<svg xmlns="http://www.w3.org/2000/svg" viewBox="0 0 99.43728540069375 95.1338663837401" preserveAspectRatio="none">
  <path d="M74.9,33.2C74.7,33.0 75.0,33.1 74.6,32.8C74.1,32.4 74.7,33.0 74.0,32.4C73.3,31.9 74.0,32.4 73.2,31.7C72.5,31.0 73.1,31.5 72.5,31.0C71.8,30.4 72.4,31.0 71.9,30.6C71.4,30.3 72.1,30.8 71.4,30.3C70.7,29.8 71.3,30.1 70.5,29.6C69.7,29.1 70.5,29.6 69.7,29.3C69.0,29.0 69.8,29.5 69.0,29.0C68.2,28.5 69.0,29.0 68.1,28.3C67.3,27.5 68.0,27.8 67.3,27.5C66.5,27.2 67.4,27.9 66.6,27.7C65.9,27.5 66.6,27.7 65.8,27.2C64.9,26.7 65.8,27.3 64.9,26.7C64.0,26.1 64.8,26.5 63.9,26.0C63.0,25.5 63.9,26.0 63.1,25.7C62.3,25.4 63.3,25.9 62.2,25.4C61.2,25.0 62.1,25.2 61.1,24.8C60.0,24.3 61.1,24.8 60.2,24.5C59.3,24.2 60.2,24.7 59.3,24.2C58.3,23.7 59.3,24.0 58.3,23.5C57.3,23.1 58.3,23.5 57.3,23.3C56.4,23.0 57.3,23.3 56.4,23.0C55.5,22.7 56.4,23.0 55.5,22.7C54.6,22.5 55.5,22.7 54.6,22.5C53.7,22.2 54.2,22.3 53.7,22.2" fill="none" stroke="#ef4444" stroke-width="0.8" stroke-linecap="round" stroke-linejoin="round" opacity="0.9"/>
  <path d="M69.7,24.0C69.4,23.6 69.5,23.8 69.1,23.2C68.7,22.6 69.1,23.2 68.9,22.8C68.6,22.4 68.9,23.0 68.6,22.4C68.3,21.8 68.5,22.4 68.2,21.6C67.9,20.8 68.2,21.4 68.0,20.8C67.8,20.2 67.9,20.6 67.8,20.4" fill="none" stroke="#ef4444" stroke-width="0.8" stroke-linecap="round" stroke-linejoin="round" opacity="0.9"/>
  <path d="M82.4,16.7C82.7,16.4 82.6,16.9 82.9,16.1C83.2,15.4 82.8,15.9 83.0,15.2C83.2,14.5 83.0,15.2 83.2,14.8C83.5,14.3 83.3,15.0 83.5,14.3C83.6,13.6 83.4,14.1 83.6,13.4C83.7,12.7 83.7,13.1 83.8,12.9" fill="none" stroke="#ef4444" stroke-width="0.8" stroke-linecap="round" stroke-linejoin="round" opacity="0.9"/>
  <path d="M77.1,50.8C77.1,50.6 77.1,51.1 77.0,50.4C76.9,49.8 77.0,50.4 77.0,49.5C76.9,48.7 76.8,49.1 76.9,48.7C77.1,48.2 77.2,49.1 77.2,48.6C77.3,48.1 77.1,48.4 77.1,47.7C77.0,47.1 77.2,47.9 77.1,47.3C77.0,46.6 77.0,47.1 76.9,46.5C76.9,45.8 76.9,46.5 77.0,46.0C77.1,45.5 77.1,46.2 77.2,45.5C77.2,44.8 77.0,45.3 77.1,44.6C77.2,44.0 77.1,44.6 77.3,44.2C77.5,43.7 77.3,44.2 77.5,43.7C77.7,43.2 77.5,43.7 77.7,43.2C77.8,42.7 77.8,43.4 77.9,42.7C77.9,42.1 77.8,42.5 77.9,41.9C77.9,41.2 77.9,41.9 77.9,41.4C77.9,41.0 77.9,41.6 77.9,41.0C77.8,40.3 77.9,41.0 77.8,40.1C77.7,39.2 77.6,39.7 77.7,39.2C77.9,38.8 78.1,39.6 78.1,39.2C78.0,38.7 78.0,39.1 77.7,38.3C77.4,37.6 77.7,38.3 77.4,37.7C77.2,37.1 77.4,37.6 77.2,37.1C77.0,36.6 77.2,37.3 77.1,36.7C76.9,36.1 77.2,36.7 76.8,35.9C76.4,35.1 76.7,35.7 76.3,35.1C75.9,34.5 76.1,34.9 76.0,34.7" fill="none" stroke="#fbbf24" stroke-width="0.6" stroke-linecap="round" stroke-linejoin="round" opacity="0.7"/>
  <path d="M80.9,36.4C80.7,36.2 81.0,36.6 80.6,36.0C80.2,35.4 80.7,36.0 80.1,35.2C79.5,34.5 80.0,35.0 79.4,34.5C78.8,33.9 79.2,34.3 78.9,34.2C78.5,34.0 79.0,34.6 78.7,34.2C78.3,33.8 78.7,34.2 78.1,33.4C77.6,32.6 78.0,33.2 77.6,32.6C77.1,32.1 77.6,32.6 77.1,32.3C76.7,31.9 77.1,32.3 76.7,31.9C76.2,31.6 76.7,32.1 76.2,31.6C75.6,31.0 76.0,31.4 75.5,30.8C75.0,30.3 75.5,30.8 75.1,30.5C74.7,30.1 75.2,30.7 74.7,30.1C74.2,29.5 74.7,30.1 74.1,29.3C73.4,28.6 73.9,29.1 73.4,28.6C72.9,28.0 73.4,28.6 73.0,28.2C72.6,27.8 73.1,28.4 72.6,27.8C72.2,27.3 72.6,27.6 72.1,27.1C71.6,26.5 72.1,27.1 71.7,26.7C71.3,26.3 71.7,26.9 71.3,26.3C70.8,25.8 71.2,26.1 70.7,25.6C70.3,25.0 70.8,25.8 70.4,25.2C70.0,24.6 71.2,26.8 69.9,24.4C68.6,22.0 68.9,22.6 67.8,20.4C66.7,18.2 67.8,20.6 67.7,20.0C67.6,19.3 67.7,20.0 67.6,19.1C67.4,18.2 67.4,18.7 67.4,18.2C67.5,17.8 67.6,18.6 67.7,18.2C67.8,17.7 67.6,18.1 67.6,17.3C67.6,16.6 67.6,17.3 67.6,16.6C67.7,16.0 67.5,16.4 67.7,16.0C67.9,15.6 67.9,15.9 68.1,15.9" fill="none" stroke="#fbbf24" stroke-width="0.6" stroke-linecap="round" stroke-linejoin="round" opacity="0.7"/>
  <path d="M70.3,9.3C70.4,9.0 70.3,9.3 70.6,8.8C70.9,8.3 70.5,8.8 70.9,8.3C71.2,7.8 70.9,8.3 71.3,7.8C71.7,7.3 71.4,7.8 71.7,7.3C72.0,6.8 71.7,7.3 71.9,6.8C72.2,6.3 72.1,6.5 72.2,6.3" fill="none" stroke="#fbbf24" stroke-width="0.6" stroke-linecap="round" stroke-linejoin="round" opacity="0.7"/>
  <path d="M82.5,38.3C82.9,38.2 82.5,38.3 83.3,38.2C84.0,38.0 83.2,38.2 84.0,38.0C84.8,37.9 84.1,38.0 84.8,37.9C85.6,37.7 84.7,37.7 85.5,37.7C86.4,37.8 85.6,37.9 86.5,38.0C87.5,38.0 86.6,38.0 87.4,37.8C88.2,37.7 87.4,37.8 88.1,37.7C88.9,37.5 88.5,37.6 88.9,37.5" fill="none" stroke="#fbbf24" stroke-width="0.6" stroke-linecap="round" stroke-linejoin="round" opacity="0.7"/>
  <path d="M66.2,24.7C66.4,24.4 66.2,24.7 66.7,24.1C67.2,23.6 66.6,24.1 67.1,23.6C67.7,23.1 67.2,23.6 67.7,23.0C68.2,22.5 67.5,22.9 68.2,22.5C68.8,22.2 68.2,22.6 69.0,22.3C69.9,22.1 69.0,22.3 69.8,22.0C70.6,21.6 69.8,22.1 70.6,21.6C71.3,21.1 70.6,21.6 71.3,21.0C71.9,20.5 71.2,20.8 71.9,20.5C72.7,20.1 72.0,20.5 72.8,20.3C73.7,20.1 72.7,20.3 73.6,20.1C74.5,20.0 73.6,20.1 74.6,20.0C75.6,19.8 74.6,19.9 75.6,19.8C76.5,19.6 75.6,19.8 76.5,19.6C77.3,19.4 76.4,19.5 77.3,19.4C78.2,19.4 77.3,19.4 78.3,19.5C79.3,19.5 78.3,19.6 79.3,19.5C80.3,19.4 79.4,19.2 80.3,19.3C81.2,19.3 80.3,19.5 81.1,19.6C81.9,19.6 80.9,19.4 82.0,19.4C83.0,19.4 82.2,19.6 83.2,19.6C84.2,19.7 83.1,19.6 83.9,19.5C84.7,19.3 83.9,19.3 84.8,19.3C85.6,19.4 84.9,19.3 85.6,19.6C86.3,19.9 85.5,19.5 86.2,19.9C86.9,20.4 86.2,19.9 86.9,20.5C87.7,21.0 87.0,20.8 87.7,21.0C88.3,21.2 87.5,20.8 88.2,20.9C88.8,21.0 88.3,20.8 88.9,21.2C89.4,21.5 88.8,21.0 89.3,21.5C89.8,22.1 89.6,21.9 89.8,22.3" fill="none" stroke="#fbbf24" stroke-width="0.6" stroke-linecap="round" stroke-linejoin="round" opacity="0.7"/>
  <path d="M74.8,22.6C75.1,22.3 74.8,22.6 75.4,22.0C76.0,21.4 75.4,22.0 76.1,21.4C76.7,20.9 76.0,21.2 76.7,20.9C77.5,20.5 76.8,20.9 77.6,20.7C78.4,20.6 77.6,20.8 78.3,20.6C79.0,20.3 78.3,20.6 79.0,20.2C79.6,19.9 79.1,20.3 79.6,19.9C80.2,19.4 79.5,19.9 80.1,19.3C80.6,18.8 80.2,19.3 80.7,18.8C81.3,18.2 80.7,18.8 81.2,18.2C81.7,17.7 81.3,18.2 81.7,17.7C82.1,17.2 80.9,20.5 82.0,17.2C83.2,13.9 82.8,14.4 83.9,11.1C85.1,7.8 84.0,11.1 84.4,10.6C84.8,10.0 84.3,10.4 84.7,10.0C85.2,9.7 84.9,10.4 85.2,10.0C85.6,9.5 85.2,10.0 85.5,9.2C85.8,8.5 85.7,8.9 85.8,8.5" fill="none" stroke="#fbbf24" stroke-width="0.6" stroke-linecap="round" stroke-linejoin="round" opacity="0.7"/>
  <path d="M27.9,36.4C27.8,36.0 27.7,36.3 27.8,35.6C27.8,34.9 27.8,35.6 28.0,35.1C28.1,34.6 28.0,35.1 28.1,34.6C28.2,34.2 28.1,34.8 28.2,34.2C28.3,33.6 28.2,34.2 28.3,33.5C28.4,32.8 28.2,33.4 28.4,32.8C28.6,32.2 28.4,32.8 28.8,32.3C29.1,31.8 28.8,32.5 29.1,31.8C29.3,31.1 28.9,31.6 29.2,30.9C29.5,30.2 29.3,30.9 29.7,30.4C30.1,29.8 29.7,30.4 30.0,29.9C30.3,29.4 30.0,29.8 30.2,29.4C30.5,28.9 30.3,29.1 30.4,28.9" fill="none" stroke="#fbbf24" stroke-width="0.6" stroke-linecap="round" stroke-linejoin="round" opacity="0.7"/>
  <ellipse cx="44.5" cy="31.3" rx="3.5" ry="2.2" fill="#0c0c0c" stroke="#ef4444" stroke-width="0.4" opacity="0.95"/>
  <text x="44.5" y="32.2" text-anchor="middle" font-family="sans-serif" font-size="2.4" font-weight="700" fill="#ffffff" opacity="0.95">OR</text>
</svg>