<svg xmlns="http://www.w3.org/2000/svg" viewBox="0 0 99.43728540069375 95.1338663837401" preserveAspectRatio="none">
  <path d="M74.9,33.2C74.8,33.1 74.8,32.9 74.6,32.8C74.4,32.6 74.3,32.7 74.0,32.4C73.7,32.2 73.6,32.1 73.2,31.7C72.9,31.3 72.8,31.2 72.5,31.0C72.1,30.7 72.2,30.8 71.9,30.6C71.7,30.5 71.8,30.5 71.4,30.3C71.1,30.0 70.9,29.8 70.5,29.6C70.1,29.3 70.1,29.4 69.7,29.3C69.4,29.1 69.4,29.2 69.0,29.0C68.6,28.7 68.6,28.6 68.1,28.3C67.7,27.9 67.7,27.7 67.3,27.5C66.9,27.4 67.0,27.8 66.6,27.7C66.2,27.6 66.2,27.4 65.8,27.2C65.3,26.9 65.4,27.0 64.9,26.7C64.4,26.4 64.3,26.2 63.9,26.0C63.4,25.7 63.5,25.8 63.1,25.7C62.7,25.6 62.8,25.7 62.2,25.4C61.7,25.2 61.6,25.0 61.1,24.8C60.5,24.5 60.6,24.6 60.2,24.5C59.8,24.4 59.8,24.5 59.3,24.2C58.8,24.0 58.8,23.8 58.3,23.5C57.8,23.3 57.8,23.4 57.3,23.3C56.9,23.1 56.9,23.1 56.4,23.0C56.0,22.9 55.9,22.9 55.5,22.7C55.0,22.6 55.1,22.6 54.6,22.5C54.2,22.3 54.0,22.3 53.7,22.2" fill="none" stroke="#ef4444" stroke-width="0.8" stroke-linecap="round" stroke-linejoin="round" opacity="0.9"/>
  <path d="M69.7,24.0C69.5,23.8 69.3,23.5 69.1,23.2C68.9,22.9 69.0,23.0 68.9,22.8C68.7,22.6 68.8,22.7 68.6,22.4C68.4,22.1 68.4,22.0 68.2,21.6C68.1,21.2 68.1,21.1 68.0,20.8C67.9,20.5 67.8,20.5 67.8,20.4" fill="none" stroke="#ef4444" stroke-width="0.8" stroke-linecap="round" stroke-linejoin="round" opacity="0.9"/>
  <path d="M82.4,16.7C82.5,16.5 82.8,16.5 82.9,16.1C83.1,15.8 82.9,15.6 83.0,15.2C83.1,14.9 83.1,15.0 83.2,14.8C83.4,14.5 83.4,14.6 83.5,14.3C83.6,13.9 83.5,13.7 83.6,13.4C83.7,13.0 83.7,13.0 83.8,12.9" fill="none" stroke="#ef4444" stroke-width="0.8" stroke-linecap="round" stroke-linejoin="round" opacity="0.9"/>
  <path d="M77.1,50.8C77.1,50.7 77.1,50.7 77.0,50.4C77.0,50.1 77.0,50.0 77.0,49.5C77.0,49.1 76.9,48.9 76.9,48.7C77.0,48.4 77.2,48.8 77.2,48.6C77.3,48.4 77.1,48.1 77.1,47.7C77.0,47.4 77.2,47.6 77.1,47.3C77.1,47.0 76.9,46.8 76.9,46.5C76.9,46.1 76.9,46.2 77.0,46.0C77.1,45.8 77.1,45.9 77.2,45.5C77.2,45.2 77.1,45.0 77.1,44.6C77.2,44.3 77.2,44.4 77.3,44.2C77.4,43.9 77.4,43.9 77.5,43.7C77.6,43.5 77.6,43.5 77.7,43.2C77.8,43.0 77.8,43.1 77.9,42.7C77.9,42.4 77.9,42.2 77.9,41.9C77.9,41.5 77.9,41.6 77.9,41.4C77.9,41.2 77.9,41.3 77.9,41.0C77.9,40.6 77.8,40.5 77.8,40.1C77.8,39.7 77.7,39.5 77.7,39.2C77.8,39.0 78.1,39.4 78.1,39.2C78.0,38.9 77.9,38.7 77.7,38.3C77.6,38.0 77.6,38.0 77.4,37.7C77.3,37.4 77.3,37.4 77.2,37.1C77.1,36.9 77.2,37.0 77.1,36.7C77.0,36.4 77.0,36.3 76.8,35.9C76.6,35.5 76.5,35.4 76.3,35.1C76.1,34.8 76.0,34.8 76.0,34.7" fill="none" stroke="#fbbf24" stroke-width="0.6" stroke-linecap="round" stroke-linejoin="round" opacity="0.7"/>
  <path d="M80.9,36.4C80.8,36.3 80.8,36.3 80.6,36.0C80.4,35.7 80.4,35.6 80.1,35.2C79.8,34.9 79.7,34.8 79.4,34.5C79.1,34.2 79.0,34.2 78.9,34.2C78.7,34.1 78.9,34.4 78.7,34.2C78.5,34.0 78.4,33.8 78.1,33.4C77.8,33.0 77.8,32.9 77.6,32.6C77.3,32.4 77.3,32.5 77.1,32.3C76.9,32.1 76.9,32.1 76.7,31.9C76.4,31.7 76.5,31.9 76.2,31.6C75.9,31.3 75.8,31.1 75.5,30.8C75.2,30.5 75.3,30.6 75.1,30.5C74.9,30.3 75.0,30.4 74.7,30.1C74.5,29.8 74.4,29.7 74.1,29.3C73.7,28.9 73.7,28.9 73.4,28.6C73.2,28.3 73.2,28.4 73.0,28.2C72.8,28.0 72.9,28.1 72.6,27.8C72.4,27.5 72.4,27.3 72.1,27.1C71.9,26.8 71.9,26.9 71.7,26.7C71.5,26.5 71.5,26.6 71.3,26.3C71.0,26.0 71.0,25.8 70.7,25.6C70.5,25.3 70.6,25.5 70.4,25.2C70.2,24.9 70.6,25.6 69.9,24.4C69.3,23.2 68.4,21.5 67.8,20.4C67.2,19.3 67.7,20.3 67.7,20.0C67.6,19.6 67.6,19.5 67.6,19.1C67.5,18.7 67.4,18.5 67.4,18.2C67.5,18.0 67.7,18.4 67.7,18.2C67.8,18.0 67.6,17.7 67.6,17.3C67.6,16.9 67.6,17.0 67.6,16.6C67.7,16.3 67.6,16.2 67.7,16.0C67.8,15.8 68.0,15.9 68.1,15.9" fill="none" stroke="#fbbf24" stroke-width="0.6" stroke-linecap="round" stroke-linejoin="round" opacity="0.7"/>
  <path d="M70.3,9.3C70.3,9.2 70.4,9.0 70.6,8.8C70.7,8.5 70.7,8.6 70.9,8.3C71.1,8.0 71.1,8.0 71.3,7.8C71.5,7.5 71.5,7.5 71.7,7.3C71.9,7.0 71.8,7.0 71.9,6.8C72.1,6.5 72.1,6.4 72.2,6.3" fill="none" stroke="#fbbf24" stroke-width="0.6" stroke-linecap="round" stroke-linejoin="round" opacity="0.7"/>
  <path d="M82.5,38.3C82.7,38.3 82.9,38.2 83.3,38.2C83.6,38.1 83.6,38.1 84.0,38.0C84.4,37.9 84.5,37.9 84.8,37.9C85.2,37.8 85.1,37.7 85.5,37.7C85.9,37.8 86.1,38.0 86.5,38.0C87.0,38.0 87.0,37.9 87.4,37.8C87.8,37.7 87.7,37.7 88.1,37.7C88.5,37.6 88.7,37.6 88.9,37.5" fill="none" stroke="#fbbf24" stroke-width="0.6" stroke-linecap="round" stroke-linejoin="round" opacity="0.7"/>
  <path d="M66.2,24.7C66.3,24.5 66.4,24.4 66.7,24.1C66.9,23.9 66.9,23.9 67.1,23.6C67.4,23.3 67.5,23.3 67.7,23.0C68.0,22.8 67.8,22.7 68.2,22.5C68.5,22.3 68.6,22.5 69.0,22.3C69.4,22.2 69.4,22.2 69.8,22.0C70.2,21.8 70.2,21.8 70.6,21.6C70.9,21.4 70.9,21.3 71.3,21.0C71.6,20.7 71.5,20.7 71.9,20.5C72.3,20.3 72.4,20.4 72.8,20.3C73.2,20.2 73.2,20.2 73.6,20.1C74.1,20.1 74.1,20.0 74.6,20.0C75.1,19.9 75.1,19.9 75.6,19.8C76.0,19.7 76.0,19.7 76.5,19.6C76.9,19.5 76.8,19.5 77.3,19.4C77.7,19.4 77.8,19.4 78.3,19.5C78.8,19.5 78.8,19.5 79.3,19.5C79.8,19.4 79.9,19.3 80.3,19.3C80.8,19.3 80.7,19.5 81.1,19.6C81.5,19.6 81.5,19.4 82.0,19.4C82.5,19.4 82.7,19.6 83.2,19.6C83.7,19.6 83.5,19.6 83.9,19.5C84.3,19.4 84.3,19.3 84.8,19.3C85.2,19.4 85.2,19.5 85.6,19.6C85.9,19.8 85.9,19.7 86.2,19.9C86.5,20.1 86.6,20.2 86.9,20.5C87.3,20.7 87.3,20.9 87.7,21.0C88.0,21.1 87.8,20.8 88.2,20.9C88.5,20.9 88.6,21.0 88.9,21.2C89.2,21.3 89.0,21.3 89.3,21.5C89.5,21.8 89.7,22.1 89.8,22.3" fill="none" stroke="#fbbf24" stroke-width="0.6" stroke-linecap="round" stroke-linejoin="round" opacity="0.7"/>
  <path d="M74.8,22.6C75.0,22.4 75.1,22.3 75.4,22.0C75.7,21.7 75.8,21.7 76.1,21.4C76.4,21.2 76.3,21.1 76.7,20.9C77.1,20.7 77.2,20.8 77.6,20.7C78.0,20.6 78.0,20.7 78.3,20.6C78.7,20.4 78.6,20.4 79.0,20.2C79.3,20.0 79.4,20.1 79.6,19.9C79.9,19.6 79.8,19.6 80.1,19.3C80.3,19.1 80.5,19.0 80.7,18.8C81.0,18.5 81.0,18.5 81.2,18.2C81.4,18.0 81.5,18.0 81.7,17.7C81.9,17.4 81.5,18.8 82.0,17.2C82.6,15.5 83.3,12.7 83.9,11.1C84.5,9.4 84.2,10.8 84.4,10.6C84.6,10.3 84.5,10.2 84.7,10.0C85.0,9.9 85.0,10.2 85.2,10.0C85.4,9.7 85.4,9.6 85.5,9.2C85.7,8.9 85.7,8.7 85.8,8.5" fill="none" stroke="#fbbf24" stroke-width="0.6" stroke-linecap="round" stroke-linejoin="round" opacity="0.7"/>
  <path d="M27.9,36.4C27.9,36.2 27.7,35.9 27.8,35.6C27.8,35.3 27.9,35.3 28.0,35.1C28.0,34.9 28.0,34.9 28.1,34.6C28.1,34.4 28.1,34.5 28.2,34.2C28.2,33.9 28.2,33.8 28.3,33.5C28.3,33.2 28.3,33.1 28.4,32.8C28.5,32.5 28.6,32.6 28.8,32.3C28.9,32.1 29.0,32.2 29.1,31.8C29.2,31.5 29.0,31.3 29.2,30.9C29.3,30.5 29.5,30.6 29.7,30.4C29.9,30.1 29.9,30.1 30.0,29.9C30.1,29.6 30.1,29.6 30.2,29.4C30.4,29.1 30.4,29.0 30.4,28.9" fill="none" stroke="#fbbf24" stroke-width="0.6" stroke-linecap="round" stroke-linejoin="round" opacity="0.7"/>
  <ellipse cx="44.5" cy="31.3" rx="3.5" ry="3.7" fill="#0c0c0c" stroke="#ef4444" stroke-width="0.4" opacity="0.95"/>
  <text x="44.5" y="32.6" text-anchor="middle" font-family="sans-serif" font-size="3.5" font-weight="700" fill="#ffffff" opacity="0.95">OR</text>
</svg>