<svg xmlns="http://www.w3.org/2000/svg" viewBox="0 0 99.43728540069375 95.1338663837401" preserveAspectRatio="none">
  <path d="M74.9,33.2C74.8,33.0 74.9,33.0 74.6,32.8C74.3,32.5 74.4,32.8 74.0,32.4C73.5,32.1 73.7,32.2 73.2,31.7C72.7,31.2 72.9,31.3 72.5,31.0C72.0,30.6 72.3,30.9 71.9,30.6C71.6,30.4 71.9,30.6 71.4,30.3C71.0,29.9 71.1,29.9 70.5,29.6C69.9,29.2 70.2,29.5 69.7,29.3C69.3,29.1 69.6,29.3 69.0,29.0C68.5,28.6 68.7,28.7 68.1,28.3C67.6,27.8 67.8,27.7 67.3,27.5C66.8,27.3 67.1,27.8 66.6,27.7C66.1,27.5 66.3,27.5 65.8,27.2C65.2,26.8 65.5,27.1 64.9,26.7C64.3,26.3 64.5,26.3 63.9,26.0C63.3,25.7 63.7,25.9 63.1,25.7C62.6,25.5 62.9,25.7 62.2,25.4C61.6,25.1 61.7,25.1 61.1,24.8C60.4,24.5 60.8,24.7 60.2,24.5C59.6,24.3 59.9,24.5 59.3,24.2C58.7,23.9 59.0,23.8 58.3,23.5C57.7,23.2 58.0,23.4 57.3,23.3C56.7,23.1 57.0,23.2 56.4,23.0C55.8,22.8 56.1,22.9 55.5,22.7C54.9,22.6 55.2,22.7 54.6,22.5C54.0,22.3 54.0,22.3 53.7,22.2" fill="none" stroke="#ef4444" stroke-width="0.8" stroke-linecap="round" stroke-linejoin="round" opacity="0.9"/>
  <path d="M69.7,24.0C69.5,23.7 69.4,23.6 69.1,23.2C68.8,22.8 69.0,23.1 68.9,22.8C68.7,22.6 68.8,22.8 68.6,22.4C68.4,22.0 68.4,22.2 68.2,21.6C68.0,21.1 68.2,21.2 68.0,20.8C67.9,20.4 67.9,20.5 67.8,20.4" fill="none" stroke="#ef4444" stroke-width="0.8" stroke-linecap="round" stroke-linejoin="round" opacity="0.9"/>
  <path d="M82.4,16.7C82.6,16.5 82.7,16.6 82.9,16.1C83.1,15.7 82.9,15.7 83.0,15.2C83.1,14.8 83.1,15.1 83.2,14.8C83.4,14.4 83.4,14.7 83.5,14.3C83.6,13.8 83.5,13.8 83.6,13.4C83.7,12.9 83.7,13.0 83.8,12.9" fill="none" stroke="#ef4444" stroke-width="0.8" stroke-linecap="round" stroke-linejoin="round" opacity="0.9"/>
  <path d="M77.1,50.8C77.1,50.7 77.1,50.8 77.0,50.4C77.0,50.0 77.0,50.1 77.0,49.5C76.9,48.9 76.8,49.0 76.9,48.7C77.0,48.3 77.2,48.9 77.2,48.6C77.3,48.3 77.1,48.2 77.1,47.7C77.0,47.3 77.2,47.7 77.1,47.3C77.1,46.9 76.9,46.9 76.9,46.5C76.9,46.0 76.9,46.3 77.0,46.0C77.1,45.7 77.1,46.0 77.2,45.5C77.2,45.1 77.1,45.1 77.1,44.6C77.2,44.2 77.2,44.5 77.3,44.2C77.5,43.8 77.4,44.0 77.5,43.7C77.6,43.4 77.6,43.5 77.7,43.2C77.8,42.9 77.8,43.2 77.9,42.7C77.9,42.3 77.8,42.3 77.9,41.9C77.9,41.4 77.9,41.7 77.9,41.4C77.9,41.1 77.9,41.4 77.9,41.0C77.9,40.5 77.8,40.7 77.8,40.1C77.7,39.5 77.7,39.5 77.7,39.2C77.8,38.9 78.1,39.5 78.1,39.2C78.0,38.9 77.9,38.8 77.7,38.3C77.5,37.9 77.6,38.1 77.4,37.7C77.3,37.3 77.3,37.5 77.2,37.1C77.1,36.8 77.2,37.1 77.1,36.7C76.9,36.3 77.1,36.4 76.8,35.9C76.6,35.3 76.6,35.5 76.3,35.1C76.0,34.7 76.1,34.8 76.0,34.7" fill="none" stroke="#fbbf24" stroke-width="0.6" stroke-linecap="round" stroke-linejoin="round" opacity="0.7"/>
  <path d="M80.9,36.4C80.8,36.3 80.8,36.4 80.6,36.0C80.3,35.6 80.5,35.7 80.1,35.2C79.7,34.7 79.8,34.9 79.4,34.5C79.0,34.1 79.1,34.3 78.9,34.2C78.6,34.0 78.9,34.4 78.7,34.2C78.4,33.9 78.5,33.9 78.1,33.4C77.7,32.9 77.9,33.0 77.6,32.6C77.2,32.3 77.4,32.5 77.1,32.3C76.8,32.0 77.0,32.2 76.7,31.9C76.4,31.7 76.6,31.9 76.2,31.6C75.8,31.2 75.8,31.2 75.5,30.8C75.1,30.4 75.4,30.7 75.1,30.5C74.8,30.2 75.1,30.5 74.7,30.1C74.4,29.7 74.5,29.8 74.1,29.3C73.6,28.8 73.8,28.9 73.4,28.6C73.1,28.2 73.3,28.4 73.0,28.2C72.8,28.0 72.9,28.2 72.6,27.8C72.3,27.5 72.4,27.4 72.1,27.1C71.8,26.7 72.0,26.9 71.7,26.7C71.4,26.5 71.6,26.7 71.3,26.3C71.0,26.0 71.0,25.9 70.7,25.6C70.5,25.2 70.7,25.6 70.4,25.2C70.1,24.8 70.8,26.0 69.9,24.4C69.1,22.8 68.5,21.9 67.8,20.4C67.0,18.9 67.8,20.4 67.7,20.0C67.6,19.5 67.7,19.7 67.6,19.1C67.5,18.5 67.4,18.5 67.4,18.2C67.5,17.9 67.7,18.5 67.7,18.2C67.8,17.9 67.6,17.8 67.6,17.3C67.6,16.8 67.6,17.1 67.6,16.6C67.7,16.2 67.6,16.2 67.7,16.0C67.8,15.7 67.9,15.9 68.1,15.9" fill="none" stroke="#fbbf24" stroke-width="0.6" stroke-linecap="round" stroke-linejoin="round" opacity="0.7"/>
  <path d="M70.3,9.3C70.4,9.1 70.4,9.1 70.6,8.8C70.8,8.5 70.6,8.6 70.9,8.3C71.1,8.0 71.0,8.1 71.3,7.8C71.6,7.4 71.5,7.6 71.7,7.3C71.9,6.9 71.8,7.1 71.9,6.8C72.1,6.4 72.1,6.4 72.2,6.3" fill="none" stroke="#fbbf24" stroke-width="0.6" stroke-linecap="round" stroke-linejoin="round" opacity="0.7"/>
  <path d="M82.5,38.3C82.8,38.3 82.8,38.3 83.3,38.2C83.8,38.1 83.5,38.1 84.0,38.0C84.5,37.9 84.3,38.0 84.8,37.9C85.3,37.8 85.0,37.7 85.5,37.7C86.1,37.8 85.9,37.9 86.5,38.0C87.1,38.0 86.8,37.9 87.4,37.8C87.9,37.7 87.6,37.8 88.1,37.7C88.6,37.6 88.7,37.6 88.9,37.5" fill="none" stroke="#fbbf24" stroke-width="0.6" stroke-linecap="round" stroke-linejoin="round" opacity="0.7"/>
  <path d="M66.2,24.7C66.3,24.5 66.4,24.5 66.7,24.1C67.0,23.8 66.8,24.0 67.1,23.6C67.5,23.2 67.4,23.4 67.7,23.0C68.0,22.7 67.7,22.7 68.2,22.5C68.6,22.3 68.5,22.5 69.0,22.3C69.6,22.2 69.3,22.2 69.8,22.0C70.3,21.7 70.1,21.9 70.6,21.6C71.0,21.3 70.8,21.4 71.3,21.0C71.7,20.7 71.4,20.7 71.9,20.5C72.4,20.2 72.2,20.4 72.8,20.3C73.4,20.2 73.0,20.3 73.6,20.1C74.2,20.0 74.0,20.1 74.6,20.0C75.2,19.8 74.9,19.9 75.6,19.8C76.2,19.6 75.9,19.7 76.5,19.6C77.0,19.5 76.7,19.5 77.3,19.4C77.9,19.4 77.6,19.4 78.3,19.5C79.0,19.5 78.6,19.5 79.3,19.5C80.0,19.4 79.7,19.3 80.3,19.3C80.9,19.3 80.6,19.5 81.1,19.6C81.7,19.6 81.3,19.4 82.0,19.4C82.7,19.4 82.5,19.6 83.2,19.6C83.8,19.6 83.4,19.6 83.9,19.5C84.4,19.4 84.2,19.3 84.8,19.3C85.3,19.4 85.1,19.4 85.6,19.6C86.1,19.8 85.7,19.6 86.2,19.9C86.6,20.2 86.4,20.1 86.9,20.5C87.4,20.8 87.2,20.8 87.7,21.0C88.1,21.1 87.7,20.8 88.2,20.9C88.6,20.9 88.5,21.0 88.9,21.2C89.3,21.4 89.0,21.2 89.3,21.5C89.6,21.9 89.7,22.1 89.8,22.3" fill="none" stroke="#fbbf24" stroke-width="0.6" stroke-linecap="round" stroke-linejoin="round" opacity="0.7"/>
  <path d="M74.8,22.6C75.0,22.4 75.0,22.4 75.4,22.0C75.8,21.6 75.6,21.8 76.1,21.4C76.5,21.1 76.2,21.1 76.7,20.9C77.2,20.6 77.0,20.8 77.6,20.7C78.1,20.6 77.8,20.7 78.3,20.6C78.8,20.4 78.5,20.4 79.0,20.2C79.4,20.0 79.3,20.2 79.6,19.9C80.0,19.6 79.7,19.7 80.1,19.3C80.4,19.0 80.4,19.1 80.7,18.8C81.1,18.4 80.9,18.6 81.2,18.2C81.5,17.9 81.4,18.1 81.7,17.7C82.0,17.4 81.3,19.4 82.0,17.2C82.8,15.0 83.1,13.3 83.9,11.1C84.7,8.9 84.1,10.9 84.4,10.6C84.7,10.2 84.5,10.2 84.7,10.0C85.0,9.8 85.0,10.2 85.2,10.0C85.5,9.7 85.3,9.7 85.5,9.2C85.7,8.8 85.7,8.8 85.8,8.5" fill="none" stroke="#fbbf24" stroke-width="0.6" stroke-linecap="round" stroke-linejoin="round" opacity="0.7"/>
  <path d="M27.9,36.4C27.9,36.2 27.7,36.0 27.8,35.6C27.8,35.1 27.8,35.4 28.0,35.1C28.1,34.8 28.0,35.0 28.1,34.6C28.2,34.3 28.1,34.6 28.2,34.2C28.2,33.8 28.2,34.0 28.3,33.5C28.4,33.0 28.3,33.2 28.4,32.8C28.6,32.4 28.5,32.6 28.8,32.3C29.0,32.0 28.9,32.3 29.1,31.8C29.2,31.3 29.0,31.4 29.2,30.9C29.4,30.4 29.4,30.7 29.7,30.4C30.0,30.0 29.8,30.2 30.0,29.9C30.2,29.5 30.1,29.7 30.2,29.4C30.4,29.0 30.4,29.1 30.4,28.9" fill="none" stroke="#fbbf24" stroke-width="0.6" stroke-linecap="round" stroke-linejoin="round" opacity="0.7"/>
  <ellipse cx="44.5" cy="31.3" rx="3.5" ry="2.2" fill="#0c0c0c" stroke="#ef4444" stroke-width="0.4" opacity="0.95"/>
  <text x="44.5" y="32.2" text-anchor="middle" font-family="sans-serif" font-size="2.4" font-weight="700" fill="#ffffff" opacity="0.95">OR</text>
</svg>