<svg xmlns="http://www.w3.org/2000/svg" viewBox="0 0 106.14050285055407 102.1169759827725" preserveAspectRatio="none">
  <path d="M72.2,76.0C72.2,76.1 72.4,76.4 72.1,76.5C71.9,76.7 71.1,76.8 70.8,77.0C70.4,77.1 70.3,77.3 70.0,77.5C69.8,77.6 69.5,77.8 69.3,77.9C69.0,78.1 68.8,78.3 68.5,78.5C68.3,78.6 68.1,78.8 67.8,78.9C67.6,79.1 67.3,79.3 67.1,79.4C66.8,79.6 66.7,79.8 66.3,80.0C66.0,80.1 65.3,80.2 65.0,80.4C64.6,80.6 64.4,80.7 64.2,80.9C64.1,81.1 64.2,81.4 64.1,81.6C63.9,81.8 63.6,82.0 63.3,82.1C63.1,82.3 63.0,82.4 62.6,82.6C62.3,82.7 61.6,82.9 61.2,83.0C60.9,83.2 60.6,83.4 60.5,83.5" fill="none" stroke="#ef4444" stroke-width="0.8" stroke-linecap="round" stroke-linejoin="round" opacity="0.9"/>
  <path d="M49.7,76.6C49.5,76.6 49.2,76.8 49.0,76.9C48.7,77.0 48.5,77.2 48.2,77.4C48.0,77.5 47.7,77.6 47.5,77.8C47.3,77.9 47.1,78.1 46.8,78.2C46.4,78.3 45.8,78.4 45.4,78.5C45.1,78.7 44.8,78.8 44.7,79.0C44.6,79.2 44.8,79.4 44.6,79.6C44.3,79.8 43.6,79.9 43.2,80.1C42.9,80.2 42.7,80.4 42.5,80.6C42.2,80.8 42.0,81.0 41.7,81.2C41.5,81.4 41.1,81.5 41.0,81.8C40.8,82.0 41.0,82.3 40.8,82.5C40.7,82.7 40.4,82.9 40.1,83.1C39.7,83.3 39.0,83.4 38.7,83.6C38.3,83.8 38.2,84.0 37.9,84.2C37.7,84.4 37.3,84.6 37.1,84.9C37.0,85.1 37.2,85.4 37.0,85.6C36.8,85.8 36.5,86.0 36.2,86.3C36.0,86.5 35.7,86.6 35.5,86.8C35.2,87.0 35.0,87.3 34.7,87.5C34.4,87.7 34.3,88.1 33.9,88.3C33.5,88.5 32.8,88.6 32.5,88.8C32.3,89.0 32.6,89.2 32.4,89.4C32.3,89.6 31.9,89.7 31.7,89.9C31.4,90.0 31.2,90.2 30.9,90.4C30.7,90.6 30.3,90.9 30.2,91.0" fill="none" stroke="#ef4444" stroke-width="0.8" stroke-linecap="round" stroke-linejoin="round" opacity="0.9"/>
  <path d="M7.1,94.3C7.1,94.4 6.9,94.7 7.0,94.9C7.0,95.2 7.3,95.4 7.5,95.7C7.6,95.9 7.9,96.1 8.0,96.3C8.0,96.5 7.9,96.7 7.9,96.9C7.8,97.1 7.7,97.4 7.7,97.6C7.8,97.8 8.1,98.0 8.2,98.2C8.4,98.5 8.6,98.7 8.7,98.9C8.9,99.2 9.2,99.3 9.3,99.5C9.3,99.7 9.1,99.9 9.2,100.1C9.2,100.3 9.5,100.5 9.7,100.8C9.8,101.0 10.1,101.3 10.2,101.4" fill="none" stroke="#ef4444" stroke-width="0.8" stroke-linecap="round" stroke-linejoin="round" opacity="0.9"/>
  <path d="M25.2,77.2C25.0,77.3 24.7,77.5 24.4,77.6C24.2,77.8 24.0,78.0 23.7,78.2C23.3,78.3 22.6,78.5 22.3,78.7C22.1,78.8 22.3,79.0 22.2,79.2C22.1,79.4 21.7,79.6 21.5,79.7C21.2,79.9 21.0,80.1 20.7,80.3C20.5,80.5 20.1,80.7 19.9,80.9C19.8,81.2 20.0,81.4 19.8,81.6C19.7,81.8 19.3,82.0 19.0,82.2C18.8,82.4 18.5,82.6 18.3,82.8C18.0,83.0 17.8,83.2 17.5,83.4C17.3,83.6 16.9,83.9 16.8,84.1C16.6,84.4 16.8,84.6 16.6,84.8C16.5,85.0 16.0,85.3 15.8,85.5C15.7,85.7 15.9,85.9 15.7,86.2C15.6,86.4 15.2,86.7 14.9,86.9C14.7,87.1 14.4,87.3 14.2,87.6C13.9,87.8 13.6,88.1 13.4,88.3C13.1,88.5 12.8,88.7 12.6,89.0C12.5,89.2 12.5,89.3 12.5,89.5C12.5,89.7 12.4,90.0 12.4,90.1" fill="none" stroke="#ef4444" stroke-width="0.8" stroke-linecap="round" stroke-linejoin="round" opacity="0.9"/>
  <path d="M61.8,77.0C61.8,77.1 61.7,77.5 61.6,77.7C61.6,77.9 61.6,78.1 61.5,78.3C61.5,78.6 61.4,78.8 61.4,79.1C61.3,79.3 61.3,79.6 61.2,79.8C61.2,80.0 61.1,80.3 61.1,80.5C61.0,80.8 61.0,81.0 61.0,81.2C60.9,81.4 60.8,81.6 60.8,81.9C60.9,82.1 61.2,82.5 61.3,82.7C61.4,82.9 61.2,83.1 61.2,83.3C61.1,83.5 61.1,83.8 61.0,84.1C61.0,84.3 60.9,84.6 60.9,84.8C60.9,85.0 60.7,85.2 60.8,85.5C60.8,85.7 61.3,86.0 61.3,86.2C61.2,86.5 60.7,86.6 60.5,86.8C60.4,87.1 60.4,87.3 60.4,87.5C60.3,87.8 60.4,88.0 60.2,88.2C60.1,88.4 59.6,88.6 59.5,88.7" fill="none" stroke="#ef4444" stroke-width="0.8" stroke-linecap="round" stroke-linejoin="round" opacity="0.9"/>
  <path d="M30.6,26.0C30.4,26.0 29.8,25.9 29.3,25.9C28.9,25.8 28.4,25.6 28.1,25.6C27.8,25.5 27.8,25.5 27.5,25.5C27.2,25.4 26.6,25.4 26.2,25.4C25.8,25.4 25.3,25.3 25.0,25.2C24.7,25.1 24.6,25.1 24.4,25.0C24.2,24.9 24.1,24.9 23.8,24.8C23.5,24.8 22.7,24.7 22.5,24.7" fill="none" stroke="#ef4444" stroke-width="0.8" stroke-linecap="round" stroke-linejoin="round" opacity="0.9"/>
  <path d="M80.9,70.8C80.9,70.9 81.0,71.2 80.8,71.3C80.7,71.5 80.4,71.5 80.1,71.7C79.9,71.8 79.5,72.0 79.4,72.1C79.3,72.2 79.5,72.3 79.3,72.5C79.2,72.6 79.0,72.7 78.6,72.9C78.3,73.0 77.6,73.1 77.3,73.2C76.9,73.4 76.8,73.5 76.5,73.6C76.3,73.7 76.0,73.9 75.8,74.0C75.7,74.2 75.9,74.3 75.7,74.5C75.6,74.6 75.4,74.7 75.0,74.8C74.7,74.9 74.0,75.1 73.7,75.2C73.3,75.3 73.1,75.5 73.0,75.6" fill="none" stroke="#fbbf24" stroke-width="0.6" stroke-linecap="round" stroke-linejoin="round" opacity="0.7"/>
  <path d="M13.4,84.8C13.3,84.9 12.9,85.1 12.7,85.2C12.5,85.3 12.2,85.5 12.0,85.6C11.7,85.7 11.5,85.7 11.3,85.9C11.0,86.0 10.8,86.1 10.6,86.3C10.3,86.4 10.0,86.5 9.8,86.6C9.7,86.8 9.9,87.0 9.7,87.2C9.6,87.3 9.2,87.5 9.0,87.6C8.9,87.8 9.0,88.0 8.9,88.2C8.8,88.3 8.4,88.5 8.2,88.6C7.9,88.7 7.6,88.8 7.5,89.0C7.3,89.1 7.4,89.4 7.3,89.6C7.3,89.8 7.3,90.0 7.2,90.1C7.2,90.3 7.2,90.5 7.1,90.7C7.1,90.9 7.1,91.1 7.0,91.3C7.0,91.5 7.0,91.6 6.9,91.8C6.9,92.0 6.8,92.3 6.8,92.5C6.8,92.7 6.6,92.8 6.7,93.0C6.8,93.2 7.1,93.5 7.2,93.7" fill="none" stroke="#fbbf24" stroke-width="0.6" stroke-linecap="round" stroke-linejoin="round" opacity="0.7"/>
  <path d="M58.7,92.9C58.8,92.9 59.0,92.8 59.4,92.7C59.7,92.7 60.3,92.7 60.7,92.6C61.0,92.5 61.1,92.4 61.4,92.3C61.6,92.2 61.9,92.1 62.1,92.0C62.2,91.8 61.9,91.7 62.2,91.5C62.4,91.4 63.2,91.4 63.5,91.3C63.8,91.2 64.1,91.1 64.2,91.0C64.3,90.8 64.3,90.5 64.3,90.5" fill="none" stroke="#fbbf24" stroke-width="0.6" stroke-linecap="round" stroke-linejoin="round" opacity="0.7"/>
  <path d="M21.5,86.3C21.4,86.3 21.0,86.4 20.8,86.5C20.5,86.6 20.2,86.7 20.1,86.8C20.0,86.9 20.2,87.0 20.0,87.1C19.9,87.2 19.7,87.2 19.3,87.3C19.0,87.4 18.3,87.5 18.0,87.6C17.7,87.7 17.6,87.8 17.3,87.9C17.0,88.0 16.3,88.2 15.9,88.3C15.6,88.4 15.5,88.5 15.2,88.6C15.0,88.6 14.9,88.7 14.6,88.7C14.2,88.8 13.6,88.7 13.3,88.8C13.0,88.8 12.7,88.9 12.6,88.9C12.5,89.0 12.8,89.1 12.6,89.2C12.3,89.2 11.6,89.2 11.3,89.3C10.9,89.4 10.9,89.5 10.6,89.5C10.2,89.6 9.5,89.5 9.3,89.6C9.1,89.6 9.2,89.8 9.2,89.8" fill="none" stroke="#fbbf24" stroke-width="0.6" stroke-linecap="round" stroke-linejoin="round" opacity="0.7"/>
  <path d="M83.1,72.9C83.2,73.0 83.5,73.4 83.6,73.5C83.7,73.7 83.5,73.8 83.5,74.0C83.6,74.2 84.0,74.5 84.0,74.7C84.1,74.9 83.9,75.1 83.9,75.3C84.0,75.5 84.4,75.8 84.4,76.0C84.5,76.2 84.3,76.4 84.3,76.6C84.3,76.8 84.1,77.0 84.2,77.2C84.3,77.4 84.6,77.7 84.7,77.9C84.8,78.2 84.5,78.3 84.6,78.5C84.6,78.7 85.0,79.0 85.1,79.2C85.1,79.5 85.0,79.7 85.0,79.9C84.9,80.1 84.9,80.2 84.9,80.4C84.8,80.6 84.8,80.8 84.7,81.0C84.7,81.2 84.6,81.5 84.6,81.7C84.6,81.9 84.4,82.1 84.5,82.3C84.6,82.5 84.9,82.8 85.0,83.0C85.1,83.2 84.8,83.3 84.9,83.6C85.0,83.8 85.3,84.0 85.4,84.3C85.5,84.5 85.3,84.7 85.3,84.9C85.2,85.2 85.2,85.3 85.1,85.5C85.1,85.7 85.0,85.9 85.0,86.1C85.1,86.3 85.5,86.6 85.5,86.8C85.6,87.1 85.5,87.2 85.4,87.5C85.4,87.7 85.3,87.9 85.3,88.1C85.2,88.3 85.1,88.5 85.2,88.8C85.2,89.0 85.6,89.2 85.7,89.4C85.7,89.6 85.6,89.8 85.5,90.1C85.5,90.3 85.5,90.5 85.4,90.7C85.4,90.9 85.2,91.1 85.3,91.3C85.4,91.5 85.9,91.8 85.8,92.0C85.8,92.2 85.1,92.3 85.1,92.6C85.0,92.8 85.5,93.0 85.6,93.3C85.6,93.5 85.5,93.7 85.4,93.9C85.4,94.1 85.4,94.3 85.3,94.5C85.3,94.7 85.2,95.0 85.2,95.2C85.2,95.4 85.1,95.6 85.1,95.8C85.0,96.0 85.0,96.2 85.0,96.4C84.9,96.6 84.9,96.8 84.8,97.0C84.8,97.2 84.8,97.4 84.7,97.6C84.7,97.8 84.6,98.0 84.6,98.2C84.6,98.4 84.5,98.6 84.5,98.8C84.4,99.0 84.4,99.2 84.4,99.4C84.3,99.6 84.3,99.7 84.3,99.9C84.2,100.1 84.1,100.3 84.2,100.5C84.2,100.7 84.6,101.0 84.7,101.1" fill="none" stroke="#fbbf24" stroke-width="0.6" stroke-linecap="round" stroke-linejoin="round" opacity="0.7"/>
  <path d="M65.0,80.2C65.0,80.3 65.0,80.5 64.9,80.7C64.8,80.9 64.3,81.1 64.2,81.3C64.0,81.4 64.1,81.6 64.0,81.8C64.0,82.0 64.0,82.1 63.9,82.3C63.9,82.5 63.9,82.7 63.8,82.9C63.8,83.1 63.9,83.3 63.7,83.5C63.6,83.6 63.2,83.8 63.0,83.9C62.7,84.1 62.5,84.3 62.3,84.4C62.0,84.6 61.8,84.7 61.5,84.8C61.3,85.0 60.9,85.1 60.8,85.3C60.7,85.5 60.8,85.7 60.7,85.8C60.6,86.0 60.1,86.1 60.0,86.2C59.9,86.3 59.9,86.6 59.9,86.7" fill="none" stroke="#fbbf24" stroke-width="0.6" stroke-linecap="round" stroke-linejoin="round" opacity="0.7"/>
  <path d="M30.1,74.9C30.0,75.0 29.6,75.1 29.4,75.2C29.2,75.3 28.9,75.4 28.7,75.5C28.5,75.6 28.2,75.7 28.0,75.7C27.8,75.8 27.6,75.9 27.3,76.0C27.0,76.1 26.3,76.3 26.0,76.4C25.6,76.5 25.4,76.7 25.2,76.8" fill="none" stroke="#fbbf24" stroke-width="0.6" stroke-linecap="round" stroke-linejoin="round" opacity="0.7"/>
  <path d="M34.8,96.8C34.9,96.9 35.2,97.2 35.3,97.4C35.5,97.6 35.8,97.7 35.9,97.9C36.0,98.1 35.8,98.4 35.8,98.6C35.7,98.8 35.6,98.9 35.7,99.2C35.7,99.4 36.1,99.7 36.2,99.9C36.2,100.1 36.1,100.4 36.0,100.6C36.0,100.9 35.9,101.1 35.9,101.2" fill="none" stroke="#fbbf24" stroke-width="0.6" stroke-linecap="round" stroke-linejoin="round" opacity="0.7"/>
  <path d="M34.2,66.8C34.2,66.9 34.2,67.2 34.1,67.3C34.1,67.5 34.1,67.6 34.0,67.8C34.0,68.0 34.0,68.2 33.9,68.4C33.9,68.6 34.0,68.8 33.8,69.0C33.7,69.2 33.2,69.3 33.1,69.5C32.9,69.7 33.0,69.9 33.0,70.0C32.9,70.2 32.9,70.4 32.9,70.6C32.8,70.7 32.9,70.9 32.8,71.1C32.6,71.2 32.2,71.4 32.0,71.6C31.9,71.7 32.1,71.9 31.9,72.0C31.8,72.2 31.3,72.3 31.2,72.5C31.1,72.6 31.2,72.8 31.1,73.0C31.0,73.1 30.5,73.3 30.4,73.4" fill="none" stroke="#fbbf24" stroke-width="0.6" stroke-linecap="round" stroke-linejoin="round" opacity="0.7"/>
  <path d="M43.0,71.2C42.9,71.2 42.6,71.3 42.3,71.4C42.1,71.4 41.9,71.5 41.7,71.5C41.4,71.5 41.3,71.6 41.0,71.6C40.7,71.6 39.9,71.6 39.7,71.6C39.5,71.7 39.8,71.8 39.7,71.8C39.6,71.9 39.3,72.0 39.0,72.0C38.7,72.1 38.0,72.1 37.7,72.2C37.3,72.2 37.2,72.4 37.0,72.5C36.7,72.6 36.5,72.7 36.3,72.7C36.1,72.8 35.8,72.9 35.6,73.0C35.4,73.1 35.1,73.2 34.9,73.3C34.7,73.4 34.4,73.5 34.2,73.6C34.0,73.8 33.7,73.9 33.5,74.0C33.2,74.2 33.0,74.3 32.8,74.4C32.5,74.6 32.2,74.6 32.0,74.8C31.9,74.9 32.0,75.1 32.0,75.2C31.9,75.4 32.0,75.6 31.9,75.8C31.7,75.9 31.4,76.0 31.1,76.2C30.9,76.3 30.5,76.5 30.4,76.7C30.3,76.8 30.4,77.0 30.3,77.2C30.2,77.4 30.0,77.5 29.9,77.7C29.7,77.9 29.5,78.0 29.5,78.2C29.4,78.4 29.4,78.6 29.3,78.8C29.3,79.0 29.3,79.1 29.2,79.3C29.2,79.4 29.2,79.6 29.1,79.8C29.1,79.9 29.1,80.2 29.0,80.3" fill="none" stroke="#fbbf24" stroke-width="0.6" stroke-linecap="round" stroke-linejoin="round" opacity="0.7"/>
  <path d="M43.6,71.6C43.7,71.7 44.0,72.0 44.1,72.1C44.2,72.3 44.0,72.4 44.0,72.6C44.0,72.8 43.8,73.0 43.9,73.2C44.0,73.3 44.3,73.5 44.4,73.7C44.6,73.9 44.6,74.1 44.7,74.3C44.7,74.5 44.7,74.7 44.9,74.9C45.0,75.0 45.3,75.3 45.4,75.4C45.5,75.6 45.3,75.8 45.3,75.9C45.3,76.1 45.1,76.3 45.2,76.5C45.3,76.7 45.5,76.8 45.7,77.0C45.9,77.2 46.1,77.4 46.3,77.6C46.4,77.8 46.6,78.0 46.8,78.2C47.0,78.4 47.1,78.6 47.3,78.7C47.5,78.9 47.7,79.1 47.8,79.3C48.0,79.5 48.0,79.7 48.1,79.8C48.1,80.0 48.2,80.2 48.3,80.4C48.4,80.5 48.6,80.7 48.8,80.9C49.0,81.1 49.2,81.2 49.4,81.4C49.6,81.5 49.7,81.7 49.9,81.9C50.1,82.1 50.3,82.2 50.5,82.4C50.6,82.6 50.9,82.7 51.0,82.9C51.1,83.1 50.8,83.4 50.9,83.6C50.9,83.8 51.3,84.1 51.4,84.2" fill="none" stroke="#fbbf24" stroke-width="0.6" stroke-linecap="round" stroke-linejoin="round" opacity="0.7"/>
  <path d="M50.7,94.3C50.8,94.3 51.1,94.4 51.3,94.5C51.5,94.6 51.7,94.7 51.9,94.8C52.2,94.8 52.5,94.9 52.8,95.0C53.1,95.0 53.5,95.1 53.8,95.1C54.0,95.2 54.2,95.1 54.4,95.2C54.6,95.2 54.7,95.2 55.0,95.2C55.3,95.3 56.0,95.4 56.3,95.4C56.6,95.5 56.6,95.5 56.9,95.5C57.2,95.5 57.9,95.5 58.2,95.5C58.5,95.5 58.6,95.5 58.8,95.5C59.1,95.4 59.2,95.4 59.5,95.4C59.8,95.4 60.4,95.5 60.8,95.5C61.1,95.5 61.4,95.4 61.7,95.4C62.1,95.4 62.4,95.4 62.7,95.3C63.0,95.3 63.0,95.2 63.4,95.2C63.7,95.2 64.3,95.1 64.7,95.1C65.0,95.1 65.1,95.0 65.3,95.0C65.6,95.0 65.8,95.0 66.0,94.9C66.2,94.9 66.3,94.8 66.7,94.8C67.0,94.8 67.6,94.7 68.0,94.7C68.3,94.6 68.4,94.6 68.6,94.5C68.9,94.4 69.1,94.3 69.3,94.2C69.6,94.2 70.0,94.1 70.3,94.1C70.7,94.0 71.0,94.0 71.3,93.9C71.6,93.8 71.9,93.7 72.0,93.6C72.2,93.5 72.0,93.4 72.1,93.3C72.2,93.2 72.5,93.0 72.8,92.9C73.1,92.8 73.8,92.7 74.1,92.6C74.5,92.5 74.6,92.4 74.8,92.3C75.1,92.2 75.4,92.1 75.6,92.0C75.7,91.8 75.5,91.6 75.6,91.5C75.8,91.3 76.2,91.2 76.4,91.1C76.5,91.0 76.6,90.8 76.8,90.7C76.9,90.6 77.0,90.4 77.2,90.3C77.3,90.2 77.6,90.1 77.9,89.9C78.1,89.8 78.5,89.6 78.6,89.5C78.7,89.3 78.7,89.1 78.7,89.0" fill="none" stroke="#fbbf24" stroke-width="0.6" stroke-linecap="round" stroke-linejoin="round" opacity="0.7"/>
  <path d="M72.3,82.2C72.1,82.2 71.2,82.3 71.0,82.4C70.8,82.5 71.0,82.7 70.9,82.8C70.8,82.9 70.4,83.0 70.2,83.1C70.0,83.2 69.7,83.4 69.5,83.5C69.3,83.6 69.0,83.6 68.8,83.7C68.6,83.8 68.3,84.0 68.1,84.1C67.9,84.2 68.0,84.3 67.7,84.5C67.5,84.7 66.9,85.1 66.6,85.3C66.3,85.4 66.1,85.5 65.9,85.6C65.6,85.7 65.4,85.8 65.2,85.9C64.9,86.0 64.7,86.1 64.5,86.3C64.2,86.4 64.0,86.5 63.7,86.7C63.5,86.8 63.2,86.9 63.0,87.0C62.9,87.2 63.1,87.3 63.0,87.4C62.8,87.5 62.5,87.6 62.3,87.7C62.0,87.8 61.6,87.9 61.2,88.0C60.9,88.1 60.5,88.2 60.2,88.3C59.9,88.4 59.6,88.5 59.5,88.6C59.4,88.7 59.7,88.8 59.5,88.9C59.2,89.0 58.5,89.0 58.1,89.1C57.8,89.2 57.6,89.3 57.5,89.3" fill="none" stroke="#fbbf24" stroke-width="0.6" stroke-linecap="round" stroke-linejoin="round" opacity="0.7"/>
  <path d="M40.9,88.4C41.1,88.5 41.9,88.6 42.2,88.7C42.5,88.8 42.7,88.9 42.8,89.0C42.9,89.0 42.6,89.1 42.7,89.2C42.9,89.3 43.3,89.4 43.6,89.4C43.9,89.5 43.8,89.4 44.5,89.7C45.3,90.1 47.3,91.1 48.1,91.5C48.8,91.8 49.1,91.8 49.3,91.9C49.4,92.0 49.1,92.1 49.2,92.2C49.3,92.3 49.6,92.5 49.8,92.6C49.9,92.7 50.1,92.9 50.3,93.0C50.5,93.1 50.7,93.3 50.9,93.4C51.1,93.6 51.2,93.7 51.4,93.9C51.6,94.1 51.9,94.3 52.0,94.4C52.0,94.6 51.8,94.8 51.9,95.0C51.9,95.2 52.2,95.3 52.4,95.5C52.6,95.7 52.8,95.9 52.9,96.0C53.1,96.2 53.3,96.5 53.5,96.6C53.6,96.8 53.9,97.0 54.0,97.2C54.1,97.4 54.1,97.6 54.2,97.8C54.3,97.9 54.3,98.1 54.4,98.3C54.6,98.5 54.8,98.7 55.0,98.8C55.1,99.0 55.3,99.2 55.5,99.4C55.7,99.6 55.9,99.8 56.0,100.0C56.2,100.1 56.4,100.3 56.6,100.5C56.7,100.7 57.0,100.9 57.1,101.1C57.2,101.3 57.0,101.4 57.0,101.5" fill="none" stroke="#fbbf24" stroke-width="0.6" stroke-linecap="round" stroke-linejoin="round" opacity="0.7"/>
  <path d="M64.3,93.8C64.4,93.8 64.8,93.7 65.0,93.6C65.2,93.5 65.2,93.3 65.4,93.2C65.5,93.1 65.6,93.0 65.8,92.9C65.9,92.7 66.2,92.6 66.5,92.5C66.7,92.4 66.9,92.3 67.2,92.2C67.4,92.1 67.7,92.0 67.9,91.9" fill="none" stroke="#fbbf24" stroke-width="0.6" stroke-linecap="round" stroke-linejoin="round" opacity="0.7"/>
  <path d="M51.5,60.2C51.5,60.3 51.5,60.6 51.4,60.8C51.4,61.0 51.4,61.1 51.3,61.3C51.3,61.4 51.3,61.6 51.2,61.8C51.2,62.0 51.1,62.1 51.1,62.3C51.2,62.5 51.6,62.8 51.7,63.0C51.7,63.2 51.5,63.4 51.5,63.6C51.6,63.7 52.0,64.0 52.1,64.2C52.1,64.4 51.9,64.6 51.9,64.8C52.0,65.0 52.4,65.3 52.5,65.5C52.5,65.7 52.3,65.9 52.3,66.1C52.4,66.3 52.7,66.6 52.8,66.8C53.0,67.0 53.3,67.1 53.4,67.3C53.5,67.5 53.5,67.7 53.6,67.9C53.7,68.1 53.8,68.3 53.8,68.5C53.8,68.7 53.6,68.9 53.7,69.1C53.7,69.3 54.0,69.6 54.2,69.8C54.4,70.0 54.5,70.2 54.7,70.4C54.9,70.5 55.2,70.8 55.2,71.0C55.3,71.2 55.1,71.4 55.1,71.6C55.2,71.8 55.5,72.0 55.7,72.2C55.8,72.3 56.1,72.5 56.2,72.7C56.3,72.9 56.1,73.1 56.1,73.2C56.1,73.4 56.2,73.6 56.3,73.7C56.4,73.9 56.4,74.0 56.5,74.2C56.7,74.4 57.0,74.7 57.1,74.8" fill="none" stroke="#fbbf24" stroke-width="0.6" stroke-linecap="round" stroke-linejoin="round" opacity="0.7"/>
  <path d="M62.6,72.8C62.6,72.9 62.5,73.1 62.5,73.3C62.5,73.5 62.4,73.6 62.4,73.8C62.3,74.0 62.3,74.3 62.3,74.5C62.2,74.7 62.2,74.8 62.2,75.0C62.1,75.2 62.1,75.5 62.0,75.7C62.0,75.9 61.9,76.2 61.9,76.3" fill="none" stroke="#fbbf24" stroke-width="0.6" stroke-linecap="round" stroke-linejoin="round" opacity="0.7"/>
  <path d="M67.0,63.4C67.0,63.4 67.2,63.6 67.2,63.7C67.3,63.8 67.2,63.9 67.5,64.1C67.7,64.2 68.4,64.4 68.7,64.5C69.0,64.6 69.1,64.8 69.3,64.9C69.4,65.1 69.6,65.3 69.8,65.5C70.0,65.6 70.2,65.7 70.4,65.9C70.5,66.0 70.8,66.2 70.9,66.4C71.0,66.6 70.7,66.7 70.8,66.9C70.9,67.0 71.2,67.2 71.3,67.4C71.5,67.6 71.7,67.8 71.9,68.0C72.0,68.2 72.2,68.4 72.4,68.6C72.6,68.8 72.8,69.0 72.9,69.2C73.0,69.4 72.7,69.5 72.8,69.7C72.9,69.9 73.3,70.1 73.4,70.2C73.4,70.4 73.2,70.6 73.3,70.7C73.3,70.9 73.7,71.1 73.8,71.3C73.9,71.5 73.7,71.7 73.7,71.7" fill="none" stroke="#fbbf24" stroke-width="0.6" stroke-linecap="round" stroke-linejoin="round" opacity="0.7"/>
  <path d="M23.7,48.3C23.7,48.4 23.5,48.6 23.6,48.8C23.7,49.0 23.9,49.3 24.1,49.5C24.3,49.7 24.4,49.9 24.6,50.1C24.9,50.3 25.5,50.4 25.8,50.6C26.1,50.7 26.2,50.9 26.4,51.0C26.6,51.2 26.9,51.3 26.9,51.4C27.0,51.6 26.8,51.7 26.9,51.8C26.9,52.0 27.1,52.1 27.4,52.3C27.7,52.4 28.3,52.5 28.6,52.7C28.9,52.8 29.0,52.9 29.2,53.0C29.4,53.1 29.6,53.1 29.8,53.3C30.0,53.4 30.1,53.5 30.4,53.7C30.7,53.8 31.3,53.9 31.6,54.0C31.9,54.0 32.0,54.0 32.2,54.1C32.4,54.1 32.7,54.1 32.8,54.1" fill="none" stroke="#fbbf24" stroke-width="0.6" stroke-linecap="round" stroke-linejoin="round" opacity="0.7"/>
  <path d="M57.2,54.5C57.4,54.4 58.2,54.3 58.5,54.2C58.8,54.1 59.0,54.0 59.2,53.9C59.4,53.8 59.7,53.7 59.9,53.5C60.1,53.4 60.4,53.3 60.6,53.1C60.9,53.0 61.1,52.8 61.4,52.7C61.6,52.6 61.8,52.4 62.1,52.3C62.3,52.2 62.6,52.0 62.8,51.9C63.0,51.7 63.4,51.6 63.5,51.5C63.6,51.4 63.4,51.2 63.6,51.1C63.8,50.9 64.7,50.8 65.0,50.7C65.2,50.6 64.9,50.4 65.0,50.2C65.2,50.1 65.4,50.0 65.7,49.9C66.1,49.8 66.9,49.7 67.1,49.7" fill="none" stroke="#fbbf24" stroke-width="0.6" stroke-linecap="round" stroke-linejoin="round" opacity="0.7"/>
  <path d="M38.1,26.9C37.9,26.9 37.2,26.8 36.9,26.8C36.5,26.8 36.5,26.8 36.2,26.8C35.9,26.8 35.3,26.7 35.0,26.6C34.6,26.5 34.4,26.5 34.0,26.4C33.7,26.4 33.4,26.3 33.1,26.3C32.9,26.2 32.7,26.2 32.5,26.2C32.3,26.2 33.5,26.4 31.9,26.1C30.2,25.9 24.2,25.0 22.5,24.7C20.8,24.5 22.1,24.7 21.9,24.7C21.7,24.6 21.6,24.7 21.2,24.6C20.9,24.6 20.4,24.5 20.0,24.4C19.6,24.4 19.0,24.2 18.8,24.2C18.5,24.2 19.0,24.3 18.7,24.3C18.5,24.3 17.9,24.2 17.5,24.2C17.0,24.2 16.5,24.2 16.2,24.1C15.9,24.1 15.8,24.1 15.6,24.0C15.4,24.0 15.2,24.0 15.0,24.0C14.7,23.9 14.6,24.0 14.3,24.0C14.0,24.0 13.4,23.9 13.0,23.9C12.7,23.9 12.6,23.9 12.4,23.9C12.2,23.9 12.0,23.9 11.8,23.9C11.6,23.9 11.2,23.8 11.1,23.8" fill="none" stroke="#fbbf24" stroke-width="0.6" stroke-linecap="round" stroke-linejoin="round" opacity="0.7"/>
  <circle cx="48.6" cy="73.8" r="3.5" fill="#0c0c0c" stroke="#ef4444" stroke-width="0.4" opacity="0.95"/>
  <text x="48.6" y="75.0" text-anchor="middle" font-family="sans-serif" font-size="3.5" font-weight="700" fill="#ffffff" opacity="0.95">OR</text>
</svg>