<svg xmlns="http://www.w3.org/2000/svg" viewBox="0 0 106.14050285055407 102.1169759827725" preserveAspectRatio="none">
  <path d="M67.0,58.1C67.3,57.8 67.3,58.1 67.5,57.5C67.7,56.9 67.2,57.5 67.4,56.8C67.6,56.2 67.7,56.8 67.9,56.2C68.1,55.5 67.3,56.2 67.8,55.5C68.3,54.8 68.4,55.5 68.9,54.8C69.4,54.1 68.6,54.8 68.8,54.2C69.0,53.5 68.8,54.2 69.3,53.5C69.8,52.9 69.7,53.5 69.8,52.9C70.0,52.2 69.8,52.9 69.7,52.2C69.6,51.5 69.7,52.2 69.6,51.5C69.5,50.9 69.5,51.2 69.5,50.9" fill="none" stroke="#ef4444" stroke-width="0.8" stroke-linecap="round" stroke-linejoin="round" opacity="0.9"/>
  <path d="M46.5,41.7C46.8,41.4 46.8,41.7 47.0,41.0C47.2,40.3 47.0,41.0 46.9,40.3C46.7,39.6 46.9,40.3 46.7,39.6C46.6,39.0 46.7,39.6 46.6,39.0C46.5,38.3 46.5,39.0 46.5,38.3C46.5,37.6 46.5,38.3 46.7,37.6C46.8,36.9 46.8,37.5 46.8,36.9C46.9,36.2 46.9,36.9 46.7,36.3C46.6,35.7 46.7,36.0 46.6,35.7" fill="none" stroke="#ef4444" stroke-width="0.8" stroke-linecap="round" stroke-linejoin="round" opacity="0.9"/>
  <path d="M70.8,44.7C71.1,44.4 71.2,44.8 71.4,44.1C71.6,43.5 71.0,44.1 71.2,43.5C71.4,42.8 71.5,43.5 71.7,42.8C71.9,42.2 71.4,42.8 71.6,42.2C71.8,41.5 71.6,42.2 72.1,41.5C72.6,40.8 72.1,41.5 72.6,40.7C73.1,39.9 72.9,40.6 73.1,39.9C73.3,39.2 72.8,40.0 73.0,39.3C73.2,38.6 73.3,39.3 73.5,38.6C73.7,37.9 73.2,38.5 73.3,37.8C73.5,37.2 73.4,37.9 73.9,37.2C74.4,36.5 74.2,37.2 74.4,36.5C74.6,35.8 74.0,36.5 74.2,35.8C74.4,35.1 74.2,35.8 74.7,35.1C75.2,34.4 74.9,35.1 75.2,34.4C75.6,33.7 75.2,34.4 75.4,33.7C75.6,33.0 75.6,33.7 75.6,33.0C75.6,32.3 75.6,33.0 75.5,32.4C75.4,31.8 75.2,32.4 75.4,31.8C75.6,31.3 75.7,31.5 75.9,31.2" fill="none" stroke="#ef4444" stroke-width="0.8" stroke-linecap="round" stroke-linejoin="round" opacity="0.9"/>
  <path d="M74.2,25.6C74.1,25.3 74.2,25.5 74.1,25.0C74.0,24.5 74.4,25.0 74.0,24.5C73.6,24.0 73.8,24.5 73.2,24.0C72.7,23.5 73.2,24.0 72.8,23.5C72.4,22.9 72.6,23.5 72.4,22.9C72.1,22.4 72.4,23.0 72.3,22.4C72.2,21.8 72.6,22.4 72.2,21.8C71.7,21.2 71.8,21.8 71.4,21.3C71.0,20.7 71.4,21.3 71.3,20.8C71.2,20.2 71.6,20.7 71.2,20.2C70.8,19.7 70.9,20.2 70.5,19.7C70.1,19.3 70.4,19.5 70.4,19.3" fill="none" stroke="#fbbf24" stroke-width="0.6" stroke-linecap="round" stroke-linejoin="round" opacity="0.7"/>
  <path d="M64.8,30.0C64.7,29.8 64.6,30.0 64.7,29.5C64.7,28.9 64.7,29.5 64.9,28.9C65.1,28.3 65.0,28.9 65.1,28.3C65.1,27.7 65.1,28.3 65.0,27.7C64.9,27.2 65.0,27.8 64.9,27.2C64.8,26.7 64.9,27.1 64.7,26.6C64.6,26.0 64.4,26.7 64.7,26.1C64.9,25.6 65.0,26.1 65.2,25.5C65.4,24.9 64.9,25.5 65.1,25.0C65.3,24.4 65.1,25.0 65.6,24.4C66.1,23.8 65.6,24.4 66.1,23.9C66.7,23.3 66.1,23.9 66.7,23.4C67.2,22.8 67.0,23.3 67.2,22.8C67.4,22.3 66.9,22.9 67.1,22.4C67.4,21.8 67.1,22.4 67.7,21.8C68.2,21.2 67.7,21.8 68.2,21.2C68.7,20.6 68.2,21.2 68.7,20.6C69.2,20.0 69.0,20.6 69.2,20.0C69.5,19.5 68.9,20.0 69.1,19.5C69.4,19.0 69.5,19.5 69.7,19.0C69.9,18.4 69.5,18.9 69.6,18.4C69.6,17.9 69.6,18.4 69.8,17.9C70.0,17.4 69.6,17.9 70.0,17.4C70.4,16.8 70.3,17.1 70.5,16.8" fill="none" stroke="#fbbf24" stroke-width="0.6" stroke-linecap="round" stroke-linejoin="round" opacity="0.7"/>
  <path d="M36.2,57.9C36.8,57.9 36.8,57.8 37.5,58.0C38.1,58.1 36.8,58.0 37.5,58.1C38.2,58.2 37.8,58.1 38.8,58.2C39.8,58.2 38.5,58.2 39.4,58.3C40.4,58.3 39.8,58.2 40.7,58.3C41.7,58.4 40.7,58.3 41.4,58.5C42.1,58.7 41.1,58.5 42.1,58.7C43.1,58.8 42.4,58.6 43.4,58.8C44.4,58.9 43.4,58.7 44.1,58.9C44.7,59.1 44.1,58.9 44.8,59.2C45.4,59.4 44.8,59.2 45.4,59.4C46.1,59.7 45.1,59.4 46.1,59.7C47.2,60.0 46.8,59.7 47.5,60.0C48.2,60.4 47.2,60.0 47.6,60.4C48.0,60.8 47.6,60.4 48.3,60.8C49.0,61.2 48.3,60.8 49.0,61.2C49.7,61.6 48.7,61.2 49.7,61.6C50.8,62.0 50.4,61.6 51.1,62.0C51.8,62.4 50.8,62.0 51.2,62.4C51.6,62.9 51.5,62.5 51.9,62.9C52.3,63.4 51.6,62.9 52.0,63.3C52.4,63.7 52.3,63.5 52.7,63.7" fill="none" stroke="#fbbf24" stroke-width="0.6" stroke-linecap="round" stroke-linejoin="round" opacity="0.7"/>
  <path d="M63.4,62.5C63.6,62.2 63.4,62.5 63.9,62.0C64.5,61.5 64.2,62.0 64.5,61.5C64.7,61.0 64.1,61.5 64.4,61.0C64.6,60.5 64.4,61.0 64.9,60.5C65.4,59.9 64.9,60.5 65.4,59.9C66.0,59.3 65.4,59.9 66.0,59.3C66.5,58.7 66.2,59.0 66.5,58.7" fill="none" stroke="#fbbf24" stroke-width="0.6" stroke-linecap="round" stroke-linejoin="round" opacity="0.7"/>
  <path d="M44.7,15.9C44.7,15.7 45.0,15.9 44.6,15.5C44.2,15.0 44.6,15.5 43.9,15.1C43.2,14.6 43.9,15.0 43.2,14.6C42.4,14.1 43.2,14.6 42.4,14.2C41.7,13.8 42.1,14.0 41.7,13.8" fill="none" stroke="#fbbf24" stroke-width="0.6" stroke-linecap="round" stroke-linejoin="round" opacity="0.7"/>
  <path d="M36.0,37.4C35.4,37.4 35.7,37.3 34.7,37.3C33.8,37.3 34.7,37.3 34.1,37.3C33.5,37.3 34.4,37.3 33.5,37.3C32.5,37.4 33.1,37.4 32.2,37.5C31.3,37.6 32.4,37.4 31.6,37.6C30.8,37.8 31.6,37.6 30.7,37.8C29.7,38.0 30.5,37.8 29.7,38.0C29.0,38.2 29.7,38.0 29.1,38.2C28.5,38.4 29.4,38.2 28.5,38.4C27.6,38.6 28.2,38.4 27.3,38.6C26.4,38.8 27.0,38.7 26.7,38.8" fill="none" stroke="#fbbf24" stroke-width="0.6" stroke-linecap="round" stroke-linejoin="round" opacity="0.7"/>
  <path d="M44.5,48.0C44.8,47.7 44.8,48.0 45.0,47.4C45.3,46.9 45.1,47.5 44.9,46.9C44.8,46.4 44.8,46.9 44.8,46.3C44.9,45.7 44.8,46.3 45.0,45.7C45.2,45.1 44.9,45.7 45.2,45.1C45.6,44.4 45.5,45.1 45.7,44.4C45.9,43.8 45.4,44.5 45.6,43.8C45.8,43.1 45.6,43.8 46.1,43.1C46.6,42.4 46.4,42.8 46.6,42.4" fill="none" stroke="#fbbf24" stroke-width="0.6" stroke-linecap="round" stroke-linejoin="round" opacity="0.7"/>
  <path d="M45.7,30.9C46.0,30.6 45.7,30.8 46.2,30.4C46.8,29.9 46.2,30.4 46.8,30.0C47.3,29.5 46.8,29.9 47.3,29.5C47.9,29.0 47.5,29.5 47.9,29.0C48.3,28.6 47.9,29.0 48.1,28.6C48.4,28.1 48.2,28.4 48.4,28.1" fill="none" stroke="#fbbf24" stroke-width="0.6" stroke-linecap="round" stroke-linejoin="round" opacity="0.7"/>
  <path d="M51.4,23.9C51.3,23.6 51.1,24.0 51.3,23.4C51.5,22.8 51.3,23.3 51.8,22.7C52.3,22.1 52.1,22.7 52.3,22.2C52.5,21.6 52.0,22.3 52.2,21.6C52.4,21.0 52.5,21.5 52.7,20.9C52.9,20.3 52.4,21.0 52.6,20.4C52.8,19.8 52.9,20.2 53.2,19.8C53.4,19.4 53.2,19.8 53.1,19.5C53.1,19.2 52.9,20.0 53.1,19.2C53.2,18.5 53.3,18.8 53.5,18.1C53.6,17.3 53.2,18.1 53.4,17.7C53.6,17.3 53.4,17.7 54.0,17.3C54.5,16.9 53.6,17.3 54.5,16.9C55.4,16.4 55.1,16.8 55.7,16.3C56.2,15.9 55.7,16.1 55.6,16.0" fill="none" stroke="#fbbf24" stroke-width="0.6" stroke-linecap="round" stroke-linejoin="round" opacity="0.7"/>
  <path d="M17.0,51.8C16.7,51.6 17.0,51.7 16.3,51.4C15.6,51.2 16.3,51.4 15.6,51.2C14.9,51.0 15.9,51.2 14.9,51.0C13.9,50.8 14.6,51.0 13.6,50.8C12.6,50.6 13.5,50.8 12.9,50.5C12.4,50.2 12.7,50.4 12.5,50.2" fill="none" stroke="#fbbf24" stroke-width="0.6" stroke-linecap="round" stroke-linejoin="round" opacity="0.7"/>
  <path d="M68.4,48.7C68.7,48.5 68.7,48.8 69.0,48.3C69.2,47.8 68.8,48.3 68.8,47.7C68.9,47.2 68.8,47.7 69.1,47.2C69.3,46.6 68.9,47.2 69.3,46.6C69.6,46.0 69.3,46.5 69.8,45.9C70.3,45.3 70.0,45.6 70.3,45.3" fill="none" stroke="#fbbf24" stroke-width="0.6" stroke-linecap="round" stroke-linejoin="round" opacity="0.7"/>
  <ellipse cx="54.1" cy="42.4" rx="3.5" ry="2.2" fill="#0c0c0c" stroke="#ef4444" stroke-width="0.4" opacity="0.95"/>
  <text x="54.1" y="43.3" text-anchor="middle" font-family="sans-serif" font-size="2.4" font-weight="700" fill="#ffffff" opacity="0.95">OR</text>
</svg>