<svg xmlns="http://www.w3.org/2000/svg" viewBox="0 0 106.14050285055407 102.1169759827725" preserveAspectRatio="none">
  <path d="M72.2,26.1C72.2,25.8 72.9,26.1 72.1,25.6C71.4,25.1 71.8,25.6 70.8,25.1C69.7,24.7 70.8,25.1 70.0,24.6C69.3,24.2 70.0,24.7 69.3,24.2C68.6,23.7 69.3,24.2 68.5,23.7C67.8,23.2 68.5,23.7 67.8,23.2C67.1,22.7 67.8,23.2 67.1,22.7C66.3,22.2 67.4,22.6 66.3,22.2C65.3,21.7 66.0,22.2 65.0,21.7C63.9,21.2 64.7,21.8 64.2,21.2C63.8,20.6 64.5,21.1 64.1,20.5C63.7,19.9 64.1,20.5 63.3,20.0C62.6,19.5 63.7,20.0 62.6,19.5C61.6,19.1 62.3,19.6 61.2,19.1C60.2,18.6 60.9,18.9 60.5,18.6" fill="none" stroke="#ef4444" stroke-width="0.8" stroke-linecap="round" stroke-linejoin="round" opacity="0.9"/>
  <path d="M49.7,25.5C49.3,25.4 49.7,25.6 49.0,25.2C48.2,24.8 48.9,25.2 48.2,24.7C47.5,24.3 48.2,24.7 47.5,24.3C46.8,23.9 47.8,24.3 46.8,23.9C45.7,23.6 46.5,24.0 45.4,23.6C44.4,23.2 45.1,23.7 44.7,23.1C44.3,22.6 45.3,23.0 44.6,22.5C43.8,22.0 44.3,22.6 43.2,22.1C42.1,21.5 43.2,22.0 42.5,21.5C41.7,20.9 42.5,21.5 41.7,20.9C41.0,20.4 41.4,21.0 41.0,20.4C40.5,19.7 41.3,20.3 40.8,19.6C40.4,19.0 41.1,19.6 40.1,19.0C39.0,18.5 39.7,19.1 38.7,18.5C37.6,18.0 38.7,18.6 37.9,17.9C37.2,17.3 37.6,18.0 37.1,17.3C36.7,16.5 37.5,17.2 37.0,16.5C36.5,15.8 37.0,16.5 36.2,15.9C35.5,15.3 36.2,15.9 35.5,15.3C34.7,14.7 35.5,15.3 34.7,14.6C33.9,13.9 35.0,14.5 33.9,13.8C32.8,13.2 33.3,13.9 32.5,13.3C31.8,12.8 32.8,13.2 32.4,12.7C32.0,12.2 32.4,12.8 31.7,12.3C30.9,11.8 31.7,12.3 30.9,11.7C30.2,11.2 30.6,11.4 30.2,11.1" fill="none" stroke="#ef4444" stroke-width="0.8" stroke-linecap="round" stroke-linejoin="round" opacity="0.9"/>
  <path d="M7.1,7.8C7.0,7.5 6.8,7.9 7.0,7.2C7.1,6.5 6.9,7.1 7.5,6.5C8.0,5.8 7.8,6.4 8.0,5.8C8.2,5.2 8.0,5.9 7.9,5.2C7.7,4.6 7.5,5.2 7.7,4.5C7.9,3.9 7.7,4.6 8.2,3.9C8.7,3.2 8.2,3.8 8.7,3.2C9.3,2.5 9.1,3.2 9.3,2.6C9.5,2.0 9.0,2.6 9.2,2.0C9.4,1.4 9.2,2.0 9.7,1.4C10.2,0.7 9.9,1.0 10.2,0.7" fill="none" stroke="#ef4444" stroke-width="0.8" stroke-linecap="round" stroke-linejoin="round" opacity="0.9"/>
  <path d="M25.2,24.9C24.8,24.7 25.2,25.0 24.4,24.5C23.7,24.0 24.7,24.5 23.7,23.9C22.6,23.4 23.0,24.0 22.3,23.5C21.6,22.9 22.6,23.5 22.2,22.9C21.8,22.4 22.2,22.9 21.5,22.4C20.7,21.8 21.5,22.4 20.7,21.8C19.9,21.2 20.4,21.8 19.9,21.2C19.5,20.5 20.3,21.2 19.8,20.5C19.4,19.9 19.8,20.5 19.0,19.9C18.3,19.3 19.0,19.9 18.3,19.3C17.5,18.7 18.3,19.3 17.5,18.7C16.8,18.0 17.2,18.7 16.8,18.0C16.3,17.3 17.1,18.0 16.6,17.3C16.2,16.6 16.3,17.3 15.8,16.6C15.4,15.9 16.2,16.7 15.7,16.0C15.3,15.3 15.7,15.9 14.9,15.2C14.2,14.5 14.9,15.2 14.2,14.6C13.4,13.9 14.2,14.5 13.4,13.8C12.6,13.1 13.0,13.8 12.6,13.2C12.2,12.5 12.6,13.2 12.5,12.6C12.4,12.0 12.4,12.3 12.4,12.0" fill="none" stroke="#ef4444" stroke-width="0.8" stroke-linecap="round" stroke-linejoin="round" opacity="0.9"/>
  <path d="M61.8,25.1C61.7,24.8 61.8,25.1 61.6,24.4C61.5,23.7 61.6,24.5 61.5,23.8C61.4,23.1 61.5,23.8 61.4,23.0C61.2,22.3 61.4,23.0 61.2,22.3C61.1,21.6 61.2,22.3 61.1,21.6C61.0,20.9 61.1,21.6 61.0,20.9C60.8,20.3 60.7,21.0 60.8,20.3C61.0,19.5 61.1,20.1 61.3,19.4C61.5,18.7 61.3,19.5 61.2,18.8C61.1,18.1 61.2,18.8 61.0,18.1C60.9,17.3 61.0,18.0 60.9,17.3C60.8,16.6 60.6,17.4 60.8,16.7C61.0,15.9 61.4,16.6 61.3,15.9C61.1,15.2 61.0,15.9 60.5,15.3C60.1,14.6 60.5,15.3 60.4,14.6C60.2,13.9 60.7,14.5 60.2,13.9C59.8,13.3 59.9,13.6 59.5,13.4" fill="none" stroke="#ef4444" stroke-width="0.8" stroke-linecap="round" stroke-linejoin="round" opacity="0.9"/>
  <path d="M30.6,76.1C30.0,76.2 30.6,76.0 29.3,76.3C28.1,76.5 29.0,76.4 28.1,76.6C27.2,76.7 28.4,76.6 27.5,76.6C26.5,76.7 27.5,76.6 26.2,76.7C25.0,76.9 25.9,76.7 25.0,76.9C24.1,77.1 25.0,76.9 24.4,77.1C23.8,77.3 24.7,77.1 23.8,77.3C22.8,77.5 23.1,77.4 22.5,77.4" fill="none" stroke="#ef4444" stroke-width="0.8" stroke-linecap="round" stroke-linejoin="round" opacity="0.9"/>
  <path d="M80.9,31.3C80.9,31.1 81.2,31.2 80.8,30.8C80.4,30.4 80.9,30.8 80.1,30.4C79.4,30.1 79.8,30.4 79.4,30.0C79.0,29.6 79.7,30.0 79.3,29.6C78.9,29.3 79.7,29.6 78.6,29.3C77.6,28.9 78.3,29.3 77.3,28.9C76.2,28.5 77.3,28.9 76.5,28.5C75.8,28.1 76.2,28.5 75.8,28.1C75.4,27.7 76.1,28.0 75.7,27.7C75.3,27.3 76.1,27.7 75.0,27.3C74.0,27.0 74.7,27.3 73.7,26.9C72.6,26.5 73.3,26.7 73.0,26.5" fill="none" stroke="#fbbf24" stroke-width="0.6" stroke-linecap="round" stroke-linejoin="round" opacity="0.7"/>
  <path d="M13.4,17.3C13.1,17.1 13.4,17.3 12.7,16.9C12.0,16.6 12.7,16.9 12.0,16.5C11.3,16.2 12.0,16.6 11.3,16.3C10.6,15.9 11.3,16.2 10.6,15.9C9.8,15.5 10.3,15.9 9.8,15.5C9.4,15.0 10.2,15.4 9.7,14.9C9.3,14.4 9.4,15.0 9.0,14.5C8.6,14.0 9.3,14.4 8.9,14.0C8.5,13.5 8.9,13.9 8.2,13.5C7.5,13.1 7.9,13.6 7.5,13.1C7.0,12.6 7.5,13.1 7.3,12.5C7.2,11.9 7.3,12.5 7.2,12.0C7.1,11.4 7.2,12.0 7.1,11.4C7.0,10.8 7.1,11.4 7.0,10.8C6.9,10.3 7.0,10.9 6.9,10.3C6.8,9.7 6.9,10.3 6.8,9.7C6.7,9.0 6.5,9.7 6.7,9.1C6.9,8.5 6.9,8.8 7.2,8.5" fill="none" stroke="#fbbf24" stroke-width="0.6" stroke-linecap="round" stroke-linejoin="round" opacity="0.7"/>
  <path d="M58.7,9.2C59.0,9.3 58.4,9.2 59.4,9.4C60.4,9.6 59.7,9.3 60.7,9.5C61.7,9.7 60.7,9.5 61.4,9.8C62.1,10.2 61.7,9.8 62.1,10.1C62.5,10.5 61.5,10.2 62.2,10.6C62.9,10.9 62.5,10.5 63.5,10.8C64.5,11.1 63.8,10.7 64.2,11.1C64.6,11.6 64.2,11.4 64.3,11.7" fill="none" stroke="#fbbf24" stroke-width="0.6" stroke-linecap="round" stroke-linejoin="round" opacity="0.7"/>
  <path d="M21.5,15.9C21.1,15.7 21.5,15.9 20.8,15.6C20.1,15.3 20.5,15.6 20.1,15.3C19.7,15.1 20.4,15.3 20.0,15.0C19.7,14.8 20.4,15.1 19.3,14.8C18.3,14.6 19.0,14.8 18.0,14.6C17.0,14.3 18.3,14.6 17.3,14.2C16.3,13.8 17.0,14.1 15.9,13.8C14.9,13.5 15.9,13.8 15.2,13.6C14.6,13.3 15.6,13.5 14.6,13.4C13.6,13.3 14.3,13.5 13.3,13.4C12.3,13.2 13.0,13.4 12.6,13.2C12.2,13.0 13.2,13.1 12.6,12.9C11.9,12.8 12.3,13.0 11.3,12.8C10.3,12.6 11.6,12.7 10.6,12.6C9.6,12.4 9.9,12.7 9.3,12.5C8.6,12.4 9.3,12.4 9.2,12.3" fill="none" stroke="#fbbf24" stroke-width="0.6" stroke-linecap="round" stroke-linejoin="round" opacity="0.7"/>
  <path d="M83.1,29.2C83.4,28.9 83.4,29.1 83.6,28.6C83.8,28.0 83.3,28.7 83.5,28.1C83.7,27.5 83.8,28.0 84.0,27.4C84.2,26.8 83.7,27.4 83.9,26.8C84.1,26.2 84.2,26.8 84.4,26.1C84.6,25.5 84.4,26.1 84.3,25.5C84.2,24.9 84.0,25.6 84.2,24.9C84.4,24.2 84.5,24.8 84.7,24.2C84.9,23.5 84.4,24.2 84.6,23.6C84.8,23.0 84.9,23.6 85.1,22.9C85.3,22.2 85.1,22.8 85.0,22.2C84.8,21.6 85.0,22.3 84.9,21.7C84.7,21.1 84.9,21.7 84.7,21.1C84.6,20.4 84.7,21.0 84.6,20.4C84.5,19.8 84.3,20.5 84.5,19.8C84.7,19.2 84.8,19.8 85.0,19.2C85.2,18.5 84.7,19.2 84.9,18.6C85.1,17.9 85.2,18.6 85.4,17.9C85.6,17.2 85.4,17.8 85.3,17.2C85.1,16.5 85.3,17.2 85.1,16.6C85.0,16.0 84.8,16.6 85.0,16.0C85.2,15.3 85.3,15.9 85.5,15.3C85.7,14.6 85.5,15.3 85.4,14.7C85.3,14.0 85.4,14.6 85.3,14.0C85.2,13.3 85.0,14.0 85.2,13.4C85.4,12.7 85.5,13.4 85.7,12.7C85.9,12.1 85.7,12.7 85.5,12.1C85.4,11.4 85.5,12.0 85.4,11.4C85.3,10.8 85.1,11.5 85.3,10.8C85.5,10.2 85.9,10.8 85.8,10.1C85.7,9.5 85.2,10.2 85.1,9.6C84.9,8.9 85.4,9.5 85.6,8.9C85.8,8.2 85.6,8.8 85.4,8.2C85.3,7.6 85.5,8.3 85.3,7.6C85.2,7.0 85.3,7.6 85.2,6.9C85.1,6.3 85.2,6.9 85.1,6.3C85.0,5.7 85.1,6.4 85.0,5.7C84.8,5.1 85.0,5.7 84.8,5.1C84.7,4.5 84.8,5.1 84.7,4.5C84.6,3.9 84.7,4.5 84.6,3.9C84.5,3.3 84.6,3.9 84.5,3.3C84.4,2.7 84.5,3.3 84.4,2.7C84.3,2.2 84.4,2.8 84.3,2.2C84.2,1.6 84.0,2.2 84.2,1.6C84.4,1.1 84.4,1.3 84.7,1.1" fill="none" stroke="#fbbf24" stroke-width="0.6" stroke-linecap="round" stroke-linejoin="round" opacity="0.7"/>
  <path d="M65.0,21.9C65.0,21.7 65.3,21.9 64.9,21.4C64.5,20.9 64.6,21.4 64.2,20.9C63.7,20.3 64.1,20.8 64.0,20.3C63.9,19.8 64.1,20.3 63.9,19.8C63.8,19.3 64.0,19.8 63.8,19.2C63.7,18.7 64.2,19.2 63.7,18.7C63.3,18.1 63.7,18.7 63.0,18.2C62.3,17.7 63.0,18.1 62.3,17.7C61.5,17.2 62.3,17.7 61.5,17.3C60.8,16.8 61.2,17.3 60.8,16.8C60.4,16.3 61.1,16.7 60.7,16.3C60.3,15.8 60.4,16.3 60.0,15.9C59.6,15.5 59.9,15.7 59.9,15.4" fill="none" stroke="#fbbf24" stroke-width="0.6" stroke-linecap="round" stroke-linejoin="round" opacity="0.7"/>
  <path d="M30.1,27.2C29.7,27.1 30.1,27.2 29.4,26.9C28.7,26.7 29.4,26.9 28.7,26.6C28.0,26.4 28.7,26.6 28.0,26.4C27.3,26.1 28.3,26.4 27.3,26.1C26.3,25.8 27.0,26.1 26.0,25.7C24.9,25.4 25.6,25.5 25.2,25.4" fill="none" stroke="#fbbf24" stroke-width="0.6" stroke-linecap="round" stroke-linejoin="round" opacity="0.7"/>
  <path d="M34.8,5.3C35.1,5.0 34.8,5.2 35.3,4.7C35.9,4.1 35.7,4.8 35.9,4.2C36.1,3.6 35.9,4.1 35.8,3.5C35.6,2.9 35.5,3.6 35.7,2.9C35.8,2.3 36.0,3.0 36.2,2.2C36.3,1.5 36.1,2.2 36.0,1.5C35.9,0.8 35.9,1.2 35.9,0.9" fill="none" stroke="#fbbf24" stroke-width="0.6" stroke-linecap="round" stroke-linejoin="round" opacity="0.7"/>
  <path d="M34.2,35.3C34.2,35.1 34.2,35.3 34.1,34.8C34.0,34.3 34.1,34.8 34.0,34.3C33.9,33.8 34.0,34.3 33.9,33.7C33.8,33.2 34.2,33.7 33.8,33.1C33.4,32.6 33.5,33.2 33.1,32.6C32.6,32.1 33.1,32.6 33.0,32.1C32.9,31.5 33.0,32.1 32.9,31.6C32.8,31.0 33.2,31.5 32.8,31.0C32.3,30.5 32.4,31.0 32.0,30.6C31.6,30.1 32.3,30.6 31.9,30.1C31.5,29.7 31.6,30.1 31.2,29.7C30.8,29.2 31.5,29.6 31.1,29.1C30.7,28.7 30.7,28.9 30.4,28.7" fill="none" stroke="#fbbf24" stroke-width="0.6" stroke-linecap="round" stroke-linejoin="round" opacity="0.7"/>
  <path d="M43.0,30.9C42.7,30.8 43.0,30.9 42.3,30.8C41.7,30.6 42.3,30.8 41.7,30.6C41.0,30.5 42.0,30.6 41.0,30.5C40.0,30.4 40.4,30.6 39.7,30.5C39.0,30.4 40.0,30.5 39.7,30.3C39.3,30.1 40.0,30.2 39.0,30.1C38.0,29.9 38.7,30.2 37.7,29.9C36.7,29.7 37.7,29.9 37.0,29.6C36.3,29.4 37.0,29.6 36.3,29.4C35.6,29.1 36.3,29.4 35.6,29.1C34.9,28.9 35.6,29.1 34.9,28.8C34.2,28.5 34.9,28.8 34.2,28.5C33.5,28.1 34.2,28.5 33.5,28.1C32.8,27.7 33.5,28.0 32.8,27.7C32.0,27.3 32.4,27.8 32.0,27.4C31.6,27.0 32.1,27.4 32.0,26.9C31.9,26.4 32.3,26.8 31.9,26.4C31.4,25.9 31.9,26.4 31.1,25.9C30.4,25.5 30.8,26.0 30.4,25.5C30.0,25.0 30.6,25.4 30.3,24.9C30.0,24.4 30.3,24.9 29.9,24.4C29.5,23.9 29.7,24.5 29.5,23.9C29.2,23.4 29.4,23.8 29.3,23.3C29.2,22.8 29.3,23.3 29.2,22.8C29.2,22.4 29.3,22.9 29.1,22.4C29.0,21.8 29.1,22.1 29.0,21.8" fill="none" stroke="#fbbf24" stroke-width="0.6" stroke-linecap="round" stroke-linejoin="round" opacity="0.7"/>
  <path d="M43.6,30.5C43.8,30.3 43.9,30.5 44.1,30.0C44.3,29.5 44.1,30.0 44.0,29.5C43.9,29.0 43.7,29.5 43.9,29.0C44.1,28.4 44.1,29.0 44.4,28.4C44.8,27.8 44.4,28.4 44.7,27.8C44.9,27.3 44.5,27.8 44.9,27.3C45.2,26.7 45.2,27.2 45.4,26.7C45.6,26.1 45.4,26.7 45.3,26.2C45.2,25.7 45.0,26.2 45.2,25.6C45.4,25.1 45.2,25.7 45.7,25.1C46.3,24.5 45.7,25.1 46.3,24.5C46.8,23.9 46.2,24.5 46.8,23.9C47.3,23.3 46.8,23.9 47.3,23.4C47.9,22.8 47.5,23.4 47.8,22.8C48.2,22.3 47.8,22.8 48.1,22.3C48.3,21.7 47.9,22.3 48.3,21.7C48.7,21.2 48.3,21.7 48.8,21.2C49.4,20.7 48.8,21.2 49.4,20.7C49.9,20.2 49.4,20.7 49.9,20.2C50.5,19.7 49.9,20.2 50.5,19.7C51.0,19.2 50.8,19.8 51.0,19.2C51.2,18.6 50.7,19.2 50.9,18.5C51.1,17.9 51.1,18.2 51.4,17.9" fill="none" stroke="#fbbf24" stroke-width="0.6" stroke-linecap="round" stroke-linejoin="round" opacity="0.7"/>
  <path d="M50.7,7.8C51.0,7.7 50.7,7.9 51.3,7.6C51.9,7.4 51.1,7.6 51.9,7.3C52.7,7.1 51.9,7.3 52.8,7.2C53.8,7.0 53.0,7.1 53.8,7.0C54.5,6.9 53.8,7.0 54.4,7.0C55.0,6.9 54.1,7.0 55.0,6.9C56.0,6.7 55.3,6.8 56.3,6.7C57.2,6.5 55.9,6.7 56.9,6.6C57.9,6.6 57.2,6.6 58.2,6.6C59.1,6.6 58.2,6.6 58.8,6.7C59.5,6.7 58.5,6.7 59.5,6.7C60.4,6.7 59.6,6.7 60.8,6.7C61.9,6.7 60.8,6.7 61.7,6.7C62.7,6.8 61.9,6.7 62.7,6.8C63.5,6.9 62.4,6.8 63.4,6.9C64.4,7.0 63.7,6.9 64.7,7.0C65.7,7.1 64.7,7.0 65.3,7.1C66.0,7.2 65.3,7.1 66.0,7.2C66.7,7.3 65.7,7.2 66.7,7.3C67.6,7.4 67.0,7.3 68.0,7.4C69.0,7.6 68.0,7.4 68.6,7.6C69.3,7.9 68.5,7.7 69.3,7.9C70.2,8.1 69.3,7.9 70.3,8.0C71.3,8.2 70.5,8.0 71.3,8.2C72.2,8.4 71.6,8.2 72.0,8.5C72.4,8.8 71.7,8.5 72.1,8.8C72.5,9.2 71.8,8.9 72.8,9.2C73.8,9.5 73.1,9.2 74.1,9.5C75.2,9.8 74.1,9.5 74.8,9.8C75.5,10.1 75.1,9.7 75.6,10.1C76.0,10.6 75.2,10.2 75.6,10.6C76.1,11.1 75.8,10.6 76.4,11.0C76.9,11.4 76.4,11.0 76.8,11.4C77.2,11.8 76.6,11.5 77.2,11.8C77.7,12.2 77.2,11.8 77.9,12.2C78.6,12.6 78.2,12.2 78.6,12.7C79.0,13.1 78.7,12.9 78.7,13.1" fill="none" stroke="#fbbf24" stroke-width="0.6" stroke-linecap="round" stroke-linejoin="round" opacity="0.7"/>
  <path d="M72.3,19.9C71.7,19.8 71.7,20.0 71.0,19.7C70.3,19.4 71.3,19.7 70.9,19.3C70.5,19.0 70.9,19.4 70.2,19.0C69.5,18.7 70.2,19.0 69.5,18.7C68.8,18.3 69.5,18.7 68.8,18.4C68.1,18.1 68.7,18.4 68.1,18.0C67.5,17.7 68.5,18.2 67.7,17.7C66.9,17.1 67.5,17.4 66.6,16.9C65.7,16.3 66.6,16.8 65.9,16.5C65.2,16.2 65.9,16.5 65.2,16.2C64.5,15.9 65.2,16.2 64.5,15.9C63.8,15.5 64.5,15.8 63.7,15.4C63.0,15.0 63.4,15.5 63.0,15.1C62.6,14.7 63.3,15.0 63.0,14.7C62.6,14.4 63.1,14.7 62.3,14.4C61.4,14.1 62.3,14.4 61.2,14.1C60.2,13.8 61.1,14.1 60.2,13.8C59.4,13.5 59.9,13.8 59.5,13.5C59.1,13.2 60.1,13.5 59.5,13.2C58.8,13.0 59.1,13.2 58.1,13.0C57.1,12.8 57.8,12.9 57.5,12.8" fill="none" stroke="#fbbf24" stroke-width="0.6" stroke-linecap="round" stroke-linejoin="round" opacity="0.7"/>
  <path d="M40.9,13.7C41.6,13.5 41.3,13.7 42.2,13.4C43.1,13.1 42.5,13.4 42.8,13.1C43.0,12.9 42.3,13.2 42.7,12.9C43.2,12.7 42.7,12.9 43.6,12.7C44.5,12.4 42.3,13.4 44.5,12.4C46.8,11.4 45.7,11.7 48.1,10.6C50.4,9.6 48.7,10.6 49.3,10.2C49.8,9.9 48.9,10.3 49.2,9.9C49.4,9.6 49.2,9.9 49.8,9.5C50.3,9.1 49.8,9.5 50.3,9.1C50.9,8.7 50.3,9.1 50.9,8.7C51.4,8.2 50.9,8.7 51.4,8.2C52.0,7.7 51.8,8.2 52.0,7.7C52.2,7.1 51.6,7.7 51.9,7.1C52.1,6.6 51.9,7.2 52.4,6.6C52.9,6.1 52.4,6.7 52.9,6.1C53.5,5.5 52.9,6.1 53.5,5.5C54.0,4.9 53.6,5.5 54.0,4.9C54.4,4.4 54.0,4.9 54.2,4.4C54.4,3.8 54.1,4.4 54.4,3.8C54.8,3.3 54.4,3.8 55.0,3.3C55.5,2.7 55.0,3.3 55.5,2.7C56.0,2.2 55.5,2.7 56.0,2.2C56.6,1.6 56.0,2.2 56.6,1.6C57.1,1.0 56.9,1.5 57.1,1.0C57.3,0.5 57.1,0.8 57.0,0.6" fill="none" stroke="#fbbf24" stroke-width="0.6" stroke-linecap="round" stroke-linejoin="round" opacity="0.7"/>
  <path d="M64.3,8.3C64.6,8.4 64.4,8.2 65.0,8.5C65.5,8.8 65.0,8.5 65.4,8.9C65.8,9.3 65.2,8.9 65.8,9.3C66.3,9.6 65.8,9.3 66.5,9.6C67.2,9.9 66.5,9.6 67.2,9.9C67.9,10.2 67.5,10.0 67.9,10.2" fill="none" stroke="#fbbf24" stroke-width="0.6" stroke-linecap="round" stroke-linejoin="round" opacity="0.7"/>
  <path d="M51.5,41.9C51.5,41.6 51.5,41.8 51.4,41.3C51.3,40.8 51.4,41.3 51.3,40.8C51.3,40.3 51.3,40.8 51.2,40.3C51.1,39.8 50.9,40.4 51.1,39.8C51.3,39.2 51.5,39.7 51.7,39.1C51.9,38.5 51.3,39.1 51.5,38.6C51.8,38.0 51.9,38.6 52.1,38.0C52.3,37.3 51.8,38.0 51.9,37.3C52.1,36.6 52.3,37.3 52.5,36.6C52.7,36.0 52.1,36.7 52.3,36.0C52.5,35.4 52.3,36.0 52.8,35.3C53.4,34.7 53.0,35.4 53.4,34.8C53.7,34.2 53.4,34.8 53.6,34.2C53.8,33.6 53.7,34.2 53.8,33.6C53.8,33.0 53.5,33.6 53.7,33.0C53.9,32.3 53.7,32.9 54.2,32.3C54.7,31.7 54.2,32.4 54.7,31.8C55.2,31.2 55.0,31.7 55.2,31.1C55.4,30.5 54.9,31.1 55.1,30.5C55.3,30.0 55.1,30.5 55.7,30.0C56.2,29.4 56.0,30.0 56.2,29.4C56.4,28.9 56.0,29.4 56.1,28.9C56.1,28.4 56.1,28.9 56.3,28.4C56.5,27.9 56.2,28.4 56.5,27.9C56.9,27.4 56.8,27.6 57.1,27.3" fill="none" stroke="#fbbf24" stroke-width="0.6" stroke-linecap="round" stroke-linejoin="round" opacity="0.7"/>
  <path d="M62.6,29.3C62.5,29.1 62.6,29.3 62.5,28.8C62.4,28.3 62.5,28.9 62.4,28.3C62.3,27.7 62.4,28.2 62.3,27.6C62.2,27.1 62.3,27.7 62.2,27.1C62.0,26.5 62.2,27.1 62.0,26.4C61.9,25.8 62.0,26.1 61.9,25.8" fill="none" stroke="#fbbf24" stroke-width="0.6" stroke-linecap="round" stroke-linejoin="round" opacity="0.7"/>
  <path d="M67.0,38.8C67.1,38.6 67.0,38.8 67.2,38.4C67.5,38.0 66.8,38.4 67.5,38.0C68.2,37.6 67.8,38.0 68.7,37.6C69.6,37.2 68.7,37.7 69.3,37.2C69.8,36.7 69.2,37.1 69.8,36.7C70.3,36.2 69.8,36.7 70.4,36.3C70.9,35.8 70.7,36.2 70.9,35.7C71.1,35.2 70.6,35.7 70.8,35.2C71.0,34.7 70.8,35.3 71.3,34.7C71.9,34.1 71.3,34.7 71.9,34.1C72.4,33.5 71.9,34.1 72.4,33.5C72.9,32.9 72.7,33.5 72.9,32.9C73.1,32.4 72.6,32.9 72.8,32.4C73.0,31.9 73.1,32.4 73.4,31.9C73.6,31.4 73.0,31.9 73.3,31.4C73.5,30.8 73.6,31.3 73.8,30.8C74.0,30.3 73.7,30.6 73.7,30.4" fill="none" stroke="#fbbf24" stroke-width="0.6" stroke-linecap="round" stroke-linejoin="round" opacity="0.7"/>
  <path d="M23.7,53.8C23.7,53.5 23.4,53.9 23.6,53.3C23.8,52.7 23.6,53.3 24.1,52.7C24.6,52.0 23.8,52.6 24.6,52.0C25.5,51.5 25.0,52.0 25.8,51.5C26.7,51.1 25.8,51.5 26.4,51.1C26.9,50.7 26.7,51.1 26.9,50.7C27.2,50.3 26.6,50.7 26.9,50.3C27.1,49.9 26.5,50.3 27.4,49.8C28.3,49.4 27.7,49.8 28.6,49.5C29.5,49.1 28.6,49.4 29.2,49.1C29.8,48.8 29.2,49.2 29.8,48.9C30.4,48.5 29.5,48.8 30.4,48.5C31.3,48.1 30.7,48.4 31.6,48.2C32.5,47.9 31.6,48.1 32.2,48.0C32.8,48.0 32.5,48.0 32.8,48.0" fill="none" stroke="#fbbf24" stroke-width="0.6" stroke-linecap="round" stroke-linejoin="round" opacity="0.7"/>
  <path d="M57.2,47.6C57.8,47.8 57.5,47.6 58.5,47.9C59.5,48.2 58.5,47.9 59.2,48.2C59.9,48.6 59.2,48.2 59.9,48.6C60.6,49.0 59.9,48.6 60.6,49.0C61.4,49.4 60.6,49.0 61.4,49.4C62.1,49.8 61.4,49.4 62.1,49.8C62.8,50.2 62.1,49.9 62.8,50.3C63.5,50.7 63.1,50.2 63.5,50.6C63.9,51.0 62.9,50.7 63.6,51.1C64.3,51.5 64.2,51.0 65.0,51.4C65.7,51.8 64.6,51.5 65.0,51.9C65.4,52.3 64.7,51.9 65.7,52.2C66.8,52.4 66.4,52.3 67.1,52.4" fill="none" stroke="#fbbf24" stroke-width="0.6" stroke-linecap="round" stroke-linejoin="round" opacity="0.7"/>
  <path d="M38.1,75.2C37.5,75.3 37.8,75.3 36.9,75.3C35.9,75.4 37.2,75.2 36.2,75.3C35.3,75.4 36.1,75.3 35.0,75.5C33.9,75.7 35.0,75.5 34.0,75.7C33.1,75.9 33.9,75.7 33.1,75.9C32.3,76.0 33.1,75.9 32.5,75.9C31.9,76.0 36.8,75.2 31.9,76.0C26.9,76.7 27.5,76.7 22.5,77.4C17.5,78.1 22.5,77.4 21.9,77.5C21.2,77.5 22.2,77.4 21.2,77.5C20.3,77.6 21.2,77.5 20.0,77.7C18.8,77.9 19.4,77.8 18.8,77.9C18.1,78.0 19.4,77.8 18.7,77.8C18.1,77.8 18.7,77.8 17.5,77.9C16.2,78.0 17.1,77.9 16.2,78.0C15.3,78.1 16.2,78.0 15.6,78.1C15.0,78.2 15.6,78.1 15.0,78.2C14.3,78.2 15.3,78.1 14.3,78.2C13.4,78.2 14.0,78.2 13.0,78.2C12.1,78.2 13.0,78.2 12.4,78.2C11.8,78.2 12.4,78.2 11.8,78.2C11.1,78.3 11.4,78.3 11.1,78.3" fill="none" stroke="#fbbf24" stroke-width="0.6" stroke-linecap="round" stroke-linejoin="round" opacity="0.7"/>
  <ellipse cx="48.6" cy="28.4" rx="3.5" ry="2.2" fill="#0c0c0c" stroke="#ef4444" stroke-width="0.4" opacity="0.95"/>
  <text x="48.6" y="29.3" text-anchor="middle" font-family="sans-serif" font-size="2.4" font-weight="700" fill="#ffffff" opacity="0.95">OR</text>
</svg>