<svg xmlns="http://www.w3.org/2000/svg" viewBox="0 0 106.14050285055407 102.1169759827725" preserveAspectRatio="none">
  <path d="M72.2,26.1C72.2,25.9 72.6,25.9 72.1,25.6C71.6,25.3 71.5,25.5 70.8,25.1C70.1,24.8 70.5,25.0 70.0,24.6C69.5,24.3 69.8,24.5 69.3,24.2C68.8,23.9 69.0,24.0 68.5,23.7C68.1,23.3 68.3,23.5 67.8,23.2C67.3,22.8 67.6,23.0 67.1,22.7C66.6,22.3 67.0,22.5 66.3,22.2C65.6,21.8 65.7,22.0 65.0,21.7C64.3,21.4 64.5,21.6 64.2,21.2C63.9,20.8 64.4,20.9 64.1,20.5C63.8,20.1 63.8,20.3 63.3,20.0C62.9,19.6 63.3,19.8 62.6,19.5C61.9,19.2 61.9,19.4 61.2,19.1C60.5,18.8 60.8,18.8 60.5,18.6" fill="none" stroke="#ef4444" stroke-width="0.8" stroke-linecap="round" stroke-linejoin="round" opacity="0.9"/>
  <path d="M49.7,25.5C49.4,25.4 49.4,25.5 49.0,25.2C48.5,25.0 48.7,25.0 48.2,24.7C47.7,24.4 48.0,24.6 47.5,24.3C47.0,24.1 47.5,24.2 46.8,23.9C46.1,23.7 46.1,23.8 45.4,23.6C44.7,23.3 45.0,23.5 44.7,23.1C44.4,22.8 45.1,22.9 44.6,22.5C44.1,22.1 43.9,22.4 43.2,22.1C42.5,21.7 43.0,21.9 42.5,21.5C42.0,21.1 42.2,21.3 41.7,20.9C41.2,20.6 41.3,20.8 41.0,20.4C40.7,19.9 41.1,20.1 40.8,19.6C40.5,19.2 40.8,19.4 40.1,19.0C39.3,18.7 39.4,18.9 38.7,18.5C38.0,18.1 38.4,18.3 37.9,17.9C37.4,17.5 37.5,17.7 37.1,17.3C36.8,16.8 37.3,17.0 37.0,16.5C36.7,16.0 36.7,16.3 36.2,15.9C35.7,15.5 36.0,15.7 35.5,15.3C35.0,14.9 35.2,15.1 34.7,14.6C34.2,14.1 34.6,14.3 33.9,13.8C33.2,13.4 33.0,13.7 32.5,13.3C32.0,13.0 32.7,13.1 32.4,12.7C32.1,12.4 32.2,12.6 31.7,12.3C31.2,11.9 31.4,12.1 30.9,11.7C30.4,11.3 30.4,11.3 30.2,11.1" fill="none" stroke="#ef4444" stroke-width="0.8" stroke-linecap="round" stroke-linejoin="round" opacity="0.9"/>
  <path d="M7.1,7.8C7.0,7.6 6.8,7.6 7.0,7.2C7.1,6.7 7.1,6.9 7.5,6.5C7.8,6.0 7.8,6.2 8.0,5.8C8.1,5.4 7.9,5.6 7.9,5.2C7.8,4.8 7.6,5.0 7.7,4.5C7.9,4.1 7.9,4.3 8.2,3.9C8.6,3.4 8.4,3.6 8.7,3.2C9.1,2.7 9.1,3.0 9.3,2.6C9.4,2.2 9.0,2.4 9.2,2.0C9.3,1.6 9.3,1.8 9.7,1.4C10.0,0.9 10.0,0.9 10.2,0.7" fill="none" stroke="#ef4444" stroke-width="0.8" stroke-linecap="round" stroke-linejoin="round" opacity="0.9"/>
  <path d="M25.2,24.9C24.9,24.8 24.9,24.8 24.4,24.5C23.9,24.2 24.4,24.3 23.7,23.9C23.0,23.6 22.8,23.8 22.3,23.5C21.8,23.1 22.5,23.3 22.2,22.9C21.9,22.5 21.9,22.7 21.5,22.4C21.0,22.0 21.2,22.2 20.7,21.8C20.2,21.4 20.2,21.6 19.9,21.2C19.6,20.7 20.1,21.0 19.8,20.5C19.5,20.1 19.6,20.3 19.0,19.9C18.5,19.5 18.8,19.7 18.3,19.3C17.8,18.9 18.0,19.1 17.5,18.7C17.0,18.3 17.1,18.4 16.8,18.0C16.4,17.5 16.9,17.8 16.6,17.3C16.3,16.9 16.1,17.1 15.8,16.6C15.5,16.2 16.0,16.4 15.7,16.0C15.4,15.5 15.4,15.7 14.9,15.2C14.4,14.8 14.7,15.0 14.2,14.6C13.6,14.1 13.9,14.3 13.4,13.8C12.9,13.4 12.9,13.6 12.6,13.2C12.3,12.7 12.6,13.0 12.5,12.6C12.4,12.2 12.4,12.2 12.4,12.0" fill="none" stroke="#ef4444" stroke-width="0.8" stroke-linecap="round" stroke-linejoin="round" opacity="0.9"/>
  <path d="M61.8,25.1C61.7,24.9 61.7,24.9 61.6,24.4C61.6,24.0 61.6,24.2 61.5,23.8C61.4,23.3 61.5,23.5 61.4,23.0C61.3,22.5 61.3,22.8 61.2,22.3C61.1,21.8 61.2,22.1 61.1,21.6C61.0,21.1 61.0,21.4 61.0,20.9C60.9,20.5 60.7,20.8 60.8,20.3C60.9,19.8 61.2,19.9 61.3,19.4C61.4,18.9 61.3,19.3 61.2,18.8C61.1,18.4 61.1,18.6 61.0,18.1C60.9,17.6 61.0,17.8 60.9,17.3C60.8,16.8 60.6,17.1 60.8,16.7C60.9,16.2 61.4,16.3 61.3,15.9C61.2,15.4 60.8,15.7 60.5,15.3C60.2,14.8 60.5,15.0 60.4,14.6C60.3,14.1 60.5,14.3 60.2,13.9C59.9,13.5 59.7,13.6 59.5,13.4" fill="none" stroke="#ef4444" stroke-width="0.8" stroke-linecap="round" stroke-linejoin="round" opacity="0.9"/>
  <path d="M30.6,76.1C30.2,76.2 30.2,76.1 29.3,76.3C28.5,76.4 28.7,76.4 28.1,76.6C27.5,76.7 28.1,76.6 27.5,76.6C26.9,76.7 27.1,76.6 26.2,76.7C25.4,76.8 25.6,76.8 25.0,76.9C24.4,77.0 24.8,77.0 24.4,77.1C24.0,77.2 24.4,77.2 23.8,77.3C23.1,77.4 22.9,77.4 22.5,77.4" fill="none" stroke="#ef4444" stroke-width="0.8" stroke-linecap="round" stroke-linejoin="round" opacity="0.9"/>
  <path d="M80.9,31.3C80.9,31.1 81.1,31.1 80.8,30.8C80.6,30.5 80.6,30.7 80.1,30.4C79.7,30.2 79.7,30.3 79.4,30.0C79.1,29.8 79.6,29.9 79.3,29.6C79.1,29.4 79.3,29.5 78.6,29.3C77.9,29.0 78.0,29.1 77.3,28.9C76.6,28.6 77.0,28.8 76.5,28.5C76.1,28.2 76.1,28.4 75.8,28.1C75.6,27.8 76.0,27.9 75.7,27.7C75.5,27.4 75.7,27.6 75.0,27.3C74.3,27.1 74.4,27.2 73.7,26.9C73.0,26.7 73.2,26.7 73.0,26.5" fill="none" stroke="#fbbf24" stroke-width="0.6" stroke-linecap="round" stroke-linejoin="round" opacity="0.7"/>
  <path d="M13.4,17.3C13.2,17.2 13.2,17.2 12.7,16.9C12.2,16.7 12.4,16.8 12.0,16.5C11.5,16.3 11.8,16.5 11.3,16.3C10.8,16.0 11.0,16.1 10.6,15.9C10.1,15.6 10.1,15.8 9.8,15.5C9.6,15.2 10.0,15.3 9.7,14.9C9.5,14.6 9.3,14.8 9.0,14.5C8.7,14.2 9.2,14.3 8.9,14.0C8.6,13.6 8.7,13.8 8.2,13.5C7.7,13.3 7.7,13.5 7.5,13.1C7.2,12.8 7.4,12.9 7.3,12.5C7.3,12.1 7.3,12.3 7.2,12.0C7.2,11.6 7.2,11.8 7.1,11.4C7.1,11.0 7.1,11.2 7.0,10.8C6.9,10.5 7.0,10.7 6.9,10.3C6.8,9.9 6.9,10.1 6.8,9.7C6.7,9.2 6.5,9.5 6.7,9.1C6.8,8.7 7.0,8.7 7.2,8.5" fill="none" stroke="#fbbf24" stroke-width="0.6" stroke-linecap="round" stroke-linejoin="round" opacity="0.7"/>
  <path d="M58.7,9.2C58.9,9.3 58.7,9.3 59.4,9.4C60.0,9.5 60.0,9.4 60.7,9.5C61.3,9.7 60.9,9.6 61.4,9.8C61.8,10.0 61.8,9.9 62.1,10.1C62.3,10.4 61.7,10.3 62.2,10.6C62.6,10.8 62.8,10.6 63.5,10.8C64.2,11.0 63.9,10.9 64.2,11.1C64.5,11.4 64.3,11.5 64.3,11.7" fill="none" stroke="#fbbf24" stroke-width="0.6" stroke-linecap="round" stroke-linejoin="round" opacity="0.7"/>
  <path d="M21.5,15.9C21.2,15.8 21.2,15.8 20.8,15.6C20.3,15.4 20.3,15.5 20.1,15.3C19.8,15.2 20.3,15.2 20.0,15.0C19.8,14.9 20.0,15.0 19.3,14.8C18.7,14.6 18.7,14.7 18.0,14.6C17.3,14.4 18.0,14.5 17.3,14.2C16.6,14.0 16.6,14.0 15.9,13.8C15.3,13.6 15.7,13.7 15.2,13.6C14.8,13.4 15.2,13.5 14.6,13.4C13.9,13.3 13.9,13.4 13.3,13.4C12.6,13.3 12.8,13.3 12.6,13.2C12.4,13.0 13.0,13.1 12.6,12.9C12.1,12.8 11.9,12.9 11.3,12.8C10.6,12.7 11.2,12.7 10.6,12.6C9.9,12.5 9.7,12.6 9.3,12.5C8.8,12.4 9.2,12.4 9.2,12.3" fill="none" stroke="#fbbf24" stroke-width="0.6" stroke-linecap="round" stroke-linejoin="round" opacity="0.7"/>
  <path d="M83.1,29.2C83.3,29.0 83.5,28.9 83.6,28.6C83.8,28.2 83.4,28.5 83.5,28.1C83.7,27.7 83.9,27.8 84.0,27.4C84.2,27.0 83.8,27.2 83.9,26.8C84.1,26.4 84.3,26.6 84.4,26.1C84.6,25.7 84.4,25.9 84.3,25.5C84.2,25.1 84.1,25.4 84.2,24.9C84.3,24.5 84.6,24.6 84.7,24.2C84.8,23.7 84.5,24.0 84.6,23.6C84.7,23.2 85.0,23.4 85.1,22.9C85.2,22.4 85.0,22.6 85.0,22.2C84.9,21.8 84.9,22.1 84.9,21.7C84.8,21.3 84.8,21.5 84.7,21.1C84.6,20.7 84.7,20.8 84.6,20.4C84.5,20.0 84.4,20.3 84.5,19.8C84.6,19.4 84.9,19.6 85.0,19.2C85.1,18.7 84.8,19.0 84.9,18.6C85.0,18.1 85.3,18.3 85.4,17.9C85.5,17.4 85.3,17.6 85.3,17.2C85.2,16.7 85.2,17.0 85.1,16.6C85.1,16.2 84.9,16.4 85.0,16.0C85.2,15.6 85.4,15.7 85.5,15.3C85.7,14.8 85.5,15.1 85.4,14.7C85.3,14.2 85.4,14.4 85.3,14.0C85.2,13.6 85.0,13.8 85.2,13.4C85.3,12.9 85.5,13.2 85.7,12.7C85.8,12.3 85.6,12.5 85.5,12.1C85.5,11.6 85.5,11.8 85.4,11.4C85.3,11.0 85.2,11.3 85.3,10.8C85.4,10.4 85.9,10.5 85.8,10.1C85.7,9.7 85.1,10.0 85.1,9.6C85.0,9.1 85.4,9.3 85.6,8.9C85.7,8.4 85.5,8.6 85.4,8.2C85.4,7.8 85.4,8.1 85.3,7.6C85.3,7.2 85.3,7.4 85.2,6.9C85.1,6.5 85.2,6.7 85.1,6.3C85.0,5.9 85.0,6.1 85.0,5.7C84.9,5.3 84.9,5.5 84.8,5.1C84.8,4.7 84.8,4.9 84.7,4.5C84.6,4.1 84.7,4.3 84.6,3.9C84.5,3.5 84.6,3.7 84.5,3.3C84.4,2.9 84.5,3.1 84.4,2.7C84.3,2.4 84.3,2.6 84.3,2.2C84.2,1.8 84.0,2.0 84.2,1.6C84.3,1.2 84.5,1.2 84.7,1.1" fill="none" stroke="#fbbf24" stroke-width="0.6" stroke-linecap="round" stroke-linejoin="round" opacity="0.7"/>
  <path d="M65.0,21.9C65.0,21.8 65.2,21.8 64.9,21.4C64.6,21.1 64.4,21.2 64.2,20.9C63.9,20.5 64.1,20.6 64.0,20.3C64.0,19.9 64.0,20.2 63.9,19.8C63.9,19.5 63.9,19.6 63.8,19.2C63.8,18.9 64.0,19.0 63.7,18.7C63.4,18.3 63.5,18.5 63.0,18.2C62.5,17.9 62.7,18.0 62.3,17.7C61.8,17.4 62.0,17.6 61.5,17.3C61.0,17.0 61.1,17.1 60.8,16.8C60.5,16.5 61.0,16.6 60.7,16.3C60.4,16.0 60.3,16.2 60.0,15.9C59.7,15.6 59.9,15.6 59.9,15.4" fill="none" stroke="#fbbf24" stroke-width="0.6" stroke-linecap="round" stroke-linejoin="round" opacity="0.7"/>
  <path d="M30.1,27.2C29.9,27.1 29.9,27.1 29.4,26.9C28.9,26.8 29.2,26.8 28.7,26.6C28.2,26.4 28.5,26.6 28.0,26.4C27.5,26.2 28.0,26.3 27.3,26.1C26.6,25.9 26.6,26.0 26.0,25.7C25.3,25.5 25.5,25.5 25.2,25.4" fill="none" stroke="#fbbf24" stroke-width="0.6" stroke-linecap="round" stroke-linejoin="round" opacity="0.7"/>
  <path d="M34.8,5.3C35.0,5.1 35.0,5.1 35.3,4.7C35.7,4.3 35.8,4.6 35.9,4.2C36.0,3.8 35.8,3.9 35.8,3.5C35.7,3.1 35.5,3.4 35.7,2.9C35.8,2.5 36.0,2.7 36.2,2.2C36.3,1.7 36.1,1.9 36.0,1.5C35.9,1.0 35.9,1.1 35.9,0.9" fill="none" stroke="#fbbf24" stroke-width="0.6" stroke-linecap="round" stroke-linejoin="round" opacity="0.7"/>
  <path d="M34.2,35.3C34.2,35.1 34.2,35.1 34.1,34.8C34.1,34.4 34.1,34.6 34.0,34.3C34.0,33.9 34.0,34.1 33.9,33.7C33.9,33.4 34.1,33.5 33.8,33.1C33.5,32.8 33.4,33.0 33.1,32.6C32.8,32.3 33.0,32.4 33.0,32.1C32.9,31.7 32.9,31.9 32.9,31.6C32.8,31.2 33.0,31.4 32.8,31.0C32.5,30.7 32.3,30.9 32.0,30.6C31.8,30.2 32.2,30.4 31.9,30.1C31.7,29.8 31.5,30.0 31.2,29.7C30.9,29.3 31.4,29.4 31.1,29.1C30.8,28.8 30.6,28.8 30.4,28.7" fill="none" stroke="#fbbf24" stroke-width="0.6" stroke-linecap="round" stroke-linejoin="round" opacity="0.7"/>
  <path d="M43.0,30.9C42.8,30.8 42.8,30.8 42.3,30.8C41.9,30.7 42.1,30.7 41.7,30.6C41.2,30.5 41.6,30.5 41.0,30.5C40.3,30.4 40.2,30.5 39.7,30.5C39.3,30.4 39.9,30.4 39.7,30.3C39.4,30.1 39.7,30.2 39.0,30.1C38.3,30.0 38.4,30.1 37.7,29.9C37.0,29.8 37.4,29.8 37.0,29.6C36.5,29.5 36.7,29.5 36.3,29.4C35.8,29.2 36.1,29.3 35.6,29.1C35.1,28.9 35.4,29.0 34.9,28.8C34.4,28.6 34.7,28.7 34.2,28.5C33.7,28.2 34.0,28.4 33.5,28.1C33.0,27.8 33.2,27.9 32.8,27.7C32.3,27.4 32.3,27.6 32.0,27.4C31.8,27.1 32.0,27.2 32.0,26.9C31.9,26.5 32.1,26.7 31.9,26.4C31.6,26.0 31.6,26.2 31.1,25.9C30.6,25.6 30.7,25.8 30.4,25.5C30.1,25.1 30.5,25.3 30.3,24.9C30.1,24.6 30.2,24.8 29.9,24.4C29.6,24.1 29.6,24.3 29.5,23.9C29.3,23.5 29.4,23.7 29.3,23.3C29.3,23.0 29.3,23.2 29.2,22.8C29.2,22.5 29.2,22.7 29.1,22.4C29.1,22.0 29.1,22.0 29.0,21.8" fill="none" stroke="#fbbf24" stroke-width="0.6" stroke-linecap="round" stroke-linejoin="round" opacity="0.7"/>
  <path d="M43.6,30.5C43.7,30.3 44.0,30.3 44.1,30.0C44.3,29.7 44.1,29.9 44.0,29.5C43.9,29.2 43.8,29.3 43.9,29.0C44.0,28.6 44.2,28.8 44.4,28.4C44.7,28.0 44.5,28.2 44.7,27.8C44.8,27.5 44.6,27.7 44.9,27.3C45.1,26.9 45.2,27.0 45.4,26.7C45.5,26.3 45.4,26.5 45.3,26.2C45.2,25.8 45.0,26.0 45.2,25.6C45.3,25.3 45.4,25.5 45.7,25.1C46.1,24.7 45.9,24.9 46.3,24.5C46.6,24.1 46.4,24.3 46.8,23.9C47.1,23.5 47.0,23.7 47.3,23.4C47.7,23.0 47.6,23.2 47.8,22.8C48.1,22.4 47.9,22.6 48.1,22.3C48.2,21.9 48.0,22.1 48.3,21.7C48.5,21.4 48.5,21.5 48.8,21.2C49.2,20.9 49.0,21.1 49.4,20.7C49.7,20.4 49.6,20.6 49.9,20.2C50.3,19.9 50.1,20.0 50.5,19.7C50.8,19.4 50.9,19.6 51.0,19.2C51.1,18.8 50.7,19.0 50.9,18.5C51.0,18.1 51.2,18.1 51.4,17.9" fill="none" stroke="#fbbf24" stroke-width="0.6" stroke-linecap="round" stroke-linejoin="round" opacity="0.7"/>
  <path d="M50.7,7.8C50.9,7.8 50.9,7.8 51.3,7.6C51.7,7.5 51.4,7.5 51.9,7.3C52.4,7.2 52.2,7.3 52.8,7.2C53.5,7.0 53.2,7.1 53.8,7.0C54.3,6.9 54.0,7.0 54.4,7.0C54.8,6.9 54.4,7.0 55.0,6.9C55.6,6.8 55.6,6.8 56.3,6.7C56.9,6.6 56.3,6.6 56.9,6.6C57.5,6.6 57.5,6.6 58.2,6.6C58.8,6.6 58.4,6.6 58.8,6.7C59.3,6.7 58.8,6.7 59.5,6.7C60.1,6.7 60.0,6.7 60.8,6.7C61.5,6.7 61.1,6.7 61.7,6.7C62.4,6.8 62.2,6.7 62.7,6.8C63.3,6.8 62.7,6.8 63.4,6.9C64.0,7.0 64.0,6.9 64.7,7.0C65.3,7.1 64.9,7.1 65.3,7.1C65.8,7.2 65.6,7.1 66.0,7.2C66.4,7.3 66.0,7.2 66.7,7.3C67.3,7.4 67.3,7.3 68.0,7.4C68.6,7.5 68.2,7.5 68.6,7.6C69.1,7.8 68.8,7.7 69.3,7.9C69.9,8.0 69.7,7.9 70.3,8.0C71.0,8.1 70.8,8.0 71.3,8.2C71.9,8.3 71.8,8.3 72.0,8.5C72.3,8.7 71.8,8.6 72.1,8.8C72.3,9.1 72.1,9.0 72.8,9.2C73.5,9.4 73.5,9.3 74.1,9.5C74.8,9.7 74.4,9.6 74.8,9.8C75.3,10.0 75.3,9.9 75.6,10.1C75.8,10.4 75.4,10.4 75.6,10.6C75.9,10.9 76.0,10.8 76.4,11.0C76.7,11.3 76.5,11.2 76.8,11.4C77.0,11.7 76.8,11.6 77.2,11.8C77.5,12.1 77.4,11.9 77.9,12.2C78.4,12.5 78.3,12.3 78.6,12.7C78.9,13.0 78.7,13.0 78.7,13.1" fill="none" stroke="#fbbf24" stroke-width="0.6" stroke-linecap="round" stroke-linejoin="round" opacity="0.7"/>
  <path d="M72.3,19.9C71.9,19.9 71.5,19.9 71.0,19.7C70.5,19.5 71.2,19.6 70.9,19.3C70.7,19.1 70.7,19.2 70.2,19.0C69.7,18.8 70.0,18.9 69.5,18.7C69.0,18.4 69.3,18.6 68.8,18.4C68.3,18.2 68.5,18.3 68.1,18.0C67.7,17.8 68.2,18.0 67.7,17.7C67.2,17.3 67.2,17.3 66.6,16.9C66.0,16.5 66.3,16.7 65.9,16.5C65.4,16.3 65.6,16.4 65.2,16.2C64.7,16.0 64.9,16.1 64.5,15.9C64.0,15.6 64.2,15.7 63.7,15.4C63.3,15.2 63.3,15.3 63.0,15.1C62.8,14.8 63.2,14.9 63.0,14.7C62.7,14.5 62.8,14.6 62.3,14.4C61.7,14.2 61.9,14.3 61.2,14.1C60.6,13.9 60.8,14.0 60.2,13.8C59.6,13.6 59.8,13.7 59.5,13.5C59.3,13.3 59.9,13.4 59.5,13.2C59.0,13.0 58.8,13.1 58.1,13.0C57.5,12.9 57.7,12.9 57.5,12.8" fill="none" stroke="#fbbf24" stroke-width="0.6" stroke-linecap="round" stroke-linejoin="round" opacity="0.7"/>
  <path d="M40.9,13.7C41.4,13.6 41.6,13.6 42.2,13.4C42.8,13.2 42.6,13.3 42.8,13.1C42.9,13.0 42.4,13.1 42.7,12.9C43.0,12.8 43.0,12.9 43.6,12.7C44.2,12.5 43.1,13.1 44.5,12.4C46.0,11.7 46.5,11.4 48.1,10.6C49.6,9.9 48.9,10.5 49.3,10.2C49.6,10.0 49.0,10.1 49.2,9.9C49.4,9.7 49.4,9.8 49.8,9.5C50.1,9.3 50.0,9.4 50.3,9.1C50.7,8.8 50.5,9.0 50.9,8.7C51.2,8.4 51.1,8.5 51.4,8.2C51.8,7.9 51.8,8.0 52.0,7.7C52.1,7.3 51.7,7.5 51.9,7.1C52.0,6.8 52.0,7.0 52.4,6.6C52.8,6.3 52.6,6.5 52.9,6.1C53.3,5.7 53.1,5.9 53.5,5.5C53.8,5.1 53.7,5.3 54.0,4.9C54.2,4.5 54.1,4.7 54.2,4.4C54.4,4.0 54.2,4.2 54.4,3.8C54.7,3.5 54.6,3.6 55.0,3.3C55.3,2.9 55.1,3.1 55.5,2.7C55.9,2.3 55.7,2.5 56.0,2.2C56.4,1.8 56.2,2.0 56.6,1.6C56.9,1.2 56.9,1.3 57.1,1.0C57.2,0.7 57.0,0.8 57.0,0.6" fill="none" stroke="#fbbf24" stroke-width="0.6" stroke-linecap="round" stroke-linejoin="round" opacity="0.7"/>
  <path d="M64.3,8.3C64.5,8.4 64.6,8.3 65.0,8.5C65.3,8.7 65.1,8.7 65.4,8.9C65.6,9.1 65.4,9.0 65.8,9.3C66.1,9.5 66.0,9.4 66.5,9.6C66.9,9.8 66.7,9.7 67.2,9.9C67.6,10.1 67.6,10.1 67.9,10.2" fill="none" stroke="#fbbf24" stroke-width="0.6" stroke-linecap="round" stroke-linejoin="round" opacity="0.7"/>
  <path d="M51.5,41.9C51.5,41.7 51.5,41.7 51.4,41.3C51.4,41.0 51.4,41.2 51.3,40.8C51.3,40.5 51.3,40.7 51.2,40.3C51.2,40.0 51.0,40.2 51.1,39.8C51.3,39.4 51.5,39.5 51.7,39.1C51.8,38.7 51.4,39.0 51.5,38.6C51.7,38.2 51.9,38.4 52.1,38.0C52.2,37.5 51.8,37.7 51.9,37.3C52.1,36.9 52.3,37.1 52.5,36.6C52.6,36.2 52.2,36.5 52.3,36.0C52.5,35.6 52.5,35.8 52.8,35.3C53.2,34.9 53.1,35.2 53.4,34.8C53.6,34.4 53.4,34.6 53.6,34.2C53.7,33.8 53.8,34.0 53.8,33.6C53.8,33.2 53.5,33.4 53.7,33.0C53.8,32.6 53.8,32.7 54.2,32.3C54.5,31.9 54.4,32.2 54.7,31.8C55.1,31.4 55.1,31.5 55.2,31.1C55.4,30.7 55.0,30.9 55.1,30.5C55.3,30.2 55.3,30.3 55.7,30.0C56.0,29.6 56.0,29.8 56.2,29.4C56.3,29.1 56.0,29.2 56.1,28.9C56.1,28.5 56.2,28.7 56.3,28.4C56.5,28.1 56.3,28.3 56.5,27.9C56.8,27.5 56.9,27.5 57.1,27.3" fill="none" stroke="#fbbf24" stroke-width="0.6" stroke-linecap="round" stroke-linejoin="round" opacity="0.7"/>
  <path d="M62.6,29.3C62.6,29.2 62.6,29.2 62.5,28.8C62.4,28.5 62.5,28.7 62.4,28.3C62.3,27.9 62.3,28.0 62.3,27.6C62.2,27.3 62.2,27.5 62.2,27.1C62.1,26.7 62.1,26.9 62.0,26.4C61.9,26.0 61.9,26.0 61.9,25.8" fill="none" stroke="#fbbf24" stroke-width="0.6" stroke-linecap="round" stroke-linejoin="round" opacity="0.7"/>
  <path d="M67.0,38.8C67.1,38.6 67.1,38.6 67.2,38.4C67.4,38.2 67.0,38.3 67.5,38.0C68.0,37.8 68.1,37.9 68.7,37.6C69.3,37.3 68.9,37.5 69.3,37.2C69.6,36.9 69.4,37.0 69.8,36.7C70.2,36.4 70.0,36.6 70.4,36.3C70.7,35.9 70.7,36.1 70.9,35.7C71.0,35.4 70.6,35.6 70.8,35.2C70.9,34.9 71.0,35.1 71.3,34.7C71.7,34.3 71.5,34.5 71.9,34.1C72.2,33.7 72.0,33.9 72.4,33.5C72.7,33.1 72.8,33.3 72.9,32.9C73.1,32.6 72.7,32.8 72.8,32.4C73.0,32.1 73.2,32.2 73.4,31.9C73.5,31.5 73.1,31.7 73.3,31.4C73.4,31.0 73.6,31.1 73.8,30.8C73.9,30.5 73.7,30.5 73.7,30.4" fill="none" stroke="#fbbf24" stroke-width="0.6" stroke-linecap="round" stroke-linejoin="round" opacity="0.7"/>
  <path d="M23.7,53.8C23.7,53.6 23.5,53.7 23.6,53.3C23.7,52.9 23.8,53.1 24.1,52.7C24.5,52.2 24.1,52.4 24.6,52.0C25.2,51.7 25.2,51.8 25.8,51.5C26.4,51.2 26.0,51.4 26.4,51.1C26.8,50.8 26.8,50.9 26.9,50.7C27.1,50.4 26.7,50.6 26.9,50.3C27.0,50.0 26.8,50.1 27.4,49.8C28.0,49.6 28.0,49.7 28.6,49.5C29.2,49.2 28.8,49.3 29.2,49.1C29.6,48.9 29.4,49.1 29.8,48.9C30.2,48.6 29.8,48.7 30.4,48.5C31.0,48.2 31.0,48.3 31.6,48.2C32.2,48.0 31.8,48.1 32.2,48.0C32.6,48.0 32.6,48.0 32.8,48.0" fill="none" stroke="#fbbf24" stroke-width="0.6" stroke-linecap="round" stroke-linejoin="round" opacity="0.7"/>
  <path d="M57.2,47.6C57.6,47.7 57.8,47.7 58.5,47.9C59.2,48.1 58.7,48.0 59.2,48.2C59.7,48.4 59.4,48.3 59.9,48.6C60.4,48.8 60.2,48.7 60.6,49.0C61.1,49.3 60.9,49.1 61.4,49.4C61.8,49.7 61.6,49.5 62.1,49.8C62.6,50.1 62.3,50.0 62.8,50.3C63.3,50.5 63.2,50.4 63.5,50.6C63.8,50.9 63.1,50.8 63.6,51.1C64.1,51.3 64.5,51.1 65.0,51.4C65.4,51.7 64.8,51.6 65.0,51.9C65.3,52.1 65.1,52.0 65.7,52.2C66.4,52.4 66.6,52.3 67.1,52.4" fill="none" stroke="#fbbf24" stroke-width="0.6" stroke-linecap="round" stroke-linejoin="round" opacity="0.7"/>
  <path d="M38.1,75.2C37.7,75.3 37.5,75.3 36.9,75.3C36.2,75.4 36.9,75.3 36.2,75.3C35.6,75.4 35.7,75.4 35.0,75.5C34.2,75.6 34.7,75.6 34.0,75.7C33.4,75.8 33.6,75.8 33.1,75.9C32.6,75.9 32.9,75.9 32.5,75.9C32.1,76.0 35.2,75.5 31.9,76.0C28.5,76.5 25.8,76.9 22.5,77.4C19.2,77.9 22.3,77.4 21.9,77.5C21.5,77.5 21.9,77.4 21.2,77.5C20.6,77.5 20.8,77.5 20.0,77.7C19.2,77.8 19.2,77.8 18.8,77.9C18.3,78.0 19.2,77.8 18.7,77.8C18.3,77.8 18.3,77.8 17.5,77.9C16.6,77.9 16.8,77.9 16.2,78.0C15.6,78.0 16.0,78.0 15.6,78.1C15.2,78.1 15.4,78.1 15.0,78.2C14.5,78.2 14.9,78.1 14.3,78.2C13.7,78.2 13.7,78.2 13.0,78.2C12.4,78.2 12.8,78.2 12.4,78.2C12.0,78.2 12.2,78.2 11.8,78.2C11.3,78.3 11.3,78.3 11.1,78.3" fill="none" stroke="#fbbf24" stroke-width="0.6" stroke-linecap="round" stroke-linejoin="round" opacity="0.7"/>
  <ellipse cx="48.6" cy="28.4" rx="3.5" ry="3.6" fill="#0c0c0c" stroke="#ef4444" stroke-width="0.4" opacity="0.95"/>
  <text x="48.6" y="29.7" text-anchor="middle" font-family="sans-serif" font-size="3.4" font-weight="700" fill="#ffffff" opacity="0.95">OR</text>
</svg>