<svg xmlns="http://www.w3.org/2000/svg" viewBox="0 0 99.43728540069375 95.1338663837401" preserveAspectRatio="none">
  <path d="M74.9,62.0C74.8,62.0 74.7,62.2 74.6,62.4C74.4,62.5 74.2,62.5 74.0,62.7C73.8,62.9 73.5,63.2 73.2,63.4C73.0,63.7 72.7,64.0 72.5,64.2C72.3,64.4 72.1,64.4 71.9,64.5C71.7,64.6 71.7,64.7 71.4,64.9C71.2,65.0 70.8,65.4 70.5,65.6C70.2,65.7 70.0,65.8 69.7,65.9C69.5,66.0 69.3,66.0 69.0,66.2C68.8,66.3 68.4,66.6 68.1,66.9C67.8,67.1 67.5,67.5 67.3,67.6C67.0,67.7 66.9,67.4 66.6,67.5C66.4,67.5 66.0,67.8 65.8,68.0C65.5,68.1 65.2,68.3 64.9,68.5C64.6,68.7 64.2,69.0 63.9,69.1C63.6,69.3 63.4,69.3 63.1,69.4C62.8,69.5 62.6,69.6 62.2,69.7C61.9,69.9 61.4,70.2 61.1,70.4C60.7,70.5 60.5,70.6 60.2,70.6C59.9,70.7 59.6,70.8 59.3,70.9C59.0,71.1 58.6,71.4 58.3,71.6C58.0,71.8 57.7,71.8 57.3,71.9C57.0,72.0 56.7,72.0 56.4,72.1C56.1,72.2 55.8,72.3 55.5,72.4C55.2,72.5 54.9,72.6 54.6,72.7C54.3,72.8 53.9,72.9 53.7,72.9" fill="none" stroke="#ef4444" stroke-width="0.8" stroke-linecap="round" stroke-linejoin="round" opacity="0.9"/>
  <path d="M69.7,71.1C69.6,71.3 69.2,71.7 69.1,71.9C69.0,72.1 68.9,72.2 68.9,72.3C68.8,72.4 68.7,72.5 68.6,72.7C68.5,72.9 68.3,73.2 68.2,73.5C68.1,73.8 68.1,74.2 68.0,74.4C67.9,74.6 67.8,74.7 67.8,74.8" fill="none" stroke="#ef4444" stroke-width="0.8" stroke-linecap="round" stroke-linejoin="round" opacity="0.9"/>
  <path d="M82.4,78.5C82.5,78.5 82.8,78.8 82.9,79.0C83.0,79.2 83.0,79.7 83.0,79.9C83.1,80.1 83.2,80.2 83.2,80.4C83.3,80.5 83.4,80.6 83.5,80.9C83.5,81.1 83.5,81.5 83.6,81.8C83.6,82.0 83.7,82.2 83.8,82.2" fill="none" stroke="#ef4444" stroke-width="0.8" stroke-linecap="round" stroke-linejoin="round" opacity="0.9"/>
  <path d="M77.1,44.3C77.1,44.4 77.0,44.5 77.0,44.7C77.0,44.9 77.0,45.3 77.0,45.6C77.0,45.9 76.9,46.3 76.9,46.5C77.0,46.6 77.2,46.4 77.2,46.5C77.3,46.7 77.1,47.2 77.1,47.4C77.1,47.6 77.1,47.6 77.1,47.8C77.1,48.1 76.9,48.5 76.9,48.7C76.9,48.9 77.0,49.0 77.0,49.1C77.1,49.3 77.2,49.4 77.2,49.6C77.2,49.8 77.1,50.3 77.1,50.5C77.2,50.7 77.3,50.8 77.3,51.0C77.4,51.1 77.4,51.3 77.5,51.4C77.6,51.6 77.6,51.8 77.7,51.9C77.7,52.1 77.8,52.2 77.9,52.4C77.9,52.6 77.9,53.1 77.9,53.3C77.9,53.5 77.9,53.6 77.9,53.7C77.9,53.9 77.9,54.0 77.9,54.2C77.9,54.4 77.8,54.7 77.8,55.0C77.8,55.3 77.7,55.8 77.7,55.9C77.8,56.1 78.1,55.8 78.1,56.0C78.1,56.1 77.8,56.5 77.7,56.8C77.6,57.0 77.5,57.2 77.4,57.4C77.4,57.6 77.3,57.8 77.2,58.0C77.1,58.2 77.1,58.2 77.1,58.4C77.0,58.6 77.0,59.0 76.8,59.3C76.7,59.5 76.4,59.9 76.3,60.0C76.1,60.2 76.0,60.4 76.0,60.4" fill="none" stroke="#fbbf24" stroke-width="0.6" stroke-linecap="round" stroke-linejoin="round" opacity="0.7"/>
  <path d="M80.9,58.7C80.8,58.8 80.7,58.9 80.6,59.1C80.4,59.3 80.3,59.6 80.1,59.9C79.9,60.2 79.6,60.5 79.4,60.6C79.2,60.8 79.0,60.9 78.9,61.0C78.7,61.0 78.8,60.8 78.7,60.9C78.5,61.1 78.3,61.5 78.1,61.7C77.9,62.0 77.7,62.3 77.6,62.5C77.4,62.7 77.3,62.7 77.1,62.9C77.0,63.0 76.8,63.1 76.7,63.2C76.5,63.3 76.4,63.4 76.2,63.6C76.0,63.7 75.7,64.1 75.5,64.3C75.3,64.5 75.2,64.6 75.1,64.7C75.0,64.8 74.9,64.9 74.7,65.0C74.5,65.2 74.3,65.6 74.1,65.8C73.9,66.1 73.6,66.4 73.4,66.6C73.3,66.8 73.2,66.8 73.0,66.9C72.9,67.1 72.8,67.1 72.6,67.3C72.5,67.5 72.3,67.9 72.1,68.1C72.0,68.3 71.8,68.3 71.7,68.4C71.5,68.6 71.4,68.6 71.3,68.8C71.1,69.0 70.9,69.4 70.7,69.6C70.6,69.8 70.5,69.8 70.4,70.0C70.3,70.2 70.4,69.9 69.9,70.7C69.5,71.5 68.2,74.0 67.8,74.8C67.4,75.5 67.7,75.0 67.7,75.2C67.7,75.4 67.6,75.8 67.6,76.0C67.5,76.3 67.4,76.7 67.4,76.9C67.5,77.0 67.7,76.8 67.7,77.0C67.7,77.1 67.6,77.6 67.6,77.8C67.6,78.1 67.6,78.3 67.6,78.5C67.7,78.7 67.6,79.0 67.7,79.2C67.8,79.3 68.0,79.2 68.1,79.2" fill="none" stroke="#fbbf24" stroke-width="0.6" stroke-linecap="round" stroke-linejoin="round" opacity="0.7"/>
  <path d="M70.3,85.8C70.3,85.9 70.5,86.2 70.6,86.3C70.7,86.5 70.8,86.7 70.9,86.8C71.0,87.0 71.2,87.2 71.3,87.4C71.4,87.5 71.6,87.7 71.7,87.9C71.8,88.0 71.9,88.2 71.9,88.4C72.0,88.5 72.1,88.8 72.2,88.9" fill="none" stroke="#fbbf24" stroke-width="0.6" stroke-linecap="round" stroke-linejoin="round" opacity="0.7"/>
  <path d="M82.5,56.8C82.6,56.9 83.0,56.9 83.3,57.0C83.5,57.0 83.7,57.1 84.0,57.1C84.3,57.2 84.6,57.2 84.8,57.3C85.1,57.3 85.2,57.4 85.5,57.4C85.8,57.4 86.2,57.2 86.5,57.2C86.8,57.1 87.1,57.3 87.4,57.3C87.6,57.4 87.9,57.4 88.1,57.5C88.4,57.5 88.8,57.6 88.9,57.6" fill="none" stroke="#fbbf24" stroke-width="0.6" stroke-linecap="round" stroke-linejoin="round" opacity="0.7"/>
  <path d="M66.2,70.5C66.2,70.6 66.5,70.8 66.7,71.0C66.8,71.2 67.0,71.4 67.1,71.5C67.3,71.7 67.5,71.9 67.7,72.1C67.9,72.3 67.9,72.5 68.2,72.6C68.4,72.7 68.8,72.7 69.0,72.8C69.3,72.9 69.5,73.0 69.8,73.2C70.1,73.3 70.3,73.4 70.6,73.5C70.8,73.7 71.0,73.9 71.3,74.1C71.5,74.3 71.7,74.5 71.9,74.7C72.2,74.8 72.5,74.8 72.8,74.8C73.1,74.9 73.3,74.9 73.6,75.0C73.9,75.1 74.3,75.1 74.6,75.2C74.9,75.2 75.2,75.3 75.6,75.4C75.9,75.4 76.2,75.5 76.5,75.5C76.7,75.6 77.0,75.7 77.3,75.7C77.6,75.7 78.0,75.7 78.3,75.7C78.6,75.7 79.0,75.6 79.3,75.6C79.7,75.7 80.0,75.9 80.3,75.8C80.6,75.8 80.8,75.6 81.1,75.6C81.4,75.5 81.6,75.7 82.0,75.7C82.3,75.7 82.9,75.5 83.2,75.5C83.5,75.5 83.7,75.6 83.9,75.7C84.2,75.7 84.5,75.8 84.8,75.8C85.0,75.8 85.3,75.6 85.6,75.5C85.8,75.4 86.0,75.3 86.2,75.2C86.4,75.1 86.7,74.9 86.9,74.7C87.2,74.5 87.4,74.2 87.7,74.2C87.9,74.1 87.9,74.3 88.2,74.3C88.4,74.2 88.7,74.1 88.9,74.0C89.1,73.8 89.1,73.8 89.3,73.6C89.4,73.4 89.7,72.9 89.8,72.8" fill="none" stroke="#fbbf24" stroke-width="0.6" stroke-linecap="round" stroke-linejoin="round" opacity="0.7"/>
  <path d="M74.8,72.6C74.9,72.7 75.2,72.9 75.4,73.1C75.6,73.3 75.9,73.5 76.1,73.7C76.3,73.9 76.5,74.1 76.7,74.3C77.0,74.4 77.3,74.4 77.6,74.4C77.8,74.5 78.1,74.5 78.3,74.6C78.5,74.7 78.8,74.8 79.0,74.9C79.2,75.0 79.5,75.1 79.6,75.3C79.8,75.4 79.9,75.6 80.1,75.8C80.2,76.0 80.5,76.2 80.7,76.4C80.9,76.5 81.1,76.7 81.2,76.9C81.4,77.1 81.5,77.3 81.7,77.4C81.8,77.6 81.7,76.8 82.0,77.9C82.4,79.0 83.5,82.9 83.9,84.0C84.3,85.2 84.3,84.4 84.4,84.6C84.5,84.8 84.6,85.0 84.7,85.1C84.9,85.2 85.1,85.0 85.2,85.2C85.4,85.3 85.4,85.7 85.5,85.9C85.6,86.1 85.7,86.5 85.8,86.6" fill="none" stroke="#fbbf24" stroke-width="0.6" stroke-linecap="round" stroke-linejoin="round" opacity="0.7"/>
  <path d="M27.9,58.7C27.9,58.8 27.7,59.3 27.8,59.5C27.8,59.8 27.9,59.9 28.0,60.0C28.0,60.2 28.1,60.3 28.1,60.5C28.1,60.6 28.1,60.8 28.2,60.9C28.2,61.1 28.3,61.4 28.3,61.6C28.3,61.9 28.3,62.1 28.4,62.3C28.5,62.5 28.6,62.7 28.8,62.8C28.9,63.0 29.0,63.1 29.1,63.3C29.1,63.6 29.1,64.0 29.2,64.2C29.3,64.5 29.6,64.6 29.7,64.8C29.8,64.9 29.9,65.1 30.0,65.3C30.1,65.4 30.2,65.6 30.2,65.8C30.3,65.9 30.4,66.2 30.4,66.2" fill="none" stroke="#fbbf24" stroke-width="0.6" stroke-linecap="round" stroke-linejoin="round" opacity="0.7"/>
  <circle cx="44.5" cy="63.8" r="3.5" fill="#0c0c0c" stroke="#ef4444" stroke-width="0.4" opacity="0.95"/>
  <text x="44.5" y="65.0" text-anchor="middle" font-family="sans-serif" font-size="3.5" font-weight="700" fill="#ffffff" opacity="0.95">OR</text>
</svg>