<svg xmlns="http://www.w3.org/2000/svg" viewBox="0 0 106.14050285055407 102.1169759827725" preserveAspectRatio="none">
  <path d="M67.0,58.1C67.1,57.9 67.4,57.8 67.5,57.5C67.6,57.2 67.3,57.2 67.4,56.8C67.5,56.5 67.8,56.5 67.9,56.2C68.0,55.8 67.5,55.9 67.8,55.5C68.0,55.2 68.7,55.1 68.9,54.8C69.2,54.4 68.7,54.5 68.8,54.2C68.9,53.8 69.1,53.8 69.3,53.5C69.6,53.2 69.8,53.2 69.8,52.9C69.9,52.5 69.8,52.5 69.7,52.2C69.6,51.8 69.6,51.8 69.6,51.5C69.5,51.2 69.5,51.1 69.5,50.9" fill="none" stroke="#ef4444" stroke-width="0.8" stroke-linecap="round" stroke-linejoin="round" opacity="0.9"/>
  <path d="M46.5,41.7C46.6,41.5 46.9,41.4 47.0,41.0C47.1,40.7 46.9,40.6 46.9,40.3C46.8,39.9 46.8,40.0 46.7,39.6C46.7,39.3 46.7,39.3 46.6,39.0C46.5,38.6 46.5,38.6 46.5,38.3C46.5,37.9 46.6,37.9 46.7,37.6C46.8,37.2 46.8,37.2 46.8,36.9C46.9,36.6 46.8,36.6 46.7,36.3C46.7,36.0 46.6,35.8 46.6,35.7" fill="none" stroke="#ef4444" stroke-width="0.8" stroke-linecap="round" stroke-linejoin="round" opacity="0.9"/>
  <path d="M70.8,44.7C71.0,44.6 71.3,44.4 71.4,44.1C71.5,43.8 71.1,43.8 71.2,43.5C71.3,43.1 71.6,43.1 71.7,42.8C71.8,42.5 71.5,42.5 71.6,42.2C71.7,41.8 71.9,41.9 72.1,41.5C72.4,41.1 72.4,41.1 72.6,40.7C72.9,40.3 73.0,40.3 73.1,39.9C73.2,39.6 72.9,39.7 73.0,39.3C73.1,39.0 73.4,39.0 73.5,38.6C73.6,38.2 73.3,38.2 73.3,37.8C73.4,37.5 73.6,37.5 73.9,37.2C74.1,36.9 74.3,36.8 74.4,36.5C74.5,36.1 74.1,36.1 74.2,35.8C74.3,35.4 74.5,35.4 74.7,35.1C75.0,34.7 75.1,34.8 75.2,34.4C75.4,34.1 75.3,34.1 75.4,33.7C75.5,33.4 75.6,33.3 75.6,33.0C75.6,32.7 75.6,32.7 75.5,32.4C75.4,32.1 75.3,32.1 75.4,31.8C75.5,31.6 75.8,31.4 75.9,31.2" fill="none" stroke="#ef4444" stroke-width="0.8" stroke-linecap="round" stroke-linejoin="round" opacity="0.9"/>
  <path d="M74.2,25.6C74.1,25.4 74.1,25.3 74.1,25.0C74.0,24.7 74.2,24.8 74.0,24.5C73.8,24.3 73.5,24.3 73.2,24.0C72.9,23.8 73.0,23.8 72.8,23.5C72.6,23.2 72.5,23.2 72.4,22.9C72.2,22.7 72.3,22.7 72.3,22.4C72.2,22.1 72.4,22.1 72.2,21.8C71.9,21.5 71.6,21.5 71.4,21.3C71.2,21.0 71.4,21.0 71.3,20.8C71.3,20.5 71.4,20.5 71.2,20.2C71.0,19.9 70.7,20.0 70.5,19.7C70.3,19.5 70.4,19.4 70.4,19.3" fill="none" stroke="#fbbf24" stroke-width="0.6" stroke-linecap="round" stroke-linejoin="round" opacity="0.7"/>
  <path d="M64.8,30.0C64.7,29.9 64.6,29.8 64.7,29.5C64.7,29.2 64.8,29.2 64.9,28.9C65.0,28.6 65.1,28.6 65.1,28.3C65.1,28.0 65.0,28.0 65.0,27.7C64.9,27.5 64.9,27.5 64.9,27.2C64.8,27.0 64.8,26.9 64.7,26.6C64.7,26.3 64.6,26.4 64.7,26.1C64.8,25.9 65.1,25.8 65.2,25.5C65.3,25.2 65.0,25.3 65.1,25.0C65.2,24.7 65.3,24.7 65.6,24.4C65.9,24.1 65.9,24.1 66.1,23.9C66.4,23.6 66.4,23.6 66.7,23.4C67.0,23.1 67.1,23.1 67.2,22.8C67.3,22.6 67.0,22.6 67.1,22.4C67.2,22.1 67.4,22.1 67.7,21.8C67.9,21.5 67.9,21.5 68.2,21.2C68.5,20.9 68.5,20.9 68.7,20.6C69.0,20.3 69.1,20.3 69.2,20.0C69.4,19.8 69.0,19.8 69.1,19.5C69.3,19.2 69.6,19.2 69.7,19.0C69.8,18.7 69.5,18.7 69.6,18.4C69.6,18.1 69.7,18.2 69.8,17.9C69.9,17.6 69.8,17.7 70.0,17.4C70.2,17.1 70.4,16.9 70.5,16.8" fill="none" stroke="#fbbf24" stroke-width="0.6" stroke-linecap="round" stroke-linejoin="round" opacity="0.7"/>
  <path d="M36.2,57.9C36.5,57.9 37.1,57.9 37.5,58.0C37.8,58.1 37.2,58.1 37.5,58.1C37.8,58.2 38.3,58.1 38.8,58.2C39.3,58.2 39.0,58.2 39.4,58.3C39.9,58.3 40.3,58.3 40.7,58.3C41.2,58.4 41.1,58.4 41.4,58.5C41.8,58.6 41.6,58.6 42.1,58.7C42.6,58.7 42.9,58.7 43.4,58.8C43.9,58.8 43.7,58.8 44.1,58.9C44.4,59.0 44.4,59.0 44.8,59.2C45.1,59.3 45.1,59.3 45.4,59.4C45.8,59.6 45.6,59.6 46.1,59.7C46.7,59.9 47.1,59.9 47.5,60.0C47.8,60.2 47.4,60.2 47.6,60.4C47.8,60.6 47.9,60.6 48.3,60.8C48.6,61.0 48.6,61.0 49.0,61.2C49.4,61.4 49.2,61.4 49.7,61.6C50.2,61.8 50.7,61.8 51.1,62.0C51.4,62.2 51.0,62.2 51.2,62.4C51.4,62.7 51.7,62.7 51.9,62.9C52.1,63.1 51.8,63.1 52.0,63.3C52.2,63.5 52.5,63.6 52.7,63.7" fill="none" stroke="#fbbf24" stroke-width="0.6" stroke-linecap="round" stroke-linejoin="round" opacity="0.7"/>
  <path d="M63.4,62.5C63.5,62.3 63.6,62.2 63.9,62.0C64.2,61.7 64.3,61.7 64.5,61.5C64.6,61.2 64.3,61.3 64.4,61.0C64.5,60.7 64.6,60.7 64.9,60.5C65.2,60.2 65.2,60.2 65.4,59.9C65.7,59.6 65.7,59.6 66.0,59.3C66.2,59.0 66.4,58.8 66.5,58.7" fill="none" stroke="#fbbf24" stroke-width="0.6" stroke-linecap="round" stroke-linejoin="round" opacity="0.7"/>
  <path d="M44.7,15.9C44.7,15.8 44.8,15.7 44.6,15.5C44.4,15.2 44.3,15.3 43.9,15.1C43.5,14.8 43.5,14.8 43.2,14.6C42.8,14.4 42.8,14.4 42.4,14.2C42.1,14.0 41.9,13.9 41.7,13.8" fill="none" stroke="#fbbf24" stroke-width="0.6" stroke-linecap="round" stroke-linejoin="round" opacity="0.7"/>
  <path d="M36.0,37.4C35.7,37.4 35.2,37.3 34.7,37.3C34.3,37.3 34.4,37.3 34.1,37.3C33.8,37.3 33.9,37.3 33.5,37.3C33.0,37.4 32.7,37.4 32.2,37.5C31.7,37.5 32.0,37.5 31.6,37.6C31.2,37.7 31.1,37.7 30.7,37.8C30.2,37.9 30.1,37.9 29.7,38.0C29.4,38.1 29.4,38.1 29.1,38.2C28.8,38.3 29.0,38.3 28.5,38.4C28.1,38.5 27.7,38.5 27.3,38.6C26.8,38.7 26.8,38.7 26.7,38.8" fill="none" stroke="#fbbf24" stroke-width="0.6" stroke-linecap="round" stroke-linejoin="round" opacity="0.7"/>
  <path d="M44.5,48.0C44.6,47.9 44.9,47.7 45.0,47.4C45.2,47.2 45.0,47.2 44.9,46.9C44.9,46.6 44.8,46.6 44.8,46.3C44.9,46.0 44.9,46.0 45.0,45.7C45.1,45.4 45.1,45.4 45.2,45.1C45.4,44.8 45.6,44.7 45.7,44.4C45.8,44.1 45.5,44.2 45.6,43.8C45.7,43.5 45.9,43.4 46.1,43.1C46.4,42.7 46.5,42.6 46.6,42.4" fill="none" stroke="#fbbf24" stroke-width="0.6" stroke-linecap="round" stroke-linejoin="round" opacity="0.7"/>
  <path d="M45.7,30.9C45.8,30.8 46.0,30.6 46.2,30.4C46.5,30.1 46.5,30.2 46.8,30.0C47.1,29.7 47.1,29.7 47.3,29.5C47.6,29.2 47.7,29.3 47.9,29.0C48.1,28.8 48.0,28.8 48.1,28.6C48.2,28.4 48.3,28.2 48.4,28.1" fill="none" stroke="#fbbf24" stroke-width="0.6" stroke-linecap="round" stroke-linejoin="round" opacity="0.7"/>
  <path d="M51.4,23.9C51.4,23.8 51.2,23.7 51.3,23.4C51.4,23.1 51.5,23.0 51.8,22.7C52.1,22.4 52.2,22.4 52.3,22.2C52.4,21.9 52.1,21.9 52.2,21.6C52.3,21.3 52.6,21.2 52.7,20.9C52.8,20.6 52.5,20.7 52.6,20.4C52.7,20.1 53.0,20.0 53.2,19.8C53.3,19.6 53.1,19.7 53.1,19.5C53.1,19.4 53.0,19.6 53.1,19.2C53.1,18.9 53.4,18.5 53.5,18.1C53.6,17.7 53.3,17.9 53.4,17.7C53.5,17.5 53.7,17.5 54.0,17.3C54.2,17.1 54.1,17.1 54.5,16.9C55.0,16.6 55.4,16.6 55.7,16.3C56.0,16.1 55.6,16.1 55.6,16.0" fill="none" stroke="#fbbf24" stroke-width="0.6" stroke-linecap="round" stroke-linejoin="round" opacity="0.7"/>
  <path d="M17.0,51.8C16.8,51.7 16.7,51.6 16.3,51.4C16.0,51.3 16.0,51.3 15.6,51.2C15.3,51.1 15.4,51.1 14.9,51.0C14.4,50.9 14.1,50.9 13.6,50.8C13.1,50.7 13.2,50.7 12.9,50.5C12.6,50.4 12.6,50.3 12.5,50.2" fill="none" stroke="#fbbf24" stroke-width="0.6" stroke-linecap="round" stroke-linejoin="round" opacity="0.7"/>
  <path d="M68.4,48.7C68.5,48.6 68.8,48.5 69.0,48.3C69.1,48.0 68.8,48.0 68.8,47.7C68.9,47.4 69.0,47.4 69.1,47.2C69.2,46.9 69.1,46.9 69.3,46.6C69.4,46.3 69.5,46.2 69.8,45.9C70.0,45.6 70.2,45.5 70.3,45.3" fill="none" stroke="#fbbf24" stroke-width="0.6" stroke-linecap="round" stroke-linejoin="round" opacity="0.7"/>
  <ellipse cx="54.1" cy="42.4" rx="3.5" ry="3.6" fill="#0c0c0c" stroke="#ef4444" stroke-width="0.4" opacity="0.95"/>
  <text x="54.1" y="43.7" text-anchor="middle" font-family="sans-serif" font-size="3.4" font-weight="700" fill="#ffffff" opacity="0.95">OR</text>
</svg>