<svg xmlns="http://www.w3.org/2000/svg" viewBox="0 0 106.14050285055407 102.1169759827725" preserveAspectRatio="none">
  <path d="M67.0,44.0C67.1,44.1 67.5,44.4 67.5,44.6C67.6,44.8 67.3,45.1 67.4,45.3C67.5,45.5 67.9,45.7 67.9,45.9C68.0,46.2 67.6,46.4 67.8,46.6C68.0,46.8 68.8,47.1 68.9,47.4C69.1,47.6 68.7,47.8 68.8,48.0C68.9,48.2 69.2,48.4 69.3,48.6C69.5,48.8 69.8,49.0 69.8,49.2C69.9,49.5 69.8,49.7 69.7,49.9C69.7,50.2 69.6,50.4 69.6,50.6C69.5,50.8 69.5,51.1 69.5,51.2" fill="none" stroke="#ef4444" stroke-width="0.8" stroke-linecap="round" stroke-linejoin="round" opacity="0.9"/>
  <path d="M46.5,60.4C46.6,60.5 46.9,60.9 47.0,61.1C47.1,61.3 46.9,61.6 46.9,61.8C46.8,62.1 46.8,62.3 46.7,62.5C46.7,62.7 46.7,62.9 46.6,63.2C46.6,63.4 46.5,63.6 46.5,63.8C46.5,64.1 46.6,64.3 46.7,64.5C46.7,64.8 46.8,65.0 46.8,65.2C46.9,65.4 46.8,65.6 46.7,65.8C46.7,66.0 46.6,66.3 46.6,66.4" fill="none" stroke="#ef4444" stroke-width="0.8" stroke-linecap="round" stroke-linejoin="round" opacity="0.9"/>
  <path d="M70.8,57.4C70.9,57.5 71.3,57.8 71.4,58.0C71.4,58.2 71.2,58.4 71.2,58.7C71.3,58.9 71.7,59.1 71.7,59.3C71.8,59.5 71.6,59.7 71.6,59.9C71.7,60.2 72.0,60.4 72.1,60.6C72.3,60.9 72.5,61.1 72.6,61.4C72.8,61.7 73.1,61.9 73.1,62.2C73.2,62.4 72.9,62.6 73.0,62.8C73.1,63.0 73.4,63.3 73.5,63.5C73.6,63.8 73.3,64.0 73.3,64.3C73.4,64.5 73.7,64.7 73.9,64.9C74.0,65.1 74.3,65.4 74.4,65.6C74.4,65.9 74.2,66.1 74.2,66.3C74.3,66.6 74.6,66.8 74.7,67.0C74.9,67.3 75.1,67.5 75.2,67.7C75.4,67.9 75.4,68.2 75.4,68.4C75.5,68.6 75.6,68.9 75.6,69.1C75.6,69.3 75.5,69.5 75.5,69.7C75.5,69.9 75.3,70.1 75.4,70.3C75.5,70.5 75.8,70.8 75.9,70.9" fill="none" stroke="#ef4444" stroke-width="0.8" stroke-linecap="round" stroke-linejoin="round" opacity="0.9"/>
  <path d="M74.2,76.6C74.2,76.6 74.1,76.9 74.1,77.1C74.0,77.3 74.1,77.4 74.0,77.6C73.8,77.8 73.4,77.9 73.2,78.1C73.0,78.2 72.9,78.4 72.8,78.6C72.7,78.8 72.5,79.0 72.4,79.2C72.3,79.4 72.3,79.5 72.3,79.7C72.2,79.9 72.3,80.2 72.2,80.3C72.0,80.5 71.5,80.7 71.4,80.9C71.3,81.0 71.3,81.2 71.3,81.4C71.3,81.5 71.3,81.7 71.2,81.9C71.1,82.1 70.6,82.2 70.5,82.4C70.3,82.5 70.4,82.8 70.4,82.8" fill="none" stroke="#fbbf24" stroke-width="0.6" stroke-linecap="round" stroke-linejoin="round" opacity="0.7"/>
  <path d="M64.8,72.1C64.8,72.2 64.6,72.4 64.7,72.6C64.7,72.8 64.8,73.0 64.9,73.2C64.9,73.4 65.1,73.6 65.1,73.8C65.1,74.0 65.0,74.2 65.0,74.4C64.9,74.5 64.9,74.7 64.9,74.9C64.8,75.1 64.8,75.3 64.7,75.5C64.7,75.7 64.6,75.8 64.7,76.0C64.7,76.2 65.1,76.4 65.2,76.6C65.2,76.8 65.0,77.0 65.1,77.1C65.1,77.3 65.4,77.5 65.6,77.7C65.8,77.9 66.0,78.1 66.1,78.3C66.3,78.4 66.5,78.6 66.7,78.8C66.9,78.9 67.2,79.1 67.2,79.3C67.3,79.4 67.1,79.6 67.1,79.8C67.2,79.9 67.5,80.1 67.7,80.3C67.8,80.5 68.0,80.7 68.2,80.9C68.4,81.1 68.5,81.3 68.7,81.5C68.9,81.7 69.2,81.9 69.2,82.1C69.3,82.3 69.1,82.4 69.1,82.6C69.2,82.8 69.6,83.0 69.7,83.2C69.8,83.3 69.6,83.5 69.6,83.7C69.6,83.9 69.7,84.0 69.8,84.2C69.9,84.4 69.9,84.6 70.0,84.7C70.1,84.9 70.5,85.3 70.5,85.4" fill="none" stroke="#fbbf24" stroke-width="0.6" stroke-linecap="round" stroke-linejoin="round" opacity="0.7"/>
  <path d="M36.2,44.3C36.4,44.2 37.2,44.2 37.5,44.1C37.7,44.1 37.3,44.0 37.5,44.0C37.7,43.9 38.5,44.0 38.8,43.9C39.1,43.9 39.1,43.9 39.4,43.8C39.8,43.8 40.4,43.8 40.7,43.8C41.1,43.8 41.2,43.7 41.4,43.6C41.6,43.6 41.8,43.5 42.1,43.4C42.4,43.4 43.1,43.4 43.4,43.4C43.7,43.3 43.8,43.3 44.1,43.2C44.3,43.1 44.5,43.0 44.8,43.0C45.0,42.9 45.2,42.8 45.4,42.7C45.7,42.6 45.8,42.5 46.1,42.4C46.5,42.3 47.3,42.2 47.5,42.1C47.7,42.0 47.4,41.8 47.6,41.7C47.7,41.6 48.0,41.5 48.3,41.3C48.5,41.2 48.8,41.0 49.0,40.9C49.2,40.8 49.4,40.6 49.7,40.5C50.1,40.4 50.8,40.3 51.1,40.1C51.3,40.0 51.0,39.8 51.2,39.7C51.3,39.5 51.8,39.3 51.9,39.2C52.0,39.1 51.9,38.9 52.0,38.8C52.1,38.7 52.6,38.5 52.7,38.4" fill="none" stroke="#fbbf24" stroke-width="0.6" stroke-linecap="round" stroke-linejoin="round" opacity="0.7"/>
  <path d="M63.4,39.7C63.5,39.7 63.7,40.0 63.9,40.1C64.1,40.3 64.4,40.5 64.5,40.6C64.5,40.8 64.3,40.9 64.4,41.1C64.4,41.3 64.7,41.5 64.9,41.7C65.1,41.8 65.3,42.1 65.4,42.2C65.6,42.4 65.8,42.7 66.0,42.8C66.1,43.0 66.4,43.3 66.5,43.4" fill="none" stroke="#fbbf24" stroke-width="0.6" stroke-linecap="round" stroke-linejoin="round" opacity="0.7"/>
  <path d="M44.7,86.2C44.7,86.3 44.8,86.5 44.6,86.7C44.5,86.8 44.1,86.9 43.9,87.0C43.7,87.2 43.4,87.4 43.2,87.5C42.9,87.7 42.7,87.8 42.4,87.9C42.2,88.1 41.8,88.3 41.7,88.3" fill="none" stroke="#fbbf24" stroke-width="0.6" stroke-linecap="round" stroke-linejoin="round" opacity="0.7"/>
  <path d="M36.0,64.7C35.8,64.7 35.1,64.8 34.7,64.8C34.4,64.8 34.3,64.8 34.1,64.8C33.9,64.8 33.8,64.8 33.5,64.8C33.1,64.8 32.5,64.7 32.2,64.6C31.9,64.6 31.8,64.6 31.6,64.5C31.3,64.5 31.0,64.4 30.7,64.3C30.4,64.3 30.0,64.2 29.7,64.1C29.5,64.1 29.3,64.0 29.1,63.9C28.9,63.9 28.8,63.8 28.5,63.8C28.2,63.7 27.6,63.6 27.3,63.5C27.0,63.5 26.8,63.4 26.7,63.4" fill="none" stroke="#fbbf24" stroke-width="0.6" stroke-linecap="round" stroke-linejoin="round" opacity="0.7"/>
  <path d="M44.5,54.1C44.6,54.2 45.0,54.5 45.0,54.7C45.1,54.9 45.0,55.0 44.9,55.2C44.9,55.4 44.8,55.6 44.8,55.8C44.8,56.0 45.0,56.2 45.0,56.4C45.1,56.6 45.1,56.8 45.2,57.0C45.3,57.3 45.7,57.5 45.7,57.7C45.8,57.9 45.6,58.1 45.6,58.3C45.7,58.5 46.0,58.8 46.1,59.0C46.3,59.3 46.6,59.6 46.6,59.7" fill="none" stroke="#fbbf24" stroke-width="0.6" stroke-linecap="round" stroke-linejoin="round" opacity="0.7"/>
  <path d="M45.7,71.2C45.8,71.3 46.0,71.6 46.2,71.8C46.4,71.9 46.6,72.0 46.8,72.2C47.0,72.3 47.2,72.5 47.3,72.6C47.5,72.8 47.8,72.9 47.9,73.1C48.0,73.2 48.1,73.4 48.1,73.5C48.2,73.7 48.3,73.9 48.4,74.0" fill="none" stroke="#fbbf24" stroke-width="0.6" stroke-linecap="round" stroke-linejoin="round" opacity="0.7"/>
  <path d="M51.4,78.2C51.4,78.3 51.2,78.6 51.3,78.8C51.4,78.9 51.6,79.2 51.8,79.4C52.0,79.6 52.3,79.8 52.3,79.9C52.4,80.1 52.2,80.3 52.2,80.5C52.3,80.7 52.7,81.0 52.7,81.2C52.8,81.4 52.6,81.5 52.6,81.7C52.7,81.9 53.1,82.2 53.2,82.3C53.2,82.5 53.1,82.5 53.1,82.6C53.1,82.7 53.0,82.6 53.1,82.9C53.1,83.1 53.4,83.8 53.5,84.0C53.5,84.3 53.3,84.3 53.4,84.4C53.5,84.5 53.8,84.7 54.0,84.8C54.1,85.0 54.2,85.1 54.5,85.2C54.8,85.4 55.5,85.6 55.7,85.8C55.9,85.9 55.6,86.1 55.6,86.2" fill="none" stroke="#fbbf24" stroke-width="0.6" stroke-linecap="round" stroke-linejoin="round" opacity="0.7"/>
  <path d="M17.0,50.4C16.9,50.4 16.5,50.6 16.3,50.7C16.1,50.8 15.8,50.8 15.6,50.9C15.4,51.0 15.3,51.1 14.9,51.1C14.6,51.2 14.0,51.2 13.6,51.3C13.3,51.4 13.1,51.5 12.9,51.6C12.7,51.7 12.6,51.8 12.5,51.9" fill="none" stroke="#fbbf24" stroke-width="0.6" stroke-linecap="round" stroke-linejoin="round" opacity="0.7"/>
  <path d="M68.4,53.4C68.5,53.5 68.9,53.7 69.0,53.8C69.0,54.0 68.8,54.2 68.8,54.4C68.9,54.6 69.0,54.8 69.1,55.0C69.1,55.2 69.1,55.3 69.3,55.5C69.4,55.7 69.6,56.0 69.8,56.2C70.0,56.4 70.2,56.7 70.3,56.8" fill="none" stroke="#fbbf24" stroke-width="0.6" stroke-linecap="round" stroke-linejoin="round" opacity="0.7"/>
  <circle cx="54.1" cy="59.8" r="3.5" fill="#0c0c0c" stroke="#ef4444" stroke-width="0.4" opacity="0.95"/>
  <text x="54.1" y="61.0" text-anchor="middle" font-family="sans-serif" font-size="3.5" font-weight="700" fill="#ffffff" opacity="0.95">OR</text>
</svg>