<svg xmlns="http://www.w3.org/2000/svg" viewBox="0 0 106.14050285055407 102.1169759827725" preserveAspectRatio="none">
  <path d="M67.0,58.1C67.2,57.9 67.4,57.9 67.5,57.5C67.7,57.1 67.3,57.3 67.4,56.8C67.5,56.4 67.8,56.6 67.9,56.2C68.0,55.7 67.5,56.0 67.8,55.5C68.1,55.1 68.6,55.2 68.9,54.8C69.3,54.3 68.7,54.6 68.8,54.2C68.9,53.7 69.0,53.9 69.3,53.5C69.7,53.1 69.7,53.3 69.8,52.9C70.0,52.4 69.8,52.6 69.7,52.2C69.6,51.7 69.7,51.9 69.6,51.5C69.5,51.1 69.5,51.1 69.5,50.9" fill="none" stroke="#ef4444" stroke-width="0.8" stroke-linecap="round" stroke-linejoin="round" opacity="0.9"/>
  <path d="M46.5,41.7C46.7,41.5 46.9,41.5 47.0,41.0C47.1,40.5 47.0,40.8 46.9,40.3C46.8,39.8 46.8,40.1 46.7,39.6C46.7,39.2 46.7,39.4 46.6,39.0C46.5,38.5 46.5,38.7 46.5,38.3C46.5,37.8 46.5,38.1 46.7,37.6C46.8,37.1 46.8,37.3 46.8,36.9C46.9,36.5 46.8,36.7 46.7,36.3C46.7,35.9 46.7,35.9 46.6,35.7" fill="none" stroke="#ef4444" stroke-width="0.8" stroke-linecap="round" stroke-linejoin="round" opacity="0.9"/>
  <path d="M70.8,44.7C71.0,44.5 71.2,44.6 71.4,44.1C71.5,43.7 71.1,43.9 71.2,43.5C71.4,43.0 71.6,43.2 71.7,42.8C71.9,42.4 71.5,42.6 71.6,42.2C71.7,41.7 71.8,42.0 72.1,41.5C72.5,41.0 72.3,41.2 72.6,40.7C72.9,40.2 73.0,40.4 73.1,39.9C73.2,39.5 72.9,39.8 73.0,39.3C73.1,38.9 73.4,39.1 73.5,38.6C73.6,38.1 73.2,38.3 73.3,37.8C73.5,37.4 73.5,37.7 73.9,37.2C74.2,36.7 74.2,37.0 74.4,36.5C74.5,36.0 74.1,36.3 74.2,35.8C74.4,35.3 74.4,35.5 74.7,35.1C75.1,34.6 75.0,34.9 75.2,34.4C75.5,34.0 75.3,34.2 75.4,33.7C75.6,33.2 75.6,33.4 75.6,33.0C75.6,32.6 75.6,32.8 75.5,32.4C75.4,32.0 75.3,32.2 75.4,31.8C75.5,31.5 75.7,31.4 75.9,31.2" fill="none" stroke="#ef4444" stroke-width="0.8" stroke-linecap="round" stroke-linejoin="round" opacity="0.9"/>
  <path d="M74.2,25.6C74.1,25.4 74.1,25.4 74.1,25.0C74.0,24.7 74.2,24.8 74.0,24.5C73.7,24.2 73.6,24.4 73.2,24.0C72.8,23.7 73.1,23.9 72.8,23.5C72.5,23.1 72.6,23.3 72.4,22.9C72.2,22.6 72.4,22.8 72.3,22.4C72.2,22.0 72.4,22.2 72.2,21.8C71.9,21.4 71.7,21.6 71.4,21.3C71.1,20.9 71.4,21.1 71.3,20.8C71.2,20.4 71.5,20.5 71.2,20.2C70.9,19.9 70.7,20.0 70.5,19.7C70.2,19.4 70.4,19.4 70.4,19.3" fill="none" stroke="#fbbf24" stroke-width="0.6" stroke-linecap="round" stroke-linejoin="round" opacity="0.7"/>
  <path d="M64.8,30.0C64.7,29.8 64.6,29.9 64.7,29.5C64.7,29.1 64.7,29.3 64.9,28.9C65.0,28.5 65.0,28.7 65.1,28.3C65.1,27.9 65.0,28.1 65.0,27.7C64.9,27.4 64.9,27.6 64.9,27.2C64.8,26.9 64.8,27.0 64.7,26.6C64.7,26.2 64.5,26.5 64.7,26.1C64.8,25.8 65.0,25.9 65.2,25.5C65.3,25.1 64.9,25.3 65.1,25.0C65.2,24.6 65.2,24.8 65.6,24.4C66.0,24.0 65.8,24.2 66.1,23.9C66.5,23.5 66.3,23.7 66.7,23.4C67.0,23.0 67.1,23.2 67.2,22.8C67.4,22.5 67.0,22.7 67.1,22.4C67.3,22.0 67.3,22.2 67.7,21.8C68.0,21.4 67.8,21.6 68.2,21.2C68.5,20.8 68.4,21.0 68.7,20.6C69.1,20.2 69.1,20.4 69.2,20.0C69.4,19.7 69.0,19.9 69.1,19.5C69.3,19.1 69.5,19.3 69.7,19.0C69.8,18.6 69.5,18.8 69.6,18.4C69.6,18.1 69.6,18.2 69.8,17.9C69.9,17.5 69.8,17.8 70.0,17.4C70.3,17.0 70.4,17.0 70.5,16.8" fill="none" stroke="#fbbf24" stroke-width="0.6" stroke-linecap="round" stroke-linejoin="round" opacity="0.7"/>
  <path d="M36.2,57.9C36.6,57.9 37.0,57.9 37.5,58.0C37.9,58.1 37.1,58.1 37.5,58.1C37.9,58.2 38.1,58.1 38.8,58.2C39.4,58.2 38.8,58.2 39.4,58.3C40.1,58.3 40.1,58.2 40.7,58.3C41.4,58.4 41.0,58.4 41.4,58.5C41.9,58.6 41.4,58.6 42.1,58.7C42.8,58.8 42.7,58.7 43.4,58.8C44.1,58.8 43.6,58.8 44.1,58.9C44.5,59.1 44.3,59.0 44.8,59.2C45.2,59.3 45.0,59.2 45.4,59.4C45.9,59.6 45.5,59.5 46.1,59.7C46.8,59.9 47.0,59.8 47.5,60.0C48.0,60.3 47.3,60.2 47.6,60.4C47.8,60.7 47.8,60.5 48.3,60.8C48.8,61.0 48.5,60.9 49.0,61.2C49.5,61.5 49.0,61.3 49.7,61.6C50.4,61.9 50.6,61.7 51.1,62.0C51.6,62.3 50.9,62.1 51.2,62.4C51.4,62.8 51.6,62.6 51.9,62.9C52.2,63.2 51.7,63.1 52.0,63.3C52.2,63.6 52.5,63.6 52.7,63.7" fill="none" stroke="#fbbf24" stroke-width="0.6" stroke-linecap="round" stroke-linejoin="round" opacity="0.7"/>
  <path d="M63.4,62.5C63.5,62.3 63.5,62.3 63.9,62.0C64.3,61.7 64.3,61.8 64.5,61.5C64.6,61.2 64.2,61.3 64.4,61.0C64.5,60.7 64.5,60.8 64.9,60.5C65.3,60.1 65.1,60.3 65.4,59.9C65.8,59.5 65.6,59.7 66.0,59.3C66.3,58.9 66.3,58.9 66.5,58.7" fill="none" stroke="#fbbf24" stroke-width="0.6" stroke-linecap="round" stroke-linejoin="round" opacity="0.7"/>
  <path d="M44.7,15.9C44.7,15.8 44.9,15.7 44.6,15.5C44.3,15.2 44.4,15.4 43.9,15.1C43.4,14.8 43.6,14.9 43.2,14.6C42.7,14.3 42.9,14.4 42.4,14.2C42.0,13.9 42.0,13.9 41.7,13.8" fill="none" stroke="#fbbf24" stroke-width="0.6" stroke-linecap="round" stroke-linejoin="round" opacity="0.7"/>
  <path d="M36.0,37.4C35.6,37.4 35.4,37.3 34.7,37.3C34.1,37.3 34.5,37.3 34.1,37.3C33.7,37.3 34.1,37.3 33.5,37.3C32.8,37.4 32.8,37.4 32.2,37.5C31.6,37.6 32.1,37.5 31.6,37.6C31.1,37.7 31.3,37.7 30.7,37.8C30.0,37.9 30.2,37.9 29.7,38.0C29.2,38.1 29.5,38.1 29.1,38.2C28.7,38.3 29.1,38.2 28.5,38.4C27.9,38.5 27.9,38.5 27.3,38.6C26.7,38.7 26.9,38.7 26.7,38.8" fill="none" stroke="#fbbf24" stroke-width="0.6" stroke-linecap="round" stroke-linejoin="round" opacity="0.7"/>
  <path d="M44.5,48.0C44.7,47.8 44.9,47.8 45.0,47.4C45.2,47.1 45.0,47.3 44.9,46.9C44.9,46.6 44.8,46.7 44.8,46.3C44.9,45.9 44.9,46.1 45.0,45.7C45.2,45.3 45.0,45.5 45.2,45.1C45.5,44.6 45.6,44.8 45.7,44.4C45.9,44.0 45.5,44.3 45.6,43.8C45.8,43.4 45.8,43.5 46.1,43.1C46.5,42.6 46.5,42.6 46.6,42.4" fill="none" stroke="#fbbf24" stroke-width="0.6" stroke-linecap="round" stroke-linejoin="round" opacity="0.7"/>
  <path d="M45.7,30.9C45.9,30.7 45.9,30.7 46.2,30.4C46.6,30.0 46.4,30.3 46.8,30.0C47.2,29.7 47.0,29.8 47.3,29.5C47.7,29.2 47.6,29.3 47.9,29.0C48.2,28.7 48.0,28.9 48.1,28.6C48.3,28.3 48.3,28.3 48.4,28.1" fill="none" stroke="#fbbf24" stroke-width="0.6" stroke-linecap="round" stroke-linejoin="round" opacity="0.7"/>
  <path d="M51.4,23.9C51.4,23.7 51.1,23.8 51.3,23.4C51.4,23.0 51.5,23.1 51.8,22.7C52.2,22.3 52.2,22.5 52.3,22.2C52.5,21.8 52.1,22.0 52.2,21.6C52.4,21.2 52.6,21.3 52.7,20.9C52.9,20.5 52.5,20.8 52.6,20.4C52.8,20.0 53.0,20.1 53.2,19.8C53.3,19.5 53.1,19.7 53.1,19.5C53.1,19.3 52.9,19.7 53.1,19.2C53.2,18.8 53.4,18.6 53.5,18.1C53.6,17.6 53.2,18.0 53.4,17.7C53.6,17.5 53.6,17.6 54.0,17.3C54.3,17.0 53.9,17.2 54.5,16.9C55.1,16.6 55.3,16.6 55.7,16.3C56.1,16.0 55.6,16.1 55.6,16.0" fill="none" stroke="#fbbf24" stroke-width="0.6" stroke-linecap="round" stroke-linejoin="round" opacity="0.7"/>
  <path d="M17.0,51.8C16.8,51.6 16.8,51.6 16.3,51.4C15.8,51.2 16.1,51.3 15.6,51.2C15.2,51.1 15.6,51.1 14.9,51.0C14.3,50.9 14.3,51.0 13.6,50.8C12.9,50.6 13.3,50.7 12.9,50.5C12.6,50.3 12.7,50.3 12.5,50.2" fill="none" stroke="#fbbf24" stroke-width="0.6" stroke-linecap="round" stroke-linejoin="round" opacity="0.7"/>
  <path d="M68.4,48.7C68.6,48.6 68.8,48.6 69.0,48.3C69.1,47.9 68.8,48.1 68.8,47.7C68.9,47.4 68.9,47.5 69.1,47.2C69.2,46.8 69.0,47.0 69.3,46.6C69.5,46.2 69.4,46.3 69.8,45.9C70.1,45.5 70.1,45.5 70.3,45.3" fill="none" stroke="#fbbf24" stroke-width="0.6" stroke-linecap="round" stroke-linejoin="round" opacity="0.7"/>
  <ellipse cx="54.1" cy="42.4" rx="3.5" ry="2.2" fill="#0c0c0c" stroke="#ef4444" stroke-width="0.4" opacity="0.95"/>
  <text x="54.1" y="43.3" text-anchor="middle" font-family="sans-serif" font-size="2.4" font-weight="700" fill="#ffffff" opacity="0.95">OR</text>
</svg>