<svg xmlns="http://www.w3.org/2000/svg" viewBox="0 0 102.44941145180643 98.08150433173446" preserveAspectRatio="none">
  <path d="M19.7,23.2C19.5,22.9 19.4,22.7 18.9,22.3C18.5,21.9 18.8,22.2 18.3,21.9C17.9,21.6 18.1,21.7 17.7,21.4C17.2,21.1 17.5,21.4 17.0,21.0C16.5,20.6 16.7,20.8 16.3,20.3C15.8,19.9 16.0,20.0 15.5,19.7C15.1,19.3 15.3,19.5 14.9,19.2C14.4,19.0 14.8,19.4 14.3,18.8C13.7,18.2 13.8,18.1 13.3,17.5C12.7,16.9 13.0,17.5 12.6,17.1C12.2,16.7 12.4,16.8 12.1,16.2C11.8,15.7 12.0,15.8 11.7,15.4C11.5,14.9 11.6,15.3 11.3,14.9C11.1,14.6 11.2,14.7 10.9,14.3C10.6,13.9 10.8,14.1 10.5,13.6C10.2,13.1 10.3,13.2 10.0,12.8C9.7,12.4 9.9,12.8 9.7,12.4C9.5,11.9 9.6,11.9 9.3,11.5C9.1,11.1 9.2,11.5 9.0,11.1C8.8,10.6 9.0,10.6 8.8,10.2C8.5,9.8 8.5,10.2 8.3,9.8C8.1,9.4 8.2,9.2 8.1,8.9" fill="none" stroke="#ef4444" stroke-width="0.8" stroke-linecap="round" stroke-linejoin="round" opacity="0.9"/>
  <path d="M44.7,55.5C44.7,55.8 44.7,55.8 44.7,56.3C44.6,56.8 44.6,56.5 44.6,57.0C44.6,57.4 44.6,57.2 44.6,57.6C44.6,58.0 44.6,57.7 44.6,58.0C44.6,58.3 44.7,58.0 44.7,58.5C44.7,58.9 44.7,59.0 44.7,59.3" fill="none" stroke="#fbbf24" stroke-width="0.6" stroke-linecap="round" stroke-linejoin="round" opacity="0.7"/>
  <path d="M28.5,65.4C28.6,65.5 28.6,65.5 28.9,65.8C29.2,66.1 29.1,65.9 29.3,66.2C29.6,66.5 29.4,66.4 29.7,66.7C30.0,66.9 29.8,66.8 30.2,67.1C30.5,67.4 30.5,67.4 30.7,67.5" fill="none" stroke="#fbbf24" stroke-width="0.6" stroke-linecap="round" stroke-linejoin="round" opacity="0.7"/>
  <path d="M26.2,29.7C26.0,29.8 25.9,29.9 25.4,30.1C24.9,30.2 25.2,29.9 24.7,30.1C24.2,30.2 24.5,30.3 24.0,30.5C23.6,30.6 23.8,30.5 23.3,30.4C22.8,30.4 23.0,30.3 22.6,30.4C22.1,30.6 22.4,30.6 21.9,30.8C21.5,31.1 21.7,31.0 21.3,31.3C20.9,31.5 21.1,31.4 20.6,31.7C20.2,31.9 20.5,31.8 20.0,32.1C19.6,32.4 19.8,32.2 19.3,32.5C18.8,32.8 19.0,32.8 18.6,32.9C18.2,33.0 18.4,32.8 18.0,32.9C17.6,33.0 17.8,33.0 17.4,33.3C16.9,33.6 17.2,33.4 16.8,33.7C16.4,34.0 16.3,34.0 16.1,34.1" fill="none" stroke="#fbbf24" stroke-width="0.6" stroke-linecap="round" stroke-linejoin="round" opacity="0.7"/>
  <path d="M28.3,46.7C28.1,46.8 28.1,47.0 27.6,47.1C27.1,47.2 27.3,46.9 26.9,47.1C26.4,47.2 26.7,47.2 26.2,47.5C25.8,47.8 26.0,47.7 25.5,47.9C25.1,48.1 25.3,48.0 24.9,48.1C24.4,48.2 24.6,48.1 24.2,48.3C23.7,48.5 23.7,48.6 23.5,48.7" fill="none" stroke="#fbbf24" stroke-width="0.6" stroke-linecap="round" stroke-linejoin="round" opacity="0.7"/>
  <path d="M67.2,40.6C67.1,40.5 67.1,40.5 67.0,40.2C66.9,39.9 67.0,40.2 66.8,39.8C66.7,39.4 66.8,39.4 66.7,38.9C66.6,38.5 66.7,38.8 66.6,38.5C66.4,38.2 66.4,38.4 66.2,38.1C66.0,37.8 66.2,37.9 66.0,37.6C65.8,37.4 65.8,37.6 65.6,37.2C65.4,36.8 65.5,36.7 65.3,36.4C65.1,36.0 65.4,36.6 65.0,36.1C64.7,35.7 64.7,35.6 64.3,35.1C63.9,34.6 64.1,34.9 63.8,34.6C63.5,34.3 63.7,34.5 63.3,34.2C63.0,33.9 63.2,34.1 62.8,33.8C62.5,33.5 62.6,33.6 62.4,33.3C62.1,33.0 62.3,33.2 62.0,32.9C61.7,32.6 61.8,32.8 61.4,32.5C61.0,32.2 61.2,32.3 60.8,32.0C60.5,31.7 60.7,31.9 60.5,31.6C60.2,31.3 60.2,31.3 60.1,31.2" fill="none" stroke="#fbbf24" stroke-width="0.6" stroke-linecap="round" stroke-linejoin="round" opacity="0.7"/>
  <path d="M37.1,56.6C37.1,56.3 37.1,56.2 37.1,55.8C37.1,55.3 37.1,55.6 37.2,55.3C37.2,55.1 37.2,55.2 37.2,54.9C37.3,54.6 37.3,54.9 37.3,54.5C37.4,54.1 37.4,54.1 37.5,53.6C37.6,53.2 37.6,53.4 37.6,53.2C37.7,53.0 37.6,53.2 37.6,53.0C37.7,52.9 37.7,52.9 37.7,52.8" fill="none" stroke="#fbbf24" stroke-width="0.6" stroke-linecap="round" stroke-linejoin="round" opacity="0.7"/>
  <path d="M46.0,39.4C45.8,39.2 45.8,39.2 45.4,38.9C45.1,38.7 45.3,38.8 44.9,38.5C44.6,38.2 44.8,38.3 44.4,38.1C44.0,37.9 44.1,38.0 43.7,37.8C43.3,37.7 43.5,38.0 43.1,37.6C42.7,37.3 42.7,37.1 42.5,36.8" fill="none" stroke="#fbbf24" stroke-width="0.6" stroke-linecap="round" stroke-linejoin="round" opacity="0.7"/>
  <ellipse cx="38.6" cy="42.0" rx="3.5" ry="2.2" fill="#0c0c0c" stroke="#ef4444" stroke-width="0.4" opacity="0.95"/>
  <text x="38.6" y="42.9" text-anchor="middle" font-family="sans-serif" font-size="2.4" font-weight="700" fill="#ffffff" opacity="0.95">OR</text>
</svg>