<svg xmlns="http://www.w3.org/2000/svg" viewBox="0 0 102.44941145180643 98.08150433173446" preserveAspectRatio="none">
  <path d="M57.7,68.6C57.6,68.7 57.6,68.9 57.5,69.1C57.5,69.3 57.4,69.6 57.4,69.9C57.4,70.2 57.4,70.6 57.4,70.8C57.4,71.0 57.4,71.0 57.4,71.2C57.3,71.4 57.3,71.8 57.3,72.0C57.2,72.3 57.1,72.7 57.1,72.9C57.0,73.1 56.9,73.1 56.8,73.3C56.7,73.5 56.7,74.0 56.7,74.2C56.7,74.4 56.7,74.5 56.6,74.6C56.6,74.7 56.5,74.8 56.4,75.0C56.3,75.2 56.3,75.6 56.2,75.9C56.1,76.2 56.1,76.5 56.0,76.7C55.9,77.0 55.9,77.4 55.9,77.6C55.8,77.8 55.8,77.9 55.7,78.0C55.7,78.2 55.7,78.2 55.6,78.4C55.6,78.7 55.4,79.2 55.4,79.3" fill="none" stroke="#ef4444" stroke-width="0.8" stroke-linecap="round" stroke-linejoin="round" opacity="0.9"/>
  <path d="M42.8,91.9C43.0,91.8 43.5,91.8 43.9,91.8C44.2,91.8 44.5,91.9 44.9,91.8C45.2,91.7 45.6,91.4 45.9,91.4C46.3,91.3 46.6,91.4 46.9,91.3C47.3,91.3 47.7,91.3 48.0,91.3C48.4,91.3 48.8,91.4 49.2,91.3C49.5,91.2 49.8,90.9 50.1,90.9C50.4,90.8 50.9,90.8 51.2,90.8C51.5,90.8 51.8,90.8 52.2,90.8C52.5,90.8 52.9,90.8 53.2,90.8C53.6,90.8 54.0,90.8 54.3,90.8C54.6,90.8 55.0,90.8 55.3,90.8C55.5,90.7 55.9,90.4 56.0,90.3" fill="none" stroke="#ef4444" stroke-width="0.8" stroke-linecap="round" stroke-linejoin="round" opacity="0.9"/>
  <path d="M85.1,85.2C85.2,85.3 85.3,85.5 85.4,85.7C85.5,86.0 85.7,86.5 85.8,86.8C85.9,87.0 86.0,87.0 86.1,87.2C86.3,87.4 86.4,87.8 86.5,88.0C86.6,88.2 86.8,88.2 86.9,88.5C87.0,88.7 87.1,89.0 87.2,89.3C87.3,89.6 87.4,90.0 87.4,90.1C87.5,90.3 87.6,90.0 87.7,90.1C87.8,90.3 87.9,90.8 88.0,91.0C88.1,91.2 88.1,91.3 88.2,91.4C88.3,91.5 88.3,91.6 88.4,91.8C88.5,92.0 88.6,92.5 88.6,92.7" fill="none" stroke="#ef4444" stroke-width="0.8" stroke-linecap="round" stroke-linejoin="round" opacity="0.9"/>
  <path d="M30.1,64.9C30.0,65.1 29.7,65.6 29.5,65.8C29.2,66.0 29.0,66.0 28.8,66.2C28.5,66.5 28.2,67.0 27.9,67.1C27.7,67.2 27.4,67.0 27.2,67.1C26.9,67.2 26.8,67.3 26.6,67.5C26.4,67.8 26.1,68.2 25.9,68.4C25.7,68.6 25.5,68.8 25.4,68.8" fill="none" stroke="#ef4444" stroke-width="0.8" stroke-linecap="round" stroke-linejoin="round" opacity="0.9"/>
  <path d="M60.5,79.2C60.6,79.3 61.0,79.5 61.3,79.6C61.5,79.7 61.8,79.9 62.1,80.0C62.3,80.2 62.7,80.3 63.0,80.4C63.3,80.6 63.5,80.6 63.8,80.8C64.1,81.0 64.4,81.5 64.7,81.7C65.0,81.8 65.3,81.6 65.6,81.6C65.9,81.7 66.1,81.9 66.4,82.1C66.7,82.3 66.9,82.7 67.2,82.9C67.5,83.1 67.7,83.2 68.0,83.3C68.3,83.4 68.6,83.5 68.9,83.7C69.2,83.9 69.5,84.1 69.8,84.3C70.1,84.5 70.4,84.7 70.7,84.9C71.0,85.2 71.2,85.6 71.4,85.8C71.7,85.9 71.9,85.6 72.2,85.8C72.4,85.9 72.7,86.4 73.0,86.6C73.3,86.8 73.6,86.8 73.9,87.0C74.2,87.2 74.4,87.6 74.7,87.8C74.9,88.0 75.1,88.1 75.4,88.3C75.6,88.4 75.8,88.5 76.0,88.7C76.3,88.9 76.6,89.3 76.8,89.5C77.1,89.7 77.3,89.8 77.5,89.9C77.7,90.0 77.9,90.1 78.1,90.3C78.4,90.5 78.5,90.9 78.7,91.2C78.9,91.4 79.1,91.4 79.3,91.6C79.5,91.8 79.8,92.3 80.0,92.4C80.2,92.5 80.4,92.4 80.5,92.4" fill="none" stroke="#ef4444" stroke-width="0.8" stroke-linecap="round" stroke-linejoin="round" opacity="0.9"/>
  <path d="M22.9,71.4C22.8,71.6 22.5,72.1 22.3,72.3C22.2,72.5 22.0,72.5 21.9,72.7C21.8,72.9 21.7,73.4 21.6,73.6C21.5,73.8 21.4,73.9 21.3,74.0C21.2,74.2 21.1,74.4 21.0,74.4" fill="none" stroke="#ef4444" stroke-width="0.8" stroke-linecap="round" stroke-linejoin="round" opacity="0.9"/>
  <path d="M56.5,60.2C56.5,60.3 56.7,60.8 56.7,61.0C56.8,61.2 56.9,61.3 56.9,61.4C57.0,61.6 57.1,61.7 57.1,61.9C57.2,62.1 57.2,62.4 57.3,62.7C57.3,63.0 57.3,63.3 57.4,63.6C57.4,63.8 57.5,63.8 57.6,64.0C57.6,64.1 57.7,64.2 57.7,64.4C57.7,64.6 57.7,65.0 57.7,65.2C57.7,65.5 57.8,65.9 57.8,66.1C57.8,66.3 57.7,66.3 57.7,66.5C57.7,66.7 57.8,67.2 57.8,67.4C57.8,67.6 57.8,67.7 57.8,67.8" fill="none" stroke="#fbbf24" stroke-width="0.6" stroke-linecap="round" stroke-linejoin="round" opacity="0.7"/>
  <path d="M72.4,77.3C72.4,77.3 72.6,77.2 72.8,77.3C72.9,77.3 73.1,77.5 73.2,77.7C73.3,77.9 73.4,78.3 73.5,78.5C73.6,78.7 73.8,78.8 73.9,78.9C74.0,79.1 74.0,79.2 74.1,79.4C74.2,79.5 74.4,79.7 74.4,79.8" fill="none" stroke="#fbbf24" stroke-width="0.6" stroke-linecap="round" stroke-linejoin="round" opacity="0.7"/>
  <path d="M25.6,59.5C25.5,59.6 25.1,59.8 24.8,59.9C24.6,60.1 24.4,60.3 24.1,60.4C23.9,60.5 23.6,60.4 23.4,60.4C23.1,60.4 22.8,60.3 22.6,60.4C22.3,60.5 22.2,60.7 21.9,60.8C21.7,61.0 21.4,61.2 21.3,61.3" fill="none" stroke="#fbbf24" stroke-width="0.6" stroke-linecap="round" stroke-linejoin="round" opacity="0.7"/>
  <path d="M11.4,70.0C11.4,70.0 11.2,70.2 11.1,70.4C11.0,70.6 10.8,71.0 10.7,71.3C10.6,71.5 10.5,71.5 10.5,71.7C10.4,71.8 10.3,71.9 10.2,72.1C10.2,72.3 10.2,72.7 10.2,73.0C10.2,73.2 10.1,73.7 10.0,73.8C10.0,74.0 9.8,73.7 9.7,73.8C9.7,74.0 9.8,74.5 9.9,74.7C9.9,74.9 10.0,74.9 10.0,75.1C10.1,75.3 10.2,75.7 10.2,75.9C10.2,76.1 10.1,76.2 10.1,76.4C10.2,76.5 10.3,76.6 10.3,76.8C10.4,77.0 10.5,77.3 10.6,77.6C10.6,77.9 10.7,78.3 10.7,78.5C10.8,78.6 10.8,78.3 10.9,78.5C10.9,78.6 11.0,79.0 11.0,79.3C11.1,79.6 11.1,79.9 11.1,80.2C11.1,80.4 11.1,80.4 11.1,80.6C11.1,80.7 11.2,80.8 11.2,81.0C11.2,81.2 11.1,81.6 11.1,81.9C11.1,82.1 11.2,82.1 11.2,82.3C11.2,82.4 11.1,82.5 11.0,82.7C11.0,82.9 11.0,83.3 11.0,83.6C11.0,83.8 11.1,83.8 11.0,84.0C10.9,84.1 10.7,84.3 10.7,84.4" fill="none" stroke="#fbbf24" stroke-width="0.6" stroke-linecap="round" stroke-linejoin="round" opacity="0.7"/>
  <path d="M31.3,90.4C31.5,90.4 31.9,90.3 32.1,90.4C32.4,90.4 32.7,90.6 32.9,90.8C33.2,90.9 33.5,91.1 33.7,91.2C34.0,91.2 34.3,91.2 34.6,91.2C34.8,91.2 35.0,91.1 35.3,91.1C35.6,91.2 35.9,91.5 36.2,91.6C36.5,91.6 36.8,91.5 37.1,91.5C37.4,91.5 37.7,91.5 38.0,91.5C38.3,91.6 38.6,91.9 39.0,91.9C39.3,92.0 39.6,91.9 39.9,91.9C40.2,91.9 40.5,91.9 40.9,91.9C41.2,91.9 41.6,91.9 41.8,91.9" fill="none" stroke="#fbbf24" stroke-width="0.6" stroke-linecap="round" stroke-linejoin="round" opacity="0.7"/>
  <path d="M56.0,90.3C56.2,90.3 56.6,90.4 56.8,90.3C57.1,90.2 57.5,89.9 57.8,89.9C58.1,89.8 58.4,89.9 58.6,89.8C58.9,89.8 59.2,89.6 59.4,89.4C59.7,89.3 60.0,89.1 60.3,89.0C60.5,88.8 60.7,88.6 61.0,88.5C61.3,88.5 61.6,88.5 61.9,88.5C62.2,88.5 62.5,88.6 62.8,88.5C63.1,88.4 63.4,88.1 63.7,88.1C64.0,88.0 64.3,88.1 64.5,88.0C64.8,88.0 65.1,87.7 65.4,87.6C65.7,87.5 65.9,87.6 66.3,87.6C66.6,87.6 67.0,87.6 67.4,87.6C67.7,87.5 68.1,87.2 68.4,87.1C68.7,87.0 69.0,87.2 69.2,87.1C69.5,87.0 69.8,86.7 70.1,86.7C70.4,86.6 70.6,86.6 71.0,86.6C71.4,86.6 72.0,86.7 72.4,86.6C72.8,86.5 73.3,86.2 73.6,86.2C74.0,86.1 74.3,86.2 74.6,86.1C74.8,86.1 74.9,85.8 75.1,85.7C75.4,85.6 75.6,85.7 76.0,85.7C76.3,85.7 76.7,85.7 77.0,85.7C77.3,85.6 77.5,85.3 77.8,85.2C78.0,85.2 78.3,85.3 78.5,85.2C78.7,85.1 78.9,84.9 79.2,84.8C79.4,84.6 79.7,84.4 80.0,84.3C80.2,84.3 80.6,84.4 80.8,84.3C81.1,84.2 81.4,84.0 81.5,83.9" fill="none" stroke="#fbbf24" stroke-width="0.6" stroke-linecap="round" stroke-linejoin="round" opacity="0.7"/>
  <path d="M56.1,75.5C56.2,75.6 56.4,76.1 56.5,76.3C56.6,76.5 56.6,76.5 56.7,76.7C56.8,76.9 56.8,77.4 56.9,77.6C56.9,77.8 56.9,77.8 57.0,78.0C57.1,78.2 57.2,78.6 57.3,78.8C57.4,79.0 57.3,79.1 57.4,79.3C57.5,79.4 57.7,79.5 57.9,79.7C58.0,79.9 58.0,80.2 58.1,80.5C58.2,80.8 58.2,81.2 58.3,81.4C58.5,81.6 58.7,81.6 58.8,81.8C58.9,81.9 58.9,82.1 59.0,82.2C59.1,82.3 59.2,82.5 59.3,82.6" fill="none" stroke="#fbbf24" stroke-width="0.6" stroke-linecap="round" stroke-linejoin="round" opacity="0.7"/>
  <path d="M66.4,86.7C66.5,86.8 67.0,87.1 67.3,87.1C67.6,87.2 67.8,87.2 68.0,87.1C68.3,87.0 68.6,86.8 68.9,86.7C69.2,86.6 69.4,86.7 69.7,86.7C70.0,86.7 70.3,86.7 70.5,86.6C70.8,86.6 71.1,86.6 71.3,86.6C71.6,86.6 71.8,86.6 72.1,86.6C72.4,86.6 72.8,86.6 72.9,86.6" fill="none" stroke="#fbbf24" stroke-width="0.6" stroke-linecap="round" stroke-linejoin="round" opacity="0.7"/>
  <path d="M74.3,65.3C74.3,65.4 74.4,65.6 74.4,65.8C74.5,65.9 74.5,66.0 74.6,66.2C74.7,66.4 74.8,66.8 74.9,67.0C75.0,67.2 75.0,67.3 75.1,67.5C75.2,67.6 75.2,67.7 75.3,67.9C75.3,68.0 75.4,68.2 75.4,68.3C75.4,68.4 75.5,68.5 75.5,68.7C75.6,68.9 75.7,69.4 75.8,69.6C75.8,69.8 75.9,69.8 76.0,70.0C76.1,70.1 76.2,70.3 76.3,70.4C76.3,70.5 76.4,70.6 76.5,70.8C76.5,71.0 76.5,71.5 76.6,71.7C76.7,71.9 76.4,71.3 77.0,72.1C77.6,72.9 79.7,75.9 80.3,76.7C80.9,77.5 80.5,77.0 80.6,77.1C80.7,77.2 80.7,77.0 80.8,77.1C80.9,77.2 81.1,77.7 81.2,77.9C81.3,78.2 81.4,78.2 81.5,78.4C81.6,78.5 81.8,78.6 81.9,78.8C82.0,78.9 81.9,78.9 82.1,79.2C82.2,79.6 82.5,80.5 82.7,80.9C82.8,81.2 82.9,81.2 83.0,81.3C83.1,81.4 83.3,81.6 83.4,81.7C83.5,81.9 83.6,81.9 83.7,82.1C83.8,82.4 83.9,82.8 83.9,83.0C84.0,83.2 84.1,83.2 84.2,83.4C84.3,83.6 84.4,84.0 84.5,84.3C84.6,84.5 84.8,84.6 84.9,84.7" fill="none" stroke="#fbbf24" stroke-width="0.6" stroke-linecap="round" stroke-linejoin="round" opacity="0.7"/>
  <path d="M88.6,92.7C88.6,92.8 88.7,93.2 88.7,93.5C88.8,93.8 88.8,94.2 88.8,94.4C88.9,94.5 88.9,94.2 88.9,94.4C89.0,94.5 89.1,94.9 89.1,95.2C89.1,95.5 89.0,95.8 89.0,96.1C89.0,96.3 89.0,96.8 89.0,96.9C88.9,97.0 88.8,96.9 88.8,96.9" fill="none" stroke="#fbbf24" stroke-width="0.6" stroke-linecap="round" stroke-linejoin="round" opacity="0.7"/>
  <path d="M60.7,47.4C60.9,47.4 61.3,47.7 61.6,47.8C61.8,47.8 62.0,47.7 62.3,47.8C62.5,47.8 62.9,48.1 63.2,48.2C63.5,48.2 63.8,48.2 64.0,48.1C64.3,48.1 64.5,48.1 64.8,48.1C65.1,48.2 65.4,48.5 65.7,48.5C66.0,48.6 66.3,48.5 66.6,48.5C66.9,48.5 67.1,48.5 67.4,48.5C67.7,48.5 68.0,48.5 68.3,48.5C68.6,48.5 68.8,48.4 69.1,48.5C69.4,48.5 69.7,48.7 70.0,48.9C70.3,49.0 70.6,49.2 70.8,49.3C71.1,49.4 71.3,49.2 71.6,49.3C71.8,49.3 72.1,49.6 72.3,49.7C72.6,49.7 72.8,49.6 73.1,49.7C73.3,49.7 73.6,50.0 73.9,50.1C74.1,50.1 74.3,50.0 74.6,50.1C74.8,50.1 75.1,50.4 75.3,50.5C75.5,50.5 75.8,50.5 75.9,50.5" fill="none" stroke="#fbbf24" stroke-width="0.6" stroke-linecap="round" stroke-linejoin="round" opacity="0.7"/>
  <path d="M51.4,41.2C51.3,41.1 50.9,40.8 50.6,40.8C50.3,40.7 50.1,40.8 49.8,40.8C49.6,40.8 49.2,40.9 48.9,40.8C48.6,40.7 48.3,40.5 48.0,40.4C47.8,40.3 47.5,40.4 47.3,40.4C47.0,40.4 46.6,40.5 46.4,40.4C46.1,40.4 45.8,40.1 45.5,40.0C45.3,39.9 45.0,40.0 44.8,40.0C44.5,40.0 44.2,40.0 43.9,40.0C43.6,40.1 43.3,40.1 43.0,40.1C42.8,40.1 42.5,40.1 42.3,40.1C42.0,40.1 41.7,40.1 41.4,40.1C41.1,40.1 40.8,40.1 40.6,40.1C40.3,40.1 40.0,40.1 39.7,40.1C39.4,40.1 39.1,40.1 38.9,40.1C38.6,40.1 38.4,40.2 38.1,40.2C37.9,40.2 37.5,40.2 37.3,40.2C37.0,40.2 36.7,40.2 36.5,40.2C36.2,40.2 35.9,40.2 35.7,40.2" fill="none" stroke="#fbbf24" stroke-width="0.6" stroke-linecap="round" stroke-linejoin="round" opacity="0.7"/>
  <path d="M76.3,58.9C76.2,58.9 75.7,59.0 75.5,59.0C75.2,59.0 75.0,59.0 74.7,59.0C74.4,59.0 74.1,59.0 73.8,59.0C73.5,59.0 73.2,59.0 72.9,59.0C72.6,59.0 72.4,59.0 72.1,59.0C71.9,59.0 71.6,59.0 71.3,59.0C71.0,59.1 70.8,59.4 70.5,59.5C70.3,59.6 70.0,59.5 69.7,59.5C69.4,59.5 69.1,59.5 68.8,59.5C68.6,59.5 68.3,59.5 68.0,59.5C67.8,59.5 67.5,59.5 67.2,59.5C66.9,59.5 66.7,59.6 66.4,59.6C66.1,59.6 65.8,59.6 65.6,59.6C65.3,59.6 65.0,59.6 64.7,59.6C64.4,59.6 64.0,59.6 63.8,59.6C63.5,59.6 63.2,59.6 63.0,59.6C62.7,59.7 62.4,60.0 62.1,60.1C61.8,60.1 61.6,60.1 61.3,60.1C61.0,60.1 60.7,60.0 60.5,60.1C60.2,60.2 59.8,60.5 59.7,60.5" fill="none" stroke="#fbbf24" stroke-width="0.6" stroke-linecap="round" stroke-linejoin="round" opacity="0.7"/>
  <path d="M39.1,60.1C39.0,60.1 38.6,60.0 38.3,60.1C38.1,60.2 37.9,60.4 37.6,60.5C37.4,60.7 37.2,60.8 37.0,61.0C36.7,61.1 36.5,61.3 36.3,61.4C36.1,61.6 35.9,61.7 35.7,61.9C35.4,62.0 35.2,62.2 34.9,62.3C34.7,62.4 34.4,62.2 34.2,62.3C34.0,62.4 33.7,62.5 33.5,62.7C33.3,63.0 33.1,63.4 32.9,63.6C32.7,63.8 32.5,63.9 32.2,64.0C32.0,64.2 31.7,64.4 31.5,64.5C31.3,64.6 31.8,63.8 30.8,64.5C29.7,65.2 26.4,68.0 25.4,68.8C24.4,69.6 24.9,69.1 24.8,69.3C24.7,69.4 24.6,69.6 24.5,69.7C24.4,69.9 24.3,69.9 24.2,70.1C24.1,70.4 24.0,70.8 23.9,71.0C23.8,71.2 23.8,71.3 23.7,71.4C23.7,71.6 23.6,71.7 23.5,71.9C23.4,72.0 23.2,72.1 23.1,72.3C23.0,72.5 23.1,72.9 23.0,73.1C23.0,73.3 22.9,73.4 22.9,73.6C22.9,73.7 22.9,73.8 22.8,74.0C22.8,74.1 22.6,74.3 22.5,74.4" fill="none" stroke="#fbbf24" stroke-width="0.6" stroke-linecap="round" stroke-linejoin="round" opacity="0.7"/>
  <path d="M50.7,74.3C50.8,74.4 51.0,74.6 51.3,74.7C51.5,74.8 51.7,75.1 52.0,75.1C52.2,75.2 52.4,75.0 52.7,75.1C52.9,75.2 53.2,75.4 53.5,75.5C53.7,75.7 54.0,75.7 54.2,75.9C54.5,76.1 54.7,76.6 55.0,76.8C55.2,77.0 55.4,77.0 55.6,77.2C55.9,77.3 56.1,77.5 56.4,77.6C56.7,77.6 57.1,77.5 57.4,77.6C57.7,77.6 57.9,77.8 58.1,78.0C58.4,78.1 58.7,78.2 59.0,78.4C59.3,78.5 59.6,78.7 59.7,78.8" fill="none" stroke="#fbbf24" stroke-width="0.6" stroke-linecap="round" stroke-linejoin="round" opacity="0.7"/>
  <path d="M80.5,92.4C80.6,92.5 80.8,93.0 81.0,93.2C81.1,93.4 81.2,93.4 81.3,93.7C81.5,93.9 81.7,94.4 81.8,94.5C82.0,94.6 82.2,94.4 82.3,94.5C82.4,94.6 82.4,94.9 82.5,95.1C82.6,95.3 82.7,95.6 82.7,95.7C82.8,95.9 82.8,96.0 82.8,96.2C82.9,96.4 83.0,96.9 83.1,97.0C83.1,97.2 83.1,97.0 83.2,97.0" fill="none" stroke="#fbbf24" stroke-width="0.6" stroke-linecap="round" stroke-linejoin="round" opacity="0.7"/>
  <path d="M28.1,65.4C28.0,65.5 27.8,66.0 27.6,66.3C27.5,66.5 27.3,66.5 27.1,66.7C26.9,66.8 26.7,67.1 26.5,67.1C26.3,67.2 26.3,67.1 26.1,67.1C26.0,67.2 25.8,67.4 25.7,67.6C25.5,67.8 25.4,68.2 25.3,68.4C25.2,68.6 25.1,68.7 24.9,68.9C24.7,69.0 24.5,69.1 24.3,69.3C24.2,69.4 24.1,69.5 24.0,69.7C23.8,69.9 23.7,70.4 23.5,70.6C23.4,70.8 23.6,70.4 23.2,71.0C22.7,71.7 21.5,73.7 21.0,74.4C20.6,75.2 20.7,75.1 20.6,75.3C20.5,75.5 20.3,75.6 20.2,75.7C20.1,75.9 20.0,76.0 20.0,76.2C19.9,76.3 19.8,76.5 19.7,76.6C19.6,76.7 19.4,76.8 19.3,77.0C19.2,77.2 19.1,77.7 19.0,77.9C18.9,78.1 18.8,78.2 18.7,78.3C18.6,78.5 18.4,78.7 18.4,78.7" fill="none" stroke="#fbbf24" stroke-width="0.6" stroke-linecap="round" stroke-linejoin="round" opacity="0.7"/>
  <path d="M68.0,81.4C68.1,81.4 68.5,81.5 68.7,81.6C69.0,81.7 69.1,81.9 69.4,82.0C69.6,82.1 69.8,82.3 70.0,82.4C70.3,82.5 70.6,82.8 70.9,82.8C71.1,82.9 71.3,82.7 71.6,82.8C71.8,82.9 72.0,83.1 72.3,83.2C72.5,83.3 72.8,83.1 73.1,83.2C73.3,83.3 73.5,83.5 73.8,83.6C74.0,83.7 74.2,83.6 74.5,83.6C74.7,83.6 74.8,83.6 75.2,83.6C75.6,83.6 76.3,83.5 76.7,83.6C77.1,83.6 77.3,83.9 77.5,84.0C77.8,84.0 78.0,83.9 78.3,83.9C78.6,84.0 78.9,84.3 79.1,84.4C79.4,84.4 79.7,84.3 79.9,84.3C80.2,84.3 80.5,84.3 80.8,84.3C81.0,84.4 81.3,84.7 81.5,84.7C81.8,84.8 82.0,84.7 82.3,84.7C82.6,84.7 82.8,84.9 83.1,84.9C83.4,85.0 83.6,85.1 83.9,85.1C84.2,85.1 84.5,85.0 84.7,85.1C85.0,85.2 85.2,85.4 85.5,85.5C85.7,85.6 86.0,85.5 86.3,85.5C86.5,85.5 86.8,85.4 87.1,85.5C87.4,85.5 87.6,85.8 87.9,85.9C88.1,86.0 88.4,85.8 88.6,85.9C88.9,85.9 89.3,86.2 89.4,86.3" fill="none" stroke="#fbbf24" stroke-width="0.6" stroke-linecap="round" stroke-linejoin="round" opacity="0.7"/>
  <circle cx="51.9" cy="63.1" r="3.5" fill="#0c0c0c" stroke="#ef4444" stroke-width="0.4" opacity="0.95"/>
  <text x="51.9" y="64.3" text-anchor="middle" font-family="sans-serif" font-size="3.5" font-weight="700" fill="#ffffff" opacity="0.95">OR</text>
</svg>