<svg xmlns="http://www.w3.org/2000/svg" viewBox="0 0 102.44941145180643 98.08150433173446" preserveAspectRatio="none">
  <path d="M57.7,29.4C57.6,29.2 57.7,29.7 57.5,29.0C57.4,28.4 57.4,29.0 57.4,28.2C57.3,27.3 57.4,27.9 57.4,27.3C57.4,26.7 57.4,27.5 57.4,26.9C57.3,26.2 57.4,26.9 57.3,26.0C57.1,25.2 57.3,25.8 57.1,25.2C56.8,24.5 57.0,25.4 56.8,24.8C56.6,24.1 56.8,24.5 56.7,23.9C56.6,23.3 56.8,23.9 56.6,23.5C56.5,23.0 56.6,23.7 56.4,23.0C56.2,22.4 56.4,23.0 56.2,22.2C56.0,21.3 56.2,22.2 56.0,21.3C55.8,20.5 56.0,21.1 55.9,20.5C55.7,19.8 55.9,20.5 55.7,20.1C55.6,19.6 55.8,20.3 55.6,19.6C55.5,19.0 55.5,19.2 55.4,18.8" fill="none" stroke="#ef4444" stroke-width="0.8" stroke-linecap="round" stroke-linejoin="round" opacity="0.9"/>
  <path d="M42.8,6.2C43.3,6.2 42.8,6.2 43.9,6.2C44.9,6.3 43.9,6.0 44.9,6.3C45.9,6.5 44.9,6.5 45.9,6.7C46.9,6.9 45.9,6.7 46.9,6.7C48.0,6.8 46.9,6.7 48.0,6.8C49.2,6.8 48.1,6.5 49.2,6.8C50.2,7.0 49.1,7.0 50.1,7.2C51.1,7.5 50.2,7.2 51.2,7.2C52.2,7.3 51.2,7.2 52.2,7.3C53.2,7.3 52.2,7.3 53.2,7.3C54.3,7.3 53.3,7.3 54.3,7.3C55.3,7.3 54.4,7.1 55.3,7.3C56.1,7.5 55.6,7.5 56.0,7.8" fill="none" stroke="#ef4444" stroke-width="0.8" stroke-linecap="round" stroke-linejoin="round" opacity="0.9"/>
  <path d="M85.1,12.9C85.3,12.6 85.1,13.2 85.4,12.4C85.7,11.6 85.4,12.0 85.8,11.3C86.2,10.6 85.8,11.5 86.1,10.9C86.5,10.3 86.1,10.7 86.5,10.0C86.9,9.4 86.5,10.3 86.9,9.6C87.3,9.0 87.0,9.6 87.2,8.8C87.5,7.9 87.2,8.4 87.4,7.9C87.7,7.5 87.4,8.4 87.7,7.9C88.0,7.5 87.8,7.7 88.0,7.1C88.3,6.5 88.0,7.1 88.2,6.7C88.4,6.3 88.2,6.9 88.4,6.3C88.6,5.6 88.5,5.8 88.6,5.4" fill="none" stroke="#ef4444" stroke-width="0.8" stroke-linecap="round" stroke-linejoin="round" opacity="0.9"/>
  <path d="M30.1,33.1C29.8,32.7 30.1,32.9 29.5,32.3C28.8,31.6 29.5,32.5 28.8,31.8C28.0,31.2 28.7,31.4 27.9,31.0C27.1,30.5 27.8,31.2 27.2,31.0C26.5,30.7 27.2,31.2 26.6,30.5C25.9,29.9 26.5,30.3 25.9,29.7C25.3,29.0 25.6,29.5 25.4,29.2" fill="none" stroke="#ef4444" stroke-width="0.8" stroke-linecap="round" stroke-linejoin="round" opacity="0.9"/>
  <path d="M60.5,18.9C60.9,18.7 60.5,18.9 61.3,18.5C62.1,18.1 61.2,18.5 62.1,18.1C62.9,17.7 62.1,18.1 63.0,17.7C63.8,17.2 62.9,17.9 63.8,17.2C64.6,16.6 63.8,16.8 64.7,16.4C65.6,16.0 64.7,16.6 65.6,16.4C66.4,16.2 65.6,16.6 66.4,16.0C67.2,15.4 66.4,15.8 67.2,15.2C68.0,14.6 67.1,15.2 68.0,14.8C68.8,14.4 68.0,14.9 68.9,14.4C69.8,13.9 68.9,14.4 69.8,13.8C70.7,13.1 69.9,13.9 70.7,13.1C71.5,12.4 70.7,12.7 71.4,12.3C72.2,11.9 71.4,12.7 72.2,12.3C72.9,11.9 72.1,12.1 73.0,11.5C73.9,10.9 73.1,11.7 73.9,11.1C74.7,10.5 74.0,10.9 74.7,10.2C75.4,9.6 74.7,10.2 75.4,9.8C76.0,9.4 75.3,10.0 76.0,9.4C76.8,8.8 76.1,9.2 76.8,8.6C77.5,8.0 76.8,8.6 77.5,8.2C78.1,7.8 77.5,8.4 78.1,7.8C78.8,7.1 78.2,7.6 78.7,6.9C79.3,6.3 78.7,7.1 79.3,6.5C80.0,5.9 79.4,6.1 80.0,5.7C80.6,5.3 80.3,5.7 80.5,5.7" fill="none" stroke="#ef4444" stroke-width="0.8" stroke-linecap="round" stroke-linejoin="round" opacity="0.9"/>
  <path d="M22.9,26.6C22.6,26.2 22.8,26.4 22.3,25.8C21.8,25.1 22.3,26.0 21.9,25.3C21.5,24.7 21.8,25.1 21.6,24.5C21.3,23.9 21.6,24.5 21.3,24.1C21.1,23.6 21.2,23.8 21.0,23.6" fill="none" stroke="#ef4444" stroke-width="0.8" stroke-linecap="round" stroke-linejoin="round" opacity="0.9"/>
  <path d="M56.5,37.9C56.6,37.5 56.5,37.7 56.7,37.1C57.0,36.4 56.7,37.1 56.9,36.6C57.1,36.2 56.9,36.9 57.1,36.2C57.3,35.6 57.2,36.2 57.3,35.4C57.4,34.5 57.2,35.2 57.4,34.5C57.5,33.9 57.4,34.5 57.6,34.1C57.7,33.7 57.6,34.3 57.7,33.7C57.8,33.0 57.6,33.7 57.7,32.8C57.7,32.0 57.8,32.6 57.8,32.0C57.8,31.4 57.7,32.2 57.7,31.6C57.7,30.9 57.8,31.4 57.8,30.7C57.8,30.1 57.8,30.5 57.8,30.3" fill="none" stroke="#fbbf24" stroke-width="0.6" stroke-linecap="round" stroke-linejoin="round" opacity="0.7"/>
  <path d="M72.4,20.8C72.6,20.8 72.4,21.0 72.8,20.8C73.2,20.6 72.8,21.0 73.2,20.4C73.6,19.8 73.2,20.2 73.5,19.6C73.9,18.9 73.6,19.6 73.9,19.1C74.2,18.7 73.8,19.1 74.1,18.7C74.4,18.3 74.3,18.5 74.4,18.3" fill="none" stroke="#fbbf24" stroke-width="0.6" stroke-linecap="round" stroke-linejoin="round" opacity="0.7"/>
  <path d="M25.6,38.6C25.2,38.4 25.6,38.6 24.8,38.1C24.1,37.7 24.9,37.9 24.1,37.7C23.4,37.5 24.1,37.7 23.4,37.7C22.6,37.7 23.3,37.9 22.6,37.7C21.9,37.4 22.6,37.7 21.9,37.2C21.3,36.8 21.6,37.0 21.3,36.8" fill="none" stroke="#fbbf24" stroke-width="0.6" stroke-linecap="round" stroke-linejoin="round" opacity="0.7"/>
  <path d="M11.4,28.1C11.3,27.9 11.5,28.3 11.1,27.7C10.8,27.0 11.0,27.5 10.7,26.8C10.4,26.2 10.7,26.8 10.5,26.4C10.2,26.0 10.4,26.6 10.2,26.0C10.1,25.3 10.3,26.0 10.2,25.1C10.1,24.3 10.3,24.7 10.0,24.3C9.8,23.8 9.8,24.7 9.7,24.3C9.6,23.8 9.7,24.1 9.9,23.4C10.0,22.8 9.9,23.6 10.0,23.0C10.2,22.4 10.1,22.8 10.2,22.1C10.2,21.5 10.1,22.1 10.1,21.7C10.2,21.3 10.1,21.9 10.3,21.3C10.5,20.7 10.4,21.3 10.6,20.5C10.8,19.6 10.6,20.0 10.7,19.6C10.9,19.2 10.7,20.0 10.9,19.6C11.0,19.2 10.9,19.6 11.0,18.8C11.1,17.9 11.0,18.6 11.1,17.9C11.1,17.3 11.0,17.9 11.1,17.5C11.1,17.1 11.2,17.7 11.2,17.1C11.2,16.4 11.1,16.9 11.1,16.2C11.1,15.6 11.2,16.2 11.2,15.8C11.1,15.4 11.1,16.0 11.0,15.4C10.9,14.7 11.0,15.2 11.0,14.5C11.0,13.9 11.2,14.5 11.0,14.1C10.8,13.7 10.8,13.9 10.7,13.7" fill="none" stroke="#fbbf24" stroke-width="0.6" stroke-linecap="round" stroke-linejoin="round" opacity="0.7"/>
  <path d="M31.3,7.7C31.7,7.7 31.3,7.9 32.1,7.7C32.9,7.5 32.1,7.7 32.9,7.3C33.7,6.9 32.9,7.1 33.7,6.9C34.5,6.7 33.8,6.9 34.6,6.9C35.3,6.9 34.5,7.1 35.3,6.9C36.1,6.7 35.3,6.7 36.2,6.5C37.1,6.3 36.2,6.5 37.1,6.5C38.0,6.6 37.0,6.8 38.0,6.6C38.9,6.4 38.0,6.3 39.0,6.2C39.9,6.0 38.9,6.2 39.9,6.2C40.8,6.2 39.9,6.2 40.9,6.2C41.8,6.2 41.3,6.2 41.8,6.2" fill="none" stroke="#fbbf24" stroke-width="0.6" stroke-linecap="round" stroke-linejoin="round" opacity="0.7"/>
  <path d="M56.0,7.8C56.4,7.8 56.0,7.5 56.8,7.8C57.7,8.0 56.9,8.0 57.8,8.2C58.7,8.4 57.8,8.0 58.6,8.2C59.5,8.5 58.6,8.2 59.4,8.7C60.3,9.1 59.5,8.7 60.3,9.1C61.1,9.6 60.2,9.3 61.0,9.6C61.9,9.8 61.1,9.6 61.9,9.6C62.8,9.6 61.9,9.4 62.8,9.6C63.7,9.8 62.8,9.8 63.7,10.0C64.5,10.3 63.7,9.8 64.5,10.0C65.4,10.3 64.6,10.3 65.4,10.5C66.3,10.7 65.3,10.5 66.3,10.5C67.2,10.5 66.3,10.3 67.4,10.5C68.4,10.8 67.4,10.7 68.4,11.0C69.3,11.2 68.4,10.8 69.2,11.0C70.1,11.2 69.2,11.2 70.1,11.4C71.0,11.7 69.9,11.4 71.0,11.4C72.2,11.5 71.1,11.2 72.4,11.5C73.7,11.7 72.5,11.7 73.6,11.9C74.7,12.2 73.8,11.7 74.6,11.9C75.3,12.2 74.4,12.1 75.1,12.4C75.8,12.6 75.0,12.4 76.0,12.4C76.9,12.4 76.1,12.2 77.0,12.4C77.9,12.6 77.0,12.6 77.8,12.8C78.5,13.1 77.8,12.6 78.5,12.9C79.2,13.1 78.4,12.9 79.2,13.3C79.9,13.7 79.1,13.5 80.0,13.7C80.8,14.0 80.0,13.5 80.8,13.8C81.6,14.0 81.2,14.0 81.5,14.2" fill="none" stroke="#fbbf24" stroke-width="0.6" stroke-linecap="round" stroke-linejoin="round" opacity="0.7"/>
  <path d="M56.1,22.6C56.3,22.2 56.2,22.4 56.5,21.8C56.8,21.1 56.5,22.0 56.7,21.4C56.9,20.7 56.8,21.1 56.9,20.5C57.0,19.9 56.8,20.7 57.0,20.1C57.2,19.5 57.1,19.9 57.3,19.2C57.5,18.6 57.1,19.2 57.4,18.8C57.7,18.4 57.5,19.0 57.9,18.4C58.2,17.8 57.9,18.4 58.1,17.6C58.4,16.7 58.0,17.3 58.3,16.7C58.7,16.1 58.4,16.7 58.8,16.3C59.1,15.9 58.8,16.3 59.0,15.9C59.3,15.5 59.1,15.7 59.3,15.5" fill="none" stroke="#fbbf24" stroke-width="0.6" stroke-linecap="round" stroke-linejoin="round" opacity="0.7"/>
  <path d="M66.4,11.4C66.8,11.2 66.5,11.1 67.3,10.9C68.1,10.8 67.2,10.7 68.0,11.0C68.8,11.2 68.1,11.2 68.9,11.4C69.8,11.6 68.9,11.4 69.7,11.4C70.5,11.4 69.7,11.4 70.5,11.4C71.3,11.5 70.5,11.4 71.3,11.5C72.1,11.5 71.3,11.5 72.1,11.5C72.9,11.5 72.5,11.5 72.9,11.5" fill="none" stroke="#fbbf24" stroke-width="0.6" stroke-linecap="round" stroke-linejoin="round" opacity="0.7"/>
  <path d="M74.3,32.7C74.4,32.5 74.3,32.7 74.4,32.3C74.6,31.9 74.4,32.5 74.6,31.9C74.8,31.3 74.6,31.7 74.9,31.0C75.1,30.4 74.9,31.0 75.1,30.6C75.3,30.2 75.1,30.6 75.3,30.2C75.4,29.8 75.3,30.2 75.4,29.8C75.5,29.4 75.4,30.0 75.5,29.4C75.7,28.7 75.5,29.1 75.8,28.5C76.0,27.9 75.8,28.5 76.0,28.1C76.3,27.7 76.0,28.1 76.3,27.7C76.5,27.3 76.3,27.9 76.5,27.3C76.6,26.6 76.4,27.0 76.6,26.4C76.9,25.8 75.1,28.5 77.0,26.0C78.8,23.5 78.5,23.9 80.3,21.4C82.1,18.9 80.3,21.2 80.6,21.0C80.8,20.8 80.5,21.4 80.8,21.0C81.2,20.6 80.8,20.8 81.2,20.1C81.5,19.5 81.2,20.1 81.5,19.7C81.9,19.3 81.6,19.7 81.9,19.3C82.2,18.9 81.7,19.9 82.1,18.9C82.5,17.8 82.2,18.2 82.7,17.2C83.1,16.1 82.6,17.2 83.0,16.8C83.3,16.4 83.0,16.8 83.4,16.4C83.7,15.9 83.4,16.6 83.7,15.9C84.0,15.3 83.7,15.7 83.9,15.1C84.2,14.5 83.9,15.3 84.2,14.7C84.5,14.0 84.2,14.5 84.5,13.8C84.9,13.2 84.7,13.6 84.9,13.4" fill="none" stroke="#fbbf24" stroke-width="0.6" stroke-linecap="round" stroke-linejoin="round" opacity="0.7"/>
  <path d="M88.6,5.4C88.7,5.0 88.6,5.4 88.7,4.6C88.8,3.7 88.7,4.1 88.8,3.7C88.9,3.3 88.8,4.1 88.9,3.7C89.1,3.3 89.1,3.7 89.1,2.9C89.2,2.0 89.1,2.9 89.0,2.0C88.9,1.2 89.1,1.6 89.0,1.2C88.9,0.8 88.9,1.2 88.8,1.2" fill="none" stroke="#fbbf24" stroke-width="0.6" stroke-linecap="round" stroke-linejoin="round" opacity="0.7"/>
  <path d="M60.7,50.7C61.2,50.5 60.8,50.5 61.6,50.3C62.3,50.1 61.5,50.5 62.3,50.3C63.1,50.1 62.3,50.1 63.2,49.9C64.0,49.7 63.2,49.9 64.0,49.9C64.9,50.0 64.0,50.1 64.8,50.0C65.6,49.8 64.8,49.7 65.7,49.5C66.6,49.3 65.7,49.5 66.6,49.6C67.4,49.6 66.5,49.6 67.4,49.6C68.2,49.6 67.4,49.6 68.3,49.6C69.1,49.6 68.2,49.8 69.1,49.6C69.9,49.4 69.1,49.6 70.0,49.2C70.9,48.8 70.0,49.0 70.8,48.8C71.6,48.6 70.8,49.0 71.6,48.8C72.3,48.6 71.6,48.6 72.3,48.4C73.1,48.2 72.3,48.6 73.1,48.4C73.9,48.2 73.2,48.2 73.9,48.0C74.6,47.8 73.9,48.2 74.6,48.0C75.3,47.8 74.6,47.8 75.3,47.6C76.0,47.4 75.6,47.6 75.9,47.6" fill="none" stroke="#fbbf24" stroke-width="0.6" stroke-linecap="round" stroke-linejoin="round" opacity="0.7"/>
  <path d="M51.4,56.9C51.0,57.1 51.4,57.1 50.6,57.3C49.8,57.5 50.7,57.3 49.8,57.3C49.0,57.3 49.8,57.1 48.9,57.3C48.0,57.5 48.9,57.5 48.0,57.7C47.2,57.9 48.1,57.7 47.3,57.7C46.4,57.7 47.2,57.5 46.4,57.7C45.5,57.9 46.3,57.9 45.5,58.1C44.7,58.3 45.6,58.1 44.8,58.1C43.9,58.0 44.7,58.1 43.9,58.0C43.0,58.0 43.9,58.0 43.0,58.0C42.2,58.0 43.1,58.0 42.3,58.0C41.4,58.0 42.2,58.0 41.4,58.0C40.5,58.0 41.4,58.0 40.6,58.0C39.7,58.0 40.6,58.0 39.7,58.0C38.9,57.9 39.7,58.0 38.9,57.9C38.1,57.9 38.9,57.9 38.1,57.9C37.3,57.9 38.1,57.9 37.3,57.9C36.4,57.9 37.2,57.9 36.5,57.9C35.7,57.9 36.1,57.9 35.7,57.9" fill="none" stroke="#fbbf24" stroke-width="0.6" stroke-linecap="round" stroke-linejoin="round" opacity="0.7"/>
  <path d="M76.3,39.1C75.9,39.1 76.3,39.1 75.5,39.1C74.7,39.1 75.5,39.1 74.7,39.1C73.9,39.1 74.7,39.1 73.8,39.1C72.9,39.1 73.8,39.1 72.9,39.1C72.1,39.1 73.0,39.1 72.1,39.1C71.3,39.0 72.1,39.3 71.3,39.0C70.5,38.8 71.3,38.8 70.5,38.6C69.7,38.4 70.6,38.6 69.7,38.6C68.9,38.6 69.7,38.6 68.8,38.6C68.0,38.6 68.9,38.6 68.0,38.6C67.2,38.5 68.0,38.6 67.2,38.5C66.4,38.5 67.2,38.5 66.4,38.5C65.6,38.5 66.4,38.5 65.6,38.5C64.7,38.5 65.6,38.5 64.7,38.5C63.8,38.5 64.6,38.5 63.8,38.5C62.9,38.5 63.8,38.7 63.0,38.5C62.1,38.2 62.9,38.2 62.1,38.0C61.3,37.8 62.1,38.0 61.3,38.0C60.5,38.0 61.3,38.2 60.5,38.0C59.7,37.8 60.1,37.8 59.7,37.5" fill="none" stroke="#fbbf24" stroke-width="0.6" stroke-linecap="round" stroke-linejoin="round" opacity="0.7"/>
  <path d="M39.1,38.0C38.7,38.0 39.1,38.2 38.3,38.0C37.6,37.8 38.3,38.0 37.6,37.5C37.0,37.1 37.6,37.5 37.0,37.1C36.3,36.7 37.0,37.1 36.3,36.7C35.7,36.2 36.4,36.7 35.7,36.2C35.0,35.8 35.6,36.0 34.9,35.8C34.2,35.6 34.9,36.0 34.2,35.8C33.5,35.5 34.1,36.0 33.5,35.3C32.9,34.7 33.6,35.1 32.9,34.5C32.3,33.8 33.0,34.5 32.2,34.0C31.5,33.6 32.2,33.8 31.5,33.6C30.8,33.4 33.8,35.8 30.8,33.6C27.7,31.4 28.3,31.6 25.4,29.2C22.4,26.8 25.2,29.2 24.8,28.8C24.4,28.4 24.8,28.8 24.5,28.4C24.2,27.9 24.5,28.6 24.2,27.9C23.9,27.3 24.1,27.7 23.9,27.1C23.6,26.4 23.9,27.1 23.7,26.7C23.5,26.2 23.8,26.7 23.5,26.2C23.2,25.8 23.3,26.4 23.1,25.8C22.9,25.2 23.1,25.6 23.0,24.9C22.9,24.3 23.0,24.9 22.9,24.5C22.8,24.1 23.0,24.5 22.8,24.1C22.6,23.7 22.7,23.9 22.5,23.7" fill="none" stroke="#fbbf24" stroke-width="0.6" stroke-linecap="round" stroke-linejoin="round" opacity="0.7"/>
  <path d="M50.7,23.8C51.0,23.6 50.6,23.8 51.3,23.4C51.9,23.0 51.3,23.2 52.0,23.0C52.7,22.8 51.9,23.2 52.7,23.0C53.4,22.8 52.7,23.0 53.5,22.6C54.2,22.2 53.5,22.8 54.2,22.2C55.0,21.5 54.3,21.9 55.0,21.3C55.7,20.7 54.9,21.3 55.6,20.9C56.3,20.5 55.5,20.7 56.4,20.5C57.3,20.3 56.5,20.7 57.4,20.5C58.2,20.3 57.3,20.5 58.1,20.1C59.0,19.7 58.2,20.1 59.0,19.7C59.8,19.3 59.4,19.5 59.7,19.3" fill="none" stroke="#fbbf24" stroke-width="0.6" stroke-linecap="round" stroke-linejoin="round" opacity="0.7"/>
  <path d="M80.5,5.7C80.7,5.3 80.6,5.5 81.0,4.8C81.4,4.2 80.9,5.1 81.3,4.4C81.8,3.8 81.4,4.0 81.8,3.6C82.3,3.2 81.9,3.9 82.3,3.6C82.6,3.3 82.3,3.6 82.5,3.0C82.7,2.3 82.6,2.9 82.7,2.3C82.9,1.8 82.7,2.5 82.8,1.9C83.0,1.3 82.9,1.5 83.1,1.1C83.2,0.6 83.1,1.1 83.2,1.1" fill="none" stroke="#fbbf24" stroke-width="0.6" stroke-linecap="round" stroke-linejoin="round" opacity="0.7"/>
  <path d="M28.1,32.7C27.9,32.3 28.1,32.5 27.6,31.8C27.2,31.2 27.7,31.8 27.1,31.4C26.6,31.0 27.0,31.2 26.5,31.0C26.0,30.7 26.6,31.2 26.1,30.9C25.7,30.7 26.1,31.2 25.7,30.5C25.3,29.9 25.7,30.3 25.3,29.7C24.9,29.0 25.4,29.7 24.9,29.2C24.4,28.8 24.8,29.2 24.3,28.8C23.9,28.4 24.4,29.0 24.0,28.4C23.6,27.7 23.9,28.1 23.5,27.5C23.2,26.9 24.4,29.0 23.2,27.1C21.9,25.1 22.3,25.8 21.0,23.6C19.8,21.5 21.0,23.4 20.6,22.8C20.2,22.1 20.6,22.8 20.2,22.3C19.9,21.9 20.2,22.3 20.0,21.9C19.7,21.5 20.0,21.9 19.7,21.5C19.4,21.1 19.6,21.7 19.3,21.1C19.0,20.4 19.3,20.8 19.0,20.2C18.7,19.6 19.1,20.2 18.7,19.8C18.4,19.3 18.6,19.6 18.4,19.3" fill="none" stroke="#fbbf24" stroke-width="0.6" stroke-linecap="round" stroke-linejoin="round" opacity="0.7"/>
  <path d="M68.0,16.7C68.4,16.6 68.1,16.8 68.7,16.5C69.4,16.2 68.7,16.5 69.4,16.1C70.0,15.7 69.3,16.1 70.0,15.7C70.8,15.3 70.1,15.5 70.9,15.3C71.6,15.1 70.8,15.5 71.6,15.3C72.3,15.1 71.5,15.1 72.3,14.9C73.0,14.7 72.3,15.1 73.1,14.9C73.8,14.7 73.1,14.7 73.8,14.5C74.5,14.3 73.7,14.5 74.5,14.5C75.2,14.5 74.1,14.5 75.2,14.5C76.3,14.5 75.5,14.7 76.7,14.5C77.8,14.3 76.7,14.3 77.5,14.1C78.3,13.9 77.5,14.3 78.3,14.1C79.1,13.9 78.3,13.9 79.1,13.7C80.0,13.5 79.1,13.7 79.9,13.7C80.7,13.8 80.0,14.0 80.8,13.8C81.5,13.6 80.7,13.5 81.5,13.3C82.3,13.1 81.5,13.5 82.3,13.4C83.1,13.3 82.3,13.4 83.1,13.2C83.9,13.0 83.1,13.1 83.9,13.0C84.7,12.9 83.9,13.2 84.7,13.0C85.5,12.8 84.7,12.8 85.5,12.6C86.3,12.4 85.5,12.6 86.3,12.6C87.1,12.6 86.3,12.8 87.1,12.6C87.9,12.4 87.1,12.4 87.9,12.2C88.6,12.0 87.8,12.4 88.6,12.2C89.4,12.0 89.0,12.0 89.4,11.8" fill="none" stroke="#fbbf24" stroke-width="0.6" stroke-linecap="round" stroke-linejoin="round" opacity="0.7"/>
  <ellipse cx="51.9" cy="34.9" rx="3.5" ry="2.2" fill="#0c0c0c" stroke="#ef4444" stroke-width="0.4" opacity="0.95"/>
  <text x="51.9" y="35.8" text-anchor="middle" font-family="sans-serif" font-size="2.4" font-weight="700" fill="#ffffff" opacity="0.95">OR</text>
</svg>