<svg xmlns="http://www.w3.org/2000/svg" viewBox="0 0 102.27040591422573 107.44489710580129" preserveAspectRatio="none">
  <path d="M78.7,68.6C78.6,69.1 78.7,68.9 78.6,69.5C78.4,70.1 78.6,69.3 78.4,69.9C78.2,70.5 78.3,69.9 78.2,70.7C78.0,71.6 78.2,71.0 78.1,71.6C78.0,72.2 78.0,71.6 78.1,72.0C78.1,72.4 78.2,71.8 78.1,72.4C78.0,73.1 78.0,72.4 77.9,73.3C77.7,74.1 77.8,73.5 77.8,74.1C77.8,74.8 77.8,73.9 77.9,74.6C78.0,75.2 77.9,74.6 77.9,75.4C77.9,76.3 77.9,75.7 77.9,76.3C77.9,76.9 78.0,76.1 77.9,76.7C77.8,77.4 77.7,76.7 77.7,77.6C77.7,78.4 77.7,77.8 77.8,78.4C77.9,79.1 77.9,78.2 77.9,78.9C77.9,79.5 77.7,79.1 77.8,79.7C77.8,80.4 77.9,79.5 78.0,80.2C78.1,80.8 78.0,80.6 78.0,81.0" fill="none" stroke="#ef4444" stroke-width="0.8" stroke-linecap="round" stroke-linejoin="round" opacity="0.9"/>
  <path d="M38.2,77.3C38.5,77.5 38.3,77.1 38.8,77.8C39.2,78.5 38.6,78.0 39.1,78.7C39.6,79.4 39.1,78.9 39.7,79.2C40.3,79.4 39.9,78.7 40.3,79.2C40.7,79.7 40.2,79.4 40.5,80.1C40.8,80.8 40.5,79.9 40.9,80.6C41.3,81.3 40.9,80.8 41.3,81.5C41.7,82.2 41.2,81.5 41.7,81.9C42.1,82.4 41.7,81.7 42.2,82.4C42.7,83.1 42.2,82.6 42.6,83.3C43.0,84.0 42.6,83.3 43.0,83.8C43.4,84.3 42.9,83.6 43.4,84.3C43.8,85.0 43.6,84.7 43.8,85.2" fill="none" stroke="#ef4444" stroke-width="0.8" stroke-linecap="round" stroke-linejoin="round" opacity="0.9"/>
  <path d="M68.1,43.9C68.5,44.0 68.1,44.1 68.9,44.0C69.7,43.9 68.9,44.0 69.7,43.7C70.6,43.3 69.8,43.9 70.6,43.3C71.5,42.8 70.6,43.1 71.5,42.5C72.3,42.0 71.9,42.4 72.4,42.2" fill="none" stroke="#ef4444" stroke-width="0.8" stroke-linecap="round" stroke-linejoin="round" opacity="0.9"/>
  <path d="M70.7,79.0C70.8,79.2 70.7,78.8 70.9,79.4C71.0,80.1 70.8,79.6 71.0,80.3C71.1,80.9 71.1,80.1 71.1,80.7C71.2,81.4 71.1,80.7 71.0,81.6C71.0,82.4 70.9,82.0 70.9,82.4C70.9,82.9 71.1,82.0 71.0,82.4C71.0,82.9 71.0,82.4 70.9,83.3C70.7,84.1 70.8,83.5 70.7,84.1C70.6,84.8 70.8,83.9 70.6,84.5C70.4,85.2 70.6,84.5 70.3,85.4C70.0,86.2 70.2,85.6 70.0,86.2C69.9,86.8 70.1,86.0 70.0,86.6C70.0,87.3 70.1,86.6 69.9,87.5C69.7,88.3 69.8,87.5 69.6,88.3C69.4,89.1 69.5,88.5 69.4,89.1C69.3,89.8 69.4,89.4 69.5,89.6" fill="none" stroke="#ef4444" stroke-width="0.8" stroke-linecap="round" stroke-linejoin="round" opacity="0.9"/>
  <path d="M36.1,96.8C36.2,97.0 36.2,96.6 36.2,97.3C36.3,97.9 36.2,97.5 36.3,98.1C36.4,98.8 36.3,98.1 36.5,98.6C36.6,99.0 36.5,98.4 36.5,99.0C36.6,99.7 36.5,99.0 36.5,99.9C36.5,100.7 36.5,100.3 36.5,100.7" fill="none" stroke="#ef4444" stroke-width="0.8" stroke-linecap="round" stroke-linejoin="round" opacity="0.9"/>
  <path d="M30.5,73.5C30.3,73.7 30.6,73.3 30.1,73.9C29.6,74.4 30.1,73.9 29.5,74.6C28.9,75.4 29.4,74.9 28.8,75.4C28.3,76.0 28.8,75.4 28.3,75.8C27.8,76.2 28.3,75.6 27.8,76.2C27.3,76.8 27.8,76.2 27.3,77.0C26.8,77.8 27.5,77.0 26.8,77.8C26.1,78.6 26.6,77.8 25.9,78.6C25.3,79.4 25.8,78.8 25.4,79.4C25.1,80.0 25.5,79.2 25.2,79.8C24.8,80.4 25.2,79.8 24.7,80.6C24.3,81.4 24.6,80.8 24.3,81.4C24.0,82.0 24.4,81.2 24.1,81.8C23.8,82.4 24.0,82.0 23.7,82.6C23.5,83.3 23.8,82.4 23.6,83.0C23.4,83.7 23.4,83.5 23.3,83.9" fill="none" stroke="#ef4444" stroke-width="0.8" stroke-linecap="round" stroke-linejoin="round" opacity="0.9"/>
  <path d="M80.4,61.5C80.4,61.7 80.4,61.3 80.4,62.0C80.4,62.6 80.4,62.2 80.3,62.8C80.3,63.4 80.3,62.8 80.3,63.2C80.3,63.7 80.4,63.0 80.3,63.7C80.2,64.3 80.2,63.9 80.1,64.5C79.9,65.1 80.1,64.5 80.0,64.9C79.8,65.3 80.1,64.7 79.8,65.3C79.5,65.9 79.7,65.3 79.4,66.1C79.1,67.0 79.4,66.4 79.2,67.0C79.0,67.6 79.2,67.0 79.1,67.4C78.9,67.8 79.0,67.6 78.9,67.8" fill="none" stroke="#fbbf24" stroke-width="0.6" stroke-linecap="round" stroke-linejoin="round" opacity="0.7"/>
  <path d="M78.0,81.0C78.1,81.3 78.1,81.0 78.1,81.5C78.2,81.9 78.2,81.3 78.2,81.9C78.1,82.5 78.1,82.1 78.1,82.8C78.0,83.4 78.1,82.8 78.0,83.2C77.9,83.6 78.0,83.0 77.9,83.6C77.7,84.2 77.9,83.6 77.8,84.4C77.7,85.3 77.8,84.7 77.7,85.3C77.5,85.9 77.7,85.1 77.5,85.7C77.2,86.3 77.6,85.7 77.2,86.5C76.9,87.4 77.1,86.9 76.8,87.3C76.5,87.7 76.8,86.9 76.6,87.3C76.4,87.7 76.7,87.3 76.4,88.2C76.1,89.0 76.5,88.4 76.1,89.0C75.7,89.6 76.1,89.0 75.6,89.4C75.2,89.8 75.6,89.4 75.2,89.8C74.8,90.1 75.2,89.5 74.8,90.1C74.5,90.8 74.8,90.4 74.5,91.0C74.1,91.6 74.5,91.0 74.2,91.4C73.9,91.8 74.2,91.4 73.9,91.8C73.6,92.2 73.9,91.6 73.6,92.2C73.2,92.8 73.4,92.4 73.1,93.0C72.9,93.6 73.1,93.2 73.1,93.4" fill="none" stroke="#fbbf24" stroke-width="0.6" stroke-linecap="round" stroke-linejoin="round" opacity="0.7"/>
  <path d="M39.4,72.7C39.8,72.7 39.4,72.9 40.2,72.8C41.1,72.6 40.3,72.6 41.2,72.4C42.1,72.3 41.2,72.4 42.1,72.5C42.9,72.6 41.9,72.5 42.8,72.6C43.8,72.7 42.9,72.6 43.9,72.7C44.8,72.8 43.9,72.7 44.8,72.8C45.7,72.9 44.8,72.8 45.7,72.9C46.7,73.0 45.8,72.9 46.7,73.0C47.6,73.1 46.6,73.0 47.5,73.1C48.4,73.2 47.5,73.3 48.5,73.2C49.5,73.1 48.5,73.0 49.5,72.9C50.5,72.8 49.4,73.1 50.4,73.0C51.4,72.9 50.6,72.8 51.5,72.7C52.4,72.5 51.4,72.7 52.2,72.7C53.0,72.8 52.2,72.9 53.1,72.8C54.0,72.7 53.2,72.8 54.1,72.5C55.0,72.2 54.0,72.5 54.9,72.2C55.8,71.8 55.0,72.0 55.8,71.8C56.6,71.7 55.9,71.8 56.5,71.9C57.1,72.0 56.4,72.1 57.1,72.0C57.8,71.8 57.2,72.0 57.9,71.6C58.6,71.3 58.2,71.4 58.6,71.3" fill="none" stroke="#fbbf24" stroke-width="0.6" stroke-linecap="round" stroke-linejoin="round" opacity="0.7"/>
  <path d="M19.0,99.7C18.6,99.7 19.0,99.5 18.2,99.7C17.3,99.8 18.2,99.7 17.3,100.0C16.5,100.3 17.4,100.0 16.4,100.3C15.5,100.7 16.3,100.5 15.4,100.7C14.6,100.8 15.5,100.5 14.7,100.6C13.9,100.7 14.7,100.8 13.8,100.9C13.0,101.0 13.9,100.5 13.0,100.8C12.2,101.2 13.0,101.3 12.1,101.6C11.2,101.9 12.1,101.4 11.3,101.5C10.4,101.6 11.3,101.5 10.3,101.8C9.4,102.2 10.2,101.8 9.4,102.2C8.5,102.5 9.3,102.4 8.6,102.5C7.9,102.7 8.7,102.3 8.0,102.5C7.3,102.6 7.6,102.6 7.3,102.8" fill="none" stroke="#fbbf24" stroke-width="0.6" stroke-linecap="round" stroke-linejoin="round" opacity="0.7"/>
  <path d="M33.5,71.6C33.6,72.1 33.5,71.8 33.7,72.5C34.0,73.2 33.7,72.5 34.0,73.0C34.4,73.4 34.1,73.0 34.5,73.5C35.0,73.9 34.5,73.5 35.0,73.9C35.4,74.4 35.0,73.7 35.5,74.4C36.0,75.1 35.4,74.6 35.9,75.3C36.4,76.0 35.9,75.3 36.5,75.8C37.2,76.3 36.6,75.8 37.2,76.3C37.8,76.8 37.5,76.6 37.7,76.8" fill="none" stroke="#fbbf24" stroke-width="0.6" stroke-linecap="round" stroke-linejoin="round" opacity="0.7"/>
  <path d="M43.8,85.2C44.0,85.4 43.9,85.2 44.1,85.6C44.3,86.1 44.0,85.6 44.2,86.1C44.5,86.5 44.2,86.1 44.6,86.5C44.9,87.0 44.7,86.3 44.9,87.0C45.2,87.7 44.8,87.2 45.0,87.9C45.3,88.5 45.1,87.9 45.3,88.3C45.6,88.8 45.5,88.6 45.6,88.8" fill="none" stroke="#fbbf24" stroke-width="0.6" stroke-linecap="round" stroke-linejoin="round" opacity="0.7"/>
  <path d="M68.2,86.4C68.4,86.7 68.3,86.2 68.6,86.9C68.9,87.6 68.5,87.1 68.8,87.8C69.1,88.5 68.9,87.8 69.1,88.3C69.4,88.7 69.1,88.3 69.3,88.7C69.6,89.2 69.3,88.7 69.6,89.2C69.9,89.6 69.6,89.2 70.0,89.6C70.4,90.1 70.1,89.6 70.4,90.1C70.7,90.6 70.5,90.3 70.7,90.6" fill="none" stroke="#fbbf24" stroke-width="0.6" stroke-linecap="round" stroke-linejoin="round" opacity="0.7"/>
  <path d="M43.4,77.8C43.8,77.7 43.5,77.6 44.3,77.5C45.1,77.4 44.2,77.5 45.0,77.6C45.8,77.6 45.0,77.6 45.8,77.6C46.6,77.7 45.9,77.7 46.7,77.7C47.4,77.8 46.5,77.9 47.4,77.8C48.3,77.7 47.5,77.6 48.4,77.5C49.3,77.4 48.4,77.7 49.2,77.6C50.0,77.4 49.2,77.4 50.1,77.2C50.9,77.1 50.0,77.4 50.9,77.3C51.8,77.2 50.9,77.1 51.8,77.0C52.6,76.9 51.7,77.2 52.6,77.1C53.4,76.9 52.6,76.9 53.5,76.7C54.4,76.6 53.4,76.9 54.4,76.8C55.3,76.7 54.3,76.8 55.4,76.5C56.4,76.2 55.5,76.3 56.4,76.2C57.4,76.1 56.4,76.2 57.3,76.3C58.2,76.4 57.3,76.3 58.2,76.4C59.1,76.5 58.2,76.6 59.1,76.5C59.9,76.3 59.1,76.2 60.0,76.1C60.9,76.0 60.0,76.3 60.9,76.2C61.8,76.1 60.9,76.2 61.8,75.9C62.7,75.6 61.8,75.9 62.8,75.6C63.8,75.2 62.9,75.6 63.8,75.2C64.7,74.9 63.8,75.2 64.5,74.9C65.3,74.5 64.6,74.7 65.3,74.5C66.0,74.4 65.6,74.6 66.0,74.6" fill="none" stroke="#fbbf24" stroke-width="0.6" stroke-linecap="round" stroke-linejoin="round" opacity="0.7"/>
  <path d="M59.6,46.5C60.0,46.3 59.7,46.2 60.5,46.1C61.3,46.0 60.4,46.3 61.2,46.2C62.1,46.1 61.3,46.0 62.1,45.9C62.9,45.7 62.0,46.1 62.8,45.9C63.6,45.8 62.8,45.9 63.7,45.6C64.7,45.3 63.8,45.6 64.7,45.3C65.5,44.9 64.6,45.3 65.4,44.9C66.3,44.6 65.5,44.9 66.4,44.6C67.3,44.3 64.2,45.4 67.2,44.2C70.2,43.1 69.5,43.2 72.4,42.2C75.2,41.2 72.3,42.6 72.9,42.3C73.6,41.9 73.1,42.1 73.7,41.5C74.3,40.9 73.7,41.7 74.2,41.1C74.7,40.5 74.2,40.7 74.8,40.3C75.3,39.9 75.0,40.3 75.3,40.4" fill="none" stroke="#fbbf24" stroke-width="0.6" stroke-linecap="round" stroke-linejoin="round" opacity="0.7"/>
  <path d="M54.7,98.8C55.0,98.8 54.7,98.6 55.3,98.8C56.0,99.1 55.3,98.8 55.9,99.3C56.6,99.8 56.0,99.3 56.6,99.8C57.3,100.3 56.6,100.0 57.3,100.3C58.0,100.6 57.4,100.1 58.1,100.4C58.9,100.7 58.1,100.4 58.8,100.9C59.5,101.4 58.8,101.1 59.6,101.4C60.4,101.7 59.6,101.4 60.4,101.5C61.3,101.6 60.4,101.5 61.3,101.6C62.2,101.7 61.3,101.6 62.2,101.7C63.1,101.8 62.3,101.7 63.2,101.8C64.0,101.9 63.1,101.8 63.9,101.9C64.8,102.0 64.0,101.9 64.8,102.0C65.7,102.1 64.9,102.0 65.6,102.1C66.4,102.1 66.0,102.1 66.3,102.1" fill="none" stroke="#fbbf24" stroke-width="0.6" stroke-linecap="round" stroke-linejoin="round" opacity="0.7"/>
  <path d="M58.9,71.7C58.8,71.3 59.0,71.5 58.7,70.8C58.4,70.2 58.8,70.8 58.3,70.4C57.9,69.9 58.3,70.2 57.8,69.9C57.3,69.6 57.8,70.1 57.3,69.8C56.8,69.6 57.3,69.8 56.8,69.4C56.4,68.9 56.6,69.1 56.3,68.9" fill="none" stroke="#fbbf24" stroke-width="0.6" stroke-linecap="round" stroke-linejoin="round" opacity="0.7"/>
  <path d="M41.5,72.0C41.6,72.3 41.4,72.0 41.7,72.5C41.9,72.9 41.7,72.5 42.0,72.9C42.3,73.4 41.9,72.7 42.3,73.4C42.6,74.1 42.3,73.6 42.6,74.3C42.9,75.0 42.5,74.3 42.9,74.8C43.3,75.2 42.9,74.8 43.4,75.2C43.9,75.7 43.4,75.2 43.9,75.7C44.4,76.2 43.9,75.7 44.4,76.2C44.9,76.7 44.4,76.2 44.8,76.7C45.2,77.2 45.0,76.9 45.2,77.2" fill="none" stroke="#fbbf24" stroke-width="0.6" stroke-linecap="round" stroke-linejoin="round" opacity="0.7"/>
  <path d="M72.0,83.8C72.4,83.9 72.0,84.0 72.8,83.9C73.6,83.8 72.9,83.7 73.6,83.6C74.4,83.4 73.6,83.8 74.3,83.7C75.1,83.5 74.3,83.7 75.2,83.3C76.0,83.0 75.1,83.1 76.0,83.0C76.8,82.8 76.0,83.0 76.8,83.1C77.7,83.1 76.8,83.3 77.6,83.1C78.4,83.0 77.6,83.1 78.5,82.8C79.4,82.5 78.6,82.6 79.4,82.5C80.2,82.3 79.3,82.7 80.1,82.5C80.8,82.4 80.5,82.4 80.9,82.2" fill="none" stroke="#fbbf24" stroke-width="0.6" stroke-linecap="round" stroke-linejoin="round" opacity="0.7"/>
  <path d="M45.0,77.6C45.1,77.6 45.0,77.3 45.3,77.6C45.7,77.8 45.4,77.4 45.6,78.1C45.8,78.7 45.6,78.3 45.7,78.9C45.8,79.6 45.6,78.9 45.9,79.4C46.1,79.8 45.9,79.4 46.2,79.8C46.5,80.3 46.3,79.6 46.5,80.3C46.7,81.0 46.4,80.5 46.6,81.2C46.9,81.8 46.7,81.2 46.9,81.6C47.1,82.1 46.9,81.4 47.1,82.1C47.3,82.7 47.0,82.3 47.3,83.0C47.6,83.6 47.3,83.0 47.7,83.4C48.0,83.9 47.7,83.4 48.0,83.9C48.3,84.4 48.0,83.9 48.3,84.4C48.5,84.8 48.3,84.4 48.5,84.8C48.7,85.2 48.5,84.6 48.6,85.2C48.8,85.9 48.5,85.4 48.8,86.1C49.1,86.8 48.8,86.1 49.3,86.6C49.8,87.1 49.4,86.6 49.7,87.1C50.1,87.5 49.9,87.3 50.1,87.5" fill="none" stroke="#fbbf24" stroke-width="0.6" stroke-linecap="round" stroke-linejoin="round" opacity="0.7"/>
  <path d="M67.4,69.6C67.6,69.8 67.4,69.4 67.8,70.1C68.1,70.8 67.7,70.3 68.1,71.0C68.4,71.6 68.1,70.8 68.5,71.4C68.9,72.1 68.6,71.4 68.8,72.3C69.0,73.2 68.7,72.8 69.0,73.2C69.2,73.7 69.0,72.8 69.3,73.2C69.5,73.7 69.2,73.5 69.5,74.1C69.7,74.8 69.6,73.9 69.7,74.6C69.8,75.2 69.6,74.8 69.7,75.4C69.7,76.1 69.7,75.2 69.9,75.9C70.0,76.5 69.8,76.1 69.9,76.7C70.0,77.3 69.9,76.7 70.1,77.1C70.2,77.4 70.0,76.9 70.2,77.4C70.4,77.9 70.3,77.8 70.4,78.1" fill="none" stroke="#fbbf24" stroke-width="0.6" stroke-linecap="round" stroke-linejoin="round" opacity="0.7"/>
  <path d="M46.1,99.2C45.7,99.3 46.0,99.4 45.2,99.5C44.4,99.6 45.3,99.5 44.5,99.4C43.7,99.3 44.6,99.2 43.6,99.3C42.7,99.4 43.5,99.5 42.7,99.7C41.9,99.8 42.7,99.7 42.0,99.6C41.2,99.5 42.0,99.6 41.1,99.5C40.3,99.4 41.1,99.5 40.3,99.4C39.6,99.3 40.5,99.4 39.6,99.3C38.8,99.2 39.6,99.3 38.7,99.2C37.8,99.1 38.7,99.2 37.9,99.1C37.1,99.1 37.9,99.2 37.1,99.1C36.3,99.0 37.0,99.1 36.2,99.0C35.4,98.9 35.8,98.9 35.4,98.9" fill="none" stroke="#fbbf24" stroke-width="0.6" stroke-linecap="round" stroke-linejoin="round" opacity="0.7"/>
  <path d="M34.7,90.7C34.8,91.1 34.7,90.9 34.9,91.5C35.1,92.2 34.8,91.5 35.0,92.0C35.3,92.4 35.1,92.0 35.4,92.4C35.6,92.9 35.4,92.2 35.6,92.9C35.8,93.6 35.6,93.1 35.7,93.8C35.9,94.4 35.7,93.8 35.8,94.2C35.9,94.6 35.8,94.0 35.9,94.6C36.0,95.3 36.0,94.9 36.1,95.5C36.2,96.2 36.1,95.7 36.2,96.0" fill="none" stroke="#fbbf24" stroke-width="0.6" stroke-linecap="round" stroke-linejoin="round" opacity="0.7"/>
  <path d="M54.9,65.3C54.4,65.5 54.7,65.5 53.9,65.6C53.2,65.7 54.1,65.4 53.3,65.5C52.5,65.7 53.2,65.8 52.3,65.9C51.5,66.0 52.3,65.9 51.6,65.8C50.8,65.7 51.6,65.6 50.9,65.7C50.1,65.9 50.4,65.9 50.0,66.1" fill="none" stroke="#fbbf24" stroke-width="0.6" stroke-linecap="round" stroke-linejoin="round" opacity="0.7"/>
  <path d="M52.2,58.6C51.8,58.7 52.1,58.6 51.5,58.9C50.9,59.3 51.5,58.9 50.9,59.3C50.3,59.6 50.9,59.3 50.2,59.6C49.5,60.0 50.1,59.8 49.5,60.0C48.9,60.2 49.6,59.8 49.0,59.9C48.4,60.1 49.0,59.9 48.3,60.3C47.6,60.7 48.3,60.3 47.6,60.7C46.9,61.0 47.7,60.5 47.0,61.0C46.2,61.6 46.8,61.4 46.1,61.8C45.4,62.1 46.1,61.6 45.6,61.7C45.0,61.9 45.6,61.7 44.9,62.1C44.3,62.5 45.5,61.7 44.2,62.5C43.0,63.2 43.6,62.8 42.3,63.5C41.1,64.3 42.3,63.5 41.8,63.9C41.2,64.3 41.9,63.7 41.2,64.3C40.6,64.9 41.1,64.5 40.5,65.1C39.9,65.6 40.5,65.1 40.0,65.4C39.4,65.8 39.9,65.6 39.4,65.8C38.9,66.0 39.5,65.4 39.0,65.8C38.5,66.1 38.9,66.0 38.4,66.6C37.9,67.1 38.4,66.6 37.9,66.9C37.4,67.3 37.9,66.9 37.4,67.3C36.9,67.7 37.4,67.3 36.8,67.7C36.3,68.1 36.8,67.5 36.3,68.1C35.8,68.7 36.3,68.3 35.8,68.9C35.3,69.5 35.8,68.9 35.3,69.2C34.7,69.6 35.2,69.2 34.7,69.6C34.3,70.0 34.7,69.6 34.3,70.0C33.9,70.4 34.4,69.8 33.9,70.4C33.4,71.0 33.8,70.6 33.3,71.2C32.8,71.8 33.4,71.2 32.9,71.6C32.4,71.9 32.9,71.4 32.3,71.9C31.7,72.5 32.2,72.1 31.6,72.7C31.0,73.3 31.3,72.9 31.0,73.1" fill="none" stroke="#fbbf24" stroke-width="0.6" stroke-linecap="round" stroke-linejoin="round" opacity="0.7"/>
  <path d="M23.3,83.9C23.2,84.1 23.3,83.7 23.1,84.3C23.0,84.9 23.1,84.3 23.0,85.1C23.0,86.0 23.0,85.3 23.0,86.0C23.0,86.6 23.1,86.0 23.0,86.4C23.0,86.9 23.0,86.2 22.9,86.8C22.8,87.5 22.8,86.8 22.8,87.7C22.7,88.5 22.7,88.1 22.8,88.5C22.9,89.0 22.9,88.1 23.0,88.6C23.1,89.0 23.1,88.8 23.0,89.4C23.0,90.1 23.1,89.2 22.9,89.8C22.8,90.5 22.9,90.1 22.8,90.7C22.6,91.3 22.8,90.7 22.7,91.1C22.6,91.5 22.7,90.9 22.6,91.5C22.5,92.2 22.5,91.7 22.5,92.4C22.5,93.0 22.5,92.4 22.6,92.8C22.6,93.2 22.6,93.0 22.6,93.2" fill="none" stroke="#fbbf24" stroke-width="0.6" stroke-linecap="round" stroke-linejoin="round" opacity="0.7"/>
  <path d="M28.2,92.5C28.4,93.0 28.1,93.0 28.5,93.4C28.9,93.9 28.5,93.2 29.0,93.5C29.5,93.8 29.0,93.5 29.5,94.0C29.9,94.5 29.6,94.0 30.0,94.5C30.4,94.9 29.9,94.4 30.3,94.9C30.7,95.4 30.3,94.9 30.8,95.4C31.3,95.9 30.8,95.4 31.3,95.9C31.8,96.4 31.2,96.1 31.9,96.4C32.5,96.7 31.8,96.4 32.6,96.4C33.3,96.5 32.7,96.2 33.3,96.5C34.0,96.8 33.2,96.5 33.9,97.0C34.5,97.5 33.8,97.0 34.6,97.5C35.4,98.0 34.6,97.7 35.4,98.0C36.2,98.3 35.4,97.8 36.2,98.1C37.0,98.4 36.2,98.1 37.0,98.6C37.7,99.1 37.0,98.8 37.7,99.1C38.4,99.4 37.7,99.1 38.4,99.2C39.1,99.3 38.4,99.0 39.2,99.3C39.9,99.6 39.1,99.5 39.9,99.8C40.6,100.1 39.9,99.8 40.7,99.9C41.5,100.0 40.8,99.7 41.5,100.0C42.2,100.2 41.4,100.2 42.1,100.5C42.8,100.7 42.1,100.5 42.9,100.5C43.6,100.6 43.3,100.6 43.7,100.6" fill="none" stroke="#fbbf24" stroke-width="0.6" stroke-linecap="round" stroke-linejoin="round" opacity="0.7"/>
  <path d="M26.3,73.0C26.1,73.0 26.3,72.6 25.9,73.0C25.5,73.4 25.9,73.0 25.4,73.8C25.0,74.6 25.4,74.0 25.1,74.6C24.7,75.2 25.0,74.6 24.7,75.0C24.4,75.4 24.6,75.2 24.5,75.4" fill="none" stroke="#fbbf24" stroke-width="0.6" stroke-linecap="round" stroke-linejoin="round" opacity="0.7"/>
  <path d="M49.4,84.0C49.0,84.2 49.3,84.2 48.7,84.4C48.0,84.5 48.7,84.4 48.1,84.3C47.4,84.3 48.1,84.1 47.4,84.3C46.6,84.4 47.4,84.3 46.6,84.6C45.8,85.0 46.6,84.6 45.8,85.0C45.1,85.3 45.8,84.9 45.1,85.3C44.4,85.7 45.0,85.3 44.4,85.7C43.7,86.0 44.4,85.7 43.7,86.0C43.0,86.4 43.7,86.2 43.0,86.4C42.3,86.5 43.0,86.2 42.3,86.3C41.6,86.4 42.3,86.3 41.5,86.6C40.7,87.0 41.5,86.6 40.7,87.0C39.8,87.3 40.6,87.2 39.8,87.3C39.0,87.5 39.9,87.1 39.1,87.2C38.3,87.4 39.0,87.5 38.2,87.6C37.3,87.7 38.2,87.4 37.4,87.5C36.6,87.6 37.4,87.7 36.5,87.8C35.7,88.0 36.6,87.8 35.7,87.8C34.9,87.7 38.4,87.4 34.9,87.7C31.3,87.9 32.2,87.8 28.6,88.3C25.0,88.8 28.6,88.5 27.7,88.6C26.7,88.7 27.7,88.6 26.7,88.5C25.8,88.4 26.7,88.5 25.8,88.4C24.9,88.3 25.8,88.4 24.9,88.3C24.0,88.2 24.9,88.3 24.0,88.2C23.2,88.2 24.1,88.0 23.2,88.2C22.3,88.3 23.2,88.4 22.3,88.5C21.3,88.6 22.2,88.5 21.4,88.4C20.6,88.3 21.5,88.2 20.6,88.3C19.8,88.4 20.7,88.3 19.8,88.7C18.8,89.0 19.7,88.7 18.8,89.0C17.9,89.3 18.8,89.0 17.9,89.3C16.9,89.6 17.8,89.3 16.9,89.6C16.1,90.0 16.9,89.9 16.2,90.0C15.4,90.1 16.2,89.8 15.5,89.9C14.8,90.1 15.5,89.7 14.8,90.3C14.0,90.8 14.7,90.5 13.9,91.1C13.1,91.6 13.9,91.0 13.2,91.4C12.5,91.8 13.2,91.4 12.6,91.8C11.9,92.1 12.6,91.6 11.9,92.1C11.2,92.7 11.8,92.3 11.2,92.9C10.6,93.5 11.3,92.7 10.6,93.3C10.0,93.9 10.5,93.7 9.9,94.1C9.3,94.4 10.0,93.6 9.4,94.0C8.8,94.4 9.2,94.2 8.7,94.8C8.1,95.4 8.7,94.6 8.2,95.2C7.7,95.8 8.2,95.6 7.6,96.0C7.0,96.3 7.6,95.5 7.1,95.9C6.6,96.3 7.1,96.1 6.6,96.7C6.2,97.3 6.6,96.5 6.2,97.1C5.8,97.7 6.1,97.5 5.9,97.9C5.6,98.3 6.0,97.5 5.7,97.9C5.4,98.3 5.6,98.1 5.2,98.7C4.9,99.3 5.1,98.9 4.9,99.1" fill="none" stroke="#fbbf24" stroke-width="0.6" stroke-linecap="round" stroke-linejoin="round" opacity="0.7"/>
  <ellipse cx="52.9" cy="74.9" rx="3.5" ry="2.4" fill="#0c0c0c" stroke="#ef4444" stroke-width="0.4" opacity="0.95"/>
  <text x="52.9" y="75.9" text-anchor="middle" font-family="sans-serif" font-size="2.6" font-weight="700" fill="#ffffff" opacity="0.95">OR</text>
</svg>