<svg xmlns="http://www.w3.org/2000/svg" viewBox="0 0 102.27040591422573 107.44489710580129" preserveAspectRatio="none">
  <path d="M78.7,68.6C78.7,68.9 78.7,69.1 78.6,69.5C78.4,69.9 78.5,69.5 78.4,69.9C78.3,70.3 78.3,70.2 78.2,70.7C78.1,71.3 78.1,71.2 78.1,71.6C78.0,72.0 78.0,71.7 78.1,72.0C78.1,72.3 78.2,72.0 78.1,72.4C78.0,72.9 78.0,72.7 77.9,73.3C77.8,73.8 77.8,73.7 77.8,74.1C77.8,74.6 77.9,74.1 77.9,74.6C78.0,75.0 77.9,74.9 77.9,75.4C77.9,76.0 77.9,75.9 77.9,76.3C77.9,76.7 77.9,76.3 77.9,76.7C77.8,77.1 77.7,77.0 77.7,77.6C77.7,78.1 77.8,78.0 77.8,78.4C77.9,78.9 77.9,78.4 77.9,78.9C77.9,79.3 77.7,79.3 77.8,79.7C77.8,80.1 77.9,79.7 78.0,80.2C78.1,80.6 78.0,80.7 78.0,81.0" fill="none" stroke="#ef4444" stroke-width="0.8" stroke-linecap="round" stroke-linejoin="round" opacity="0.9"/>
  <path d="M38.2,77.3C38.4,77.4 38.5,77.3 38.8,77.8C39.1,78.2 38.8,78.2 39.1,78.7C39.4,79.1 39.3,79.0 39.7,79.2C40.1,79.3 40.0,78.9 40.3,79.2C40.5,79.5 40.3,79.6 40.5,80.1C40.7,80.6 40.7,80.1 40.9,80.6C41.2,81.0 41.1,81.0 41.3,81.5C41.6,81.9 41.4,81.6 41.7,81.9C42.0,82.3 41.9,82.0 42.2,82.4C42.5,82.9 42.3,82.9 42.6,83.3C42.9,83.8 42.7,83.5 43.0,83.8C43.2,84.1 43.1,83.8 43.4,84.3C43.6,84.7 43.7,84.9 43.8,85.2" fill="none" stroke="#ef4444" stroke-width="0.8" stroke-linecap="round" stroke-linejoin="round" opacity="0.9"/>
  <path d="M68.1,43.9C68.4,43.9 68.4,44.1 68.9,44.0C69.5,43.9 69.2,43.9 69.7,43.7C70.3,43.4 70.0,43.7 70.6,43.3C71.2,42.9 70.9,42.9 71.5,42.5C72.0,42.2 72.1,42.3 72.4,42.2" fill="none" stroke="#ef4444" stroke-width="0.8" stroke-linecap="round" stroke-linejoin="round" opacity="0.9"/>
  <path d="M70.7,79.0C70.7,79.1 70.8,79.0 70.9,79.4C71.0,79.9 70.9,79.9 71.0,80.3C71.0,80.7 71.1,80.3 71.1,80.7C71.1,81.2 71.1,81.0 71.0,81.6C71.0,82.2 70.9,82.1 70.9,82.4C70.9,82.7 71.1,82.2 71.0,82.4C71.0,82.7 71.0,82.7 70.9,83.3C70.8,83.8 70.8,83.7 70.7,84.1C70.6,84.5 70.8,84.1 70.6,84.5C70.5,85.0 70.5,84.8 70.3,85.4C70.1,85.9 70.1,85.8 70.0,86.2C69.9,86.6 70.1,86.2 70.0,86.6C70.0,87.1 70.0,86.9 69.9,87.5C69.7,88.0 69.8,87.8 69.6,88.3C69.5,88.9 69.4,88.7 69.4,89.1C69.4,89.6 69.5,89.4 69.5,89.6" fill="none" stroke="#ef4444" stroke-width="0.8" stroke-linecap="round" stroke-linejoin="round" opacity="0.9"/>
  <path d="M36.1,96.8C36.2,97.0 36.2,96.8 36.2,97.3C36.3,97.7 36.2,97.7 36.3,98.1C36.4,98.6 36.4,98.3 36.5,98.6C36.6,98.9 36.5,98.6 36.5,99.0C36.5,99.4 36.5,99.3 36.5,99.9C36.5,100.4 36.5,100.4 36.5,100.7" fill="none" stroke="#ef4444" stroke-width="0.8" stroke-linecap="round" stroke-linejoin="round" opacity="0.9"/>
  <path d="M30.5,73.5C30.4,73.6 30.4,73.5 30.1,73.9C29.8,74.2 29.9,74.1 29.5,74.6C29.1,75.2 29.2,75.0 28.8,75.4C28.5,75.8 28.7,75.6 28.3,75.8C28.0,76.1 28.1,75.8 27.8,76.2C27.5,76.6 27.7,76.5 27.3,77.0C27.0,77.5 27.2,77.3 26.8,77.8C26.3,78.3 26.4,78.0 25.9,78.6C25.5,79.1 25.7,79.0 25.4,79.4C25.2,79.8 25.4,79.4 25.2,79.8C24.9,80.2 25.0,80.0 24.7,80.6C24.4,81.1 24.5,81.0 24.3,81.4C24.1,81.8 24.3,81.4 24.1,81.8C23.9,82.2 23.9,82.2 23.7,82.6C23.6,83.0 23.7,82.6 23.6,83.0C23.4,83.5 23.4,83.6 23.3,83.9" fill="none" stroke="#ef4444" stroke-width="0.8" stroke-linecap="round" stroke-linejoin="round" opacity="0.9"/>
  <path d="M80.4,61.5C80.4,61.7 80.4,61.5 80.4,62.0C80.4,62.4 80.4,62.4 80.3,62.8C80.3,63.2 80.3,62.9 80.3,63.2C80.3,63.5 80.3,63.2 80.3,63.7C80.2,64.1 80.2,64.1 80.1,64.5C80.0,64.9 80.1,64.6 80.0,64.9C79.9,65.2 80.0,64.9 79.8,65.3C79.6,65.7 79.6,65.6 79.4,66.1C79.2,66.7 79.3,66.6 79.2,67.0C79.1,67.4 79.2,67.1 79.1,67.4C79.0,67.7 79.0,67.7 78.9,67.8" fill="none" stroke="#fbbf24" stroke-width="0.6" stroke-linecap="round" stroke-linejoin="round" opacity="0.7"/>
  <path d="M78.0,81.0C78.1,81.2 78.1,81.2 78.1,81.5C78.2,81.8 78.2,81.5 78.2,81.9C78.2,82.3 78.1,82.3 78.1,82.8C78.0,83.2 78.1,82.9 78.0,83.2C78.0,83.5 77.9,83.2 77.9,83.6C77.8,84.0 77.8,83.9 77.8,84.4C77.7,85.0 77.8,84.9 77.7,85.3C77.6,85.7 77.6,85.3 77.5,85.7C77.3,86.1 77.4,86.0 77.2,86.5C77.0,87.1 77.0,87.1 76.8,87.3C76.6,87.6 76.7,87.1 76.6,87.3C76.5,87.6 76.6,87.6 76.4,88.2C76.2,88.7 76.3,88.6 76.1,89.0C75.8,89.4 75.9,89.1 75.6,89.4C75.3,89.6 75.5,89.5 75.2,89.8C75.0,90.0 75.1,89.7 74.8,90.1C74.6,90.5 74.7,90.6 74.5,91.0C74.2,91.4 74.4,91.1 74.2,91.4C74.0,91.6 74.1,91.5 73.9,91.8C73.7,92.0 73.8,91.8 73.6,92.2C73.3,92.6 73.3,92.6 73.1,93.0C73.0,93.4 73.1,93.3 73.1,93.4" fill="none" stroke="#fbbf24" stroke-width="0.6" stroke-linecap="round" stroke-linejoin="round" opacity="0.7"/>
  <path d="M39.4,72.7C39.7,72.7 39.7,72.9 40.2,72.8C40.8,72.7 40.6,72.5 41.2,72.4C41.8,72.4 41.5,72.5 42.1,72.5C42.6,72.6 42.2,72.5 42.8,72.6C43.5,72.7 43.2,72.7 43.9,72.7C44.5,72.8 44.2,72.8 44.8,72.8C45.4,72.9 45.1,72.8 45.7,72.9C46.4,73.0 46.1,73.0 46.7,73.0C47.3,73.1 46.9,73.0 47.5,73.1C48.1,73.2 47.8,73.3 48.5,73.2C49.1,73.1 48.9,73.0 49.5,72.9C50.1,72.8 49.7,73.0 50.4,73.0C51.0,72.9 50.9,72.7 51.5,72.7C52.1,72.6 51.7,72.7 52.2,72.7C52.8,72.8 52.5,72.9 53.1,72.8C53.7,72.8 53.5,72.7 54.1,72.5C54.7,72.3 54.3,72.4 54.9,72.2C55.5,71.9 55.3,71.9 55.8,71.8C56.4,71.7 56.1,71.9 56.5,71.9C56.9,71.9 56.6,72.1 57.1,72.0C57.6,71.9 57.4,71.9 57.9,71.6C58.4,71.4 58.4,71.4 58.6,71.3" fill="none" stroke="#fbbf24" stroke-width="0.6" stroke-linecap="round" stroke-linejoin="round" opacity="0.7"/>
  <path d="M19.0,99.7C18.7,99.7 18.7,99.6 18.2,99.7C17.6,99.7 17.9,99.8 17.3,100.0C16.7,100.2 17.1,100.1 16.4,100.3C15.8,100.6 16.0,100.6 15.4,100.7C14.9,100.7 15.3,100.5 14.7,100.6C14.2,100.7 14.4,100.8 13.8,100.9C13.3,101.0 13.6,100.6 13.0,100.8C12.5,101.1 12.7,101.4 12.1,101.6C11.5,101.8 11.8,101.4 11.3,101.5C10.7,101.6 10.9,101.6 10.3,101.8C9.7,102.1 9.9,101.9 9.4,102.2C8.8,102.4 9.1,102.4 8.6,102.5C8.2,102.6 8.4,102.4 8.0,102.5C7.5,102.5 7.5,102.7 7.3,102.8" fill="none" stroke="#fbbf24" stroke-width="0.6" stroke-linecap="round" stroke-linejoin="round" opacity="0.7"/>
  <path d="M33.5,71.6C33.6,71.9 33.6,72.1 33.7,72.5C33.9,73.0 33.8,72.7 34.0,73.0C34.3,73.3 34.2,73.1 34.5,73.5C34.8,73.8 34.6,73.6 35.0,73.9C35.3,74.3 35.2,74.0 35.5,74.4C35.8,74.9 35.6,74.9 35.9,75.3C36.3,75.8 36.1,75.5 36.5,75.8C37.0,76.1 36.8,76.0 37.2,76.3C37.6,76.6 37.5,76.6 37.7,76.8" fill="none" stroke="#fbbf24" stroke-width="0.6" stroke-linecap="round" stroke-linejoin="round" opacity="0.7"/>
  <path d="M43.8,85.2C43.9,85.3 44.0,85.3 44.1,85.6C44.3,85.9 44.1,85.8 44.2,86.1C44.4,86.4 44.3,86.2 44.6,86.5C44.8,86.8 44.8,86.6 44.9,87.0C45.1,87.5 44.9,87.4 45.0,87.9C45.2,88.3 45.2,88.0 45.3,88.3C45.5,88.6 45.5,88.6 45.6,88.8" fill="none" stroke="#fbbf24" stroke-width="0.6" stroke-linecap="round" stroke-linejoin="round" opacity="0.7"/>
  <path d="M68.2,86.4C68.3,86.6 68.4,86.5 68.6,86.9C68.8,87.4 68.6,87.3 68.8,87.8C69.0,88.2 68.9,88.0 69.1,88.3C69.3,88.6 69.2,88.4 69.3,88.7C69.5,89.0 69.4,88.9 69.6,89.2C69.8,89.5 69.7,89.3 70.0,89.6C70.2,89.9 70.2,89.8 70.4,90.1C70.6,90.4 70.6,90.4 70.7,90.6" fill="none" stroke="#fbbf24" stroke-width="0.6" stroke-linecap="round" stroke-linejoin="round" opacity="0.7"/>
  <path d="M43.4,77.8C43.7,77.7 43.7,77.6 44.3,77.5C44.8,77.4 44.5,77.5 45.0,77.6C45.5,77.6 45.3,77.6 45.8,77.6C46.4,77.7 46.1,77.7 46.7,77.7C47.2,77.8 46.8,77.9 47.4,77.8C48.0,77.7 47.8,77.6 48.4,77.5C49.0,77.4 48.6,77.7 49.2,77.6C49.7,77.5 49.5,77.3 50.1,77.2C50.6,77.2 50.3,77.4 50.9,77.3C51.5,77.2 51.2,77.1 51.8,77.0C52.4,76.9 52.0,77.2 52.6,77.1C53.2,77.0 52.9,76.8 53.5,76.7C54.1,76.7 53.8,76.9 54.4,76.8C55.0,76.8 54.7,76.7 55.4,76.5C56.1,76.3 55.8,76.3 56.4,76.2C57.1,76.1 56.7,76.2 57.3,76.3C57.9,76.3 57.6,76.3 58.2,76.4C58.8,76.4 58.5,76.5 59.1,76.5C59.6,76.4 59.4,76.2 60.0,76.1C60.6,76.1 60.3,76.3 60.9,76.2C61.5,76.1 61.2,76.1 61.8,75.9C62.4,75.7 62.1,75.8 62.8,75.6C63.4,75.3 63.2,75.5 63.8,75.2C64.4,75.0 64.0,75.1 64.5,74.9C65.0,74.7 64.8,74.6 65.3,74.5C65.8,74.4 65.8,74.6 66.0,74.6" fill="none" stroke="#fbbf24" stroke-width="0.6" stroke-linecap="round" stroke-linejoin="round" opacity="0.7"/>
  <path d="M59.6,46.5C59.9,46.3 59.9,46.2 60.5,46.1C61.0,46.0 60.7,46.3 61.2,46.2C61.8,46.1 61.6,45.9 62.1,45.9C62.6,45.8 62.3,46.0 62.8,45.9C63.3,45.8 63.1,45.8 63.7,45.6C64.3,45.4 64.1,45.5 64.7,45.3C65.2,45.0 64.9,45.1 65.4,44.9C66.0,44.7 65.8,44.8 66.4,44.6C67.0,44.4 65.2,45.0 67.2,44.2C69.2,43.5 70.4,42.9 72.4,42.2C74.3,41.6 72.5,42.5 72.9,42.3C73.4,42.0 73.3,41.9 73.7,41.5C74.1,41.1 73.8,41.5 74.2,41.1C74.6,40.7 74.4,40.6 74.8,40.3C75.1,40.1 75.1,40.4 75.3,40.4" fill="none" stroke="#fbbf24" stroke-width="0.6" stroke-linecap="round" stroke-linejoin="round" opacity="0.7"/>
  <path d="M54.7,98.8C54.9,98.8 54.9,98.6 55.3,98.8C55.7,99.0 55.5,99.0 55.9,99.3C56.4,99.7 56.2,99.5 56.6,99.8C57.1,100.2 56.8,100.1 57.3,100.3C57.8,100.5 57.6,100.2 58.1,100.4C58.6,100.6 58.3,100.6 58.8,100.9C59.3,101.3 59.0,101.2 59.6,101.4C60.1,101.6 59.8,101.5 60.4,101.5C61.0,101.6 60.7,101.5 61.3,101.6C61.9,101.7 61.6,101.6 62.2,101.7C62.8,101.8 62.6,101.7 63.2,101.8C63.7,101.9 63.4,101.8 63.9,101.9C64.5,101.9 64.3,101.9 64.8,102.0C65.4,102.0 65.1,102.0 65.6,102.1C66.1,102.1 66.1,102.1 66.3,102.1" fill="none" stroke="#fbbf24" stroke-width="0.6" stroke-linecap="round" stroke-linejoin="round" opacity="0.7"/>
  <path d="M58.9,71.7C58.9,71.4 58.9,71.3 58.7,70.8C58.5,70.4 58.6,70.7 58.3,70.4C58.0,70.1 58.2,70.1 57.8,69.9C57.5,69.7 57.6,70.0 57.3,69.8C57.0,69.7 57.2,69.7 56.8,69.4C56.5,69.0 56.5,69.0 56.3,68.9" fill="none" stroke="#fbbf24" stroke-width="0.6" stroke-linecap="round" stroke-linejoin="round" opacity="0.7"/>
  <path d="M41.5,72.0C41.6,72.2 41.5,72.2 41.7,72.5C41.8,72.8 41.8,72.6 42.0,72.9C42.2,73.3 42.1,73.0 42.3,73.4C42.5,73.9 42.4,73.9 42.6,74.3C42.8,74.8 42.7,74.5 42.9,74.8C43.2,75.1 43.1,74.9 43.4,75.2C43.7,75.6 43.5,75.4 43.9,75.7C44.2,76.0 44.1,75.9 44.4,76.2C44.7,76.5 44.6,76.4 44.8,76.7C45.1,77.0 45.1,77.0 45.2,77.2" fill="none" stroke="#fbbf24" stroke-width="0.6" stroke-linecap="round" stroke-linejoin="round" opacity="0.7"/>
  <path d="M72.0,83.8C72.3,83.9 72.3,84.0 72.8,83.9C73.4,83.8 73.1,83.7 73.6,83.6C74.1,83.5 73.8,83.7 74.3,83.7C74.9,83.6 74.6,83.5 75.2,83.3C75.7,83.1 75.4,83.0 76.0,83.0C76.5,82.9 76.3,83.0 76.8,83.1C77.4,83.1 77.0,83.2 77.6,83.1C78.2,83.0 77.9,83.0 78.5,82.8C79.1,82.6 78.9,82.6 79.4,82.5C79.9,82.4 79.6,82.6 80.1,82.5C80.6,82.4 80.6,82.3 80.9,82.2" fill="none" stroke="#fbbf24" stroke-width="0.6" stroke-linecap="round" stroke-linejoin="round" opacity="0.7"/>
  <path d="M45.0,77.6C45.1,77.6 45.1,77.4 45.3,77.6C45.6,77.8 45.5,77.6 45.6,78.1C45.8,78.5 45.6,78.5 45.7,78.9C45.8,79.4 45.7,79.1 45.9,79.4C46.0,79.7 46.0,79.5 46.2,79.8C46.4,80.1 46.3,79.9 46.5,80.3C46.6,80.7 46.5,80.7 46.6,81.2C46.8,81.6 46.8,81.3 46.9,81.6C47.1,81.9 46.9,81.6 47.1,82.1C47.2,82.5 47.1,82.5 47.3,83.0C47.5,83.4 47.4,83.1 47.7,83.4C47.9,83.7 47.8,83.6 48.0,83.9C48.2,84.2 48.1,84.0 48.3,84.4C48.4,84.7 48.4,84.5 48.5,84.8C48.6,85.1 48.5,84.8 48.6,85.2C48.7,85.7 48.6,85.7 48.8,86.1C49.0,86.6 49.0,86.3 49.3,86.6C49.6,86.9 49.5,86.8 49.7,87.1C50.0,87.4 49.9,87.4 50.1,87.5" fill="none" stroke="#fbbf24" stroke-width="0.6" stroke-linecap="round" stroke-linejoin="round" opacity="0.7"/>
  <path d="M67.4,69.6C67.5,69.8 67.6,69.6 67.8,70.1C68.0,70.5 67.8,70.5 68.1,71.0C68.3,71.4 68.2,71.0 68.5,71.4C68.7,71.9 68.7,71.7 68.8,72.3C69.0,72.9 68.8,72.9 69.0,73.2C69.1,73.5 69.1,72.9 69.3,73.2C69.5,73.5 69.3,73.7 69.5,74.1C69.6,74.6 69.7,74.1 69.7,74.6C69.8,75.0 69.6,75.0 69.7,75.4C69.7,75.9 69.8,75.4 69.9,75.9C70.0,76.3 69.9,76.3 69.9,76.7C70.0,77.1 70.0,76.9 70.1,77.1C70.1,77.3 70.0,77.1 70.2,77.4C70.3,77.8 70.4,77.9 70.4,78.1" fill="none" stroke="#fbbf24" stroke-width="0.6" stroke-linecap="round" stroke-linejoin="round" opacity="0.7"/>
  <path d="M46.1,99.2C45.8,99.3 45.8,99.4 45.2,99.5C44.7,99.6 45.0,99.5 44.5,99.4C44.0,99.4 44.3,99.2 43.6,99.3C43.0,99.4 43.2,99.6 42.7,99.7C42.1,99.7 42.5,99.6 42.0,99.6C41.5,99.5 41.7,99.5 41.1,99.5C40.6,99.4 40.8,99.5 40.3,99.4C39.8,99.4 40.2,99.4 39.6,99.3C39.1,99.3 39.3,99.3 38.7,99.2C38.1,99.2 38.4,99.2 37.9,99.1C37.4,99.1 37.6,99.1 37.1,99.1C36.5,99.0 36.8,99.0 36.2,99.0C35.7,98.9 35.7,98.9 35.4,98.9" fill="none" stroke="#fbbf24" stroke-width="0.6" stroke-linecap="round" stroke-linejoin="round" opacity="0.7"/>
  <path d="M34.7,90.7C34.8,90.9 34.8,91.1 34.9,91.5C35.0,92.0 34.9,91.7 35.0,92.0C35.2,92.3 35.2,92.1 35.4,92.4C35.6,92.7 35.5,92.5 35.6,92.9C35.7,93.3 35.7,93.3 35.7,93.8C35.8,94.2 35.8,93.9 35.8,94.2C35.9,94.5 35.8,94.2 35.9,94.6C36.0,95.1 36.0,95.1 36.1,95.5C36.2,96.0 36.1,95.8 36.2,96.0" fill="none" stroke="#fbbf24" stroke-width="0.6" stroke-linecap="round" stroke-linejoin="round" opacity="0.7"/>
  <path d="M54.9,65.3C54.6,65.4 54.5,65.5 53.9,65.6C53.4,65.7 53.8,65.5 53.3,65.5C52.7,65.6 52.9,65.8 52.3,65.9C51.8,66.0 52.1,65.8 51.6,65.8C51.1,65.7 51.4,65.6 50.9,65.7C50.3,65.8 50.3,66.0 50.0,66.1" fill="none" stroke="#fbbf24" stroke-width="0.6" stroke-linecap="round" stroke-linejoin="round" opacity="0.7"/>
  <path d="M52.2,58.6C51.9,58.7 51.9,58.7 51.5,58.9C51.1,59.2 51.3,59.0 50.9,59.3C50.5,59.5 50.7,59.4 50.2,59.6C49.7,59.9 49.9,59.9 49.5,60.0C49.1,60.1 49.4,59.8 49.0,59.9C48.6,60.1 48.8,60.1 48.3,60.3C47.9,60.5 48.1,60.4 47.6,60.7C47.2,60.9 47.5,60.6 47.0,61.0C46.5,61.4 46.6,61.6 46.1,61.8C45.6,62.0 45.9,61.6 45.6,61.7C45.2,61.8 45.4,61.9 44.9,62.1C44.5,62.3 45.1,62.0 44.2,62.5C43.4,62.9 43.2,63.1 42.3,63.5C41.5,64.0 42.2,63.7 41.8,63.9C41.4,64.2 41.7,63.9 41.2,64.3C40.8,64.7 40.9,64.7 40.5,65.1C40.1,65.5 40.3,65.2 40.0,65.4C39.6,65.7 39.7,65.7 39.4,65.8C39.1,65.9 39.3,65.5 39.0,65.8C38.6,66.0 38.8,66.2 38.4,66.6C38.0,67.0 38.2,66.7 37.9,66.9C37.5,67.2 37.7,67.1 37.4,67.3C37.0,67.6 37.2,67.4 36.8,67.7C36.5,67.9 36.6,67.7 36.3,68.1C36.0,68.5 36.2,68.5 35.8,68.9C35.5,69.3 35.6,69.0 35.3,69.2C34.9,69.5 35.1,69.4 34.7,69.6C34.4,69.9 34.6,69.7 34.3,70.0C34.0,70.3 34.2,70.0 33.9,70.4C33.5,70.8 33.6,70.8 33.3,71.2C33.0,71.6 33.2,71.3 32.9,71.6C32.5,71.8 32.7,71.5 32.3,71.9C31.9,72.3 32.0,72.3 31.6,72.7C31.2,73.1 31.2,73.0 31.0,73.1" fill="none" stroke="#fbbf24" stroke-width="0.6" stroke-linecap="round" stroke-linejoin="round" opacity="0.7"/>
  <path d="M23.3,83.9C23.2,84.0 23.2,83.9 23.1,84.3C23.1,84.7 23.1,84.6 23.0,85.1C23.0,85.7 23.0,85.6 23.0,86.0C23.0,86.4 23.1,86.1 23.0,86.4C23.0,86.7 23.0,86.4 22.9,86.8C22.8,87.3 22.8,87.1 22.8,87.7C22.8,88.3 22.7,88.3 22.8,88.5C22.9,88.8 22.9,88.3 23.0,88.6C23.1,88.9 23.0,89.0 23.0,89.4C23.0,89.9 23.0,89.4 22.9,89.8C22.9,90.3 22.8,90.3 22.8,90.7C22.7,91.1 22.8,90.8 22.7,91.1C22.6,91.4 22.7,91.1 22.6,91.5C22.5,92.0 22.5,92.0 22.5,92.4C22.5,92.8 22.5,92.5 22.6,92.8C22.6,93.1 22.6,93.1 22.6,93.2" fill="none" stroke="#fbbf24" stroke-width="0.6" stroke-linecap="round" stroke-linejoin="round" opacity="0.7"/>
  <path d="M28.2,92.5C28.3,92.8 28.2,93.1 28.5,93.4C28.8,93.8 28.7,93.3 29.0,93.5C29.3,93.7 29.1,93.6 29.5,94.0C29.8,94.3 29.7,94.1 30.0,94.5C30.3,94.8 30.0,94.6 30.3,94.9C30.6,95.2 30.5,95.1 30.8,95.4C31.1,95.7 30.9,95.6 31.3,95.9C31.7,96.2 31.4,96.2 31.9,96.4C32.3,96.6 32.1,96.4 32.6,96.4C33.1,96.5 32.9,96.3 33.3,96.5C33.8,96.7 33.4,96.7 33.9,97.0C34.3,97.3 34.1,97.2 34.6,97.5C35.1,97.9 34.9,97.8 35.4,98.0C35.9,98.2 35.7,97.9 36.2,98.1C36.7,98.3 36.5,98.3 37.0,98.6C37.5,99.0 37.3,98.9 37.7,99.1C38.2,99.3 37.9,99.2 38.4,99.2C38.9,99.3 38.7,99.1 39.2,99.3C39.7,99.5 39.4,99.6 39.9,99.8C40.4,100.0 40.1,99.8 40.7,99.9C41.2,99.9 41.0,99.8 41.5,100.0C42.0,100.2 41.7,100.3 42.1,100.5C42.6,100.6 42.3,100.5 42.9,100.5C43.4,100.6 43.4,100.6 43.7,100.6" fill="none" stroke="#fbbf24" stroke-width="0.6" stroke-linecap="round" stroke-linejoin="round" opacity="0.7"/>
  <path d="M26.3,73.0C26.2,73.0 26.2,72.7 25.9,73.0C25.7,73.2 25.7,73.2 25.4,73.8C25.2,74.3 25.3,74.2 25.1,74.6C24.8,75.0 24.9,74.7 24.7,75.0C24.5,75.3 24.6,75.3 24.5,75.4" fill="none" stroke="#fbbf24" stroke-width="0.6" stroke-linecap="round" stroke-linejoin="round" opacity="0.7"/>
  <path d="M49.4,84.0C49.1,84.2 49.1,84.3 48.7,84.4C48.2,84.5 48.5,84.4 48.1,84.3C47.7,84.3 47.9,84.2 47.4,84.3C46.9,84.3 47.1,84.4 46.6,84.6C46.1,84.8 46.3,84.7 45.8,85.0C45.3,85.2 45.6,85.1 45.1,85.3C44.6,85.5 44.8,85.4 44.4,85.7C43.9,85.9 44.2,85.8 43.7,86.0C43.3,86.3 43.4,86.3 43.0,86.4C42.5,86.5 42.8,86.2 42.3,86.3C41.8,86.4 42.1,86.4 41.5,86.6C41.0,86.9 41.2,86.8 40.7,87.0C40.1,87.2 40.3,87.2 39.8,87.3C39.3,87.4 39.6,87.2 39.1,87.2C38.5,87.3 38.8,87.5 38.2,87.6C37.6,87.7 37.9,87.4 37.4,87.5C36.8,87.6 37.1,87.8 36.5,87.8C36.0,87.9 36.3,87.8 35.7,87.8C35.1,87.7 37.2,87.5 34.9,87.7C32.5,87.8 31.0,88.0 28.6,88.3C26.2,88.6 28.3,88.6 27.7,88.6C27.0,88.7 27.4,88.6 26.7,88.5C26.1,88.5 26.4,88.5 25.8,88.4C25.2,88.4 25.5,88.4 24.9,88.3C24.3,88.3 24.6,88.3 24.0,88.2C23.5,88.2 23.8,88.1 23.2,88.2C22.6,88.2 22.9,88.4 22.3,88.5C21.6,88.6 21.9,88.5 21.4,88.4C20.8,88.3 21.2,88.2 20.6,88.3C20.1,88.4 20.4,88.4 19.8,88.7C19.1,88.9 19.4,88.8 18.8,89.0C18.2,89.2 18.5,89.1 17.9,89.3C17.2,89.5 17.5,89.4 16.9,89.6C16.4,89.9 16.7,89.9 16.2,90.0C15.7,90.1 15.9,89.8 15.5,89.9C15.0,90.0 15.3,89.9 14.8,90.3C14.3,90.7 14.5,90.7 13.9,91.1C13.4,91.4 13.6,91.2 13.2,91.4C12.7,91.6 13.0,91.5 12.6,91.8C12.1,92.0 12.3,91.7 11.9,92.1C11.4,92.5 11.6,92.5 11.2,92.9C10.8,93.3 11.1,92.9 10.6,93.3C10.2,93.7 10.3,93.8 9.9,94.1C9.5,94.3 9.8,93.8 9.4,94.0C9.0,94.3 9.0,94.4 8.7,94.8C8.3,95.2 8.6,94.8 8.2,95.2C7.9,95.6 8.0,95.7 7.6,96.0C7.2,96.2 7.4,95.7 7.1,95.9C6.8,96.2 6.9,96.3 6.6,96.7C6.3,97.1 6.4,96.7 6.2,97.1C5.9,97.5 6.0,97.7 5.9,97.9C5.7,98.2 5.9,97.6 5.7,97.9C5.5,98.2 5.5,98.3 5.2,98.7C5.0,99.1 5.0,99.0 4.9,99.1" fill="none" stroke="#fbbf24" stroke-width="0.6" stroke-linecap="round" stroke-linejoin="round" opacity="0.7"/>
  <ellipse cx="52.9" cy="74.9" rx="3.5" ry="3.3" fill="#0c0c0c" stroke="#ef4444" stroke-width="0.4" opacity="0.95"/>
  <text x="52.9" y="76.1" text-anchor="middle" font-family="sans-serif" font-size="3.1" font-weight="700" fill="#ffffff" opacity="0.95">OR</text>
</svg>