<svg xmlns="http://www.w3.org/2000/svg" viewBox="0 0 102.44941145180643 98.08150433173446" preserveAspectRatio="none">
  <path d="M19.7,74.9C19.6,75.1 19.2,75.6 18.9,75.8C18.7,76.0 18.5,76.1 18.3,76.2C18.1,76.4 17.9,76.5 17.7,76.7C17.4,76.8 17.2,76.9 17.0,77.1C16.8,77.3 16.5,77.5 16.3,77.7C16.0,78.0 15.8,78.2 15.5,78.4C15.3,78.6 15.1,78.7 14.9,78.8C14.6,79.0 14.5,79.0 14.3,79.3C14.0,79.6 13.6,80.3 13.3,80.6C13.0,80.8 12.8,80.8 12.6,81.0C12.4,81.2 12.3,81.6 12.1,81.9C12.0,82.1 11.9,82.5 11.7,82.7C11.6,82.9 11.5,83.0 11.3,83.1C11.2,83.3 11.1,83.6 10.9,83.8C10.8,84.0 10.7,84.2 10.5,84.4C10.3,84.7 10.1,85.1 10.0,85.3C9.9,85.5 9.8,85.5 9.7,85.7C9.6,85.9 9.5,86.4 9.3,86.6C9.2,86.8 9.1,86.8 9.0,87.0C8.9,87.2 8.9,87.7 8.8,87.9C8.6,88.1 8.4,88.1 8.3,88.3C8.2,88.5 8.1,89.0 8.1,89.2" fill="none" stroke="#ef4444" stroke-width="0.8" stroke-linecap="round" stroke-linejoin="round" opacity="0.9"/>
  <path d="M44.7,42.6C44.7,42.5 44.7,42.0 44.7,41.8C44.6,41.5 44.6,41.3 44.6,41.1C44.6,40.9 44.6,40.7 44.6,40.5C44.6,40.3 44.6,40.2 44.6,40.1C44.6,39.9 44.7,39.8 44.7,39.6C44.7,39.4 44.7,38.9 44.7,38.8" fill="none" stroke="#fbbf24" stroke-width="0.6" stroke-linecap="round" stroke-linejoin="round" opacity="0.7"/>
  <path d="M28.5,32.7C28.6,32.7 28.8,32.4 28.9,32.3C29.1,32.1 29.2,32.0 29.3,31.9C29.5,31.7 29.6,31.6 29.7,31.4C29.8,31.3 30.0,31.1 30.2,31.0C30.3,30.9 30.6,30.6 30.7,30.6" fill="none" stroke="#fbbf24" stroke-width="0.6" stroke-linecap="round" stroke-linejoin="round" opacity="0.7"/>
  <path d="M26.2,68.4C26.1,68.4 25.7,68.1 25.4,68.0C25.2,68.0 24.9,68.1 24.7,68.0C24.5,68.0 24.3,67.7 24.0,67.6C23.8,67.6 23.5,67.6 23.3,67.6C23.0,67.6 22.8,67.7 22.6,67.6C22.3,67.6 22.1,67.4 21.9,67.2C21.7,67.1 21.5,67.0 21.3,66.8C21.1,66.7 20.9,66.5 20.6,66.4C20.4,66.3 20.2,66.1 20.0,66.0C19.8,65.9 19.5,65.7 19.3,65.6C19.1,65.5 18.8,65.2 18.6,65.2C18.4,65.1 18.2,65.3 18.0,65.2C17.8,65.1 17.6,64.9 17.4,64.8C17.1,64.6 17.0,64.5 16.8,64.4C16.6,64.2 16.2,64.0 16.1,64.0" fill="none" stroke="#fbbf24" stroke-width="0.6" stroke-linecap="round" stroke-linejoin="round" opacity="0.7"/>
  <path d="M28.3,51.4C28.2,51.3 27.9,51.1 27.6,51.0C27.4,50.9 27.1,51.1 26.9,51.0C26.6,50.9 26.4,50.7 26.2,50.6C26.0,50.5 25.8,50.3 25.5,50.2C25.3,50.1 25.1,50.1 24.9,50.0C24.6,49.9 24.4,49.9 24.2,49.8C24.0,49.7 23.6,49.4 23.5,49.4" fill="none" stroke="#fbbf24" stroke-width="0.6" stroke-linecap="round" stroke-linejoin="round" opacity="0.7"/>
  <path d="M67.2,57.4C67.2,57.5 67.1,57.7 67.0,57.9C67.0,58.0 66.9,58.1 66.8,58.3C66.8,58.5 66.7,58.9 66.7,59.2C66.6,59.4 66.6,59.4 66.6,59.6C66.5,59.7 66.3,59.9 66.2,60.0C66.1,60.2 66.1,60.3 66.0,60.4C65.9,60.6 65.7,60.7 65.6,60.9C65.5,61.1 65.4,61.5 65.3,61.7C65.2,61.9 65.2,61.7 65.0,61.9C64.9,62.2 64.5,62.8 64.3,63.0C64.1,63.3 64.0,63.3 63.8,63.5C63.7,63.6 63.5,63.7 63.3,63.9C63.2,64.0 63.0,64.2 62.8,64.3C62.7,64.5 62.5,64.6 62.4,64.8C62.2,64.9 62.1,65.0 62.0,65.2C61.8,65.3 61.6,65.5 61.4,65.6C61.2,65.8 61.0,65.9 60.8,66.1C60.7,66.2 60.6,66.3 60.5,66.5C60.4,66.6 60.2,66.8 60.1,66.9" fill="none" stroke="#fbbf24" stroke-width="0.6" stroke-linecap="round" stroke-linejoin="round" opacity="0.7"/>
  <path d="M37.1,41.5C37.1,41.6 37.1,42.1 37.1,42.3C37.1,42.5 37.1,42.6 37.2,42.7C37.2,42.9 37.2,43.0 37.2,43.2C37.3,43.3 37.3,43.4 37.3,43.6C37.4,43.8 37.4,44.2 37.5,44.4C37.5,44.6 37.6,44.8 37.6,44.9C37.7,45.0 37.6,45.0 37.6,45.1C37.7,45.1 37.7,45.2 37.7,45.3" fill="none" stroke="#fbbf24" stroke-width="0.6" stroke-linecap="round" stroke-linejoin="round" opacity="0.7"/>
  <path d="M46.0,58.7C45.9,58.8 45.6,59.0 45.4,59.1C45.3,59.3 45.1,59.4 44.9,59.6C44.8,59.7 44.6,59.9 44.4,60.0C44.2,60.1 43.9,60.2 43.7,60.2C43.5,60.3 43.3,60.3 43.1,60.5C42.9,60.6 42.6,61.2 42.5,61.3" fill="none" stroke="#fbbf24" stroke-width="0.6" stroke-linecap="round" stroke-linejoin="round" opacity="0.7"/>
  <circle cx="38.6" cy="56.1" r="3.5" fill="#0c0c0c" stroke="#ef4444" stroke-width="0.4" opacity="0.95"/>
  <text x="38.6" y="57.3" text-anchor="middle" font-family="sans-serif" font-size="3.5" font-weight="700" fill="#ffffff" opacity="0.95">OR</text>
</svg>