<svg xmlns="http://www.w3.org/2000/svg" viewBox="0 0 102.44941145180643 98.08150433173446" preserveAspectRatio="none">
  <path d="M19.7,23.2C19.3,22.7 19.6,22.9 18.9,22.3C18.3,21.6 19.0,22.3 18.3,21.9C17.7,21.4 18.3,21.9 17.7,21.4C17.0,21.0 17.7,21.5 17.0,21.0C16.3,20.4 17.0,21.0 16.3,20.3C15.5,19.7 16.2,20.2 15.5,19.7C14.8,19.1 15.5,19.7 14.9,19.2C14.2,18.8 15.0,19.7 14.3,18.8C13.5,17.9 14.1,18.4 13.3,17.5C12.4,16.7 13.2,17.7 12.6,17.1C12.0,16.4 12.6,17.1 12.1,16.2C11.7,15.4 12.1,16.0 11.7,15.4C11.3,14.7 11.7,15.5 11.3,14.9C10.9,14.4 11.3,14.9 10.9,14.3C10.5,13.6 11.0,14.4 10.5,13.6C10.0,12.9 10.4,13.4 10.0,12.8C9.6,12.1 10.0,13.0 9.7,12.4C9.4,11.7 9.7,12.1 9.3,11.5C9.0,10.9 9.3,11.7 9.0,11.1C8.7,10.4 9.1,10.9 8.8,10.2C8.4,9.6 8.7,10.4 8.3,9.8C8.0,9.1 8.2,9.4 8.1,8.9" fill="none" stroke="#ef4444" stroke-width="0.8" stroke-linecap="round" stroke-linejoin="round" opacity="0.9"/>
  <path d="M44.7,55.5C44.7,55.9 44.7,55.6 44.7,56.3C44.6,57.1 44.7,56.3 44.6,57.0C44.6,57.6 44.6,57.1 44.6,57.6C44.6,58.1 44.5,57.6 44.6,58.0C44.6,58.5 44.7,57.8 44.7,58.5C44.7,59.1 44.7,58.9 44.7,59.3" fill="none" stroke="#fbbf24" stroke-width="0.6" stroke-linecap="round" stroke-linejoin="round" opacity="0.7"/>
  <path d="M28.5,65.4C28.7,65.6 28.5,65.4 28.9,65.8C29.3,66.2 29.0,65.8 29.3,66.2C29.7,66.7 29.3,66.2 29.7,66.7C30.1,67.1 29.7,66.7 30.2,67.1C30.6,67.5 30.4,67.3 30.7,67.5" fill="none" stroke="#fbbf24" stroke-width="0.6" stroke-linecap="round" stroke-linejoin="round" opacity="0.7"/>
  <path d="M26.2,29.7C25.8,29.9 26.2,29.9 25.4,30.1C24.7,30.3 25.4,29.9 24.7,30.1C24.0,30.3 24.8,30.3 24.0,30.5C23.3,30.7 24.0,30.5 23.3,30.4C22.5,30.4 23.2,30.2 22.6,30.4C21.9,30.6 22.6,30.4 21.9,30.8C21.3,31.3 21.9,30.8 21.3,31.3C20.6,31.7 21.3,31.3 20.6,31.7C20.0,32.1 20.7,31.7 20.0,32.1C19.3,32.5 20.0,32.1 19.3,32.5C18.6,32.9 19.2,32.7 18.6,32.9C18.0,33.1 18.7,32.7 18.0,32.9C17.4,33.1 18.0,32.9 17.4,33.3C16.7,33.7 17.4,33.3 16.8,33.7C16.2,34.1 16.4,33.9 16.1,34.1" fill="none" stroke="#fbbf24" stroke-width="0.6" stroke-linecap="round" stroke-linejoin="round" opacity="0.7"/>
  <path d="M28.3,46.7C28.0,46.9 28.3,46.9 27.6,47.1C26.9,47.3 27.6,46.9 26.9,47.1C26.2,47.3 26.9,47.1 26.2,47.5C25.6,47.9 26.2,47.6 25.5,47.9C24.9,48.2 25.5,47.9 24.9,48.1C24.2,48.3 24.9,48.0 24.2,48.3C23.5,48.6 23.9,48.5 23.5,48.7" fill="none" stroke="#fbbf24" stroke-width="0.6" stroke-linecap="round" stroke-linejoin="round" opacity="0.7"/>
  <path d="M67.2,40.6C67.1,40.4 67.2,40.6 67.0,40.2C66.8,39.8 67.0,40.4 66.8,39.8C66.6,39.1 66.8,39.6 66.7,38.9C66.5,38.3 66.8,38.9 66.6,38.5C66.3,38.1 66.5,38.5 66.2,38.1C65.9,37.6 66.3,38.1 66.0,37.6C65.7,37.2 66.0,37.9 65.6,37.2C65.3,36.6 65.6,36.9 65.3,36.4C65.0,35.8 65.5,36.8 65.0,36.1C64.5,35.5 64.9,35.8 64.3,35.1C63.7,34.3 64.3,35.1 63.8,34.6C63.3,34.2 63.8,34.6 63.3,34.2C62.9,33.8 63.3,34.2 62.8,33.8C62.3,33.3 62.8,33.8 62.4,33.3C61.9,32.9 62.5,33.3 62.0,32.9C61.5,32.5 62.0,32.9 61.4,32.5C60.9,32.0 61.3,32.5 60.8,32.0C60.4,31.6 60.8,32.0 60.5,31.6C60.1,31.2 60.3,31.4 60.1,31.2" fill="none" stroke="#fbbf24" stroke-width="0.6" stroke-linecap="round" stroke-linejoin="round" opacity="0.7"/>
  <path d="M37.1,56.6C37.1,56.2 37.1,56.4 37.1,55.8C37.1,55.1 37.1,55.8 37.2,55.3C37.2,54.9 37.2,55.3 37.2,54.9C37.3,54.5 37.2,55.1 37.3,54.5C37.5,53.9 37.3,54.3 37.5,53.6C37.6,53.0 37.5,53.5 37.6,53.2C37.7,52.9 37.6,53.2 37.6,53.0C37.7,52.8 37.7,52.9 37.7,52.8" fill="none" stroke="#fbbf24" stroke-width="0.6" stroke-linecap="round" stroke-linejoin="round" opacity="0.7"/>
  <path d="M46.0,39.4C45.7,39.2 45.9,39.4 45.4,38.9C44.9,38.5 45.5,38.9 44.9,38.5C44.4,38.1 45.0,38.4 44.4,38.1C43.7,37.7 44.4,38.1 43.7,37.8C43.1,37.6 43.7,38.2 43.1,37.6C42.5,37.1 42.8,37.2 42.5,36.8" fill="none" stroke="#fbbf24" stroke-width="0.6" stroke-linecap="round" stroke-linejoin="round" opacity="0.7"/>
  <ellipse cx="38.6" cy="42.0" rx="3.5" ry="2.2" fill="#0c0c0c" stroke="#ef4444" stroke-width="0.4" opacity="0.95"/>
  <text x="38.6" y="42.9" text-anchor="middle" font-family="sans-serif" font-size="2.4" font-weight="700" fill="#ffffff" opacity="0.95">OR</text>
</svg>