<svg xmlns="http://www.w3.org/2000/svg" viewBox="0 0 102.27040591422573 107.44489710580129" preserveAspectRatio="none">
  <path d="M83.3,70.8C83.2,71.0 83.3,70.8 83.0,71.2C82.7,71.6 83.1,71.0 82.7,71.6C82.3,72.2 82.7,71.8 82.2,72.4C81.8,73.0 82.2,72.2 81.8,72.8C81.4,73.4 81.8,72.8 81.4,73.6C81.0,74.5 81.3,73.9 80.9,74.5C80.6,75.1 81.0,74.2 80.6,74.9C80.3,75.5 80.4,75.3 80.2,75.7" fill="none" stroke="#ef4444" stroke-width="0.8" stroke-linecap="round" stroke-linejoin="round" opacity="0.9"/>
  <path d="M73.4,23.8C73.2,23.4 73.5,23.6 73.0,22.9C72.5,22.2 72.9,22.9 72.4,22.4C71.8,22.0 72.3,22.4 71.9,22.0C71.5,21.5 71.9,22.2 71.5,21.5C71.2,20.8 71.4,21.1 71.2,20.6" fill="none" stroke="#ef4444" stroke-width="0.8" stroke-linecap="round" stroke-linejoin="round" opacity="0.9"/>
  <path d="M93.2,81.3C92.9,81.7 93.2,81.5 92.6,82.1C91.9,82.7 92.5,82.1 92.0,82.5C91.4,82.9 92.0,82.3 91.4,82.9C90.8,83.4 91.4,83.1 90.8,83.7C90.2,84.2 90.9,83.4 90.2,84.0C89.4,84.6 90.0,84.4 89.3,84.8C88.6,85.1 89.4,84.4 88.7,84.7C88.1,85.1 88.8,84.7 88.0,85.5C87.3,86.3 88.1,85.7 87.3,86.3C86.5,86.9 87.3,86.3 86.5,86.6C85.6,87.0 86.4,86.6 85.6,87.0C84.8,87.3 85.7,86.8 84.8,87.3C83.9,87.9 84.7,87.5 83.9,88.1C83.0,88.6 83.9,88.3 83.1,88.4C82.3,88.6 83.2,88.0 82.3,88.3C81.3,88.7 82.2,88.5 81.2,89.1C80.2,89.6 81.2,89.1 80.3,89.4C79.4,89.8 80.3,89.4 79.3,89.7C78.3,90.1 79.3,89.7 78.4,90.1C77.5,90.4 78.3,90.1 77.5,90.4C76.7,90.8 77.1,90.6 76.7,90.8" fill="none" stroke="#ef4444" stroke-width="0.8" stroke-linecap="round" stroke-linejoin="round" opacity="0.9"/>
  <path d="M93.5,45.7C93.3,46.1 93.5,45.7 93.2,46.5C93.0,47.4 93.3,46.8 93.0,47.4C92.7,48.0 93.0,47.4 92.7,47.8C92.4,48.2 92.7,47.6 92.4,48.2C92.1,48.8 92.3,48.4 92.1,49.0C91.9,49.6 92.1,48.8 91.9,49.4C91.6,50.0 91.9,49.4 91.6,50.2C91.2,51.1 91.6,50.4 91.2,51.1C90.8,51.7 91.2,50.8 90.8,51.4C90.4,52.0 90.7,51.4 90.5,52.3C90.2,53.1 90.4,52.5 90.2,53.1C90.0,53.7 90.3,52.9 90.0,53.5C89.7,54.1 90.0,53.5 89.6,54.3C89.3,55.1 89.8,53.9 89.2,55.1C88.7,56.4 89.1,55.6 88.6,56.8C88.0,58.0 88.5,57.0 88.2,57.6C87.8,58.2 88.2,57.4 87.8,58.0C87.4,58.6 87.8,58.2 87.4,58.8C87.0,59.4 87.4,58.6 87.0,59.2C86.7,59.8 87.0,59.2 86.7,60.0C86.4,60.9 86.7,60.0 86.3,60.9C86.0,61.7 86.3,61.1 85.9,61.7C85.5,62.3 86.0,61.7 85.5,62.1C85.1,62.4 85.5,61.8 85.1,62.4C84.6,63.0 85.1,62.4 84.7,63.3C84.4,64.1 84.5,63.7 84.3,64.1" fill="none" stroke="#ef4444" stroke-width="0.8" stroke-linecap="round" stroke-linejoin="round" opacity="0.9"/>
  <path d="M80.2,71.8C80.1,72.2 80.1,72.0 80.0,72.6C79.8,73.3 79.9,72.4 79.9,73.1C79.8,73.7 79.8,73.3 79.8,73.9C79.8,74.6 79.8,73.9 79.8,74.3C79.8,74.8 80.0,74.1 79.8,74.8C79.7,75.4 79.7,75.2 79.6,75.6" fill="none" stroke="#ef4444" stroke-width="0.8" stroke-linecap="round" stroke-linejoin="round" opacity="0.9"/>
  <path d="M73.3,72.4C73.2,72.6 73.4,72.2 73.2,72.8C72.9,73.4 73.0,73.0 72.7,73.6C72.5,74.2 72.8,73.4 72.6,74.0C72.4,74.6 72.6,74.0 72.4,74.8C72.2,75.7 72.3,75.0 72.2,75.7C72.0,76.3 72.2,75.5 72.2,76.1C72.1,76.7 72.1,76.3 72.0,77.0C71.8,77.6 72.1,76.7 71.9,77.4C71.7,78.0 71.7,77.6 71.7,78.2C71.6,78.8 71.7,78.4 71.7,78.6" fill="none" stroke="#ef4444" stroke-width="0.8" stroke-linecap="round" stroke-linejoin="round" opacity="0.9"/>
  <path d="M84.6,82.1C85.0,82.2 84.6,82.1 85.5,82.2C86.5,82.3 85.4,82.2 86.4,82.3C87.4,82.4 86.5,82.3 87.5,82.5C88.6,82.6 87.5,82.4 88.5,82.6C89.6,82.7 88.6,82.8 89.7,82.7C90.8,82.6 89.8,82.5 90.8,82.4C91.8,82.3 90.7,82.4 91.7,82.5C92.7,82.6 91.6,82.5 92.7,82.6C93.8,82.7 92.7,82.6 93.8,82.7C94.9,82.8 93.9,82.7 94.9,82.8C95.9,82.9 95.3,82.8 95.8,82.9" fill="none" stroke="#ef4444" stroke-width="0.8" stroke-linecap="round" stroke-linejoin="round" opacity="0.9"/>
  <path d="M83.4,73.0C83.3,73.2 83.5,72.8 83.2,73.4C83.0,74.0 83.2,73.6 82.9,74.2C82.6,74.8 82.9,74.2 82.6,74.6C82.3,75.0 82.7,74.6 82.3,75.0C82.0,75.4 82.2,74.8 81.9,75.4C81.6,76.0 81.9,75.6 81.6,76.2C81.4,76.9 81.7,76.3 81.4,76.7C81.1,77.1 81.5,76.4 81.1,77.1C80.7,77.7 81.1,77.3 80.7,77.9C80.3,78.5 80.7,77.7 80.3,78.3C79.9,78.9 80.1,78.5 79.8,79.1C79.6,79.7 79.9,79.1 79.7,79.5C79.6,79.9 79.7,79.5 79.6,79.9C79.5,80.3 79.7,79.7 79.5,80.3C79.2,80.9 79.4,80.5 79.1,81.1C78.8,81.7 79.0,81.1 78.9,81.5C78.7,82.0 78.9,81.3 78.7,82.0C78.4,82.6 78.5,82.4 78.4,82.8" fill="none" stroke="#fbbf24" stroke-width="0.6" stroke-linecap="round" stroke-linejoin="round" opacity="0.7"/>
  <path d="M88.9,62.8C88.7,63.0 88.9,62.6 88.4,63.2C88.0,63.8 88.3,63.4 88.0,64.0C87.7,64.6 88.0,64.0 87.8,64.4C87.5,64.8 87.8,64.2 87.5,64.8C87.3,65.5 87.5,65.1 87.2,65.7C86.9,66.3 87.3,65.7 86.9,66.1C86.6,66.5 86.9,66.1 86.5,66.5C86.1,66.8 86.6,66.2 86.2,66.8C85.7,67.4 86.2,66.8 85.7,67.7C85.2,68.5 85.6,67.9 85.1,68.5C84.7,69.0 85.1,68.5 84.7,68.8C84.3,69.2 84.8,68.6 84.3,69.2C83.9,69.8 85.8,66.8 83.8,70.0C81.7,73.3 82.2,72.7 80.2,75.7C78.3,78.7 80.2,75.4 79.9,76.1C79.6,76.7 79.9,76.3 79.6,76.9C79.4,77.5 79.7,76.7 79.4,77.3C79.1,77.9 79.4,77.3 79.1,78.1C78.8,79.0 79.0,78.3 78.8,79.0C78.5,79.6 78.7,78.9 78.5,79.4C78.2,79.8 78.5,79.4 78.3,79.8C78.1,80.2 78.3,79.6 78.1,80.2C77.8,80.8 78.0,80.4 77.8,81.0C77.5,81.6 77.8,81.0 77.6,81.4C77.5,81.8 77.5,81.6 77.4,81.8" fill="none" stroke="#fbbf24" stroke-width="0.6" stroke-linecap="round" stroke-linejoin="round" opacity="0.7"/>
  <path d="M88.6,47.3C88.5,47.1 88.5,47.3 88.4,46.9C88.3,46.5 88.4,47.1 88.4,46.5C88.4,45.8 88.5,46.3 88.4,45.6C88.4,45.0 88.3,45.8 88.3,45.2C88.2,44.5 88.4,44.8 88.3,44.3C88.1,43.9 88.2,44.7 88.0,44.3C87.8,43.8 88.0,44.1 87.9,43.4C87.8,42.7 88.0,43.6 87.8,43.0C87.5,42.3 87.6,42.7 87.3,42.1C86.9,41.4 87.4,42.1 87.1,41.6C86.8,41.1 87.0,41.8 86.7,41.1C86.4,40.5 86.7,40.9 86.4,40.2C86.2,39.6 86.5,40.0 86.1,39.8C85.8,39.5 86.1,40.2 85.7,39.7C85.4,39.3 85.8,39.5 85.5,38.9C85.2,38.2 85.5,38.9 85.2,38.4C84.8,37.9 85.2,38.4 84.8,37.9C84.4,37.5 84.7,37.9 84.4,37.4C84.0,37.0 84.5,37.5 84.1,37.0C83.8,36.5 84.1,37.0 83.6,36.5C83.2,36.0 83.7,36.5 83.2,36.0C82.8,35.6 83.2,36.0 82.8,35.6C82.3,35.1 82.8,35.6 82.3,35.1C81.8,34.6 82.2,35.3 81.8,34.6C81.4,33.9 81.9,34.4 81.4,33.7C81.0,33.0 81.4,33.9 81.0,33.2C80.6,32.5 81.1,32.8 80.6,32.3C80.1,31.9 80.5,32.5 80.0,32.3C79.5,32.0 79.9,32.5 79.5,31.8C79.2,31.1 79.6,31.6 79.2,30.9C78.9,30.2 79.3,30.9 78.8,30.4C78.3,29.9 78.7,30.4 78.3,29.9C77.8,29.5 78.3,30.2 77.8,29.5C77.4,28.8 77.8,29.2 77.4,28.6C77.0,27.9 77.4,28.6 77.0,28.1C76.6,27.6 77.1,28.1 76.6,27.6C76.1,27.1 76.6,27.6 76.1,27.1C75.5,26.6 76.0,27.3 75.5,26.6C75.1,26.0 75.6,26.4 75.2,25.7C74.7,25.1 75.2,25.5 74.7,25.3C74.2,25.0 74.6,25.7 74.2,25.2C73.8,24.7 75.4,26.6 73.9,24.3C72.3,22.0 72.8,22.7 71.2,20.6C69.6,18.5 71.2,20.6 70.6,20.1C70.1,19.6 70.6,20.1 70.1,19.6C69.7,19.2 70.0,19.8 69.7,19.2C69.3,18.5 69.8,19.0 69.4,18.3C69.1,17.6 69.5,18.1 69.0,17.8C68.5,17.5 68.9,18.2 68.4,17.7C67.9,17.3 68.4,17.5 68.1,16.8C67.7,16.2 68.0,17.1 67.6,16.4C67.2,15.7 67.7,15.9 67.3,15.5C66.9,15.0 67.2,15.7 66.8,15.4C66.4,15.2 66.8,15.6 66.5,15.0C66.2,14.3 66.6,14.8 66.2,14.1C65.9,13.4 66.2,14.1 65.8,13.6C65.4,13.1 65.8,13.6 65.4,13.1C65.0,12.7 65.4,13.1 65.1,12.7C64.7,12.2 65.1,12.7 64.6,12.2C64.2,11.7 64.4,12.0 64.2,11.7" fill="none" stroke="#fbbf24" stroke-width="0.6" stroke-linecap="round" stroke-linejoin="round" opacity="0.7"/>
  <path d="M66.3,5.1C66.6,4.9 66.2,5.0 67.0,4.7C67.7,4.3 67.0,4.5 67.8,4.4C68.6,4.2 67.8,4.4 68.5,4.4C69.2,4.5 68.4,4.6 69.2,4.5C70.0,4.4 69.2,4.5 70.1,4.2C70.9,3.8 70.1,4.2 70.9,3.8C71.7,3.5 70.8,3.8 71.7,3.5C72.6,3.1 71.8,3.3 72.7,3.2C73.6,3.0 72.7,3.4 73.5,3.2C74.4,3.1 73.6,3.0 74.5,2.9C75.3,2.8 74.5,2.9 75.3,3.0C76.2,3.1 75.2,3.2 76.1,3.1C77.1,3.0 76.2,2.9 77.2,2.8C78.1,2.7 77.1,3.0 78.1,2.9C79.0,2.7 78.1,2.7 79.1,2.5C80.1,2.4 79.1,2.8 80.0,2.6C81.0,2.5 80.1,2.4 81.0,2.3C81.9,2.2 81.0,2.5 81.8,2.4C82.7,2.3 81.9,2.2 82.7,2.1C83.6,1.9 82.7,2.3 83.5,2.1C84.4,2.0 84.0,2.0 84.4,1.8" fill="none" stroke="#fbbf24" stroke-width="0.6" stroke-linecap="round" stroke-linejoin="round" opacity="0.7"/>
  <path d="M90.0,78.8C89.9,79.1 90.0,78.6 89.9,79.3C89.8,79.9 89.9,79.5 89.8,80.1C89.8,80.8 89.9,80.1 89.7,80.5C89.6,80.9 89.6,80.5 89.5,80.9C89.5,81.4 89.6,80.7 89.6,81.4C89.6,82.0 89.6,81.8 89.6,82.2" fill="none" stroke="#fbbf24" stroke-width="0.6" stroke-linecap="round" stroke-linejoin="round" opacity="0.7"/>
  <path d="M96.4,77.8C96.1,78.2 96.3,78.2 95.9,78.6C95.6,79.0 96.0,78.2 95.6,78.6C95.2,79.0 95.6,78.8 95.1,79.4C94.6,80.0 95.1,79.2 94.6,79.8C94.1,80.4 94.5,80.0 94.1,80.6C93.6,81.2 93.9,80.8 93.7,81.0" fill="none" stroke="#fbbf24" stroke-width="0.6" stroke-linecap="round" stroke-linejoin="round" opacity="0.7"/>
  <path d="M95.1,37.3C95.1,37.7 95.1,37.5 95.1,38.1C95.0,38.8 95.0,38.4 95.1,38.6C95.1,38.8 95.2,38.2 95.2,38.6C95.2,39.0 95.2,38.6 95.1,39.4C95.0,40.3 95.1,39.7 95.0,40.3C94.9,40.9 95.1,40.3 94.9,40.7C94.8,41.1 94.9,40.5 94.8,41.1C94.6,41.7 94.7,41.5 94.6,42.0" fill="none" stroke="#fbbf24" stroke-width="0.6" stroke-linecap="round" stroke-linejoin="round" opacity="0.7"/>
  <path d="M82.4,67.7C82.3,67.9 82.5,67.7 82.3,68.2C82.2,68.6 82.4,68.0 82.1,68.6C81.8,69.2 82.2,68.6 81.7,69.4C81.2,70.2 81.6,69.6 81.1,70.2C80.6,70.8 81.1,70.2 80.7,70.6C80.4,71.0 81.0,68.4 80.4,71.0C79.8,73.5 80.1,72.9 79.6,75.6C79.0,78.3 79.5,75.8 79.3,76.4C79.2,77.1 79.3,76.4 79.3,76.9C79.2,77.3 79.3,76.9 79.3,77.3C79.3,77.7 79.4,77.1 79.3,77.7C79.2,78.3 79.2,78.1 79.0,78.6" fill="none" stroke="#fbbf24" stroke-width="0.6" stroke-linecap="round" stroke-linejoin="round" opacity="0.7"/>
  <path d="M99.4,65.2C99.6,65.0 99.4,65.2 99.8,64.8C100.3,64.5 99.9,65.1 100.3,64.5C100.8,63.9 100.4,64.0 100.8,63.7C101.2,63.3 100.7,64.1 101.1,63.7C101.5,63.3 101.3,63.7 101.7,62.9C102.0,62.1 101.8,62.5 101.9,62.1" fill="none" stroke="#fbbf24" stroke-width="0.6" stroke-linecap="round" stroke-linejoin="round" opacity="0.7"/>
  <path d="M90.1,80.6C90.5,80.6 90.0,80.6 90.9,80.7C91.7,80.7 90.9,80.7 91.7,80.7C92.6,80.8 91.8,80.7 92.5,80.8C93.3,80.9 92.5,80.8 93.3,80.9C94.1,81.0 93.3,80.9 94.2,81.0C95.0,81.1 94.1,81.2 94.9,81.1C95.8,81.0 95.0,80.9 95.8,80.7C96.7,80.6 95.9,80.7 96.6,80.8C97.4,80.9 96.6,80.8 97.4,80.9C98.2,81.0 97.4,80.9 98.2,81.0C99.0,81.1 98.6,81.0 99.0,81.1" fill="none" stroke="#fbbf24" stroke-width="0.6" stroke-linecap="round" stroke-linejoin="round" opacity="0.7"/>
  <path d="M75.1,68.3C74.9,68.7 75.0,68.5 74.8,69.1C74.6,69.7 74.8,69.1 74.6,69.5C74.5,69.9 74.7,69.5 74.5,69.9C74.3,70.3 74.5,69.7 74.2,70.3C73.9,70.9 74.2,70.3 73.9,71.1C73.6,72.0 73.7,71.6 73.5,72.0" fill="none" stroke="#fbbf24" stroke-width="0.6" stroke-linecap="round" stroke-linejoin="round" opacity="0.7"/>
  <ellipse cx="68.3" cy="58.5" rx="3.5" ry="2.4" fill="#0c0c0c" stroke="#ef4444" stroke-width="0.4" opacity="0.95"/>
  <text x="68.3" y="59.5" text-anchor="middle" font-family="sans-serif" font-size="2.6" font-weight="700" fill="#ffffff" opacity="0.95">OR</text>
</svg>