<svg xmlns="http://www.w3.org/2000/svg" viewBox="0 0 102.44941145180643 98.08150433173446" preserveAspectRatio="none">
  <path d="M57.7,29.4C57.6,29.3 57.6,29.4 57.5,29.0C57.4,28.6 57.4,28.7 57.4,28.2C57.4,27.6 57.4,27.7 57.4,27.3C57.4,26.9 57.4,27.3 57.4,26.9C57.3,26.5 57.4,26.6 57.3,26.0C57.2,25.5 57.2,25.6 57.1,25.2C56.9,24.8 56.9,25.2 56.8,24.8C56.7,24.3 56.8,24.3 56.7,23.9C56.7,23.5 56.7,23.8 56.6,23.5C56.5,23.2 56.6,23.5 56.4,23.0C56.3,22.6 56.3,22.8 56.2,22.2C56.1,21.6 56.1,21.9 56.0,21.3C55.9,20.8 55.9,20.9 55.9,20.5C55.8,20.1 55.8,20.3 55.7,20.1C55.6,19.8 55.7,20.1 55.6,19.6C55.5,19.2 55.5,19.1 55.4,18.8" fill="none" stroke="#ef4444" stroke-width="0.8" stroke-linecap="round" stroke-linejoin="round" opacity="0.9"/>
  <path d="M42.8,6.2C43.2,6.2 43.2,6.2 43.9,6.2C44.6,6.3 44.2,6.1 44.9,6.3C45.6,6.4 45.2,6.6 45.9,6.7C46.6,6.9 46.2,6.7 46.9,6.7C47.7,6.7 47.3,6.7 48.0,6.8C48.8,6.8 48.5,6.6 49.2,6.8C49.9,6.9 49.4,7.1 50.1,7.2C50.8,7.4 50.5,7.2 51.2,7.2C51.9,7.3 51.5,7.2 52.2,7.3C52.8,7.3 52.5,7.3 53.2,7.3C53.9,7.3 53.6,7.3 54.3,7.3C55.0,7.3 54.7,7.2 55.3,7.3C55.8,7.5 55.8,7.6 56.0,7.8" fill="none" stroke="#ef4444" stroke-width="0.8" stroke-linecap="round" stroke-linejoin="round" opacity="0.9"/>
  <path d="M85.1,12.9C85.2,12.7 85.2,12.9 85.4,12.4C85.6,11.8 85.5,11.8 85.8,11.3C86.0,10.8 85.9,11.3 86.1,10.9C86.4,10.5 86.3,10.5 86.5,10.0C86.8,9.6 86.7,10.1 86.9,9.6C87.1,9.2 87.1,9.4 87.2,8.8C87.4,8.2 87.3,8.2 87.4,7.9C87.6,7.7 87.5,8.2 87.7,7.9C87.9,7.7 87.8,7.5 88.0,7.1C88.2,6.7 88.1,7.0 88.2,6.7C88.3,6.4 88.3,6.7 88.4,6.3C88.5,5.8 88.6,5.7 88.6,5.4" fill="none" stroke="#ef4444" stroke-width="0.8" stroke-linecap="round" stroke-linejoin="round" opacity="0.9"/>
  <path d="M30.1,33.1C29.9,32.9 29.9,32.7 29.5,32.3C29.0,31.9 29.3,32.3 28.8,31.8C28.3,31.4 28.5,31.3 27.9,31.0C27.4,30.7 27.6,31.1 27.2,31.0C26.7,30.8 27.0,31.0 26.6,30.5C26.1,30.1 26.3,30.1 25.9,29.7C25.5,29.2 25.6,29.4 25.4,29.2" fill="none" stroke="#ef4444" stroke-width="0.8" stroke-linecap="round" stroke-linejoin="round" opacity="0.9"/>
  <path d="M60.5,18.9C60.7,18.7 60.7,18.7 61.3,18.5C61.8,18.2 61.5,18.3 62.1,18.1C62.6,17.8 62.4,17.9 63.0,17.7C63.5,17.4 63.2,17.7 63.8,17.2C64.3,16.8 64.1,16.7 64.7,16.4C65.3,16.1 65.0,16.6 65.6,16.4C66.2,16.3 65.8,16.4 66.4,16.0C66.9,15.6 66.7,15.6 67.2,15.2C67.7,14.8 67.4,15.1 68.0,14.8C68.5,14.5 68.3,14.7 68.9,14.4C69.5,14.0 69.2,14.2 69.8,13.8C70.4,13.3 70.1,13.6 70.7,13.1C71.2,12.7 71.0,12.6 71.4,12.3C71.9,12.0 71.6,12.6 72.2,12.3C72.7,12.0 72.4,11.9 73.0,11.5C73.6,11.1 73.3,11.5 73.9,11.1C74.5,10.7 74.2,10.7 74.7,10.2C75.2,9.8 74.9,10.1 75.4,9.8C75.8,9.6 75.6,9.8 76.0,9.4C76.5,9.0 76.3,9.0 76.8,8.6C77.3,8.2 77.0,8.4 77.5,8.2C77.9,7.9 77.7,8.2 78.1,7.8C78.6,7.3 78.3,7.3 78.7,6.9C79.1,6.5 78.9,6.9 79.3,6.5C79.7,6.1 79.6,6.0 80.0,5.7C80.4,5.4 80.4,5.7 80.5,5.7" fill="none" stroke="#ef4444" stroke-width="0.8" stroke-linecap="round" stroke-linejoin="round" opacity="0.9"/>
  <path d="M22.9,26.6C22.7,26.4 22.7,26.2 22.3,25.8C22.0,25.4 22.2,25.8 21.9,25.3C21.6,24.9 21.8,24.9 21.6,24.5C21.4,24.1 21.5,24.3 21.3,24.1C21.1,23.8 21.1,23.8 21.0,23.6" fill="none" stroke="#ef4444" stroke-width="0.8" stroke-linecap="round" stroke-linejoin="round" opacity="0.9"/>
  <path d="M56.5,37.9C56.6,37.6 56.6,37.5 56.7,37.1C56.9,36.6 56.8,36.9 56.9,36.6C57.1,36.4 57.0,36.6 57.1,36.2C57.2,35.8 57.2,35.9 57.3,35.4C57.4,34.8 57.3,34.9 57.4,34.5C57.4,34.1 57.4,34.4 57.6,34.1C57.7,33.8 57.7,34.1 57.7,33.7C57.7,33.3 57.6,33.4 57.7,32.8C57.7,32.3 57.8,32.4 57.8,32.0C57.8,31.6 57.7,32.0 57.7,31.6C57.7,31.1 57.8,31.1 57.8,30.7C57.8,30.3 57.8,30.4 57.8,30.3" fill="none" stroke="#fbbf24" stroke-width="0.6" stroke-linecap="round" stroke-linejoin="round" opacity="0.7"/>
  <path d="M72.4,20.8C72.5,20.8 72.5,21.0 72.8,20.8C73.1,20.7 73.0,20.8 73.2,20.4C73.4,20.0 73.3,20.0 73.5,19.6C73.8,19.1 73.7,19.4 73.9,19.1C74.1,18.9 73.9,19.0 74.1,18.7C74.3,18.4 74.3,18.4 74.4,18.3" fill="none" stroke="#fbbf24" stroke-width="0.6" stroke-linecap="round" stroke-linejoin="round" opacity="0.7"/>
  <path d="M25.6,38.6C25.3,38.4 25.3,38.4 24.8,38.1C24.4,37.8 24.6,37.9 24.1,37.7C23.6,37.6 23.9,37.7 23.4,37.7C22.9,37.7 23.1,37.8 22.6,37.7C22.1,37.5 22.4,37.5 21.9,37.2C21.5,36.9 21.5,36.9 21.3,36.8" fill="none" stroke="#fbbf24" stroke-width="0.6" stroke-linecap="round" stroke-linejoin="round" opacity="0.7"/>
  <path d="M11.4,28.1C11.3,28.0 11.4,28.1 11.1,27.7C10.9,27.3 10.9,27.3 10.7,26.8C10.5,26.4 10.6,26.7 10.5,26.4C10.3,26.1 10.3,26.4 10.2,26.0C10.2,25.5 10.3,25.7 10.2,25.1C10.1,24.6 10.2,24.6 10.0,24.3C9.9,24.0 9.8,24.5 9.7,24.3C9.7,24.0 9.8,23.8 9.9,23.4C10.0,23.0 9.9,23.4 10.0,23.0C10.1,22.6 10.1,22.6 10.2,22.1C10.2,21.7 10.1,22.0 10.1,21.7C10.2,21.4 10.2,21.7 10.3,21.3C10.5,20.9 10.4,21.0 10.6,20.5C10.7,19.9 10.6,19.9 10.7,19.6C10.8,19.3 10.8,19.9 10.9,19.6C11.0,19.3 10.9,19.3 11.0,18.8C11.1,18.2 11.1,18.3 11.1,17.9C11.1,17.5 11.1,17.8 11.1,17.5C11.1,17.2 11.2,17.5 11.2,17.1C11.2,16.7 11.1,16.6 11.1,16.2C11.1,15.8 11.2,16.1 11.2,15.8C11.2,15.5 11.1,15.8 11.0,15.4C11.0,14.9 11.0,14.9 11.0,14.5C11.0,14.1 11.1,14.4 11.0,14.1C10.9,13.8 10.8,13.8 10.7,13.7" fill="none" stroke="#fbbf24" stroke-width="0.6" stroke-linecap="round" stroke-linejoin="round" opacity="0.7"/>
  <path d="M31.3,7.7C31.6,7.7 31.6,7.9 32.1,7.7C32.7,7.6 32.4,7.6 32.9,7.3C33.5,7.0 33.2,7.0 33.7,6.9C34.3,6.8 34.0,6.9 34.6,6.9C35.1,6.9 34.8,7.1 35.3,6.9C35.9,6.8 35.6,6.7 36.2,6.5C36.8,6.4 36.5,6.5 37.1,6.5C37.7,6.6 37.4,6.7 38.0,6.6C38.6,6.4 38.3,6.3 39.0,6.2C39.6,6.0 39.2,6.2 39.9,6.2C40.5,6.2 40.2,6.2 40.9,6.2C41.5,6.2 41.5,6.2 41.8,6.2" fill="none" stroke="#fbbf24" stroke-width="0.6" stroke-linecap="round" stroke-linejoin="round" opacity="0.7"/>
  <path d="M56.0,7.8C56.3,7.8 56.3,7.6 56.8,7.8C57.4,7.9 57.2,8.1 57.8,8.2C58.4,8.4 58.1,8.1 58.6,8.2C59.2,8.4 58.9,8.4 59.4,8.7C60.0,9.0 59.7,8.8 60.3,9.1C60.8,9.4 60.5,9.4 61.0,9.6C61.6,9.7 61.3,9.6 61.9,9.6C62.5,9.6 62.2,9.4 62.8,9.6C63.4,9.7 63.1,9.9 63.7,10.0C64.2,10.2 64.0,9.9 64.5,10.0C65.1,10.2 64.8,10.3 65.4,10.5C66.0,10.6 65.6,10.5 66.3,10.5C66.9,10.5 66.7,10.4 67.4,10.5C68.1,10.7 67.7,10.8 68.4,11.0C69.0,11.1 68.7,10.8 69.2,11.0C69.8,11.1 69.5,11.3 70.1,11.4C70.7,11.6 70.2,11.4 71.0,11.4C71.8,11.5 71.5,11.3 72.4,11.5C73.3,11.6 72.9,11.8 73.6,11.9C74.3,12.1 74.0,11.8 74.6,11.9C75.1,12.1 74.7,12.2 75.1,12.4C75.6,12.5 75.3,12.4 76.0,12.4C76.6,12.4 76.4,12.3 77.0,12.4C77.6,12.6 77.3,12.7 77.8,12.8C78.2,13.0 78.0,12.7 78.5,12.9C79.0,13.0 78.7,13.0 79.2,13.3C79.7,13.6 79.4,13.6 80.0,13.7C80.5,13.9 80.3,13.6 80.8,13.8C81.3,13.9 81.3,14.0 81.5,14.2" fill="none" stroke="#fbbf24" stroke-width="0.6" stroke-linecap="round" stroke-linejoin="round" opacity="0.7"/>
  <path d="M56.1,22.6C56.2,22.3 56.3,22.2 56.5,21.8C56.7,21.4 56.6,21.8 56.7,21.4C56.8,20.9 56.8,20.9 56.9,20.5C57.0,20.1 56.9,20.5 57.0,20.1C57.1,19.7 57.1,19.7 57.3,19.2C57.4,18.8 57.2,19.1 57.4,18.8C57.6,18.5 57.6,18.8 57.9,18.4C58.1,18.0 58.0,18.1 58.1,17.6C58.3,17.0 58.1,17.1 58.3,16.7C58.6,16.3 58.5,16.6 58.8,16.3C59.0,16.0 58.8,16.2 59.0,15.9C59.2,15.6 59.2,15.6 59.3,15.5" fill="none" stroke="#fbbf24" stroke-width="0.6" stroke-linecap="round" stroke-linejoin="round" opacity="0.7"/>
  <path d="M66.4,11.4C66.7,11.2 66.8,11.1 67.3,10.9C67.9,10.8 67.5,10.8 68.0,11.0C68.5,11.1 68.3,11.3 68.9,11.4C69.5,11.6 69.2,11.4 69.7,11.4C70.3,11.4 70.0,11.4 70.5,11.4C71.1,11.4 70.8,11.4 71.3,11.5C71.9,11.5 71.6,11.5 72.1,11.5C72.6,11.5 72.6,11.5 72.9,11.5" fill="none" stroke="#fbbf24" stroke-width="0.6" stroke-linecap="round" stroke-linejoin="round" opacity="0.7"/>
  <path d="M74.3,32.7C74.3,32.6 74.3,32.6 74.4,32.3C74.5,32.0 74.4,32.3 74.6,31.9C74.7,31.5 74.7,31.5 74.9,31.0C75.0,30.6 75.0,30.9 75.1,30.6C75.2,30.3 75.2,30.5 75.3,30.2C75.4,29.9 75.3,30.1 75.4,29.8C75.5,29.5 75.4,29.8 75.5,29.4C75.7,28.9 75.6,28.9 75.8,28.5C75.9,28.1 75.9,28.4 76.0,28.1C76.2,27.8 76.1,28.0 76.3,27.7C76.4,27.4 76.3,27.7 76.5,27.3C76.6,26.8 76.5,26.8 76.6,26.4C76.8,26.0 75.8,27.7 77.0,26.0C78.2,24.3 79.1,23.1 80.3,21.4C81.5,19.7 80.4,21.1 80.6,21.0C80.7,20.8 80.6,21.3 80.8,21.0C81.0,20.7 81.0,20.6 81.2,20.1C81.4,19.7 81.3,20.0 81.5,19.7C81.7,19.4 81.7,19.6 81.9,19.3C82.1,19.0 81.8,19.6 82.1,18.9C82.3,18.2 82.4,17.9 82.7,17.2C83.0,16.5 82.7,17.0 83.0,16.8C83.2,16.5 83.1,16.6 83.4,16.4C83.6,16.1 83.5,16.4 83.7,15.9C83.9,15.5 83.8,15.5 83.9,15.1C84.1,14.7 84.0,15.1 84.2,14.7C84.4,14.3 84.3,14.2 84.5,13.8C84.8,13.4 84.8,13.6 84.9,13.4" fill="none" stroke="#fbbf24" stroke-width="0.6" stroke-linecap="round" stroke-linejoin="round" opacity="0.7"/>
  <path d="M88.6,5.4C88.7,5.1 88.7,5.1 88.7,4.6C88.8,4.0 88.8,4.0 88.8,3.7C88.9,3.4 88.8,4.0 88.9,3.7C89.0,3.4 89.1,3.4 89.1,2.9C89.2,2.3 89.1,2.6 89.0,2.0C89.0,1.5 89.1,1.5 89.0,1.2C88.9,0.9 88.9,1.2 88.8,1.2" fill="none" stroke="#fbbf24" stroke-width="0.6" stroke-linecap="round" stroke-linejoin="round" opacity="0.7"/>
  <path d="M60.7,50.7C61.0,50.6 61.1,50.4 61.6,50.3C62.1,50.2 61.7,50.5 62.3,50.3C62.8,50.2 62.6,50.0 63.2,49.9C63.8,49.8 63.5,49.9 64.0,49.9C64.6,49.9 64.2,50.1 64.8,50.0C65.3,49.8 65.1,49.7 65.7,49.5C66.3,49.4 66.0,49.6 66.6,49.6C67.1,49.6 66.8,49.6 67.4,49.6C67.9,49.6 67.7,49.6 68.3,49.6C68.9,49.6 68.5,49.7 69.1,49.6C69.7,49.5 69.4,49.5 70.0,49.2C70.6,48.9 70.3,48.9 70.8,48.8C71.4,48.7 71.1,48.9 71.6,48.8C72.1,48.7 71.8,48.5 72.3,48.4C72.8,48.3 72.6,48.5 73.1,48.4C73.6,48.3 73.4,48.1 73.9,48.0C74.4,47.9 74.1,48.2 74.6,48.0C75.0,47.9 74.9,47.7 75.3,47.6C75.8,47.5 75.7,47.6 75.9,47.6" fill="none" stroke="#fbbf24" stroke-width="0.6" stroke-linecap="round" stroke-linejoin="round" opacity="0.7"/>
  <path d="M51.4,56.9C51.1,57.0 51.1,57.2 50.6,57.3C50.1,57.4 50.4,57.3 49.8,57.3C49.3,57.3 49.5,57.2 48.9,57.3C48.3,57.4 48.6,57.6 48.0,57.7C47.5,57.8 47.8,57.7 47.3,57.7C46.7,57.7 46.9,57.5 46.4,57.7C45.8,57.8 46.1,57.9 45.5,58.1C45.0,58.2 45.3,58.1 44.8,58.1C44.2,58.0 44.5,58.0 43.9,58.0C43.3,58.0 43.6,58.0 43.0,58.0C42.5,58.0 42.8,58.0 42.3,58.0C41.7,58.0 42.0,58.0 41.4,58.0C40.8,58.0 41.1,58.0 40.6,58.0C40.0,58.0 40.3,58.0 39.7,58.0C39.1,57.9 39.4,57.9 38.9,57.9C38.3,57.9 38.7,57.9 38.1,57.9C37.6,57.9 37.8,57.9 37.3,57.9C36.7,57.9 37.0,57.9 36.5,57.9C36.0,57.9 36.0,57.9 35.7,57.9" fill="none" stroke="#fbbf24" stroke-width="0.6" stroke-linecap="round" stroke-linejoin="round" opacity="0.7"/>
  <path d="M76.3,39.1C76.0,39.1 76.0,39.1 75.5,39.1C75.0,39.1 75.3,39.1 74.7,39.1C74.2,39.1 74.4,39.1 73.8,39.1C73.2,39.1 73.5,39.1 72.9,39.1C72.4,39.1 72.7,39.1 72.1,39.1C71.6,39.0 71.8,39.2 71.3,39.0C70.8,38.9 71.1,38.8 70.5,38.6C70.0,38.5 70.3,38.6 69.7,38.6C69.1,38.6 69.4,38.6 68.8,38.6C68.3,38.6 68.6,38.6 68.0,38.6C67.5,38.5 67.8,38.5 67.2,38.5C66.7,38.5 66.9,38.5 66.4,38.5C65.8,38.5 66.1,38.5 65.6,38.5C65.0,38.5 65.3,38.5 64.7,38.5C64.1,38.5 64.3,38.5 63.8,38.5C63.2,38.5 63.5,38.6 63.0,38.5C62.4,38.3 62.7,38.2 62.1,38.0C61.5,37.9 61.8,38.0 61.3,38.0C60.8,38.0 61.0,38.1 60.5,38.0C59.9,37.8 59.9,37.7 59.7,37.5" fill="none" stroke="#fbbf24" stroke-width="0.6" stroke-linecap="round" stroke-linejoin="round" opacity="0.7"/>
  <path d="M39.1,38.0C38.8,38.0 38.8,38.1 38.3,38.0C37.8,37.8 38.1,37.8 37.6,37.5C37.2,37.2 37.4,37.4 37.0,37.1C36.5,36.8 36.8,37.0 36.3,36.7C35.9,36.4 36.1,36.5 35.7,36.2C35.2,35.9 35.4,35.9 34.9,35.8C34.4,35.6 34.6,35.9 34.2,35.8C33.7,35.6 33.9,35.8 33.5,35.3C33.1,34.9 33.4,34.9 32.9,34.5C32.5,34.0 32.7,34.3 32.2,34.0C31.8,33.7 32.0,33.8 31.5,33.6C31.0,33.4 32.8,35.0 30.8,33.6C28.7,32.1 27.4,30.8 25.4,29.2C23.4,27.6 25.1,29.1 24.8,28.8C24.5,28.5 24.7,28.7 24.5,28.4C24.3,28.1 24.4,28.4 24.2,27.9C24.0,27.5 24.1,27.5 23.9,27.1C23.7,26.7 23.9,26.9 23.7,26.7C23.6,26.4 23.7,26.5 23.5,26.2C23.3,25.9 23.3,26.2 23.1,25.8C23.0,25.4 23.1,25.4 23.0,24.9C23.0,24.5 23.0,24.8 22.9,24.5C22.8,24.2 23.0,24.4 22.8,24.1C22.7,23.8 22.6,23.8 22.5,23.7" fill="none" stroke="#fbbf24" stroke-width="0.6" stroke-linecap="round" stroke-linejoin="round" opacity="0.7"/>
  <path d="M50.7,23.8C50.9,23.6 50.8,23.6 51.3,23.4C51.7,23.1 51.5,23.1 52.0,23.0C52.5,22.8 52.2,23.1 52.7,23.0C53.2,22.8 52.9,22.8 53.5,22.6C54.0,22.3 53.7,22.6 54.2,22.2C54.7,21.7 54.5,21.7 55.0,21.3C55.4,20.9 55.1,21.2 55.6,20.9C56.1,20.6 55.8,20.6 56.4,20.5C57.0,20.4 56.8,20.6 57.4,20.5C58.0,20.4 57.6,20.4 58.1,20.1C58.7,19.8 58.5,20.0 59.0,19.7C59.5,19.4 59.5,19.4 59.7,19.3" fill="none" stroke="#fbbf24" stroke-width="0.6" stroke-linecap="round" stroke-linejoin="round" opacity="0.7"/>
  <path d="M80.5,5.7C80.7,5.4 80.7,5.3 81.0,4.8C81.2,4.4 81.1,4.8 81.3,4.4C81.6,4.0 81.5,3.9 81.8,3.6C82.1,3.3 82.0,3.8 82.3,3.6C82.5,3.4 82.4,3.4 82.5,3.0C82.7,2.5 82.6,2.7 82.7,2.3C82.9,2.0 82.7,2.3 82.8,1.9C82.9,1.5 82.9,1.3 83.1,1.1C83.2,0.8 83.1,1.1 83.2,1.1" fill="none" stroke="#fbbf24" stroke-width="0.6" stroke-linecap="round" stroke-linejoin="round" opacity="0.7"/>
  <path d="M28.1,32.7C27.9,32.4 28.0,32.3 27.6,31.8C27.3,31.4 27.5,31.7 27.1,31.4C26.8,31.1 26.8,31.1 26.5,31.0C26.2,30.8 26.4,31.1 26.1,30.9C25.9,30.8 25.9,30.9 25.7,30.5C25.4,30.1 25.6,30.1 25.3,29.7C25.1,29.2 25.2,29.5 24.9,29.2C24.6,28.9 24.7,29.1 24.3,28.8C24.0,28.5 24.2,28.8 24.0,28.4C23.7,27.9 23.8,27.9 23.5,27.5C23.3,27.1 24.0,28.4 23.2,27.1C22.3,25.8 21.9,25.1 21.0,23.6C20.2,22.2 20.9,23.2 20.6,22.8C20.3,22.3 20.4,22.6 20.2,22.3C20.0,22.1 20.1,22.2 20.0,21.9C19.8,21.6 19.9,21.8 19.7,21.5C19.5,21.2 19.5,21.5 19.3,21.1C19.1,20.6 19.2,20.6 19.0,20.2C18.8,19.8 18.9,20.1 18.7,19.8C18.5,19.5 18.5,19.5 18.4,19.3" fill="none" stroke="#fbbf24" stroke-width="0.6" stroke-linecap="round" stroke-linejoin="round" opacity="0.7"/>
  <path d="M68.0,16.7C68.3,16.6 68.3,16.7 68.7,16.5C69.2,16.3 68.9,16.4 69.4,16.1C69.8,15.8 69.5,15.9 70.0,15.7C70.5,15.4 70.3,15.4 70.9,15.3C71.4,15.1 71.1,15.4 71.6,15.3C72.0,15.1 71.8,15.0 72.3,14.9C72.8,14.7 72.6,15.0 73.1,14.9C73.6,14.7 73.3,14.6 73.8,14.5C74.2,14.3 74.0,14.5 74.5,14.5C74.9,14.5 74.5,14.5 75.2,14.5C76.0,14.5 75.9,14.7 76.7,14.5C77.5,14.4 77.0,14.2 77.5,14.1C78.1,14.0 77.8,14.3 78.3,14.1C78.8,14.0 78.6,13.9 79.1,13.7C79.7,13.6 79.4,13.7 79.9,13.7C80.5,13.8 80.2,13.9 80.8,13.8C81.3,13.6 81.0,13.5 81.5,13.3C82.0,13.2 81.8,13.4 82.3,13.4C82.8,13.3 82.6,13.3 83.1,13.2C83.6,13.0 83.4,13.0 83.9,13.0C84.4,12.9 84.2,13.1 84.7,13.0C85.3,12.9 85.0,12.7 85.5,12.6C86.0,12.4 85.7,12.6 86.3,12.6C86.8,12.6 86.6,12.7 87.1,12.6C87.6,12.5 87.3,12.3 87.9,12.2C88.4,12.1 88.1,12.3 88.6,12.2C89.1,12.1 89.2,11.9 89.4,11.8" fill="none" stroke="#fbbf24" stroke-width="0.6" stroke-linecap="round" stroke-linejoin="round" opacity="0.7"/>
  <ellipse cx="51.9" cy="34.9" rx="3.5" ry="3.7" fill="#0c0c0c" stroke="#ef4444" stroke-width="0.4" opacity="0.95"/>
  <text x="51.9" y="36.2" text-anchor="middle" font-family="sans-serif" font-size="3.5" font-weight="700" fill="#ffffff" opacity="0.95">OR</text>
</svg>