<svg xmlns="http://www.w3.org/2000/svg" viewBox="0 0 102.44941145180643 98.08150433173446" preserveAspectRatio="none">
  <path d="M19.7,23.2C19.5,22.9 19.3,22.6 18.9,22.3C18.6,22.0 18.6,22.1 18.3,21.9C18.0,21.6 18.0,21.6 17.7,21.4C17.3,21.2 17.3,21.3 17.0,21.0C16.6,20.7 16.6,20.7 16.3,20.3C15.9,20.0 15.9,20.0 15.5,19.7C15.2,19.4 15.2,19.5 14.9,19.2C14.5,19.0 14.7,19.2 14.3,18.8C13.9,18.4 13.7,18.0 13.3,17.5C12.9,17.1 12.9,17.4 12.6,17.1C12.3,16.8 12.3,16.7 12.1,16.2C11.9,15.8 11.9,15.7 11.7,15.4C11.5,15.0 11.5,15.2 11.3,14.9C11.1,14.7 11.1,14.6 10.9,14.3C10.7,14.0 10.7,14.0 10.5,13.6C10.3,13.3 10.2,13.1 10.0,12.8C9.8,12.5 9.8,12.7 9.7,12.4C9.5,12.0 9.5,11.8 9.3,11.5C9.2,11.2 9.2,11.4 9.0,11.1C8.9,10.7 8.9,10.5 8.8,10.2C8.6,9.9 8.5,10.1 8.3,9.8C8.2,9.5 8.1,9.1 8.1,8.9" fill="none" stroke="#ef4444" stroke-width="0.8" stroke-linecap="round" stroke-linejoin="round" opacity="0.9"/>
  <path d="M44.7,55.5C44.7,55.7 44.7,56.0 44.7,56.3C44.6,56.7 44.6,56.6 44.6,57.0C44.6,57.3 44.6,57.3 44.6,57.6C44.6,57.9 44.6,57.8 44.6,58.0C44.6,58.2 44.7,58.1 44.7,58.5C44.7,58.8 44.7,59.1 44.7,59.3" fill="none" stroke="#fbbf24" stroke-width="0.6" stroke-linecap="round" stroke-linejoin="round" opacity="0.7"/>
  <path d="M28.5,65.4C28.6,65.5 28.7,65.6 28.9,65.8C29.1,66.0 29.1,66.0 29.3,66.2C29.5,66.4 29.5,66.4 29.7,66.7C29.9,66.9 29.9,66.9 30.2,67.1C30.4,67.3 30.5,67.4 30.7,67.5" fill="none" stroke="#fbbf24" stroke-width="0.6" stroke-linecap="round" stroke-linejoin="round" opacity="0.7"/>
  <path d="M26.2,29.7C26.0,29.8 25.8,30.0 25.4,30.1C25.1,30.2 25.0,30.0 24.7,30.1C24.4,30.2 24.4,30.4 24.0,30.5C23.7,30.6 23.6,30.5 23.3,30.4C22.9,30.4 22.9,30.3 22.6,30.4C22.2,30.5 22.3,30.6 21.9,30.8C21.6,31.1 21.6,31.1 21.3,31.3C21.0,31.5 21.0,31.5 20.6,31.7C20.3,31.9 20.4,31.9 20.0,32.1C19.7,32.3 19.6,32.3 19.3,32.5C18.9,32.7 18.9,32.8 18.6,32.9C18.3,33.0 18.3,32.8 18.0,32.9C17.7,33.0 17.7,33.1 17.4,33.3C17.0,33.5 17.1,33.5 16.8,33.7C16.5,33.9 16.3,34.0 16.1,34.1" fill="none" stroke="#fbbf24" stroke-width="0.6" stroke-linecap="round" stroke-linejoin="round" opacity="0.7"/>
  <path d="M28.3,46.7C28.2,46.8 28.0,47.0 27.6,47.1C27.2,47.2 27.2,47.0 26.9,47.1C26.5,47.2 26.6,47.3 26.2,47.5C25.9,47.7 25.9,47.7 25.5,47.9C25.2,48.0 25.2,48.0 24.9,48.1C24.5,48.2 24.5,48.1 24.2,48.3C23.9,48.4 23.7,48.6 23.5,48.7" fill="none" stroke="#fbbf24" stroke-width="0.6" stroke-linecap="round" stroke-linejoin="round" opacity="0.7"/>
  <path d="M67.2,40.6C67.2,40.5 67.1,40.4 67.0,40.2C66.9,40.0 66.9,40.1 66.8,39.8C66.7,39.5 66.7,39.3 66.7,38.9C66.6,38.6 66.7,38.7 66.6,38.5C66.4,38.3 66.4,38.3 66.2,38.1C66.1,37.9 66.1,37.9 66.0,37.6C65.8,37.4 65.8,37.5 65.6,37.2C65.4,36.9 65.4,36.6 65.3,36.4C65.1,36.1 65.3,36.5 65.0,36.1C64.8,35.8 64.6,35.4 64.3,35.1C64.0,34.7 64.0,34.8 63.8,34.6C63.6,34.4 63.6,34.4 63.3,34.2C63.1,34.0 63.1,34.0 62.8,33.8C62.6,33.5 62.6,33.5 62.4,33.3C62.2,33.1 62.2,33.1 62.0,32.9C61.8,32.7 61.7,32.7 61.4,32.5C61.1,32.2 61.1,32.2 60.8,32.0C60.6,31.8 60.7,31.8 60.5,31.6C60.3,31.4 60.2,31.3 60.1,31.2" fill="none" stroke="#fbbf24" stroke-width="0.6" stroke-linecap="round" stroke-linejoin="round" opacity="0.7"/>
  <path d="M37.1,56.6C37.1,56.4 37.1,56.1 37.1,55.8C37.1,55.4 37.1,55.5 37.2,55.3C37.2,55.1 37.2,55.1 37.2,54.9C37.3,54.7 37.3,54.8 37.3,54.5C37.4,54.2 37.4,54.0 37.5,53.6C37.6,53.3 37.6,53.4 37.6,53.2C37.7,53.1 37.6,53.1 37.6,53.0C37.7,52.9 37.7,52.9 37.7,52.8" fill="none" stroke="#fbbf24" stroke-width="0.6" stroke-linecap="round" stroke-linejoin="round" opacity="0.7"/>
  <path d="M46.0,39.4C45.8,39.3 45.7,39.2 45.4,38.9C45.2,38.7 45.2,38.7 44.9,38.5C44.7,38.3 44.7,38.2 44.4,38.1C44.1,37.9 44.0,38.0 43.7,37.8C43.4,37.7 43.4,37.9 43.1,37.6C42.8,37.4 42.6,37.0 42.5,36.8" fill="none" stroke="#fbbf24" stroke-width="0.6" stroke-linecap="round" stroke-linejoin="round" opacity="0.7"/>
  <ellipse cx="38.6" cy="42.0" rx="3.5" ry="3.7" fill="#0c0c0c" stroke="#ef4444" stroke-width="0.4" opacity="0.95"/>
  <text x="38.6" y="43.3" text-anchor="middle" font-family="sans-serif" font-size="3.5" font-weight="700" fill="#ffffff" opacity="0.95">OR</text>
</svg>