<svg xmlns="http://www.w3.org/2000/svg" viewBox="0 0 102.27040591422573 107.44489710580129" preserveAspectRatio="none">
  <path d="M83.3,70.8C83.2,71.0 83.2,71.0 83.0,71.2C82.8,71.5 83.0,71.2 82.7,71.6C82.5,72.0 82.5,72.0 82.2,72.4C81.9,72.8 82.1,72.4 81.8,72.8C81.5,73.2 81.7,73.1 81.4,73.6C81.1,74.2 81.2,74.1 80.9,74.5C80.7,74.9 80.9,74.5 80.6,74.9C80.4,75.3 80.4,75.4 80.2,75.7" fill="none" stroke="#ef4444" stroke-width="0.8" stroke-linecap="round" stroke-linejoin="round" opacity="0.9"/>
  <path d="M73.4,23.8C73.2,23.5 73.3,23.4 73.0,22.9C72.6,22.5 72.7,22.8 72.4,22.4C72.0,22.1 72.2,22.3 71.9,22.0C71.6,21.7 71.8,22.0 71.5,21.5C71.3,21.0 71.3,20.9 71.2,20.6" fill="none" stroke="#ef4444" stroke-width="0.8" stroke-linecap="round" stroke-linejoin="round" opacity="0.9"/>
  <path d="M93.2,81.3C93.0,81.6 93.0,81.7 92.6,82.1C92.1,82.5 92.3,82.2 92.0,82.5C91.6,82.7 91.8,82.5 91.4,82.9C91.0,83.2 91.2,83.3 90.8,83.7C90.4,84.0 90.7,83.6 90.2,84.0C89.7,84.4 89.8,84.5 89.3,84.8C88.8,85.0 89.2,84.5 88.7,84.7C88.3,85.0 88.5,85.0 88.0,85.5C87.5,86.0 87.8,85.9 87.3,86.3C86.7,86.7 87.0,86.4 86.5,86.6C85.9,86.9 86.2,86.7 85.6,87.0C85.1,87.2 85.4,87.0 84.8,87.3C84.2,87.7 84.5,87.7 83.9,88.1C83.3,88.4 83.6,88.3 83.1,88.4C82.5,88.5 82.9,88.1 82.3,88.3C81.6,88.6 81.8,88.7 81.2,89.1C80.5,89.4 80.9,89.2 80.3,89.4C79.7,89.6 80.0,89.5 79.3,89.7C78.7,90.0 79.0,89.9 78.4,90.1C77.8,90.3 78.1,90.2 77.5,90.4C77.0,90.6 77.0,90.6 76.7,90.8" fill="none" stroke="#ef4444" stroke-width="0.8" stroke-linecap="round" stroke-linejoin="round" opacity="0.9"/>
  <path d="M93.5,45.7C93.4,46.0 93.4,46.0 93.2,46.5C93.1,47.1 93.2,47.0 93.0,47.4C92.8,47.8 92.9,47.5 92.7,47.8C92.5,48.0 92.6,47.8 92.4,48.2C92.2,48.6 92.3,48.6 92.1,49.0C91.9,49.4 92.1,49.0 91.9,49.4C91.7,49.8 91.8,49.7 91.6,50.2C91.4,50.8 91.5,50.7 91.2,51.1C90.9,51.5 91.0,51.0 90.8,51.4C90.6,51.8 90.6,51.7 90.5,52.3C90.3,52.8 90.4,52.7 90.2,53.1C90.1,53.5 90.2,53.1 90.0,53.5C89.8,53.9 89.9,53.8 89.6,54.3C89.4,54.9 89.6,54.3 89.2,55.1C88.9,56.0 88.9,56.0 88.6,56.8C88.2,57.6 88.4,57.2 88.2,57.6C87.9,58.0 88.1,57.6 87.8,58.0C87.6,58.4 87.7,58.4 87.4,58.8C87.1,59.2 87.3,58.8 87.0,59.2C86.8,59.6 86.9,59.5 86.7,60.0C86.5,60.6 86.6,60.3 86.3,60.9C86.1,61.4 86.2,61.3 85.9,61.7C85.7,62.1 85.8,61.8 85.5,62.1C85.2,62.3 85.3,62.0 85.1,62.4C84.8,62.8 85.0,62.7 84.7,63.3C84.5,63.8 84.5,63.8 84.3,64.1" fill="none" stroke="#ef4444" stroke-width="0.8" stroke-linecap="round" stroke-linejoin="round" opacity="0.9"/>
  <path d="M80.2,71.8C80.1,72.1 80.1,72.2 80.0,72.6C79.8,73.1 79.9,72.6 79.9,73.1C79.8,73.5 79.8,73.5 79.8,73.9C79.8,74.3 79.8,74.1 79.8,74.3C79.8,74.6 79.9,74.3 79.8,74.8C79.8,75.2 79.7,75.3 79.6,75.6" fill="none" stroke="#ef4444" stroke-width="0.8" stroke-linecap="round" stroke-linejoin="round" opacity="0.9"/>
  <path d="M73.3,72.4C73.3,72.5 73.3,72.4 73.2,72.8C73.0,73.2 72.9,73.2 72.7,73.6C72.6,74.0 72.7,73.6 72.6,74.0C72.4,74.4 72.5,74.3 72.4,74.8C72.2,75.4 72.2,75.3 72.2,75.7C72.1,76.1 72.2,75.7 72.2,76.1C72.1,76.5 72.1,76.5 72.0,77.0C71.9,77.4 72.0,77.0 71.9,77.4C71.8,77.8 71.7,77.8 71.7,78.2C71.6,78.6 71.7,78.5 71.7,78.6" fill="none" stroke="#ef4444" stroke-width="0.8" stroke-linecap="round" stroke-linejoin="round" opacity="0.9"/>
  <path d="M84.6,82.1C84.9,82.2 84.9,82.2 85.5,82.2C86.1,82.3 85.8,82.3 86.4,82.3C87.1,82.4 86.8,82.4 87.5,82.5C88.2,82.5 87.8,82.5 88.5,82.6C89.3,82.6 88.9,82.7 89.7,82.7C90.4,82.6 90.1,82.4 90.8,82.4C91.4,82.3 91.0,82.4 91.7,82.5C92.3,82.5 92.0,82.5 92.7,82.6C93.4,82.6 93.1,82.6 93.8,82.7C94.5,82.8 94.2,82.7 94.9,82.8C95.5,82.9 95.5,82.9 95.8,82.9" fill="none" stroke="#ef4444" stroke-width="0.8" stroke-linecap="round" stroke-linejoin="round" opacity="0.9"/>
  <path d="M83.4,73.0C83.4,73.1 83.4,73.0 83.2,73.4C83.1,73.8 83.1,73.8 82.9,74.2C82.7,74.6 82.8,74.4 82.6,74.6C82.4,74.9 82.5,74.8 82.3,75.0C82.1,75.3 82.1,75.0 81.9,75.4C81.7,75.8 81.8,75.8 81.6,76.2C81.5,76.7 81.6,76.4 81.4,76.7C81.2,76.9 81.4,76.6 81.1,77.1C80.9,77.5 80.9,77.5 80.7,77.9C80.4,78.3 80.6,77.9 80.3,78.3C80.0,78.7 80.0,78.7 79.8,79.1C79.7,79.5 79.8,79.2 79.7,79.5C79.7,79.8 79.7,79.6 79.6,79.9C79.5,80.2 79.6,79.9 79.5,80.3C79.3,80.7 79.3,80.7 79.1,81.1C78.9,81.5 79.0,81.3 78.9,81.5C78.7,81.8 78.9,81.5 78.7,82.0C78.5,82.4 78.5,82.5 78.4,82.8" fill="none" stroke="#fbbf24" stroke-width="0.6" stroke-linecap="round" stroke-linejoin="round" opacity="0.7"/>
  <path d="M88.9,62.8C88.8,63.0 88.7,62.8 88.4,63.2C88.1,63.6 88.2,63.6 88.0,64.0C87.8,64.4 87.9,64.2 87.8,64.4C87.6,64.7 87.7,64.4 87.5,64.8C87.3,65.3 87.4,65.3 87.2,65.7C87.0,66.1 87.1,65.8 86.9,66.1C86.7,66.3 86.8,66.2 86.5,66.5C86.3,66.7 86.4,66.4 86.2,66.8C85.9,67.2 86.0,67.1 85.7,67.7C85.3,68.2 85.5,68.1 85.1,68.5C84.8,68.9 85.0,68.6 84.7,68.8C84.4,69.1 84.6,68.8 84.3,69.2C84.0,69.6 85.2,67.9 83.8,70.0C82.4,72.2 81.5,73.7 80.2,75.7C78.9,77.7 80.1,75.7 79.9,76.1C79.7,76.5 79.8,76.5 79.6,76.9C79.5,77.3 79.6,76.9 79.4,77.3C79.2,77.7 79.3,77.6 79.1,78.1C78.9,78.7 78.9,78.5 78.8,79.0C78.6,79.4 78.7,79.1 78.5,79.4C78.3,79.6 78.4,79.5 78.3,79.8C78.1,80.0 78.3,79.8 78.1,80.2C77.9,80.6 77.9,80.6 77.8,81.0C77.6,81.4 77.7,81.1 77.6,81.4C77.5,81.7 77.5,81.7 77.4,81.8" fill="none" stroke="#fbbf24" stroke-width="0.6" stroke-linecap="round" stroke-linejoin="round" opacity="0.7"/>
  <path d="M88.6,47.3C88.5,47.2 88.5,47.2 88.4,46.9C88.3,46.6 88.4,46.9 88.4,46.5C88.4,46.0 88.5,46.0 88.4,45.6C88.4,45.2 88.3,45.6 88.3,45.2C88.2,44.7 88.4,44.6 88.3,44.3C88.2,44.0 88.1,44.6 88.0,44.3C87.8,44.0 87.9,43.8 87.9,43.4C87.8,43.0 88.0,43.4 87.8,43.0C87.6,42.5 87.5,42.5 87.3,42.1C87.1,41.6 87.3,41.9 87.1,41.6C86.9,41.3 86.9,41.6 86.7,41.1C86.5,40.7 86.6,40.7 86.4,40.2C86.3,39.8 86.4,40.0 86.1,39.8C85.9,39.6 86.0,40.1 85.7,39.7C85.5,39.4 85.7,39.3 85.5,38.9C85.3,38.4 85.4,38.7 85.2,38.4C84.9,38.1 85.1,38.2 84.8,37.9C84.5,37.6 84.6,37.8 84.4,37.4C84.1,37.1 84.4,37.3 84.1,37.0C83.9,36.7 83.9,36.8 83.6,36.5C83.3,36.2 83.5,36.4 83.2,36.0C83.0,35.7 83.1,35.9 82.8,35.6C82.5,35.2 82.6,35.4 82.3,35.1C82.0,34.8 82.1,35.1 81.8,34.6C81.5,34.1 81.7,34.2 81.4,33.7C81.2,33.2 81.3,33.7 81.0,33.2C80.7,32.8 81.0,32.7 80.6,32.3C80.3,32.0 80.4,32.4 80.0,32.3C79.6,32.1 79.8,32.2 79.5,31.8C79.3,31.3 79.5,31.4 79.2,30.9C79.0,30.4 79.1,30.7 78.8,30.4C78.4,30.1 78.6,30.3 78.3,29.9C78.0,29.6 78.1,29.9 77.8,29.5C77.5,29.0 77.7,29.0 77.4,28.6C77.1,28.1 77.3,28.4 77.0,28.1C76.7,27.8 76.9,27.9 76.6,27.6C76.3,27.3 76.4,27.5 76.1,27.1C75.7,26.8 75.8,27.1 75.5,26.6C75.2,26.2 75.4,26.2 75.2,25.7C74.9,25.3 75.0,25.4 74.7,25.3C74.4,25.1 74.5,25.5 74.2,25.2C73.9,24.9 74.9,25.9 73.9,24.3C72.9,22.8 72.3,22.0 71.2,20.6C70.1,19.2 71.0,20.4 70.6,20.1C70.3,19.8 70.5,20.0 70.1,19.6C69.8,19.3 69.9,19.6 69.7,19.2C69.4,18.7 69.7,18.7 69.4,18.3C69.2,17.8 69.3,18.0 69.0,17.8C68.7,17.6 68.7,18.1 68.4,17.7C68.1,17.4 68.3,17.3 68.1,16.8C67.8,16.4 67.9,16.8 67.6,16.4C67.4,15.9 67.5,15.8 67.3,15.5C67.0,15.2 67.0,15.6 66.8,15.4C66.5,15.2 66.7,15.4 66.5,15.0C66.3,14.5 66.5,14.5 66.2,14.1C66.0,13.6 66.1,13.9 65.8,13.6C65.5,13.3 65.6,13.4 65.4,13.1C65.1,12.8 65.3,13.0 65.1,12.7C64.8,12.3 64.9,12.5 64.6,12.2C64.4,11.9 64.4,11.9 64.2,11.7" fill="none" stroke="#fbbf24" stroke-width="0.6" stroke-linecap="round" stroke-linejoin="round" opacity="0.7"/>
  <path d="M66.3,5.1C66.5,4.9 66.4,4.9 67.0,4.7C67.5,4.5 67.3,4.4 67.8,4.4C68.3,4.3 68.0,4.4 68.5,4.4C69.0,4.5 68.7,4.6 69.2,4.5C69.8,4.4 69.5,4.4 70.1,4.2C70.6,3.9 70.4,4.1 70.9,3.8C71.5,3.6 71.1,3.7 71.7,3.5C72.3,3.3 72.1,3.2 72.7,3.2C73.3,3.1 73.0,3.3 73.5,3.2C74.1,3.2 73.9,3.0 74.5,2.9C75.0,2.8 74.8,2.9 75.3,3.0C75.9,3.1 75.5,3.2 76.1,3.1C76.8,3.0 76.5,2.8 77.2,2.8C77.8,2.7 77.4,2.9 78.1,2.9C78.7,2.8 78.5,2.6 79.1,2.5C79.8,2.5 79.4,2.7 80.0,2.6C80.7,2.6 80.4,2.4 81.0,2.3C81.6,2.2 81.3,2.5 81.8,2.4C82.4,2.3 82.1,2.1 82.7,2.1C83.3,2.0 83.0,2.2 83.5,2.1C84.1,2.1 84.1,1.9 84.4,1.8" fill="none" stroke="#fbbf24" stroke-width="0.6" stroke-linecap="round" stroke-linejoin="round" opacity="0.7"/>
  <path d="M90.0,78.8C90.0,79.0 89.9,78.8 89.9,79.3C89.8,79.7 89.9,79.7 89.8,80.1C89.8,80.5 89.8,80.3 89.7,80.5C89.6,80.8 89.6,80.7 89.5,80.9C89.5,81.2 89.6,80.9 89.6,81.4C89.6,81.8 89.6,82.0 89.6,82.2" fill="none" stroke="#fbbf24" stroke-width="0.6" stroke-linecap="round" stroke-linejoin="round" opacity="0.7"/>
  <path d="M96.4,77.8C96.2,78.1 96.2,78.3 95.9,78.6C95.7,78.9 95.9,78.3 95.6,78.6C95.4,78.8 95.4,79.0 95.1,79.4C94.8,79.8 95.0,79.4 94.6,79.8C94.3,80.2 94.4,80.2 94.1,80.6C93.8,81.0 93.8,80.8 93.7,81.0" fill="none" stroke="#fbbf24" stroke-width="0.6" stroke-linecap="round" stroke-linejoin="round" opacity="0.7"/>
  <path d="M95.1,37.3C95.1,37.6 95.1,37.7 95.1,38.1C95.0,38.6 95.0,38.4 95.1,38.6C95.1,38.7 95.2,38.3 95.2,38.6C95.2,38.9 95.1,38.9 95.1,39.4C95.0,40.0 95.1,39.9 95.0,40.3C95.0,40.7 95.0,40.4 94.9,40.7C94.8,41.0 94.9,40.7 94.8,41.1C94.6,41.5 94.6,41.7 94.6,42.0" fill="none" stroke="#fbbf24" stroke-width="0.6" stroke-linecap="round" stroke-linejoin="round" opacity="0.7"/>
  <path d="M82.4,67.7C82.3,67.9 82.4,67.9 82.3,68.2C82.2,68.4 82.3,68.2 82.1,68.6C81.9,69.0 82.0,68.8 81.7,69.4C81.3,69.9 81.4,69.8 81.1,70.2C80.8,70.6 81.0,70.3 80.7,70.6C80.5,70.8 80.8,69.3 80.4,71.0C80.0,72.6 79.9,73.8 79.6,75.6C79.2,77.4 79.4,76.0 79.3,76.4C79.2,76.9 79.3,76.6 79.3,76.9C79.3,77.1 79.3,77.0 79.3,77.3C79.3,77.6 79.3,77.3 79.3,77.7C79.2,78.1 79.1,78.3 79.0,78.6" fill="none" stroke="#fbbf24" stroke-width="0.6" stroke-linecap="round" stroke-linejoin="round" opacity="0.7"/>
  <path d="M99.4,65.2C99.6,65.1 99.5,65.1 99.8,64.8C100.1,64.6 100.0,64.9 100.3,64.5C100.7,64.1 100.6,63.9 100.8,63.7C101.1,63.4 100.8,63.9 101.1,63.7C101.4,63.4 101.4,63.4 101.7,62.9C101.9,62.3 101.8,62.3 101.9,62.1" fill="none" stroke="#fbbf24" stroke-width="0.6" stroke-linecap="round" stroke-linejoin="round" opacity="0.7"/>
  <path d="M90.1,80.6C90.4,80.6 90.3,80.6 90.9,80.7C91.4,80.7 91.2,80.7 91.7,80.7C92.3,80.8 92.0,80.8 92.5,80.8C93.1,80.9 92.7,80.9 93.3,80.9C93.8,81.0 93.6,80.9 94.2,81.0C94.7,81.1 94.4,81.2 94.9,81.1C95.5,81.0 95.3,80.8 95.8,80.7C96.4,80.7 96.1,80.8 96.6,80.8C97.1,80.9 96.9,80.9 97.4,80.9C97.9,81.0 97.7,80.9 98.2,81.0C98.7,81.0 98.7,81.0 99.0,81.1" fill="none" stroke="#fbbf24" stroke-width="0.6" stroke-linecap="round" stroke-linejoin="round" opacity="0.7"/>
  <path d="M75.1,68.3C75.0,68.5 75.0,68.7 74.8,69.1C74.7,69.5 74.7,69.2 74.6,69.5C74.5,69.8 74.7,69.6 74.5,69.9C74.4,70.2 74.4,69.9 74.2,70.3C74.0,70.7 74.1,70.6 73.9,71.1C73.7,71.7 73.7,71.7 73.5,72.0" fill="none" stroke="#fbbf24" stroke-width="0.6" stroke-linecap="round" stroke-linejoin="round" opacity="0.7"/>
  <ellipse cx="68.3" cy="58.5" rx="3.5" ry="3.3" fill="#0c0c0c" stroke="#ef4444" stroke-width="0.4" opacity="0.95"/>
  <text x="68.3" y="59.7" text-anchor="middle" font-family="sans-serif" font-size="3.1" font-weight="700" fill="#ffffff" opacity="0.95">OR</text>
</svg>