<svg xmlns="http://www.w3.org/2000/svg" viewBox="0 0 102.27040591422573 107.44489710580129" preserveAspectRatio="none">
  <path d="M78.7,38.8C78.7,38.7 78.6,38.2 78.6,38.0C78.5,37.7 78.4,37.8 78.4,37.5C78.3,37.3 78.2,37.0 78.2,36.7C78.1,36.4 78.1,36.1 78.1,35.9C78.1,35.6 78.0,35.6 78.1,35.4C78.1,35.3 78.1,35.2 78.1,35.0C78.1,34.8 77.9,34.4 77.9,34.2C77.8,33.9 77.8,33.5 77.8,33.3C77.8,33.1 77.9,33.1 77.9,32.9C77.9,32.7 77.9,32.3 77.9,32.0C77.9,31.7 77.9,31.4 77.9,31.2C77.9,30.9 77.9,30.9 77.9,30.7C77.8,30.5 77.7,30.2 77.7,29.9C77.7,29.6 77.8,29.2 77.8,29.0C77.8,28.8 77.9,28.8 77.9,28.6C77.9,28.4 77.8,27.9 77.8,27.7C77.8,27.5 77.9,27.5 78.0,27.3C78.0,27.1 78.0,26.6 78.0,26.4" fill="none" stroke="#ef4444" stroke-width="0.8" stroke-linecap="round" stroke-linejoin="round" opacity="0.9"/>
  <path d="M38.2,30.2C38.3,30.1 38.6,29.9 38.8,29.7C38.9,29.4 38.9,29.0 39.1,28.8C39.3,28.6 39.5,28.4 39.7,28.3C39.9,28.2 40.1,28.4 40.3,28.2C40.4,28.1 40.4,27.6 40.5,27.3C40.6,27.1 40.8,27.1 40.9,26.9C41.1,26.6 41.2,26.2 41.3,26.0C41.4,25.7 41.5,25.7 41.7,25.5C41.8,25.3 42.0,25.3 42.2,25.0C42.3,24.8 42.5,24.3 42.6,24.1C42.7,23.9 42.9,23.8 43.0,23.7C43.1,23.5 43.2,23.4 43.4,23.2C43.5,23.0 43.7,22.4 43.8,22.3" fill="none" stroke="#ef4444" stroke-width="0.8" stroke-linecap="round" stroke-linejoin="round" opacity="0.9"/>
  <path d="M68.1,63.5C68.2,63.5 68.7,63.4 68.9,63.4C69.2,63.5 69.5,63.7 69.7,63.8C70.0,63.9 70.3,63.9 70.6,64.1C70.9,64.3 71.2,64.7 71.5,64.9C71.8,65.1 72.2,65.2 72.4,65.2" fill="none" stroke="#ef4444" stroke-width="0.8" stroke-linecap="round" stroke-linejoin="round" opacity="0.9"/>
  <path d="M70.7,28.5C70.7,28.4 70.8,28.2 70.9,28.0C70.9,27.8 70.9,27.4 71.0,27.2C71.0,26.9 71.1,26.9 71.1,26.7C71.1,26.5 71.1,26.1 71.0,25.9C71.0,25.6 70.9,25.2 70.9,25.0C70.9,24.9 71.0,25.1 71.0,25.0C71.0,24.9 70.9,24.4 70.9,24.2C70.8,23.9 70.8,23.5 70.7,23.3C70.7,23.1 70.7,23.1 70.6,22.9C70.6,22.7 70.4,22.3 70.3,22.1C70.2,21.8 70.1,21.5 70.0,21.2C70.0,21.0 70.1,21.0 70.0,20.8C70.0,20.6 69.9,20.2 69.9,20.0C69.8,19.7 69.7,19.4 69.6,19.1C69.5,18.9 69.4,18.5 69.4,18.3C69.4,18.1 69.5,17.9 69.5,17.9" fill="none" stroke="#ef4444" stroke-width="0.8" stroke-linecap="round" stroke-linejoin="round" opacity="0.9"/>
  <path d="M36.1,10.6C36.1,10.6 36.2,10.4 36.2,10.2C36.3,10.0 36.2,9.5 36.3,9.3C36.3,9.1 36.4,9.0 36.5,8.9C36.5,8.7 36.5,8.7 36.5,8.4C36.5,8.2 36.5,7.9 36.5,7.6C36.5,7.3 36.5,6.9 36.5,6.7" fill="none" stroke="#ef4444" stroke-width="0.8" stroke-linecap="round" stroke-linejoin="round" opacity="0.9"/>
  <path d="M30.5,34.0C30.4,33.9 30.3,33.8 30.1,33.6C29.9,33.4 29.7,33.1 29.5,32.8C29.3,32.5 29.0,32.2 28.8,32.0C28.6,31.8 28.5,31.8 28.3,31.6C28.1,31.5 28.0,31.5 27.8,31.3C27.6,31.1 27.5,30.7 27.3,30.4C27.1,30.2 27.0,29.9 26.8,29.6C26.5,29.4 26.2,29.1 25.9,28.9C25.7,28.6 25.6,28.3 25.4,28.1C25.3,27.9 25.3,27.9 25.2,27.7C25.0,27.5 24.9,27.1 24.7,26.9C24.6,26.6 24.4,26.2 24.3,26.0C24.2,25.8 24.2,25.8 24.1,25.6C24.0,25.4 23.8,25.0 23.7,24.8C23.7,24.6 23.7,24.6 23.6,24.4C23.5,24.2 23.3,23.7 23.3,23.6" fill="none" stroke="#ef4444" stroke-width="0.8" stroke-linecap="round" stroke-linejoin="round" opacity="0.9"/>
  <path d="M80.4,45.9C80.4,45.9 80.4,45.7 80.4,45.5C80.4,45.3 80.4,44.9 80.3,44.6C80.3,44.4 80.3,44.4 80.3,44.2C80.3,44.1 80.3,44.0 80.3,43.8C80.2,43.6 80.1,43.2 80.1,42.9C80.0,42.7 80.0,42.7 80.0,42.5C79.9,42.4 79.9,42.3 79.8,42.1C79.7,41.9 79.5,41.6 79.4,41.3C79.3,41.0 79.3,40.7 79.2,40.5C79.1,40.3 79.1,40.2 79.1,40.0C79.0,39.9 78.9,39.7 78.9,39.6" fill="none" stroke="#fbbf24" stroke-width="0.6" stroke-linecap="round" stroke-linejoin="round" opacity="0.7"/>
  <path d="M78.0,26.4C78.0,26.3 78.1,26.1 78.1,26.0C78.2,25.8 78.2,25.8 78.2,25.5C78.2,25.3 78.1,24.9 78.1,24.7C78.0,24.5 78.1,24.4 78.0,24.3C78.0,24.1 77.9,24.1 77.9,23.9C77.8,23.6 77.8,23.3 77.8,23.0C77.7,22.7 77.7,22.4 77.7,22.2C77.6,21.9 77.5,22.0 77.5,21.7C77.4,21.5 77.3,21.2 77.2,20.9C77.1,20.6 76.9,20.2 76.8,20.1C76.7,20.0 76.7,20.3 76.6,20.1C76.5,20.0 76.5,19.6 76.4,19.3C76.3,19.0 76.2,18.7 76.1,18.5C76.0,18.3 75.8,18.2 75.6,18.1C75.5,17.9 75.4,17.8 75.2,17.7C75.1,17.6 75.0,17.5 74.8,17.3C74.7,17.1 74.6,16.7 74.5,16.5C74.3,16.3 74.3,16.2 74.2,16.1C74.1,16.0 74.0,15.8 73.9,15.7C73.8,15.6 73.7,15.5 73.6,15.3C73.5,15.1 73.2,14.7 73.1,14.5C73.1,14.3 73.1,14.1 73.1,14.0" fill="none" stroke="#fbbf24" stroke-width="0.6" stroke-linecap="round" stroke-linejoin="round" opacity="0.7"/>
  <path d="M39.4,34.8C39.6,34.7 40.0,34.6 40.2,34.7C40.5,34.7 40.9,35.0 41.2,35.0C41.5,35.0 41.8,34.9 42.1,34.9C42.3,34.9 42.5,34.9 42.8,34.8C43.2,34.8 43.5,34.8 43.9,34.7C44.2,34.7 44.5,34.7 44.8,34.6C45.1,34.6 45.4,34.6 45.7,34.5C46.1,34.5 46.4,34.5 46.7,34.4C47.0,34.4 47.2,34.4 47.5,34.3C47.8,34.3 48.1,34.2 48.5,34.2C48.8,34.3 49.2,34.5 49.5,34.6C49.8,34.6 50.0,34.4 50.4,34.5C50.7,34.5 51.2,34.7 51.5,34.8C51.8,34.8 52.0,34.7 52.2,34.7C52.5,34.7 52.8,34.6 53.1,34.6C53.4,34.7 53.8,34.8 54.1,34.9C54.4,35.1 54.6,35.2 54.9,35.3C55.2,35.4 55.6,35.6 55.8,35.6C56.1,35.7 56.3,35.6 56.5,35.5C56.7,35.5 56.9,35.4 57.1,35.5C57.3,35.5 57.6,35.7 57.9,35.8C58.1,35.9 58.5,36.1 58.6,36.2" fill="none" stroke="#fbbf24" stroke-width="0.6" stroke-linecap="round" stroke-linejoin="round" opacity="0.7"/>
  <path d="M19.0,7.7C18.8,7.7 18.4,7.8 18.2,7.8C17.9,7.7 17.6,7.6 17.3,7.4C17.0,7.3 16.8,7.2 16.4,7.1C16.1,7.0 15.7,6.8 15.4,6.8C15.2,6.7 15.0,6.9 14.7,6.9C14.5,6.8 14.1,6.6 13.8,6.5C13.6,6.5 13.3,6.7 13.0,6.6C12.7,6.5 12.4,6.0 12.1,5.8C11.8,5.7 11.6,6.0 11.3,5.9C11.0,5.9 10.6,5.7 10.3,5.6C10.0,5.5 9.6,5.4 9.4,5.3C9.1,5.2 8.9,5.0 8.6,4.9C8.4,4.9 8.2,5.0 8.0,5.0C7.8,4.9 7.4,4.7 7.3,4.6" fill="none" stroke="#fbbf24" stroke-width="0.6" stroke-linecap="round" stroke-linejoin="round" opacity="0.7"/>
  <path d="M33.5,35.8C33.6,35.7 33.7,35.2 33.7,34.9C33.8,34.7 33.9,34.6 34.0,34.5C34.2,34.3 34.4,34.1 34.5,34.0C34.7,33.8 34.8,33.7 35.0,33.5C35.1,33.4 35.3,33.3 35.5,33.0C35.6,32.8 35.7,32.4 35.9,32.1C36.1,31.9 36.3,31.8 36.5,31.6C36.7,31.5 37.0,31.3 37.2,31.1C37.4,31.0 37.6,30.7 37.7,30.6" fill="none" stroke="#fbbf24" stroke-width="0.6" stroke-linecap="round" stroke-linejoin="round" opacity="0.7"/>
  <path d="M43.8,22.3C43.9,22.2 44.1,22.0 44.1,21.8C44.2,21.7 44.2,21.5 44.2,21.4C44.3,21.2 44.4,21.1 44.6,20.9C44.7,20.8 44.8,20.7 44.9,20.4C45.0,20.2 45.0,19.8 45.0,19.6C45.1,19.3 45.3,19.3 45.3,19.1C45.4,19.0 45.6,18.7 45.6,18.7" fill="none" stroke="#fbbf24" stroke-width="0.6" stroke-linecap="round" stroke-linejoin="round" opacity="0.7"/>
  <path d="M68.2,21.0C68.3,20.9 68.5,20.8 68.6,20.5C68.7,20.3 68.7,19.9 68.8,19.7C68.9,19.4 69.0,19.3 69.1,19.2C69.2,19.0 69.3,18.9 69.3,18.7C69.4,18.6 69.5,18.4 69.6,18.3C69.7,18.1 69.8,18.0 70.0,17.8C70.1,17.7 70.3,17.5 70.4,17.3C70.5,17.2 70.6,17.0 70.7,16.9" fill="none" stroke="#fbbf24" stroke-width="0.6" stroke-linecap="round" stroke-linejoin="round" opacity="0.7"/>
  <path d="M43.4,29.6C43.5,29.7 44.0,29.9 44.3,30.0C44.6,30.0 44.8,29.9 45.0,29.9C45.3,29.9 45.6,29.8 45.8,29.8C46.1,29.8 46.4,29.7 46.7,29.7C46.9,29.7 47.1,29.6 47.4,29.6C47.7,29.7 48.1,29.9 48.4,30.0C48.7,30.0 48.9,29.8 49.2,29.9C49.5,29.9 49.8,30.2 50.1,30.2C50.3,30.3 50.6,30.1 50.9,30.1C51.2,30.2 51.5,30.4 51.8,30.5C52.1,30.5 52.3,30.3 52.6,30.4C52.9,30.4 53.2,30.7 53.5,30.7C53.8,30.7 54.1,30.6 54.4,30.6C54.7,30.7 55.0,30.8 55.4,30.9C55.7,31.0 56.1,31.2 56.4,31.3C56.8,31.3 57.0,31.2 57.3,31.2C57.6,31.1 57.9,31.1 58.2,31.1C58.5,31.0 58.8,30.9 59.1,31.0C59.4,31.0 59.7,31.3 60.0,31.3C60.3,31.4 60.6,31.2 60.9,31.2C61.2,31.3 61.5,31.4 61.8,31.6C62.1,31.7 62.4,31.8 62.8,31.9C63.1,32.0 63.5,32.1 63.8,32.2C64.1,32.3 64.3,32.4 64.5,32.6C64.8,32.7 65.0,32.9 65.3,32.9C65.5,33.0 65.9,32.8 66.0,32.8" fill="none" stroke="#fbbf24" stroke-width="0.6" stroke-linecap="round" stroke-linejoin="round" opacity="0.7"/>
  <path d="M59.6,61.0C59.8,61.0 60.2,61.3 60.5,61.3C60.7,61.4 61.0,61.2 61.2,61.2C61.5,61.3 61.9,61.5 62.1,61.6C62.4,61.6 62.5,61.5 62.8,61.5C63.1,61.6 63.4,61.7 63.7,61.8C64.0,62.0 64.4,62.1 64.7,62.2C64.9,62.3 65.1,62.4 65.4,62.5C65.7,62.6 66.1,62.7 66.4,62.9C66.7,63.0 66.2,62.8 67.2,63.2C68.2,63.6 71.4,64.9 72.4,65.2C73.3,65.6 72.7,65.1 72.9,65.2C73.2,65.3 73.5,65.8 73.7,66.0C73.9,66.1 74.0,66.1 74.2,66.3C74.4,66.5 74.6,67.0 74.8,67.1C75.0,67.3 75.2,67.1 75.3,67.1" fill="none" stroke="#fbbf24" stroke-width="0.6" stroke-linecap="round" stroke-linejoin="round" opacity="0.7"/>
  <path d="M54.7,8.7C54.8,8.7 55.1,8.7 55.3,8.6C55.5,8.5 55.7,8.3 55.9,8.1C56.2,8.0 56.4,7.8 56.6,7.6C56.9,7.4 57.1,7.2 57.3,7.1C57.6,7.0 57.9,7.1 58.1,7.0C58.4,6.9 58.6,6.7 58.8,6.5C59.1,6.4 59.3,6.1 59.6,6.0C59.8,5.9 60.1,6.0 60.4,5.9C60.7,5.9 61.0,5.9 61.3,5.8C61.6,5.8 61.9,5.8 62.2,5.7C62.5,5.7 62.9,5.7 63.2,5.6C63.4,5.6 63.7,5.6 63.9,5.6C64.2,5.5 64.5,5.5 64.8,5.5C65.1,5.4 65.4,5.4 65.6,5.4C65.9,5.4 66.2,5.3 66.3,5.3" fill="none" stroke="#fbbf24" stroke-width="0.6" stroke-linecap="round" stroke-linejoin="round" opacity="0.7"/>
  <path d="M58.9,35.7C58.9,35.9 58.8,36.4 58.7,36.6C58.6,36.8 58.5,36.9 58.3,37.1C58.2,37.2 58.0,37.5 57.8,37.6C57.7,37.6 57.5,37.5 57.3,37.6C57.1,37.7 57.0,37.9 56.8,38.1C56.7,38.2 56.4,38.5 56.3,38.6" fill="none" stroke="#fbbf24" stroke-width="0.6" stroke-linecap="round" stroke-linejoin="round" opacity="0.7"/>
  <path d="M41.5,35.4C41.5,35.3 41.6,35.1 41.7,35.0C41.8,34.8 41.9,34.7 42.0,34.5C42.1,34.3 42.2,34.3 42.3,34.0C42.4,33.8 42.5,33.4 42.6,33.1C42.7,32.9 42.8,32.8 42.9,32.7C43.1,32.5 43.2,32.4 43.4,32.2C43.5,32.0 43.7,31.9 43.9,31.7C44.1,31.6 44.2,31.4 44.4,31.2C44.6,31.1 44.7,30.9 44.8,30.8C45.0,30.6 45.1,30.4 45.2,30.3" fill="none" stroke="#fbbf24" stroke-width="0.6" stroke-linecap="round" stroke-linejoin="round" opacity="0.7"/>
  <path d="M72.0,23.6C72.2,23.6 72.5,23.5 72.8,23.5C73.1,23.6 73.4,23.8 73.6,23.9C73.9,23.9 74.1,23.7 74.3,23.8C74.6,23.8 74.9,24.0 75.2,24.1C75.4,24.3 75.7,24.4 76.0,24.5C76.2,24.5 76.6,24.4 76.8,24.4C77.1,24.4 77.3,24.3 77.6,24.3C77.9,24.4 78.2,24.5 78.5,24.6C78.8,24.8 79.1,24.9 79.4,25.0C79.6,25.0 79.8,24.9 80.1,24.9C80.3,25.0 80.7,25.2 80.9,25.3" fill="none" stroke="#fbbf24" stroke-width="0.6" stroke-linecap="round" stroke-linejoin="round" opacity="0.7"/>
  <path d="M45.0,29.9C45.0,29.9 45.2,29.9 45.3,29.8C45.4,29.8 45.6,29.6 45.6,29.4C45.7,29.2 45.7,28.7 45.7,28.5C45.8,28.3 45.8,28.2 45.9,28.1C45.9,27.9 46.1,27.8 46.2,27.6C46.3,27.5 46.4,27.4 46.5,27.1C46.6,26.9 46.6,26.5 46.6,26.3C46.7,26.1 46.8,26.0 46.9,25.8C47.0,25.7 47.0,25.6 47.1,25.4C47.1,25.1 47.2,24.7 47.3,24.5C47.4,24.3 47.6,24.2 47.7,24.0C47.8,23.9 47.9,23.7 48.0,23.6C48.1,23.4 48.2,23.2 48.3,23.1C48.4,22.9 48.4,22.8 48.5,22.6C48.5,22.5 48.6,22.4 48.6,22.2C48.7,22.0 48.7,21.5 48.8,21.3C48.9,21.1 49.1,21.0 49.3,20.8C49.4,20.7 49.6,20.5 49.7,20.4C49.9,20.2 50.0,20.0 50.1,19.9" fill="none" stroke="#fbbf24" stroke-width="0.6" stroke-linecap="round" stroke-linejoin="round" opacity="0.7"/>
  <path d="M67.4,37.8C67.5,37.8 67.7,37.6 67.8,37.4C67.9,37.1 67.9,36.7 68.1,36.5C68.2,36.3 68.4,36.2 68.5,36.0C68.6,35.8 68.7,35.4 68.8,35.1C68.9,34.8 68.9,34.4 69.0,34.2C69.0,34.1 69.2,34.4 69.3,34.2C69.4,34.1 69.4,33.5 69.5,33.3C69.5,33.1 69.7,33.1 69.7,32.9C69.8,32.6 69.6,32.2 69.7,32.0C69.7,31.8 69.8,31.8 69.9,31.6C69.9,31.3 69.9,30.9 69.9,30.7C70.0,30.5 70.0,30.5 70.1,30.4C70.1,30.3 70.1,30.2 70.2,30.0C70.2,29.9 70.4,29.5 70.4,29.4" fill="none" stroke="#fbbf24" stroke-width="0.6" stroke-linecap="round" stroke-linejoin="round" opacity="0.7"/>
  <path d="M46.1,8.3C46.0,8.2 45.5,8.0 45.2,8.0C45.0,7.9 44.8,8.0 44.5,8.0C44.3,8.1 44.0,8.2 43.6,8.1C43.3,8.1 43.0,7.8 42.7,7.8C42.4,7.7 42.2,7.8 42.0,7.9C41.7,7.9 41.4,7.9 41.1,8.0C40.9,8.0 40.6,8.0 40.3,8.0C40.1,8.1 39.9,8.1 39.6,8.1C39.4,8.1 39.0,8.2 38.7,8.2C38.4,8.2 38.1,8.3 37.9,8.3C37.6,8.3 37.4,8.3 37.1,8.4C36.8,8.4 36.5,8.4 36.2,8.5C35.9,8.5 35.6,8.5 35.4,8.6" fill="none" stroke="#fbbf24" stroke-width="0.6" stroke-linecap="round" stroke-linejoin="round" opacity="0.7"/>
  <path d="M34.7,16.8C34.7,16.6 34.8,16.1 34.9,15.9C34.9,15.7 35.0,15.6 35.0,15.5C35.1,15.3 35.3,15.2 35.4,15.0C35.5,14.8 35.5,14.8 35.6,14.5C35.7,14.3 35.7,13.9 35.7,13.7C35.8,13.5 35.8,13.4 35.8,13.2C35.9,13.1 35.9,13.0 35.9,12.8C36.0,12.6 36.0,12.1 36.1,11.9C36.1,11.7 36.2,11.6 36.2,11.5" fill="none" stroke="#fbbf24" stroke-width="0.6" stroke-linecap="round" stroke-linejoin="round" opacity="0.7"/>
  <path d="M54.9,42.2C54.7,42.1 54.2,41.9 53.9,41.8C53.7,41.8 53.5,41.9 53.3,41.9C53.0,41.9 52.6,41.6 52.3,41.6C52.1,41.5 51.8,41.6 51.6,41.6C51.3,41.7 51.1,41.8 50.9,41.7C50.6,41.7 50.2,41.4 50.0,41.4" fill="none" stroke="#fbbf24" stroke-width="0.6" stroke-linecap="round" stroke-linejoin="round" opacity="0.7"/>
  <path d="M52.2,48.9C52.1,48.8 51.7,48.6 51.5,48.5C51.3,48.4 51.1,48.3 50.9,48.2C50.7,48.0 50.4,47.9 50.2,47.8C50.0,47.7 49.7,47.5 49.5,47.4C49.3,47.4 49.2,47.5 49.0,47.5C48.8,47.4 48.6,47.3 48.3,47.1C48.1,47.0 47.8,46.9 47.6,46.8C47.4,46.7 47.2,46.6 47.0,46.4C46.7,46.2 46.3,45.8 46.1,45.7C45.9,45.5 45.8,45.8 45.6,45.7C45.4,45.7 45.1,45.5 44.9,45.4C44.7,45.2 44.7,45.2 44.2,45.0C43.8,44.8 42.8,44.1 42.3,43.9C41.9,43.7 42.0,43.7 41.8,43.5C41.6,43.4 41.5,43.4 41.2,43.2C41.0,43.0 40.7,42.6 40.5,42.4C40.3,42.2 40.2,42.1 40.0,42.0C39.8,41.9 39.6,41.7 39.4,41.6C39.2,41.6 39.1,41.8 39.0,41.7C38.8,41.6 38.6,41.1 38.4,40.9C38.2,40.7 38.0,40.6 37.9,40.5C37.7,40.4 37.6,40.3 37.4,40.1C37.2,40.0 37.0,39.9 36.8,39.8C36.6,39.6 36.5,39.6 36.3,39.4C36.1,39.2 36.0,38.8 35.8,38.6C35.6,38.4 35.4,38.3 35.3,38.2C35.1,38.1 34.9,38.0 34.7,37.8C34.6,37.7 34.5,37.6 34.3,37.4C34.2,37.3 34.0,37.3 33.9,37.1C33.7,36.9 33.5,36.5 33.3,36.3C33.1,36.1 33.0,36.0 32.9,35.9C32.7,35.8 32.5,35.7 32.3,35.5C32.1,35.3 31.8,34.9 31.6,34.7C31.4,34.5 31.1,34.4 31.0,34.4" fill="none" stroke="#fbbf24" stroke-width="0.6" stroke-linecap="round" stroke-linejoin="round" opacity="0.7"/>
  <path d="M23.3,23.6C23.3,23.5 23.2,23.4 23.1,23.2C23.1,22.9 23.1,22.6 23.0,22.3C23.0,22.0 23.0,21.7 23.0,21.5C23.0,21.2 23.1,21.2 23.0,21.0C23.0,20.9 22.9,20.8 22.9,20.6C22.9,20.4 22.8,20.0 22.8,19.8C22.8,19.5 22.8,19.0 22.8,18.9C22.8,18.8 23.0,19.0 23.0,18.9C23.0,18.7 23.0,18.2 23.0,18.0C23.0,17.8 23.0,17.8 22.9,17.6C22.9,17.4 22.8,17.0 22.8,16.8C22.7,16.5 22.7,16.5 22.7,16.3C22.7,16.2 22.6,16.1 22.6,15.9C22.6,15.7 22.5,15.3 22.5,15.1C22.5,14.9 22.5,14.8 22.6,14.6C22.6,14.5 22.6,14.3 22.6,14.2" fill="none" stroke="#fbbf24" stroke-width="0.6" stroke-linecap="round" stroke-linejoin="round" opacity="0.7"/>
  <path d="M28.2,14.9C28.2,14.7 28.4,14.2 28.5,14.0C28.7,13.8 28.9,14.0 29.0,14.0C29.2,13.9 29.3,13.6 29.5,13.5C29.6,13.3 29.9,13.1 30.0,13.0C30.1,12.8 30.2,12.7 30.3,12.5C30.4,12.4 30.6,12.2 30.8,12.0C31.0,11.9 31.1,11.7 31.3,11.6C31.5,11.4 31.7,11.2 31.9,11.1C32.1,11.0 32.3,11.0 32.6,11.0C32.8,11.0 33.1,11.0 33.3,10.9C33.5,10.8 33.7,10.6 33.9,10.4C34.1,10.3 34.3,10.1 34.6,9.9C34.8,9.8 35.1,9.5 35.4,9.4C35.7,9.3 35.9,9.4 36.2,9.3C36.5,9.2 36.7,9.0 37.0,8.8C37.2,8.6 37.5,8.4 37.7,8.3C38.0,8.2 38.1,8.3 38.4,8.2C38.6,8.2 38.9,8.3 39.2,8.2C39.4,8.1 39.6,7.8 39.9,7.7C40.1,7.6 40.4,7.6 40.7,7.6C40.9,7.5 41.3,7.6 41.5,7.5C41.7,7.4 41.9,7.1 42.1,7.0C42.3,6.9 42.6,6.9 42.9,6.9C43.1,6.9 43.5,6.8 43.7,6.8" fill="none" stroke="#fbbf24" stroke-width="0.6" stroke-linecap="round" stroke-linejoin="round" opacity="0.7"/>
  <path d="M26.3,34.4C26.2,34.4 26.1,34.6 25.9,34.5C25.8,34.3 25.6,33.9 25.4,33.7C25.3,33.4 25.2,33.0 25.1,32.8C25.0,32.6 24.8,32.6 24.7,32.4C24.6,32.3 24.5,32.1 24.5,32.0" fill="none" stroke="#fbbf24" stroke-width="0.6" stroke-linecap="round" stroke-linejoin="round" opacity="0.7"/>
  <path d="M49.4,23.4C49.3,23.3 48.9,23.1 48.7,23.1C48.4,23.0 48.3,23.1 48.1,23.1C47.9,23.1 47.6,23.2 47.4,23.2C47.1,23.1 46.9,23.0 46.6,22.8C46.3,22.7 46.1,22.6 45.8,22.5C45.6,22.4 45.3,22.3 45.1,22.1C44.8,22.0 44.6,21.9 44.4,21.8C44.1,21.7 44.0,21.5 43.7,21.4C43.5,21.3 43.2,21.1 43.0,21.1C42.7,21.0 42.6,21.2 42.3,21.1C42.1,21.1 41.8,20.9 41.5,20.8C41.2,20.7 41.0,20.6 40.7,20.5C40.4,20.3 40.1,20.2 39.8,20.1C39.5,20.1 39.4,20.2 39.1,20.2C38.8,20.2 38.5,19.9 38.2,19.9C37.9,19.8 37.7,20.0 37.4,19.9C37.1,19.9 36.8,19.6 36.5,19.6C36.3,19.6 36.0,19.7 35.7,19.7C35.4,19.7 36.0,19.9 34.9,19.8C33.7,19.7 29.8,19.3 28.6,19.1C27.4,19.0 28.0,18.9 27.7,18.8C27.4,18.8 27.1,18.9 26.7,18.9C26.4,18.9 26.1,19.0 25.8,19.0C25.5,19.0 25.2,19.1 24.9,19.1C24.6,19.1 24.3,19.2 24.0,19.2C23.8,19.2 23.5,19.3 23.2,19.3C22.9,19.2 22.6,19.0 22.3,19.0C21.9,18.9 21.7,19.0 21.4,19.0C21.1,19.1 20.9,19.2 20.6,19.1C20.4,19.1 20.1,18.9 19.8,18.8C19.4,18.7 19.1,18.6 18.8,18.5C18.5,18.3 18.2,18.2 17.9,18.1C17.6,18.0 17.2,17.9 16.9,17.8C16.6,17.7 16.4,17.5 16.2,17.4C15.9,17.4 15.7,17.6 15.5,17.5C15.2,17.5 15.0,17.4 14.8,17.2C14.5,17.0 14.2,16.6 13.9,16.4C13.7,16.2 13.4,16.2 13.2,16.0C13.0,15.9 12.8,15.8 12.6,15.7C12.4,15.6 12.1,15.5 11.9,15.3C11.6,15.1 11.4,14.7 11.2,14.5C11.0,14.3 10.8,14.4 10.6,14.2C10.4,14.0 10.1,13.5 9.9,13.4C9.7,13.3 9.6,13.6 9.4,13.4C9.2,13.3 8.8,12.8 8.7,12.7C8.5,12.5 8.4,12.5 8.2,12.3C8.0,12.1 7.8,11.6 7.6,11.5C7.4,11.4 7.3,11.7 7.1,11.5C6.9,11.4 6.8,10.9 6.6,10.7C6.5,10.5 6.3,10.5 6.2,10.3C6.0,10.1 5.9,9.6 5.9,9.5C5.8,9.4 5.8,9.7 5.7,9.5C5.6,9.4 5.4,8.9 5.2,8.7C5.1,8.5 5.0,8.4 4.9,8.3" fill="none" stroke="#fbbf24" stroke-width="0.6" stroke-linecap="round" stroke-linejoin="round" opacity="0.7"/>
  <circle cx="52.9" cy="32.6" r="3.5" fill="#0c0c0c" stroke="#ef4444" stroke-width="0.4" opacity="0.95"/>
  <text x="52.9" y="33.8" text-anchor="middle" font-family="sans-serif" font-size="3.5" font-weight="700" fill="#ffffff" opacity="0.95">OR</text>
</svg>