<svg xmlns="http://www.w3.org/2000/svg" viewBox="0 0 102.27040591422573 107.44489710580129" preserveAspectRatio="none">
  <path d="M83.3,36.6C83.3,36.5 83.1,36.3 83.0,36.2C82.9,36.1 82.9,36.0 82.7,35.8C82.6,35.6 82.4,35.2 82.2,35.0C82.1,34.8 81.9,34.8 81.8,34.6C81.6,34.4 81.5,34.1 81.4,33.8C81.2,33.5 81.1,33.2 80.9,33.0C80.8,32.8 80.8,32.8 80.6,32.6C80.5,32.4 80.3,31.9 80.2,31.8" fill="none" stroke="#ef4444" stroke-width="0.8" stroke-linecap="round" stroke-linejoin="round" opacity="0.9"/>
  <path d="M73.4,83.6C73.3,83.8 73.1,84.3 73.0,84.5C72.8,84.7 72.6,84.8 72.4,85.0C72.2,85.2 72.0,85.3 71.9,85.5C71.7,85.6 71.6,85.7 71.5,85.9C71.4,86.2 71.2,86.7 71.2,86.8" fill="none" stroke="#ef4444" stroke-width="0.8" stroke-linecap="round" stroke-linejoin="round" opacity="0.9"/>
  <path d="M93.2,26.1C93.1,26.0 92.8,25.5 92.6,25.3C92.3,25.1 92.2,25.1 92.0,25.0C91.8,24.8 91.6,24.8 91.4,24.6C91.2,24.4 91.0,24.0 90.8,23.8C90.6,23.6 90.4,23.6 90.2,23.4C89.9,23.2 89.6,22.8 89.3,22.7C89.1,22.5 89.0,22.8 88.7,22.7C88.5,22.6 88.3,22.2 88.0,21.9C87.8,21.7 87.5,21.3 87.3,21.2C87.0,21.0 86.7,20.9 86.5,20.8C86.2,20.7 85.9,20.6 85.6,20.5C85.3,20.4 85.1,20.3 84.8,20.1C84.5,19.9 84.2,19.6 83.9,19.4C83.6,19.2 83.3,19.1 83.1,19.0C82.8,19.0 82.6,19.2 82.3,19.1C82.0,19.0 81.5,18.5 81.2,18.4C80.9,18.2 80.6,18.1 80.3,18.0C80.0,17.9 79.6,17.8 79.3,17.7C79.0,17.6 78.7,17.5 78.4,17.4C78.1,17.3 77.8,17.1 77.5,17.0C77.2,16.9 76.9,16.7 76.7,16.7" fill="none" stroke="#ef4444" stroke-width="0.8" stroke-linecap="round" stroke-linejoin="round" opacity="0.9"/>
  <path d="M93.5,61.7C93.4,61.6 93.3,61.2 93.2,60.9C93.1,60.6 93.1,60.3 93.0,60.1C92.9,59.9 92.8,59.8 92.7,59.7C92.6,59.5 92.5,59.5 92.4,59.3C92.3,59.1 92.2,58.7 92.1,58.4C92.0,58.2 92.0,58.2 91.9,58.0C91.8,57.8 91.7,57.5 91.6,57.2C91.5,56.9 91.3,56.6 91.2,56.4C91.1,56.2 90.9,56.2 90.8,56.0C90.7,55.8 90.5,55.5 90.5,55.2C90.4,54.9 90.3,54.6 90.2,54.3C90.1,54.1 90.1,54.1 90.0,53.9C89.9,53.7 89.8,53.4 89.6,53.1C89.5,52.8 89.4,52.7 89.2,52.3C89.0,51.9 88.7,51.1 88.6,50.7C88.4,50.2 88.3,50.0 88.2,49.8C88.0,49.6 87.9,49.6 87.8,49.4C87.7,49.2 87.5,48.8 87.4,48.6C87.3,48.4 87.1,48.4 87.0,48.2C86.9,48.0 86.8,47.7 86.7,47.4C86.6,47.1 86.5,46.9 86.3,46.6C86.2,46.3 86.1,46.0 85.9,45.8C85.8,45.6 85.7,45.5 85.5,45.4C85.4,45.3 85.2,45.2 85.1,45.0C84.9,44.8 84.8,44.5 84.7,44.2C84.6,43.9 84.4,43.5 84.3,43.4" fill="none" stroke="#ef4444" stroke-width="0.8" stroke-linecap="round" stroke-linejoin="round" opacity="0.9"/>
  <path d="M80.2,35.6C80.2,35.5 80.0,35.0 80.0,34.8C79.9,34.6 79.9,34.6 79.9,34.4C79.8,34.2 79.8,33.7 79.8,33.5C79.8,33.3 79.8,33.3 79.8,33.1C79.8,33.0 79.9,32.9 79.8,32.7C79.8,32.5 79.6,32.0 79.6,31.8" fill="none" stroke="#ef4444" stroke-width="0.8" stroke-linecap="round" stroke-linejoin="round" opacity="0.9"/>
  <path d="M73.3,35.1C73.3,35.0 73.3,34.9 73.2,34.7C73.1,34.5 72.8,34.1 72.7,33.8C72.7,33.6 72.6,33.6 72.6,33.4C72.5,33.2 72.4,32.9 72.4,32.6C72.3,32.3 72.2,32.0 72.2,31.8C72.1,31.6 72.2,31.5 72.2,31.3C72.1,31.1 72.0,30.7 72.0,30.5C71.9,30.3 71.9,30.3 71.9,30.1C71.8,29.9 71.7,29.5 71.7,29.2C71.6,29.0 71.7,28.9 71.7,28.8" fill="none" stroke="#ef4444" stroke-width="0.8" stroke-linecap="round" stroke-linejoin="round" opacity="0.9"/>
  <path d="M84.6,25.3C84.7,25.3 85.2,25.2 85.5,25.2C85.8,25.2 86.1,25.1 86.4,25.1C86.8,25.1 87.2,25.0 87.5,25.0C87.9,25.0 88.2,24.9 88.5,24.9C88.9,24.9 89.3,24.7 89.7,24.8C90.1,24.8 90.4,25.0 90.8,25.1C91.1,25.1 91.4,25.0 91.7,25.0C92.0,25.0 92.4,24.9 92.7,24.9C93.1,24.8 93.5,24.8 93.8,24.8C94.2,24.7 94.6,24.7 94.9,24.7C95.2,24.6 95.6,24.6 95.8,24.6" fill="none" stroke="#ef4444" stroke-width="0.8" stroke-linecap="round" stroke-linejoin="round" opacity="0.9"/>
  <path d="M83.4,34.4C83.4,34.4 83.3,34.2 83.2,34.0C83.2,33.8 83.0,33.4 82.9,33.2C82.8,33.0 82.7,32.9 82.6,32.8C82.5,32.7 82.4,32.5 82.3,32.4C82.2,32.3 82.0,32.2 81.9,32.0C81.8,31.8 81.7,31.4 81.6,31.2C81.6,31.0 81.5,30.9 81.4,30.8C81.3,30.7 81.2,30.6 81.1,30.4C81.0,30.2 80.8,29.8 80.7,29.6C80.5,29.4 80.4,29.4 80.3,29.2C80.2,29.0 79.9,28.6 79.8,28.4C79.8,28.2 79.8,28.1 79.7,28.0C79.7,27.8 79.7,27.7 79.6,27.5C79.6,27.4 79.6,27.3 79.5,27.1C79.4,26.9 79.2,26.5 79.1,26.3C79.0,26.1 78.9,26.0 78.9,25.9C78.8,25.8 78.8,25.7 78.7,25.5C78.6,25.3 78.4,24.8 78.4,24.7" fill="none" stroke="#fbbf24" stroke-width="0.6" stroke-linecap="round" stroke-linejoin="round" opacity="0.7"/>
  <path d="M88.9,44.6C88.8,44.5 88.6,44.4 88.4,44.2C88.3,44.0 88.1,43.6 88.0,43.4C87.9,43.2 87.8,43.1 87.8,43.0C87.7,42.9 87.6,42.8 87.5,42.6C87.4,42.4 87.3,42.0 87.2,41.8C87.1,41.6 87.0,41.5 86.9,41.4C86.8,41.2 86.6,41.1 86.5,41.0C86.4,40.9 86.3,40.8 86.2,40.6C86.0,40.4 85.9,40.1 85.7,39.8C85.5,39.5 85.3,39.2 85.1,39.0C85.0,38.8 84.8,38.7 84.7,38.6C84.6,38.5 84.5,38.4 84.3,38.2C84.2,38.0 84.5,38.5 83.8,37.4C83.1,36.3 80.9,32.8 80.2,31.8C79.6,30.8 80.0,31.6 79.9,31.4C79.8,31.2 79.7,30.8 79.6,30.5C79.6,30.3 79.5,30.3 79.4,30.1C79.3,29.9 79.2,29.6 79.1,29.3C79.0,29.0 78.8,28.7 78.8,28.5C78.7,28.3 78.6,28.2 78.5,28.1C78.4,28.0 78.3,27.8 78.3,27.7C78.2,27.5 78.2,27.5 78.1,27.3C78.0,27.1 77.8,26.7 77.8,26.5C77.7,26.2 77.7,26.2 77.6,26.0C77.6,25.9 77.5,25.7 77.4,25.6" fill="none" stroke="#fbbf24" stroke-width="0.6" stroke-linecap="round" stroke-linejoin="round" opacity="0.7"/>
  <path d="M88.6,60.1C88.6,60.2 88.4,60.4 88.4,60.6C88.4,60.7 88.4,60.8 88.4,61.0C88.4,61.2 88.4,61.6 88.4,61.8C88.4,62.1 88.3,62.1 88.3,62.3C88.3,62.5 88.3,63.0 88.3,63.1C88.2,63.3 88.1,63.0 88.0,63.2C87.9,63.3 87.9,63.8 87.9,64.0C87.8,64.3 87.9,64.3 87.8,64.5C87.7,64.7 87.4,65.2 87.3,65.4C87.2,65.6 87.2,65.7 87.1,65.8C87.0,66.0 86.8,66.1 86.7,66.3C86.6,66.5 86.5,67.0 86.4,67.2C86.3,67.4 86.3,67.6 86.1,67.7C86.0,67.7 85.9,67.5 85.7,67.7C85.6,67.9 85.6,68.4 85.5,68.6C85.4,68.8 85.3,68.9 85.2,69.0C85.1,69.2 84.9,69.4 84.8,69.5C84.6,69.7 84.5,69.8 84.4,70.0C84.2,70.1 84.2,70.3 84.1,70.4C84.0,70.6 83.8,70.8 83.6,70.9C83.5,71.1 83.4,71.2 83.2,71.4C83.1,71.6 82.9,71.7 82.8,71.9C82.6,72.0 82.5,72.2 82.3,72.4C82.1,72.5 82.0,72.6 81.8,72.8C81.7,73.1 81.6,73.5 81.4,73.7C81.3,74.0 81.1,74.0 81.0,74.2C80.9,74.4 80.8,74.9 80.6,75.1C80.5,75.3 80.2,75.1 80.0,75.2C79.8,75.3 79.7,75.4 79.5,75.7C79.4,75.9 79.4,76.3 79.2,76.5C79.1,76.8 78.9,76.9 78.8,77.0C78.6,77.2 78.4,77.3 78.3,77.5C78.1,77.7 78.0,77.8 77.8,78.0C77.7,78.2 77.5,78.7 77.4,78.9C77.3,79.1 77.1,79.2 77.0,79.4C76.9,79.5 76.7,79.7 76.6,79.8C76.4,80.0 76.2,80.2 76.1,80.3C75.9,80.5 75.7,80.6 75.5,80.8C75.4,81.0 75.3,81.5 75.2,81.7C75.0,81.9 74.9,82.1 74.7,82.2C74.5,82.3 74.3,82.1 74.2,82.2C74.1,82.4 74.4,82.4 73.9,83.1C73.4,83.9 71.7,86.1 71.2,86.8C70.7,87.5 70.8,87.2 70.6,87.3C70.5,87.5 70.3,87.6 70.1,87.8C70.0,88.0 69.8,88.1 69.7,88.3C69.6,88.5 69.5,88.9 69.4,89.2C69.3,89.4 69.2,89.6 69.0,89.6C68.8,89.7 68.6,89.5 68.4,89.7C68.2,89.9 68.2,90.4 68.1,90.6C67.9,90.8 67.7,90.9 67.6,91.1C67.5,91.3 67.4,91.8 67.3,92.0C67.1,92.1 66.9,91.9 66.8,92.0C66.7,92.1 66.6,92.3 66.5,92.5C66.4,92.7 66.3,93.1 66.2,93.4C66.1,93.6 66.0,93.7 65.8,93.8C65.7,94.0 65.5,94.2 65.4,94.3C65.3,94.5 65.2,94.6 65.1,94.8C64.9,94.9 64.8,95.1 64.6,95.3C64.5,95.4 64.3,95.7 64.2,95.7" fill="none" stroke="#fbbf24" stroke-width="0.6" stroke-linecap="round" stroke-linejoin="round" opacity="0.7"/>
  <path d="M66.3,102.4C66.4,102.4 66.7,102.6 67.0,102.7C67.2,102.9 67.5,103.0 67.8,103.1C68.0,103.1 68.3,103.0 68.5,103.0C68.7,103.0 69.0,102.9 69.2,102.9C69.5,103.0 69.8,103.2 70.1,103.3C70.4,103.4 70.6,103.5 70.9,103.6C71.2,103.7 71.4,103.9 71.7,104.0C72.0,104.1 72.4,104.2 72.7,104.3C73.0,104.3 73.3,104.2 73.5,104.2C73.8,104.2 74.2,104.5 74.5,104.5C74.8,104.6 75.0,104.5 75.3,104.4C75.6,104.4 75.8,104.3 76.1,104.4C76.5,104.4 76.9,104.6 77.2,104.7C77.5,104.7 77.7,104.5 78.1,104.6C78.4,104.6 78.8,104.9 79.1,104.9C79.4,104.9 79.7,104.8 80.0,104.8C80.3,104.8 80.7,105.1 81.0,105.1C81.3,105.2 81.5,105.0 81.8,105.0C82.1,105.1 82.4,105.3 82.7,105.4C83.0,105.4 83.3,105.3 83.5,105.3C83.8,105.3 84.2,105.6 84.4,105.6" fill="none" stroke="#fbbf24" stroke-width="0.6" stroke-linecap="round" stroke-linejoin="round" opacity="0.7"/>
  <path d="M90.0,28.6C90.0,28.5 89.9,28.4 89.9,28.2C89.9,28.0 89.9,27.5 89.8,27.3C89.8,27.1 89.8,27.0 89.7,26.9C89.7,26.8 89.6,26.6 89.5,26.5C89.5,26.4 89.6,26.3 89.6,26.1C89.6,25.9 89.6,25.4 89.6,25.2" fill="none" stroke="#fbbf24" stroke-width="0.6" stroke-linecap="round" stroke-linejoin="round" opacity="0.7"/>
  <path d="M96.4,29.7C96.3,29.5 96.0,29.0 95.9,28.8C95.8,28.7 95.8,29.0 95.6,28.9C95.5,28.7 95.3,28.3 95.1,28.1C94.9,27.9 94.8,27.9 94.6,27.7C94.5,27.5 94.2,27.1 94.1,26.9C93.9,26.7 93.8,26.6 93.7,26.5" fill="none" stroke="#fbbf24" stroke-width="0.6" stroke-linecap="round" stroke-linejoin="round" opacity="0.7"/>
  <path d="M95.1,70.2C95.1,70.0 95.1,69.5 95.1,69.3C95.1,69.1 95.1,68.9 95.1,68.9C95.1,68.8 95.2,69.0 95.2,68.9C95.2,68.7 95.1,68.3 95.1,68.0C95.1,67.7 95.1,67.4 95.0,67.2C95.0,66.9 95.0,66.9 94.9,66.7C94.9,66.6 94.8,66.5 94.8,66.3C94.7,66.1 94.6,65.6 94.6,65.5" fill="none" stroke="#fbbf24" stroke-width="0.6" stroke-linecap="round" stroke-linejoin="round" opacity="0.7"/>
  <path d="M82.4,39.7C82.3,39.6 82.4,39.4 82.3,39.3C82.3,39.1 82.2,39.1 82.1,38.9C82.0,38.7 81.8,38.3 81.7,38.1C81.5,37.8 81.2,37.5 81.1,37.3C80.9,37.1 80.8,37.0 80.7,36.9C80.6,36.7 80.6,37.3 80.4,36.5C80.2,35.6 79.8,32.8 79.6,31.8C79.4,30.9 79.4,31.2 79.3,31.0C79.3,30.8 79.3,30.7 79.3,30.6C79.3,30.4 79.3,30.3 79.3,30.2C79.3,30.0 79.3,29.9 79.3,29.7C79.2,29.5 79.1,29.0 79.0,28.9" fill="none" stroke="#fbbf24" stroke-width="0.6" stroke-linecap="round" stroke-linejoin="round" opacity="0.7"/>
  <path d="M99.4,42.2C99.5,42.3 99.7,42.5 99.8,42.6C100.0,42.7 100.2,42.8 100.3,43.0C100.5,43.2 100.7,43.7 100.8,43.8C100.9,43.9 101.0,43.6 101.1,43.8C101.3,43.9 101.5,44.3 101.7,44.6C101.8,44.8 101.9,45.3 101.9,45.4" fill="none" stroke="#fbbf24" stroke-width="0.6" stroke-linecap="round" stroke-linejoin="round" opacity="0.7"/>
  <path d="M90.1,26.9C90.2,26.9 90.6,26.8 90.9,26.8C91.1,26.8 91.5,26.7 91.7,26.7C92.0,26.7 92.3,26.6 92.5,26.6C92.8,26.6 93.0,26.6 93.3,26.5C93.5,26.5 93.9,26.5 94.2,26.4C94.4,26.4 94.7,26.3 94.9,26.4C95.2,26.4 95.6,26.7 95.8,26.7C96.1,26.7 96.4,26.6 96.6,26.6C96.9,26.6 97.1,26.6 97.4,26.5C97.6,26.5 97.9,26.5 98.2,26.5C98.4,26.4 98.8,26.4 99.0,26.4" fill="none" stroke="#fbbf24" stroke-width="0.6" stroke-linecap="round" stroke-linejoin="round" opacity="0.7"/>
  <path d="M75.1,39.2C75.0,39.0 74.9,38.6 74.8,38.4C74.7,38.2 74.7,38.1 74.6,37.9C74.6,37.8 74.6,37.7 74.5,37.5C74.4,37.4 74.3,37.3 74.2,37.1C74.1,36.9 74.0,36.6 73.9,36.3C73.8,36.0 73.6,35.6 73.5,35.5" fill="none" stroke="#fbbf24" stroke-width="0.6" stroke-linecap="round" stroke-linejoin="round" opacity="0.7"/>
  <circle cx="68.3" cy="48.9" r="3.5" fill="#0c0c0c" stroke="#ef4444" stroke-width="0.4" opacity="0.95"/>
  <text x="68.3" y="50.1" text-anchor="middle" font-family="sans-serif" font-size="3.5" font-weight="700" fill="#ffffff" opacity="0.95">OR</text>
</svg>