<svg xmlns="http://www.w3.org/2000/svg" viewBox="0 0 102.27040591422573 107.44489710580129" preserveAspectRatio="none">
  <path d="M78.7,68.6C78.7,68.9 78.6,69.2 78.6,69.5C78.5,69.8 78.5,69.6 78.4,69.9C78.3,70.2 78.3,70.3 78.2,70.7C78.1,71.2 78.1,71.3 78.1,71.6C78.1,71.9 78.0,71.8 78.1,72.0C78.1,72.2 78.1,72.1 78.1,72.4C78.1,72.8 77.9,72.9 77.9,73.3C77.8,73.7 77.8,73.8 77.8,74.1C77.8,74.5 77.9,74.3 77.9,74.6C77.9,74.9 77.9,75.0 77.9,75.4C77.9,75.9 77.9,76.0 77.9,76.3C77.9,76.6 77.9,76.4 77.9,76.7C77.8,77.0 77.7,77.1 77.7,77.6C77.7,78.0 77.8,78.1 77.8,78.4C77.9,78.8 77.9,78.5 77.9,78.9C77.9,79.2 77.7,79.4 77.8,79.7C77.8,80.0 77.9,79.8 78.0,80.2C78.0,80.5 78.0,80.8 78.0,81.0" fill="none" stroke="#ef4444" stroke-width="0.8" stroke-linecap="round" stroke-linejoin="round" opacity="0.9"/>
  <path d="M38.2,77.3C38.4,77.4 38.6,77.4 38.8,77.8C39.0,78.1 38.9,78.3 39.1,78.7C39.3,79.0 39.4,79.0 39.7,79.2C40.0,79.3 40.1,79.0 40.3,79.2C40.5,79.4 40.3,79.8 40.5,80.1C40.7,80.4 40.7,80.2 40.9,80.6C41.1,80.9 41.1,81.1 41.3,81.5C41.5,81.8 41.5,81.7 41.7,81.9C41.9,82.2 42.0,82.1 42.2,82.4C42.4,82.8 42.4,83.0 42.6,83.3C42.8,83.7 42.8,83.6 43.0,83.8C43.2,84.0 43.2,83.9 43.4,84.3C43.6,84.6 43.7,84.9 43.8,85.2" fill="none" stroke="#ef4444" stroke-width="0.8" stroke-linecap="round" stroke-linejoin="round" opacity="0.9"/>
  <path d="M68.1,43.9C68.3,43.9 68.5,44.1 68.9,44.0C69.3,43.9 69.3,43.8 69.7,43.7C70.2,43.5 70.2,43.6 70.6,43.3C71.0,43.0 71.0,42.8 71.5,42.5C71.9,42.3 72.1,42.3 72.4,42.2" fill="none" stroke="#ef4444" stroke-width="0.8" stroke-linecap="round" stroke-linejoin="round" opacity="0.9"/>
  <path d="M70.7,79.0C70.7,79.1 70.8,79.1 70.9,79.4C70.9,79.7 70.9,80.0 71.0,80.3C71.0,80.6 71.1,80.4 71.1,80.7C71.1,81.1 71.1,81.2 71.0,81.6C71.0,82.0 70.9,82.2 70.9,82.4C70.9,82.6 71.0,82.2 71.0,82.4C71.0,82.7 71.0,82.9 70.9,83.3C70.8,83.7 70.8,83.8 70.7,84.1C70.7,84.4 70.7,84.2 70.6,84.5C70.5,84.9 70.5,85.0 70.3,85.4C70.1,85.8 70.1,85.9 70.0,86.2C69.9,86.5 70.1,86.3 70.0,86.6C70.0,87.0 70.0,87.1 69.9,87.5C69.8,87.9 69.7,87.9 69.6,88.3C69.5,88.7 69.4,88.8 69.4,89.1C69.4,89.5 69.5,89.5 69.5,89.6" fill="none" stroke="#ef4444" stroke-width="0.8" stroke-linecap="round" stroke-linejoin="round" opacity="0.9"/>
  <path d="M36.1,96.8C36.2,96.9 36.2,96.9 36.2,97.3C36.3,97.6 36.2,97.8 36.3,98.1C36.3,98.5 36.4,98.4 36.5,98.6C36.5,98.8 36.5,98.7 36.5,99.0C36.5,99.3 36.5,99.4 36.5,99.9C36.5,100.3 36.5,100.5 36.5,100.7" fill="none" stroke="#ef4444" stroke-width="0.8" stroke-linecap="round" stroke-linejoin="round" opacity="0.9"/>
  <path d="M30.5,73.5C30.4,73.6 30.4,73.6 30.1,73.9C29.8,74.1 29.8,74.2 29.5,74.6C29.2,75.0 29.1,75.1 28.8,75.4C28.6,75.7 28.6,75.6 28.3,75.8C28.1,76.0 28.1,75.9 27.8,76.2C27.6,76.5 27.6,76.6 27.3,77.0C27.1,77.4 27.1,77.4 26.8,77.8C26.4,78.2 26.3,78.2 25.9,78.6C25.6,79.0 25.6,79.1 25.4,79.4C25.3,79.7 25.3,79.5 25.2,79.8C25.0,80.1 24.9,80.2 24.7,80.6C24.5,81.0 24.5,81.1 24.3,81.4C24.1,81.7 24.2,81.5 24.1,81.8C23.9,82.1 23.9,82.3 23.7,82.6C23.6,82.9 23.7,82.7 23.6,83.0C23.5,83.4 23.4,83.7 23.3,83.9" fill="none" stroke="#ef4444" stroke-width="0.8" stroke-linecap="round" stroke-linejoin="round" opacity="0.9"/>
  <path d="M80.4,61.5C80.4,61.6 80.4,61.6 80.4,62.0C80.4,62.3 80.4,62.5 80.3,62.8C80.3,63.1 80.3,63.0 80.3,63.2C80.3,63.4 80.3,63.3 80.3,63.7C80.2,64.0 80.2,64.2 80.1,64.5C80.0,64.8 80.0,64.7 80.0,64.9C79.9,65.1 80.0,65.0 79.8,65.3C79.7,65.6 79.6,65.7 79.4,66.1C79.3,66.6 79.3,66.7 79.2,67.0C79.1,67.3 79.2,67.2 79.1,67.4C79.0,67.6 79.0,67.7 78.9,67.8" fill="none" stroke="#fbbf24" stroke-width="0.6" stroke-linecap="round" stroke-linejoin="round" opacity="0.7"/>
  <path d="M78.0,81.0C78.0,81.1 78.1,81.3 78.1,81.5C78.2,81.7 78.2,81.6 78.2,81.9C78.2,82.2 78.1,82.4 78.1,82.8C78.0,83.1 78.1,83.0 78.0,83.2C78.0,83.4 77.9,83.3 77.9,83.6C77.8,83.9 77.8,84.0 77.8,84.4C77.7,84.9 77.7,85.0 77.7,85.3C77.6,85.6 77.6,85.4 77.5,85.7C77.3,86.0 77.4,86.1 77.2,86.5C77.1,86.9 76.9,87.1 76.8,87.3C76.6,87.5 76.7,87.1 76.6,87.3C76.5,87.5 76.5,87.7 76.4,88.2C76.3,88.6 76.3,88.7 76.1,89.0C75.9,89.3 75.8,89.2 75.6,89.4C75.4,89.6 75.4,89.6 75.2,89.8C75.0,89.9 75.0,89.8 74.8,90.1C74.7,90.4 74.6,90.7 74.5,91.0C74.3,91.3 74.3,91.2 74.2,91.4C74.0,91.6 74.0,91.6 73.9,91.8C73.7,92.0 73.8,91.9 73.6,92.2C73.4,92.5 73.3,92.7 73.1,93.0C73.0,93.3 73.1,93.3 73.1,93.4" fill="none" stroke="#fbbf24" stroke-width="0.6" stroke-linecap="round" stroke-linejoin="round" opacity="0.7"/>
  <path d="M39.4,72.7C39.6,72.7 39.8,72.8 40.2,72.8C40.7,72.7 40.7,72.5 41.2,72.4C41.6,72.4 41.6,72.5 42.1,72.5C42.5,72.6 42.4,72.6 42.8,72.6C43.3,72.7 43.4,72.7 43.9,72.7C44.4,72.8 44.3,72.8 44.8,72.8C45.3,72.9 45.3,72.9 45.7,72.9C46.2,73.0 46.2,73.0 46.7,73.0C47.1,73.1 47.1,73.1 47.5,73.1C48.0,73.2 48.0,73.3 48.5,73.2C49.0,73.1 49.0,72.9 49.5,72.9C50.0,72.8 49.9,73.0 50.4,73.0C50.9,72.9 51.0,72.7 51.5,72.7C52.0,72.6 51.8,72.7 52.2,72.7C52.6,72.8 52.7,72.9 53.1,72.8C53.6,72.8 53.6,72.7 54.1,72.5C54.5,72.3 54.4,72.3 54.9,72.2C55.3,72.0 55.4,71.9 55.8,71.8C56.2,71.8 56.2,71.9 56.5,71.9C56.8,71.9 56.7,72.0 57.1,72.0C57.4,71.9 57.5,71.8 57.9,71.6C58.3,71.4 58.4,71.3 58.6,71.3" fill="none" stroke="#fbbf24" stroke-width="0.6" stroke-linecap="round" stroke-linejoin="round" opacity="0.7"/>
  <path d="M19.0,99.7C18.8,99.7 18.6,99.6 18.2,99.7C17.7,99.7 17.7,99.8 17.3,100.0C16.9,100.2 16.9,100.2 16.4,100.3C16.0,100.5 15.9,100.6 15.4,100.7C15.0,100.7 15.1,100.5 14.7,100.6C14.3,100.6 14.3,100.9 13.8,100.9C13.4,101.0 13.5,100.7 13.0,100.8C12.6,101.0 12.5,101.4 12.1,101.6C11.6,101.8 11.7,101.4 11.3,101.5C10.8,101.6 10.8,101.7 10.3,101.8C9.8,102.0 9.8,102.0 9.4,102.2C8.9,102.3 9.0,102.4 8.6,102.5C8.3,102.6 8.3,102.4 8.0,102.5C7.6,102.5 7.4,102.7 7.3,102.8" fill="none" stroke="#fbbf24" stroke-width="0.6" stroke-linecap="round" stroke-linejoin="round" opacity="0.7"/>
  <path d="M33.5,71.6C33.6,71.9 33.6,72.2 33.7,72.5C33.9,72.9 33.9,72.7 34.0,73.0C34.2,73.2 34.3,73.2 34.5,73.5C34.7,73.7 34.7,73.7 35.0,73.9C35.2,74.2 35.2,74.1 35.5,74.4C35.7,74.8 35.7,75.0 35.9,75.3C36.2,75.7 36.2,75.6 36.5,75.8C36.8,76.1 36.9,76.1 37.2,76.3C37.5,76.6 37.6,76.7 37.7,76.8" fill="none" stroke="#fbbf24" stroke-width="0.6" stroke-linecap="round" stroke-linejoin="round" opacity="0.7"/>
  <path d="M43.8,85.2C43.9,85.3 44.0,85.4 44.1,85.6C44.2,85.9 44.1,85.8 44.2,86.1C44.3,86.3 44.4,86.3 44.6,86.5C44.7,86.8 44.8,86.7 44.9,87.0C45.0,87.3 44.9,87.5 45.0,87.9C45.2,88.2 45.2,88.1 45.3,88.3C45.5,88.6 45.5,88.7 45.6,88.8" fill="none" stroke="#fbbf24" stroke-width="0.6" stroke-linecap="round" stroke-linejoin="round" opacity="0.7"/>
  <path d="M68.2,86.4C68.3,86.6 68.4,86.6 68.6,86.9C68.7,87.2 68.6,87.5 68.8,87.8C68.9,88.1 69.0,88.0 69.1,88.3C69.3,88.5 69.2,88.5 69.3,88.7C69.5,88.9 69.5,88.9 69.6,89.2C69.8,89.4 69.8,89.4 70.0,89.6C70.2,89.9 70.2,89.9 70.4,90.1C70.6,90.3 70.6,90.5 70.7,90.6" fill="none" stroke="#fbbf24" stroke-width="0.6" stroke-linecap="round" stroke-linejoin="round" opacity="0.7"/>
  <path d="M43.4,77.8C43.6,77.7 43.9,77.6 44.3,77.5C44.7,77.4 44.6,77.5 45.0,77.6C45.4,77.6 45.4,77.6 45.8,77.6C46.2,77.7 46.3,77.7 46.7,77.7C47.1,77.8 47.0,77.9 47.4,77.8C47.8,77.8 47.9,77.5 48.4,77.5C48.8,77.4 48.8,77.6 49.2,77.6C49.6,77.5 49.6,77.3 50.1,77.2C50.5,77.2 50.5,77.4 50.9,77.3C51.3,77.3 51.4,77.1 51.8,77.0C52.2,76.9 52.2,77.1 52.6,77.1C53.0,77.0 53.1,76.8 53.5,76.7C54.0,76.7 53.9,76.9 54.4,76.8C54.8,76.8 54.9,76.7 55.4,76.5C55.9,76.3 55.9,76.2 56.4,76.2C56.9,76.1 56.9,76.2 57.3,76.3C57.7,76.3 57.8,76.3 58.2,76.4C58.7,76.4 58.6,76.5 59.1,76.5C59.5,76.4 59.5,76.2 60.0,76.1C60.5,76.1 60.5,76.3 60.9,76.2C61.4,76.2 61.3,76.1 61.8,75.9C62.3,75.7 62.3,75.7 62.8,75.6C63.3,75.4 63.4,75.4 63.8,75.2C64.2,75.1 64.2,75.1 64.5,74.9C64.9,74.7 64.9,74.6 65.3,74.5C65.7,74.5 65.8,74.6 66.0,74.6" fill="none" stroke="#fbbf24" stroke-width="0.6" stroke-linecap="round" stroke-linejoin="round" opacity="0.7"/>
  <path d="M59.6,46.5C59.8,46.4 60.1,46.2 60.5,46.1C60.9,46.1 60.8,46.3 61.2,46.2C61.7,46.1 61.7,45.9 62.1,45.9C62.5,45.8 62.4,46.0 62.8,45.9C63.2,45.9 63.3,45.8 63.7,45.6C64.2,45.4 64.2,45.4 64.7,45.3C65.1,45.1 65.0,45.1 65.4,44.9C65.9,44.7 65.9,44.8 66.4,44.6C66.8,44.4 65.7,44.8 67.2,44.2C68.7,43.7 70.9,42.7 72.4,42.2C73.8,41.7 72.6,42.5 72.9,42.3C73.3,42.1 73.4,41.8 73.7,41.5C74.0,41.2 73.9,41.4 74.2,41.1C74.5,40.8 74.5,40.5 74.8,40.3C75.1,40.1 75.2,40.4 75.3,40.4" fill="none" stroke="#fbbf24" stroke-width="0.6" stroke-linecap="round" stroke-linejoin="round" opacity="0.7"/>
  <path d="M54.7,98.8C54.9,98.8 55.0,98.7 55.3,98.8C55.6,99.0 55.6,99.1 55.9,99.3C56.3,99.6 56.3,99.6 56.6,99.8C57.0,100.1 56.9,100.2 57.3,100.3C57.7,100.5 57.8,100.3 58.1,100.4C58.5,100.6 58.5,100.7 58.8,100.9C59.2,101.2 59.2,101.3 59.6,101.4C60.0,101.6 60.0,101.5 60.4,101.5C60.9,101.6 60.9,101.6 61.3,101.6C61.8,101.7 61.8,101.7 62.2,101.7C62.7,101.8 62.7,101.8 63.2,101.8C63.6,101.8 63.5,101.8 63.9,101.9C64.4,101.9 64.4,101.9 64.8,102.0C65.2,102.0 65.2,102.0 65.6,102.1C66.0,102.1 66.1,102.1 66.3,102.1" fill="none" stroke="#fbbf24" stroke-width="0.6" stroke-linecap="round" stroke-linejoin="round" opacity="0.7"/>
  <path d="M58.9,71.7C58.9,71.5 58.9,71.2 58.7,70.8C58.6,70.5 58.5,70.6 58.3,70.4C58.1,70.1 58.1,70.0 57.8,69.9C57.6,69.8 57.5,70.0 57.3,69.8C57.1,69.7 57.1,69.6 56.8,69.4C56.6,69.1 56.5,69.0 56.3,68.9" fill="none" stroke="#fbbf24" stroke-width="0.6" stroke-linecap="round" stroke-linejoin="round" opacity="0.7"/>
  <path d="M41.5,72.0C41.5,72.2 41.6,72.3 41.7,72.5C41.8,72.7 41.8,72.7 42.0,72.9C42.1,73.2 42.1,73.1 42.3,73.4C42.4,73.8 42.4,74.0 42.6,74.3C42.8,74.6 42.7,74.5 42.9,74.8C43.1,75.0 43.1,75.0 43.4,75.2C43.6,75.5 43.6,75.5 43.9,75.7C44.1,76.0 44.2,76.0 44.4,76.2C44.6,76.5 44.6,76.5 44.8,76.7C45.0,76.9 45.1,77.0 45.2,77.2" fill="none" stroke="#fbbf24" stroke-width="0.6" stroke-linecap="round" stroke-linejoin="round" opacity="0.7"/>
  <path d="M72.0,83.8C72.2,83.9 72.4,84.0 72.8,83.9C73.2,83.9 73.3,83.6 73.6,83.6C74.0,83.5 74.0,83.7 74.3,83.7C74.7,83.6 74.8,83.5 75.2,83.3C75.6,83.1 75.5,83.0 76.0,83.0C76.4,82.9 76.4,83.0 76.8,83.1C77.3,83.1 77.2,83.2 77.6,83.1C78.0,83.1 78.1,83.0 78.5,82.8C79.0,82.6 79.0,82.5 79.4,82.5C79.8,82.4 79.7,82.6 80.1,82.5C80.4,82.5 80.7,82.3 80.9,82.2" fill="none" stroke="#fbbf24" stroke-width="0.6" stroke-linecap="round" stroke-linejoin="round" opacity="0.7"/>
  <path d="M45.0,77.6C45.0,77.6 45.2,77.5 45.3,77.6C45.5,77.7 45.5,77.7 45.6,78.1C45.7,78.4 45.7,78.6 45.7,78.9C45.8,79.3 45.7,79.1 45.9,79.4C46.0,79.6 46.0,79.6 46.2,79.8C46.3,80.1 46.4,80.0 46.5,80.3C46.6,80.6 46.5,80.8 46.6,81.2C46.7,81.5 46.8,81.4 46.9,81.6C47.0,81.9 47.0,81.7 47.1,82.1C47.2,82.4 47.2,82.6 47.3,83.0C47.5,83.3 47.5,83.2 47.7,83.4C47.8,83.7 47.9,83.7 48.0,83.9C48.2,84.1 48.2,84.1 48.3,84.4C48.4,84.6 48.4,84.6 48.5,84.8C48.6,85.0 48.5,84.9 48.6,85.2C48.7,85.6 48.6,85.8 48.8,86.1C49.0,86.5 49.1,86.4 49.3,86.6C49.5,86.8 49.5,86.8 49.7,87.1C49.9,87.3 50.0,87.4 50.1,87.5" fill="none" stroke="#fbbf24" stroke-width="0.6" stroke-linecap="round" stroke-linejoin="round" opacity="0.7"/>
  <path d="M67.4,69.6C67.5,69.7 67.6,69.7 67.8,70.1C67.9,70.4 67.9,70.6 68.1,71.0C68.2,71.3 68.3,71.1 68.5,71.4C68.7,71.8 68.7,71.9 68.8,72.3C68.9,72.8 68.8,73.0 69.0,73.2C69.1,73.4 69.2,73.0 69.3,73.2C69.4,73.5 69.4,73.8 69.5,74.1C69.6,74.5 69.7,74.2 69.7,74.6C69.8,74.9 69.6,75.1 69.7,75.4C69.7,75.8 69.8,75.5 69.9,75.9C69.9,76.2 69.9,76.4 69.9,76.7C70.0,77.0 70.0,76.9 70.1,77.1C70.1,77.2 70.1,77.2 70.2,77.4C70.3,77.7 70.4,77.9 70.4,78.1" fill="none" stroke="#fbbf24" stroke-width="0.6" stroke-linecap="round" stroke-linejoin="round" opacity="0.7"/>
  <path d="M46.1,99.2C45.9,99.2 45.6,99.4 45.2,99.5C44.8,99.6 44.9,99.5 44.5,99.4C44.1,99.4 44.1,99.3 43.6,99.3C43.2,99.4 43.1,99.6 42.7,99.7C42.3,99.7 42.4,99.6 42.0,99.6C41.6,99.5 41.6,99.5 41.1,99.5C40.7,99.4 40.7,99.4 40.3,99.4C40.0,99.4 40.1,99.4 39.6,99.3C39.2,99.3 39.1,99.3 38.7,99.2C38.2,99.2 38.3,99.2 37.9,99.1C37.5,99.1 37.5,99.1 37.1,99.1C36.7,99.0 36.6,99.0 36.2,99.0C35.8,98.9 35.6,98.9 35.4,98.9" fill="none" stroke="#fbbf24" stroke-width="0.6" stroke-linecap="round" stroke-linejoin="round" opacity="0.7"/>
  <path d="M34.7,90.7C34.8,90.9 34.8,91.2 34.9,91.5C35.0,91.9 34.9,91.8 35.0,92.0C35.2,92.2 35.2,92.2 35.4,92.4C35.5,92.7 35.5,92.6 35.6,92.9C35.7,93.2 35.7,93.4 35.7,93.8C35.8,94.1 35.8,94.0 35.8,94.2C35.9,94.4 35.8,94.3 35.9,94.6C36.0,95.0 36.0,95.2 36.1,95.5C36.2,95.9 36.2,95.9 36.2,96.0" fill="none" stroke="#fbbf24" stroke-width="0.6" stroke-linecap="round" stroke-linejoin="round" opacity="0.7"/>
  <path d="M54.9,65.3C54.6,65.4 54.3,65.6 53.9,65.6C53.5,65.7 53.7,65.5 53.3,65.5C52.9,65.6 52.8,65.8 52.3,65.9C51.9,65.9 51.9,65.8 51.6,65.8C51.2,65.8 51.2,65.7 50.9,65.7C50.5,65.8 50.2,66.0 50.0,66.1" fill="none" stroke="#fbbf24" stroke-width="0.6" stroke-linecap="round" stroke-linejoin="round" opacity="0.7"/>
  <path d="M52.2,58.6C52.0,58.6 51.8,58.7 51.5,58.9C51.2,59.1 51.2,59.1 50.9,59.3C50.6,59.5 50.6,59.5 50.2,59.6C49.9,59.8 49.8,59.9 49.5,60.0C49.2,60.1 49.3,59.9 49.0,59.9C48.7,60.0 48.7,60.1 48.3,60.3C48.0,60.5 48.0,60.5 47.6,60.7C47.3,60.8 47.3,60.7 47.0,61.0C46.6,61.3 46.5,61.6 46.1,61.8C45.8,62.0 45.9,61.7 45.6,61.7C45.3,61.8 45.2,61.9 44.9,62.1C44.6,62.3 44.9,62.1 44.2,62.5C43.6,62.8 43.0,63.2 42.3,63.5C41.7,63.9 42.1,63.7 41.8,63.9C41.5,64.1 41.6,64.0 41.2,64.3C40.9,64.6 40.8,64.8 40.5,65.1C40.2,65.4 40.2,65.3 40.0,65.4C39.7,65.6 39.7,65.7 39.4,65.8C39.2,65.9 39.2,65.6 39.0,65.8C38.7,66.0 38.7,66.3 38.4,66.6C38.1,66.9 38.1,66.7 37.9,66.9C37.6,67.1 37.6,67.1 37.4,67.3C37.1,67.5 37.1,67.5 36.8,67.7C36.6,67.9 36.6,67.8 36.3,68.1C36.1,68.4 36.1,68.6 35.8,68.9C35.5,69.2 35.5,69.1 35.3,69.2C35.0,69.4 35.0,69.4 34.7,69.6C34.5,69.8 34.5,69.8 34.3,70.0C34.1,70.2 34.1,70.1 33.9,70.4C33.6,70.7 33.6,70.9 33.3,71.2C33.0,71.5 33.1,71.4 32.9,71.6C32.6,71.8 32.6,71.6 32.3,71.9C32.0,72.2 31.9,72.4 31.6,72.7C31.3,73.0 31.2,73.0 31.0,73.1" fill="none" stroke="#fbbf24" stroke-width="0.6" stroke-linecap="round" stroke-linejoin="round" opacity="0.7"/>
  <path d="M23.3,83.9C23.3,84.0 23.2,84.0 23.1,84.3C23.1,84.6 23.1,84.7 23.0,85.1C23.0,85.6 23.0,85.7 23.0,86.0C23.0,86.3 23.1,86.2 23.0,86.4C23.0,86.6 23.0,86.5 22.9,86.8C22.8,87.2 22.8,87.3 22.8,87.7C22.8,88.1 22.8,88.3 22.8,88.5C22.9,88.8 22.9,88.3 23.0,88.6C23.0,88.8 23.0,89.1 23.0,89.4C23.0,89.8 23.0,89.5 22.9,89.8C22.9,90.2 22.8,90.4 22.8,90.7C22.7,91.0 22.7,90.9 22.7,91.1C22.7,91.3 22.7,91.2 22.6,91.5C22.6,91.8 22.5,92.1 22.5,92.4C22.5,92.7 22.5,92.6 22.6,92.8C22.6,93.0 22.6,93.1 22.6,93.2" fill="none" stroke="#fbbf24" stroke-width="0.6" stroke-linecap="round" stroke-linejoin="round" opacity="0.7"/>
  <path d="M28.2,92.5C28.3,92.8 28.3,93.2 28.5,93.4C28.7,93.7 28.8,93.4 29.0,93.5C29.2,93.6 29.2,93.7 29.5,94.0C29.7,94.2 29.8,94.2 30.0,94.5C30.2,94.7 30.1,94.7 30.3,94.9C30.5,95.2 30.5,95.2 30.8,95.4C31.0,95.6 31.0,95.6 31.3,95.9C31.6,96.1 31.5,96.2 31.9,96.4C32.2,96.5 32.2,96.4 32.6,96.4C32.9,96.5 33.0,96.4 33.3,96.5C33.6,96.7 33.6,96.8 33.9,97.0C34.2,97.3 34.2,97.3 34.6,97.5C35.0,97.8 35.0,97.9 35.4,98.0C35.8,98.2 35.8,98.0 36.2,98.1C36.6,98.3 36.6,98.4 37.0,98.6C37.4,98.9 37.4,99.0 37.7,99.1C38.1,99.3 38.0,99.2 38.4,99.2C38.7,99.2 38.8,99.1 39.2,99.3C39.5,99.4 39.5,99.6 39.9,99.8C40.2,99.9 40.3,99.8 40.7,99.9C41.1,99.9 41.1,99.8 41.5,100.0C41.9,100.1 41.8,100.3 42.1,100.5C42.5,100.6 42.5,100.5 42.9,100.5C43.2,100.6 43.5,100.6 43.7,100.6" fill="none" stroke="#fbbf24" stroke-width="0.6" stroke-linecap="round" stroke-linejoin="round" opacity="0.7"/>
  <path d="M26.3,73.0C26.2,73.0 26.1,72.8 25.9,73.0C25.7,73.2 25.7,73.4 25.4,73.8C25.2,74.2 25.3,74.3 25.1,74.6C24.9,74.9 24.9,74.8 24.7,75.0C24.6,75.2 24.5,75.3 24.5,75.4" fill="none" stroke="#fbbf24" stroke-width="0.6" stroke-linecap="round" stroke-linejoin="round" opacity="0.7"/>
  <path d="M49.4,84.0C49.2,84.1 49.0,84.3 48.7,84.4C48.3,84.5 48.4,84.4 48.1,84.3C47.8,84.3 47.7,84.2 47.4,84.3C47.0,84.3 47.0,84.4 46.6,84.6C46.2,84.8 46.2,84.8 45.8,85.0C45.4,85.1 45.4,85.1 45.1,85.3C44.7,85.5 44.7,85.5 44.4,85.7C44.0,85.8 44.1,85.8 43.7,86.0C43.4,86.2 43.3,86.3 43.0,86.4C42.6,86.4 42.7,86.2 42.3,86.3C42.0,86.4 41.9,86.5 41.5,86.6C41.1,86.8 41.1,86.8 40.7,87.0C40.3,87.2 40.2,87.3 39.8,87.3C39.4,87.4 39.5,87.2 39.1,87.2C38.7,87.3 38.6,87.5 38.2,87.6C37.8,87.6 37.8,87.4 37.4,87.5C37.0,87.6 37.0,87.8 36.5,87.8C36.1,87.9 36.1,87.8 35.7,87.8C35.3,87.7 36.6,87.5 34.9,87.7C33.1,87.8 30.4,88.1 28.6,88.3C26.8,88.5 28.1,88.6 27.7,88.6C27.2,88.7 27.2,88.6 26.7,88.5C26.3,88.5 26.2,88.5 25.8,88.4C25.3,88.4 25.3,88.4 24.9,88.3C24.5,88.3 24.5,88.3 24.0,88.2C23.6,88.2 23.7,88.1 23.2,88.2C22.8,88.2 22.7,88.4 22.3,88.5C21.8,88.5 21.8,88.4 21.4,88.4C21.0,88.4 21.0,88.3 20.6,88.3C20.2,88.4 20.2,88.5 19.8,88.7C19.3,88.8 19.3,88.8 18.8,89.0C18.3,89.2 18.3,89.2 17.9,89.3C17.4,89.5 17.3,89.5 16.9,89.6C16.5,89.8 16.5,89.9 16.2,90.0C15.8,90.1 15.8,89.9 15.5,89.9C15.1,90.0 15.2,90.0 14.8,90.3C14.4,90.6 14.3,90.8 13.9,91.1C13.5,91.3 13.5,91.2 13.2,91.4C12.9,91.6 12.9,91.6 12.6,91.8C12.2,91.9 12.2,91.8 11.9,92.1C11.5,92.4 11.5,92.6 11.2,92.9C10.9,93.2 10.9,93.0 10.6,93.3C10.3,93.6 10.2,93.9 9.9,94.1C9.6,94.2 9.7,93.8 9.4,94.0C9.1,94.2 8.9,94.5 8.7,94.8C8.4,95.1 8.5,94.9 8.2,95.2C8.0,95.5 7.9,95.8 7.6,96.0C7.3,96.2 7.3,95.7 7.1,95.9C6.9,96.1 6.9,96.4 6.6,96.7C6.4,97.0 6.4,96.8 6.2,97.1C6.0,97.4 6.0,97.7 5.9,97.9C5.7,98.1 5.8,97.7 5.7,97.9C5.5,98.1 5.4,98.4 5.2,98.7C5.0,99.0 5.0,99.0 4.9,99.1" fill="none" stroke="#fbbf24" stroke-width="0.6" stroke-linecap="round" stroke-linejoin="round" opacity="0.7"/>
  <ellipse cx="52.9" cy="74.9" rx="3.5" ry="3.3" fill="#0c0c0c" stroke="#ef4444" stroke-width="0.4" opacity="0.95"/>
  <text x="52.9" y="76.1" text-anchor="middle" font-family="sans-serif" font-size="3.1" font-weight="700" fill="#ffffff" opacity="0.95">OR</text>
</svg>